<?xml version="1.0" encoding="UTF-8" standalone="no"?>
<!-- Created with Inkscape (http://www.inkscape.org/) -->

<svg
   version="1.1"
   id="svg2"
   width="511.44696"
   height="389.04022"
   viewBox="0 0 511.44696 389.04022"
   sodipodi:docname="2boyutluProblem.svg"
   inkscape:version="1.2.2 (1:1.2.2+202212051552+b0a8486541)"
   xmlns:inkscape="http://www.inkscape.org/namespaces/inkscape"
   xmlns:sodipodi="http://sodipodi.sourceforge.net/DTD/sodipodi-0.dtd"
   xmlns="http://www.w3.org/2000/svg"
   xmlns:svg="http://www.w3.org/2000/svg">
  <defs
     id="defs6">
    <marker
       style="overflow:visible"
       id="marker15637"
       refX="0"
       refY="0"
       orient="auto-start-reverse"
       inkscape:stockid="TriangleStart"
       markerWidth="5.3244081"
       markerHeight="6.155385"
       viewBox="0 0 5.3244081 6.1553851"
       inkscape:isstock="true"
       inkscape:collect="always"
       preserveAspectRatio="xMidYMid">
      <path
         transform="scale(0.5)"
         style="fill:context-stroke;fill-rule:evenodd;stroke:context-stroke;stroke-width:1pt"
         d="M 5.77,0 -2.88,5 V -5 Z"
         id="path15635" />
    </marker>
    <marker
       style="overflow:visible"
       id="TriangleStart"
       refX="0"
       refY="0"
       orient="auto-start-reverse"
       inkscape:stockid="TriangleStart"
       markerWidth="5.3244081"
       markerHeight="6.155385"
       viewBox="0 0 5.3244081 6.1553851"
       inkscape:isstock="true"
       inkscape:collect="always"
       preserveAspectRatio="xMidYMid">
      <path
         transform="scale(0.5)"
         style="fill:context-stroke;fill-rule:evenodd;stroke:context-stroke;stroke-width:1pt"
         d="M 5.77,0 -2.88,5 V -5 Z"
         id="path14729" />
    </marker>
    <clipPath
       clipPathUnits="userSpaceOnUse"
       id="clipPath48">
      <path
         d="m 355.578,84.789 h 4 v 7.703 h -4 z"
         id="path46" />
    </clipPath>
    <clipPath
       clipPathUnits="userSpaceOnUse"
       id="clipPath58">
      <path
         d="M 0,0 H 384 V 292 H 0 Z"
         id="path56" />
    </clipPath>
    <clipPath
       clipPathUnits="userSpaceOnUse"
       id="clipPath70">
      <path
         d="m 107.738,87.898 h 5.852 v 7.703 h -5.852 z"
         id="path68" />
    </clipPath>
    <clipPath
       clipPathUnits="userSpaceOnUse"
       id="clipPath80">
      <path
         d="M 0,0 H 384 V 292 H 0 Z"
         id="path78" />
    </clipPath>
    <clipPath
       clipPathUnits="userSpaceOnUse"
       id="clipPath92">
      <path
         d="m 108.434,250.824 h 5.852 v 7.703 h -5.852 z"
         id="path90" />
    </clipPath>
    <clipPath
       clipPathUnits="userSpaceOnUse"
       id="clipPath102">
      <path
         d="M 0,0 H 384 V 292 H 0 Z"
         id="path100" />
    </clipPath>
    <clipPath
       clipPathUnits="userSpaceOnUse"
       id="clipPath114">
      <path
         d="m 354.758,250.219 h 5.852 v 7.703 h -5.852 z"
         id="path112" />
    </clipPath>
    <clipPath
       clipPathUnits="userSpaceOnUse"
       id="clipPath124">
      <path
         d="M 0,0 H 384 V 292 H 0 Z"
         id="path122" />
    </clipPath>
    <clipPath
       clipPathUnits="userSpaceOnUse"
       id="clipPath140">
      <path
         d="m 225.414,149.043 h 6 v 7.473 h -6 z"
         id="path138" />
    </clipPath>
    <clipPath
       clipPathUnits="userSpaceOnUse"
       id="clipPath150">
      <path
         d="M 0,0 H 384 V 292 H 0 Z"
         id="path148" />
    </clipPath>
    <clipPath
       clipPathUnits="userSpaceOnUse"
       id="clipPath162">
      <path
         d="m 207.926,2.227 h 3 V 14.18 h -3 z"
         id="path160" />
    </clipPath>
    <clipPath
       clipPathUnits="userSpaceOnUse"
       id="clipPath172">
      <path
         d="M 0,0 H 384 V 292 H 0 Z"
         id="path170" />
    </clipPath>
    <clipPath
       clipPathUnits="userSpaceOnUse"
       id="clipPath192">
      <path
         d="m 238.926,2.227 h 4 V 14.18 h -4 z"
         id="path190" />
    </clipPath>
    <clipPath
       clipPathUnits="userSpaceOnUse"
       id="clipPath202">
      <path
         d="M 0,0 H 384 V 292 H 0 Z"
         id="path200" />
    </clipPath>
    <clipPath
       clipPathUnits="userSpaceOnUse"
       id="clipPath214">
      <path
         d="m 243.926,2.227 h 5 V 14.18 h -5 z"
         id="path212" />
    </clipPath>
    <clipPath
       clipPathUnits="userSpaceOnUse"
       id="clipPath224">
      <path
         d="M 0,0 H 384 V 292 H 0 Z"
         id="path222" />
    </clipPath>
    <clipPath
       clipPathUnits="userSpaceOnUse"
       id="clipPath240">
      <path
         d="m 254.926,5.227 h 6.363 v 7 h -6.363 z"
         id="path238" />
    </clipPath>
    <clipPath
       clipPathUnits="userSpaceOnUse"
       id="clipPath250">
      <path
         d="M 0,0 H 384 V 292 H 0 Z"
         id="path248" />
    </clipPath>
    <clipPath
       clipPathUnits="userSpaceOnUse"
       id="clipPath262">
      <path
         d="m 0,178.195 h 2.828 v 11.953 H 0 Z"
         id="path260" />
    </clipPath>
    <clipPath
       clipPathUnits="userSpaceOnUse"
       id="clipPath272">
      <path
         d="M 0,0 H 384 V 292 H 0 Z"
         id="path270" />
    </clipPath>
    <clipPath
       clipPathUnits="userSpaceOnUse"
       id="clipPath290">
      <path
         d="m 22.828,181.195 h 6 v 8.953 h -6 z"
         id="path288" />
    </clipPath>
    <clipPath
       clipPathUnits="userSpaceOnUse"
       id="clipPath300">
      <path
         d="M 0,0 H 384 V 292 H 0 Z"
         id="path298" />
    </clipPath>
    <clipPath
       clipPathUnits="userSpaceOnUse"
       id="clipPath312">
      <path
         d="m 28.828,178.195 h 4 v 11.953 h -4 z"
         id="path310" />
    </clipPath>
    <clipPath
       clipPathUnits="userSpaceOnUse"
       id="clipPath322">
      <path
         d="M 0,0 H 384 V 292 H 0 Z"
         id="path320" />
    </clipPath>
    <clipPath
       clipPathUnits="userSpaceOnUse"
       id="clipPath334">
      <path
         d="m 33.828,178.195 h 5 v 11.953 h -5 z"
         id="path332" />
    </clipPath>
    <clipPath
       clipPathUnits="userSpaceOnUse"
       id="clipPath344">
      <path
         d="M 0,0 H 384 V 292 H 0 Z"
         id="path342" />
    </clipPath>
    <clipPath
       clipPathUnits="userSpaceOnUse"
       id="clipPath360">
      <path
         d="m 44.828,178.195 h 5.32 v 10 h -5.32 z"
         id="path358" />
    </clipPath>
    <clipPath
       clipPathUnits="userSpaceOnUse"
       id="clipPath370">
      <path
         d="M 0,0 H 384 V 292 H 0 Z"
         id="path368" />
    </clipPath>
    <clipPath
       clipPathUnits="userSpaceOnUse"
       id="clipPath424">
      <path
         d="m 229.316,284.078 h 6 v 7.703 h -6 z"
         id="path422" />
    </clipPath>
    <clipPath
       clipPathUnits="userSpaceOnUse"
       id="clipPath434">
      <path
         d="M 0,0 H 384 V 292 H 0 Z"
         id="path432" />
    </clipPath>
    <clipPath
       clipPathUnits="userSpaceOnUse"
       id="clipPath446">
      <path
         d="m 235.316,286.078 h 5.996 v 5.703 h -5.996 z"
         id="path444" />
    </clipPath>
    <clipPath
       clipPathUnits="userSpaceOnUse"
       id="clipPath456">
      <path
         d="M 0,0 H 384 V 292 H 0 Z"
         id="path454" />
    </clipPath>
    <clipPath
       clipPathUnits="userSpaceOnUse"
       id="clipPath468">
      <path
         d="m 372.918,165.305 h 6 v 8.301 h -6 z"
         id="path466" />
    </clipPath>
    <clipPath
       clipPathUnits="userSpaceOnUse"
       id="clipPath478">
      <path
         d="M 0,0 H 384 V 292 H 0 Z"
         id="path476" />
    </clipPath>
    <clipPath
       clipPathUnits="userSpaceOnUse"
       id="clipPath490">
      <path
         d="m 378.918,165.305 h 4.828 v 8.301 h -4.828 z"
         id="path488" />
    </clipPath>
    <clipPath
       clipPathUnits="userSpaceOnUse"
       id="clipPath500">
      <path
         d="M 0,0 H 384 V 292 H 0 Z"
         id="path498" />
    </clipPath>
    <clipPath
       id="clipPath9290">
      <path
         d="m 44,8 h 5 v 6.363281 h -5 z m 0,0"
         id="path4567" />
    </clipPath>
    <clipPath
       id="clipPath2248">
      <path
         d="m 49,10 h 6 v 4.363281 h -6 z m 0,0"
         id="path1410" />
    </clipPath>
    <clipPath
       id="clipPath3062">
      <path
         d="m 44,8 h 5 v 6.363281 h -5 z m 0,0"
         id="path1944" />
    </clipPath>
    <clipPath
       id="clipPath6796">
      <path
         d="m 49,10 h 6 v 4.363281 h -6 z m 0,0"
         id="path4654" />
    </clipPath>
    <clipPath
       id="clipPath3246">
      <path
         d="m 44,8 h 5 v 6.363281 h -5 z m 0,0"
         id="path1855" />
    </clipPath>
    <clipPath
       id="clipPath8402">
      <path
         d="m 49,10 h 6 v 4.363281 h -6 z m 0,0"
         id="path6435" />
    </clipPath>
    <clipPath
       id="clipPath5621">
      <path
         d="M 0,1 H 9 V 9.773438 H 0 Z m 0,0"
         id="path1199" />
    </clipPath>
    <clipPath
       id="clipPath4194">
      <path
         d="m 24,1 h 8.71875 V 9.773438 H 24 Z m 0,0"
         id="path1396" />
    </clipPath>
    <clipPath
       id="clipPath4133">
      <path
         d="M 31,4 H 41.867188 V 9.964844 H 31 Z m 0,0"
         id="path4912" />
    </clipPath>
    <clipPath
       id="clipPath629">
      <path
         d="m 31,6 h 9 v 3.964844 h -9 z m 0,0"
         id="path957" />
    </clipPath>
    <clipPath
       id="clipPath3957">
      <path
         d="M 0,0 H 7.964844 V 8.167969 H 0 Z m 0,0"
         id="path4003" />
    </clipPath>
    <clipPath
       id="clipPath2349">
      <path
         d="M 0,0 H 10.621094 V 8.167969 H 0 Z m 0,0"
         id="path12" />
    </clipPath>
    <clipPath
       id="clipPath5291">
      <path
         d="M 0,0 H 10 V 8.167969 H 0 Z m 0,0"
         id="path943" />
    </clipPath>
    <marker
       style="overflow:visible"
       id="TriangleStart-3"
       refX="0"
       refY="0"
       orient="auto-start-reverse"
       inkscape:stockid="TriangleStart"
       markerWidth="5.3244081"
       markerHeight="6.155385"
       viewBox="0 0 5.3244081 6.1553851"
       inkscape:isstock="true"
       inkscape:collect="always"
       preserveAspectRatio="xMidYMid">
      <path
         transform="scale(0.5)"
         style="fill:context-stroke;fill-rule:evenodd;stroke:context-stroke;stroke-width:1pt"
         d="M 5.77,0 -2.88,5 V -5 Z"
         id="path14729-6" />
    </marker>
    <marker
       style="overflow:visible"
       id="TriangleStart-3-5"
       refX="0"
       refY="0"
       orient="auto-start-reverse"
       inkscape:stockid="TriangleStart"
       markerWidth="5.3244081"
       markerHeight="6.155385"
       viewBox="0 0 5.3244081 6.1553851"
       inkscape:isstock="true"
       inkscape:collect="always"
       preserveAspectRatio="xMidYMid">
      <path
         transform="scale(0.5)"
         style="fill:context-stroke;fill-rule:evenodd;stroke:context-stroke;stroke-width:1pt"
         d="M 5.77,0 -2.88,5 V -5 Z"
         id="path14729-6-3" />
    </marker>
    <clipPath
       id="clipPath699">
      <path
         d="m 14,8 h 4 v 2.335938 h -4 z m 0,0"
         id="path7881" />
    </clipPath>
    <clipPath
       id="clipPath2258">
      <path
         d="m 11,8 h 4 v 2.335938 h -4 z m 0,0"
         id="path963" />
    </clipPath>
  </defs>
  <sodipodi:namedview
     id="namedview4"
     pagecolor="#ffffff"
     bordercolor="#000000"
     borderopacity="0.25"
     inkscape:showpageshadow="2"
     inkscape:pageopacity="0.0"
     inkscape:pagecheckerboard="0"
     inkscape:deskcolor="#d1d1d1"
     showgrid="false"
     inkscape:zoom="1.4142136"
     inkscape:cx="104.29825"
     inkscape:cy="216.02112"
     inkscape:window-width="1846"
     inkscape:window-height="1016"
     inkscape:window-x="0"
     inkscape:window-y="0"
     inkscape:window-maximized="1"
     inkscape:current-layer="g10">
    <inkscape:page
       x="0"
       y="0"
       id="page8"
       width="511.44696"
       height="389.04022" />
  </sodipodi:namedview>
  <g
     id="g10"
     inkscape:groupmode="layer"
     inkscape:label="Page 1"
     transform="matrix(1.33333 0 0 1.33333 0 1.43927e-05)">
    <g
       id="g12"
       transform="translate(-14.530574,6.0951462)">
      <g
         id="g26" />
    </g>
    <g
       id="g64" />
    <g
       id="g418" />
    <g
       id="g440" />
    <g
       id="g462" />
    <g
       id="g5482"
       transform="translate(-51.843936,10.689935)">
      <path
         style="fill:#f9f9f9;stroke:#000000;stroke-width:0.850395"
         d="M 124.92953,76.960977 136.16077,61.359973 H 295.40993 V 176.14378"
         id="path2436"
         sodipodi:nodetypes="cccc" />
      <rect
         style="fill:#f9f9f9;stroke:#000000;stroke-width:0.850395"
         id="rect2380"
         width="160.10968"
         height="113.92456"
         x="124.88252"
         y="77.569183" />
      <path
         style="fill:#f9f9f9;stroke:#000000;stroke-width:0.850395"
         d="M 284.80706,77.587986 295.47328,61.494304"
         id="path2564"
         sodipodi:nodetypes="cc" />
      <path
         style="fill:#f9f9f9;stroke:#000000;stroke-width:0.850395"
         d="m 285.33391,191.82136 c 9.93766,-16.11029 9.8388,-15.88767 9.8388,-15.88767"
         id="path2566"
         sodipodi:nodetypes="cc" />
      <path
         style="fill:#f384ff;fill-opacity:1;stroke:#000000;stroke-width:0.850395"
         d="m 146.24084,61.197521 0.002,-22.151767 -35.62917,40.938925 V 216.60766 l 24.81811,-24.81812 H 124.9881 V 77.230364 l 14.58825,-16.227385 z"
         id="path2598"
         sodipodi:nodetypes="ccccccccc" />
    </g>
    <g
       inkscape:label=""
       transform="matrix(0.75,0,0,0.75,126.45705,34.081727)"
       id="g3184">
      <g
         id="surface2"
         transform="matrix(1.33333,0,0,1.33333,-0.625,0.224167)">
        <g
           style="fill:#000000;fill-opacity:1"
           id="g62">
          <g
             id="use60"
             transform="translate(0,10.242)">
            <path
               style="stroke:none"
               d="m 5.265625,-5.15625 c 0,-0.0625 -0.046875,-0.109375 -0.109375,-0.109375 -0.09375,0 -0.546875,0.4375 -0.78125,0.859375 -0.21875,-0.546875 -0.578125,-0.859375 -1.09375,-0.859375 -1.359375,0 -2.8125,1.734375 -2.8125,3.515625 0,1.171875 0.6875,1.875 1.5,1.875 0.640625,0 1.15625,-0.484375 1.40625,-0.765625 L 3.390625,-0.625 2.9375,1.171875 2.828125,1.609375 c -0.109375,0.34375 -0.28125,0.34375 -0.84375,0.359375 -0.125,0 -0.25,0 -0.25,0.234375 0,0.078125 0.078125,0.109375 0.15625,0.109375 0.171875,0 0.375,-0.015625 0.546875,-0.015625 h 1.21875 c 0.1875,0 0.390625,0.015625 0.5625,0.015625 0.078125,0 0.21875,0 0.21875,-0.21875 0,-0.125 -0.09375,-0.125 -0.28125,-0.125 -0.5625,0 -0.59375,-0.078125 -0.59375,-0.171875 0,-0.0625 0.015625,-0.078125 0.046875,-0.234375 z m -1.6875,3.734375 C 3.53125,-1.21875 3.53125,-1.1875 3.359375,-0.96875 3.09375,-0.640625 2.5625,-0.125 2.015625,-0.125 1.515625,-0.125 1.25,-0.5625 1.25,-1.265625 c 0,-0.65625 0.359375,-2 0.59375,-2.5 0.40625,-0.84375 0.96875,-1.265625 1.4375,-1.265625 0.78125,0 0.9375,0.984375 0.9375,1.078125 0,0.015625 -0.03125,0.15625 -0.046875,0.1875 z m 0,0"
               id="path123" />
          </g>
        </g>
        <g
           style="fill:#000000;fill-opacity:1"
           id="g66">
          <g
             id="use64"
             transform="translate(5.1900001,12.036)">
            <path
               style="stroke:none"
               d="m 1.59375,-1.3125 c 0.03125,-0.109375 0.109375,-0.421875 0.125,-0.53125 0.109375,-0.4375 0.109375,-0.4375 0.296875,-0.703125 0.265625,-0.390625 0.640625,-0.75 1.171875,-0.75 0.28125,0 0.453125,0.171875 0.453125,0.546875 0,0.4375 -0.328125,1.34375 -0.484375,1.734375 -0.109375,0.265625 -0.109375,0.3125 -0.109375,0.421875 0,0.453125 0.375,0.671875 0.71875,0.671875 0.78125,0 1.109375,-1.109375 1.109375,-1.21875 C 4.875,-1.21875 4.8125,-1.25 4.75,-1.25 c -0.09375,0 -0.109375,0.0625 -0.125,0.140625 -0.1875,0.65625 -0.53125,0.96875 -0.828125,0.96875 -0.125,0 -0.1875,-0.078125 -0.1875,-0.265625 0,-0.1875 0.0625,-0.359375 0.140625,-0.5625 0.109375,-0.296875 0.46875,-1.21875 0.46875,-1.65625 0,-0.609375 -0.421875,-0.890625 -0.984375,-0.890625 -0.65625,0 -1.0625,0.390625 -1.296875,0.6875 -0.0625,-0.4375 -0.40625,-0.6875 -0.8125,-0.6875 -0.28125,0 -0.484375,0.1875 -0.609375,0.4375 -0.203125,0.375 -0.28125,0.765625 -0.28125,0.78125 0,0.078125 0.0625,0.109375 0.125,0.109375 0.109375,0 0.109375,-0.03125 0.171875,-0.25 0.09375,-0.390625 0.234375,-0.859375 0.5625,-0.859375 0.21875,0 0.265625,0.203125 0.265625,0.375 0,0.15625 -0.046875,0.296875 -0.109375,0.5625 -0.015625,0.0625 -0.140625,0.53125 -0.171875,0.640625 L 0.78125,-0.515625 c -0.03125,0.125 -0.078125,0.3125 -0.078125,0.34375 0,0.1875 0.15625,0.25 0.265625,0.25 0.140625,0 0.265625,-0.09375 0.3125,-0.1875 C 1.3125,-0.15625 1.375,-0.4375 1.40625,-0.59375 Z m 0,0"
               id="path127" />
          </g>
        </g>
        <g
           style="fill:#000000;fill-opacity:1"
           id="g70">
          <g
             id="use68"
             transform="translate(14.147,10.242)">
            <path
               style="stroke:none"
               d="m 8.0625,-3.875 c 0.171875,0 0.390625,0 0.390625,-0.21875 C 8.453125,-4.3125 8.25,-4.3125 8.0625,-4.3125 H 1.03125 c -0.171875,0 -0.390625,0 -0.390625,0.21875 0,0.21875 0.203125,0.21875 0.390625,0.21875 z m 0,2.21875 c 0.171875,0 0.390625,0 0.390625,-0.203125 C 8.453125,-2.09375 8.25,-2.09375 8.0625,-2.09375 H 1.03125 c -0.171875,0 -0.390625,0 -0.390625,0.21875 0,0.21875 0.203125,0.21875 0.390625,0.21875 z m 0,0"
               id="path131" />
          </g>
        </g>
        <g
           style="fill:#000000;fill-opacity:1"
           id="g74">
          <g
             id="use72"
             transform="translate(26.573,10.242)">
            <path
               style="stroke:none"
               d="m 7.875,-2.75 c 0.203125,0 0.421875,0 0.421875,-0.234375 0,-0.25 -0.21875,-0.25 -0.421875,-0.25 H 1.40625 c -0.203125,0 -0.421875,0 -0.421875,0.25 0,0.234375 0.21875,0.234375 0.421875,0.234375 z m 0,0"
               id="path135" />
          </g>
        </g>
        <g
           style="fill:#000000;fill-opacity:1"
           id="g78">
          <g
             id="use76"
             transform="translate(35.870998,10.242)">
            <path
               style="stroke:none"
               d="m 3.359375,-8 c 0.015625,-0.046875 0.03125,-0.109375 0.03125,-0.171875 0,-0.125 -0.109375,-0.125 -0.140625,-0.125 -0.015625,0 -0.4375,0.03125 -0.65625,0.0625 C 2.390625,-8.21875 2.21875,-8.203125 2,-8.1875 c -0.296875,0.03125 -0.375,0.03125 -0.375,0.25 0,0.125 0.125,0.125 0.234375,0.125 0.609375,0 0.609375,0.109375 0.609375,0.21875 0,0.046875 0,0.078125 -0.046875,0.296875 L 0.703125,-0.46875 C 0.65625,-0.28125 0.65625,-0.265625 0.65625,-0.1875 c 0,0.265625 0.203125,0.3125 0.328125,0.3125 0.328125,0 0.40625,-0.265625 0.5,-0.640625 L 2.046875,-2.75 c 0.859375,0.09375 1.375,0.453125 1.375,1.03125 0,0.0625 0,0.109375 -0.046875,0.296875 -0.046875,0.171875 -0.046875,0.328125 -0.046875,0.375 0,0.703125 0.46875,1.171875 1.078125,1.171875 0.546875,0 0.828125,-0.5 0.921875,-0.671875 0.25,-0.4375 0.40625,-1.109375 0.40625,-1.15625 0,-0.0625 -0.046875,-0.109375 -0.109375,-0.109375 -0.109375,0 -0.125,0.046875 -0.171875,0.234375 C 5.28125,-0.953125 5.03125,-0.125 4.421875,-0.125 4.1875,-0.125 4.03125,-0.234375 4.03125,-0.6875 c 0,-0.234375 0.046875,-0.5 0.09375,-0.671875 0.046875,-0.21875 0.046875,-0.234375 0.046875,-0.375 0,-0.703125 -0.640625,-1.09375 -1.734375,-1.234375 0.4375,-0.265625 0.859375,-0.734375 1.03125,-0.921875 0.671875,-0.765625 1.140625,-1.140625 1.6875,-1.140625 0.28125,0 0.359375,0.078125 0.4375,0.140625 -0.4375,0.046875 -0.609375,0.359375 -0.609375,0.59375 0,0.296875 0.234375,0.390625 0.390625,0.390625 0.328125,0 0.609375,-0.28125 0.609375,-0.65625 0,-0.34375 -0.265625,-0.703125 -0.8125,-0.703125 -0.65625,0 -1.1875,0.453125 -2.046875,1.421875 -0.109375,0.140625 -0.5625,0.59375 -1,0.765625 z m 0,0"
               id="path139" />
          </g>
        </g>
        <g
           style="fill:#000000;fill-opacity:1"
           id="g82">
          <g
             id="use80"
             transform="translate(43.556,5.5349998)">
            <path
               style="stroke:none"
               d="M 3.890625,-2.734375 C 3.78125,-3.171875 3.484375,-3.640625 2.75,-3.640625 c -0.75,0 -1.234375,0.34375 -1.609375,0.671875 -0.8125,0.703125 -0.8125,1.625 -0.8125,1.6875 0,0.5 0.390625,1.453125 1.59375,1.453125 0.671875,0 1.375,-0.328125 1.921875,-1.0625 0.515625,-0.71875 0.90625,-1.890625 0.90625,-2.6875 0,-1.296875 -0.796875,-2.125 -1.859375,-2.125 -1.21875,0 -1.59375,1.03125 -1.59375,1.265625 0,0.203125 0.140625,0.296875 0.3125,0.296875 0.25,0 0.453125,-0.21875 0.453125,-0.4375 0,-0.09375 -0.03125,-0.28125 -0.34375,-0.296875 0.3125,-0.515625 0.84375,-0.609375 1.171875,-0.609375 0.71875,0 1.21875,0.546875 1.21875,1.46875 0,0.453125 -0.09375,0.875 -0.203125,1.28125 z M 1.9375,-0.078125 c -0.890625,0 -0.9375,-0.75 -0.9375,-0.90625 0,-0.3125 0.234375,-1.15625 0.3125,-1.359375 0.203125,-0.46875 0.703125,-1.078125 1.46875,-1.078125 0.671875,0 0.953125,0.515625 0.953125,1.078125 0,0.609375 -0.5625,2.265625 -1.796875,2.265625 z m 0,0"
               id="path143" />
          </g>
        </g>
        <g
           style="fill:#000000;fill-opacity:1"
           id="g86">
          <g
             id="use84"
             transform="translate(48.487103,5.5349998)">
            <path
               style="stroke:none"
               d="M 3.609375,-4.828125 C 3.671875,-5.109375 3.6875,-5.125 4.015625,-5.125 h 0.59375 c 0.828125,0 0.921875,0.265625 0.921875,0.65625 0,0.203125 -0.046875,0.546875 -0.046875,0.59375 -0.015625,0.078125 -0.03125,0.15625 -0.03125,0.171875 0,0.09375 0.078125,0.125 0.125,0.125 0.09375,0 0.125,-0.046875 0.140625,-0.203125 l 0.21875,-1.5 c 0,-0.109375 -0.09375,-0.109375 -0.234375,-0.109375 H 1 c -0.1875,0 -0.21875,0 -0.265625,0.171875 L 0.25,-3.84375 c -0.015625,0.046875 -0.046875,0.109375 -0.046875,0.15625 0,0.0625 0.0625,0.109375 0.125,0.109375 0.09375,0 0.109375,-0.046875 0.15625,-0.171875 C 0.9375,-5.03125 1.15625,-5.125 2.375,-5.125 h 0.3125 c 0.234375,0 0.25,0.015625 0.25,0.078125 0,0.015625 -0.03125,0.171875 -0.046875,0.203125 l -1.046875,4.1875 c -0.078125,0.3125 -0.09375,0.390625 -0.921875,0.390625 -0.265625,0 -0.34375,0 -0.34375,0.15625 0,0 0,0.109375 0.140625,0.109375 0.21875,0 0.765625,-0.03125 0.984375,-0.03125 H 2.375 c 0.21875,0 0.78125,0.03125 1,0.03125 0.0625,0 0.1875,0 0.1875,-0.15625 0,-0.109375 -0.09375,-0.109375 -0.296875,-0.109375 -0.203125,0 -0.265625,0 -0.46875,-0.015625 -0.25,-0.015625 -0.28125,-0.046875 -0.28125,-0.15625 0,-0.03125 0,-0.0625 0.03125,-0.140625 z m 0,0"
               id="path147" />
          </g>
        </g>
        <path
           style="fill:none;stroke:#000000;stroke-width:0.478;stroke-linecap:butt;stroke-linejoin:miter;stroke-miterlimit:10;stroke-opacity:1"
           d="M -0.0013125,9.375e-5 H 11.03775"
           transform="matrix(1,0,0,-1,43.556,7.254)"
           id="path88" />
        <g
           clip-path="url(#clipPath9290)"
           clip-rule="nonzero"
           id="g94">
          <g
             style="fill:#000000;fill-opacity:1"
             id="g92">
            <g
               id="use90"
               transform="translate(43.896999,14.365)">
              <path
                 style="stroke:none"
                 d="M 3.890625,-2.734375 C 3.78125,-3.171875 3.484375,-3.640625 2.75,-3.640625 c -0.75,0 -1.234375,0.34375 -1.609375,0.671875 -0.8125,0.703125 -0.8125,1.625 -0.8125,1.6875 0,0.5 0.390625,1.453125 1.59375,1.453125 0.671875,0 1.375,-0.328125 1.921875,-1.0625 0.515625,-0.71875 0.90625,-1.890625 0.90625,-2.6875 0,-1.296875 -0.796875,-2.125 -1.859375,-2.125 -1.21875,0 -1.59375,1.03125 -1.59375,1.265625 0,0.203125 0.140625,0.296875 0.3125,0.296875 0.25,0 0.453125,-0.21875 0.453125,-0.4375 0,-0.09375 -0.03125,-0.28125 -0.34375,-0.296875 0.3125,-0.515625 0.84375,-0.609375 1.171875,-0.609375 0.71875,0 1.21875,0.546875 1.21875,1.46875 0,0.453125 -0.09375,0.875 -0.203125,1.28125 z M 1.9375,-0.078125 c -0.890625,0 -0.9375,-0.75 -0.9375,-0.90625 0,-0.3125 0.234375,-1.15625 0.3125,-1.359375 0.203125,-0.46875 0.703125,-1.078125 1.46875,-1.078125 0.671875,0 0.953125,0.515625 0.953125,1.078125 0,0.609375 -0.5625,2.265625 -1.796875,2.265625 z m 0,0"
                 id="path151" />
            </g>
          </g>
        </g>
        <g
           clip-path="url(#clipPath2248)"
           clip-rule="nonzero"
           id="g100">
          <g
             style="fill:#000000;fill-opacity:1"
             id="g98">
            <g
               id="use96"
               transform="translate(48.828999,14.365)">
              <path
                 style="stroke:none"
                 d="m 4.65625,-2.421875 c 0,-0.96875 -0.609375,-1.171875 -1.3125,-1.171875 -0.96875,0 -1.40625,0.640625 -1.5,0.8125 v -0.8125 l -1.390625,0.0625 v 0.421875 c 0.46875,0 0.515625,0 0.515625,0.296875 v 2.390625 H 0.453125 V 0 c 0.421875,-0.03125 0.703125,-0.03125 1,-0.03125 0.3125,0 0.59375,0 1.015625,0.03125 V -0.421875 H 1.9375 v -1.59375 c 0,-0.890625 0.765625,-1.25 1.28125,-1.25 C 3.5,-3.265625 3.6875,-3.125 3.6875,-2.5 v 2.078125 H 3.15625 V 0 c 0.421875,-0.03125 0.703125,-0.03125 1.015625,-0.03125 0.3125,0 0.578125,0 1,0.03125 V -0.421875 H 4.65625 Z m 0,0"
                 id="path155" />
            </g>
          </g>
        </g>
        <g
           style="fill:#000000;fill-opacity:1"
           id="g104">
          <g
             id="use102"
             transform="translate(59.111,10.242)">
            <path
               style="stroke:none"
               d="m 8.0625,-3.875 c 0.171875,0 0.390625,0 0.390625,-0.21875 C 8.453125,-4.3125 8.25,-4.3125 8.0625,-4.3125 H 1.03125 c -0.171875,0 -0.390625,0 -0.390625,0.21875 0,0.21875 0.203125,0.21875 0.390625,0.21875 z m 0,2.21875 c 0.171875,0 0.390625,0 0.390625,-0.203125 C 8.453125,-2.09375 8.25,-2.09375 8.0625,-2.09375 H 1.03125 c -0.171875,0 -0.390625,0 -0.390625,0.21875 0,0.21875 0.203125,0.21875 0.390625,0.21875 z m 0,0"
               id="path159" />
          </g>
        </g>
        <g
           style="fill:#000000;fill-opacity:1"
           id="g108">
          <g
             id="use106"
             transform="translate(72.400398,10.242)">
            <path
               style="stroke:none"
               d="M 5.03125,-6.65625 V -7 H 0.8125 v 0.34375 z m 0,0"
               id="path163" />
          </g>
        </g>
        <g
           style="fill:#000000;fill-opacity:1"
           id="g112">
          <g
             id="use110"
             transform="translate(71.536003,10.242)">
            <path
               style="stroke:none"
               d="m 5.265625,-5.15625 c 0,-0.0625 -0.046875,-0.109375 -0.109375,-0.109375 -0.09375,0 -0.546875,0.4375 -0.78125,0.859375 -0.21875,-0.546875 -0.578125,-0.859375 -1.09375,-0.859375 -1.359375,0 -2.8125,1.734375 -2.8125,3.515625 0,1.171875 0.6875,1.875 1.5,1.875 0.640625,0 1.15625,-0.484375 1.40625,-0.765625 L 3.390625,-0.625 2.9375,1.171875 2.828125,1.609375 c -0.109375,0.34375 -0.28125,0.34375 -0.84375,0.359375 -0.125,0 -0.25,0 -0.25,0.234375 0,0.078125 0.078125,0.109375 0.15625,0.109375 0.171875,0 0.375,-0.015625 0.546875,-0.015625 h 1.21875 c 0.1875,0 0.390625,0.015625 0.5625,0.015625 0.078125,0 0.21875,0 0.21875,-0.21875 0,-0.125 -0.09375,-0.125 -0.28125,-0.125 -0.5625,0 -0.59375,-0.078125 -0.59375,-0.171875 0,-0.0625 0.015625,-0.078125 0.046875,-0.234375 z m -1.6875,3.734375 C 3.53125,-1.21875 3.53125,-1.1875 3.359375,-0.96875 3.09375,-0.640625 2.5625,-0.125 2.015625,-0.125 1.515625,-0.125 1.25,-0.5625 1.25,-1.265625 c 0,-0.65625 0.359375,-2 0.59375,-2.5 0.40625,-0.84375 0.96875,-1.265625 1.4375,-1.265625 0.78125,0 0.9375,0.984375 0.9375,1.078125 0,0.015625 -0.03125,0.15625 -0.046875,0.1875 z m 0,0"
               id="path167" />
          </g>
        </g>
        <g
           style="fill:#000000;fill-opacity:1"
           id="g116">
          <g
             id="use114"
             transform="translate(76.725998,12.036)">
            <path
               style="stroke:none"
               d="m 2.5,-5.078125 c 0,-0.21875 -0.015625,-0.21875 -0.234375,-0.21875 -0.328125,0.3125 -0.75,0.5 -1.5,0.5 v 0.265625 c 0.21875,0 0.640625,0 1.109375,-0.203125 v 4.078125 c 0,0.296875 -0.03125,0.390625 -0.78125,0.390625 H 0.8125 V 0 c 0.328125,-0.03125 1.015625,-0.03125 1.375,-0.03125 0.359375,0 1.046875,0 1.375,0.03125 V -0.265625 H 3.28125 c -0.75,0 -0.78125,-0.09375 -0.78125,-0.390625 z m 0,0"
               id="path171" />
          </g>
        </g>
      </g>
    </g>
    <g
       inkscape:label=""
       transform="matrix(0.750002,0,0,0.750002,267.73251,127.47033)"
       id="g4335">
      <g
         id="g4333"
         transform="matrix(1.33333,0,0,1.33333,-0.625,0.224167)">
        <g
           style="fill:#000000;fill-opacity:1"
           id="g4253">
          <g
             id="g4251"
             transform="translate(0,10.242)">
            <path
               style="stroke:none"
               d="m 5.265625,-5.15625 c 0,-0.0625 -0.046875,-0.109375 -0.109375,-0.109375 -0.09375,0 -0.546875,0.4375 -0.78125,0.859375 -0.21875,-0.546875 -0.578125,-0.859375 -1.09375,-0.859375 -1.359375,0 -2.8125,1.734375 -2.8125,3.515625 0,1.171875 0.6875,1.875 1.5,1.875 0.640625,0 1.15625,-0.484375 1.40625,-0.765625 L 3.390625,-0.625 2.9375,1.171875 2.828125,1.609375 c -0.109375,0.34375 -0.28125,0.34375 -0.84375,0.359375 -0.125,0 -0.25,0 -0.25,0.234375 0,0.078125 0.078125,0.109375 0.15625,0.109375 0.171875,0 0.375,-0.015625 0.546875,-0.015625 h 1.21875 c 0.1875,0 0.390625,0.015625 0.5625,0.015625 0.078125,0 0.21875,0 0.21875,-0.21875 0,-0.125 -0.09375,-0.125 -0.28125,-0.125 -0.5625,0 -0.59375,-0.078125 -0.59375,-0.171875 0,-0.0625 0.015625,-0.078125 0.046875,-0.234375 z m -1.6875,3.734375 C 3.53125,-1.21875 3.53125,-1.1875 3.359375,-0.96875 3.09375,-0.640625 2.5625,-0.125 2.015625,-0.125 1.515625,-0.125 1.25,-0.5625 1.25,-1.265625 c 0,-0.65625 0.359375,-2 0.59375,-2.5 0.40625,-0.84375 0.96875,-1.265625 1.4375,-1.265625 0.78125,0 0.9375,0.984375 0.9375,1.078125 0,0.015625 -0.03125,0.15625 -0.046875,0.1875 z m 0,0"
               id="path4249" />
          </g>
        </g>
        <g
           style="fill:#000000;fill-opacity:1"
           id="g4259">
          <g
             id="g4257"
             transform="translate(5.1900001,12.036)">
            <path
               style="stroke:none"
               d="m 1.59375,-1.3125 c 0.03125,-0.109375 0.109375,-0.421875 0.125,-0.53125 0.109375,-0.4375 0.109375,-0.4375 0.296875,-0.703125 0.265625,-0.390625 0.640625,-0.75 1.171875,-0.75 0.28125,0 0.453125,0.171875 0.453125,0.546875 0,0.4375 -0.328125,1.34375 -0.484375,1.734375 -0.109375,0.265625 -0.109375,0.3125 -0.109375,0.421875 0,0.453125 0.375,0.671875 0.71875,0.671875 0.78125,0 1.109375,-1.109375 1.109375,-1.21875 C 4.875,-1.21875 4.8125,-1.25 4.75,-1.25 c -0.09375,0 -0.109375,0.0625 -0.125,0.140625 -0.1875,0.65625 -0.53125,0.96875 -0.828125,0.96875 -0.125,0 -0.1875,-0.078125 -0.1875,-0.265625 0,-0.1875 0.0625,-0.359375 0.140625,-0.5625 0.109375,-0.296875 0.46875,-1.21875 0.46875,-1.65625 0,-0.609375 -0.421875,-0.890625 -0.984375,-0.890625 -0.65625,0 -1.0625,0.390625 -1.296875,0.6875 -0.0625,-0.4375 -0.40625,-0.6875 -0.8125,-0.6875 -0.28125,0 -0.484375,0.1875 -0.609375,0.4375 -0.203125,0.375 -0.28125,0.765625 -0.28125,0.78125 0,0.078125 0.0625,0.109375 0.125,0.109375 0.109375,0 0.109375,-0.03125 0.171875,-0.25 0.09375,-0.390625 0.234375,-0.859375 0.5625,-0.859375 0.21875,0 0.265625,0.203125 0.265625,0.375 0,0.15625 -0.046875,0.296875 -0.109375,0.5625 -0.015625,0.0625 -0.140625,0.53125 -0.171875,0.640625 L 0.78125,-0.515625 c -0.03125,0.125 -0.078125,0.3125 -0.078125,0.34375 0,0.1875 0.15625,0.25 0.265625,0.25 0.140625,0 0.265625,-0.09375 0.3125,-0.1875 C 1.3125,-0.15625 1.375,-0.4375 1.40625,-0.59375 Z m 0,0"
               id="path4255" />
          </g>
        </g>
        <g
           style="fill:#000000;fill-opacity:1"
           id="g4265">
          <g
             id="g4263"
             transform="translate(14.147,10.242)">
            <path
               style="stroke:none"
               d="m 8.0625,-3.875 c 0.171875,0 0.390625,0 0.390625,-0.21875 C 8.453125,-4.3125 8.25,-4.3125 8.0625,-4.3125 H 1.03125 c -0.171875,0 -0.390625,0 -0.390625,0.21875 0,0.21875 0.203125,0.21875 0.390625,0.21875 z m 0,2.21875 c 0.171875,0 0.390625,0 0.390625,-0.203125 C 8.453125,-2.09375 8.25,-2.09375 8.0625,-2.09375 H 1.03125 c -0.171875,0 -0.390625,0 -0.390625,0.21875 0,0.21875 0.203125,0.21875 0.390625,0.21875 z m 0,0"
               id="path4261" />
          </g>
        </g>
        <g
           style="fill:#000000;fill-opacity:1"
           id="g4271">
          <g
             id="g4269"
             transform="translate(26.573,10.242)">
            <path
               style="stroke:none"
               d="m 7.875,-2.75 c 0.203125,0 0.421875,0 0.421875,-0.234375 0,-0.25 -0.21875,-0.25 -0.421875,-0.25 H 1.40625 c -0.203125,0 -0.421875,0 -0.421875,0.25 0,0.234375 0.21875,0.234375 0.421875,0.234375 z m 0,0"
               id="path4267" />
          </g>
        </g>
        <g
           style="fill:#000000;fill-opacity:1"
           id="g4277">
          <g
             id="g4275"
             transform="translate(35.870998,10.242)">
            <path
               style="stroke:none"
               d="m 3.359375,-8 c 0.015625,-0.046875 0.03125,-0.109375 0.03125,-0.171875 0,-0.125 -0.109375,-0.125 -0.140625,-0.125 -0.015625,0 -0.4375,0.03125 -0.65625,0.0625 C 2.390625,-8.21875 2.21875,-8.203125 2,-8.1875 c -0.296875,0.03125 -0.375,0.03125 -0.375,0.25 0,0.125 0.125,0.125 0.234375,0.125 0.609375,0 0.609375,0.109375 0.609375,0.21875 0,0.046875 0,0.078125 -0.046875,0.296875 L 0.703125,-0.46875 C 0.65625,-0.28125 0.65625,-0.265625 0.65625,-0.1875 c 0,0.265625 0.203125,0.3125 0.328125,0.3125 0.328125,0 0.40625,-0.265625 0.5,-0.640625 L 2.046875,-2.75 c 0.859375,0.09375 1.375,0.453125 1.375,1.03125 0,0.0625 0,0.109375 -0.046875,0.296875 -0.046875,0.171875 -0.046875,0.328125 -0.046875,0.375 0,0.703125 0.46875,1.171875 1.078125,1.171875 0.546875,0 0.828125,-0.5 0.921875,-0.671875 0.25,-0.4375 0.40625,-1.109375 0.40625,-1.15625 0,-0.0625 -0.046875,-0.109375 -0.109375,-0.109375 -0.109375,0 -0.125,0.046875 -0.171875,0.234375 C 5.28125,-0.953125 5.03125,-0.125 4.421875,-0.125 4.1875,-0.125 4.03125,-0.234375 4.03125,-0.6875 c 0,-0.234375 0.046875,-0.5 0.09375,-0.671875 0.046875,-0.21875 0.046875,-0.234375 0.046875,-0.375 0,-0.703125 -0.640625,-1.09375 -1.734375,-1.234375 0.4375,-0.265625 0.859375,-0.734375 1.03125,-0.921875 0.671875,-0.765625 1.140625,-1.140625 1.6875,-1.140625 0.28125,0 0.359375,0.078125 0.4375,0.140625 -0.4375,0.046875 -0.609375,0.359375 -0.609375,0.59375 0,0.296875 0.234375,0.390625 0.390625,0.390625 0.328125,0 0.609375,-0.28125 0.609375,-0.65625 0,-0.34375 -0.265625,-0.703125 -0.8125,-0.703125 -0.65625,0 -1.1875,0.453125 -2.046875,1.421875 -0.109375,0.140625 -0.5625,0.59375 -1,0.765625 z m 0,0"
               id="path4273" />
          </g>
        </g>
        <g
           style="fill:#000000;fill-opacity:1"
           id="g4283">
          <g
             id="g4281"
             transform="translate(43.556,5.5349998)">
            <path
               style="stroke:none"
               d="M 3.890625,-2.734375 C 3.78125,-3.171875 3.484375,-3.640625 2.75,-3.640625 c -0.75,0 -1.234375,0.34375 -1.609375,0.671875 -0.8125,0.703125 -0.8125,1.625 -0.8125,1.6875 0,0.5 0.390625,1.453125 1.59375,1.453125 0.671875,0 1.375,-0.328125 1.921875,-1.0625 0.515625,-0.71875 0.90625,-1.890625 0.90625,-2.6875 0,-1.296875 -0.796875,-2.125 -1.859375,-2.125 -1.21875,0 -1.59375,1.03125 -1.59375,1.265625 0,0.203125 0.140625,0.296875 0.3125,0.296875 0.25,0 0.453125,-0.21875 0.453125,-0.4375 0,-0.09375 -0.03125,-0.28125 -0.34375,-0.296875 0.3125,-0.515625 0.84375,-0.609375 1.171875,-0.609375 0.71875,0 1.21875,0.546875 1.21875,1.46875 0,0.453125 -0.09375,0.875 -0.203125,1.28125 z M 1.9375,-0.078125 c -0.890625,0 -0.9375,-0.75 -0.9375,-0.90625 0,-0.3125 0.234375,-1.15625 0.3125,-1.359375 0.203125,-0.46875 0.703125,-1.078125 1.46875,-1.078125 0.671875,0 0.953125,0.515625 0.953125,1.078125 0,0.609375 -0.5625,2.265625 -1.796875,2.265625 z m 0,0"
               id="path4279" />
          </g>
        </g>
        <g
           style="fill:#000000;fill-opacity:1"
           id="g4289">
          <g
             id="g4287"
             transform="translate(48.487103,5.5349998)">
            <path
               style="stroke:none"
               d="M 3.609375,-4.828125 C 3.671875,-5.109375 3.6875,-5.125 4.015625,-5.125 h 0.59375 c 0.828125,0 0.921875,0.265625 0.921875,0.65625 0,0.203125 -0.046875,0.546875 -0.046875,0.59375 -0.015625,0.078125 -0.03125,0.15625 -0.03125,0.171875 0,0.09375 0.078125,0.125 0.125,0.125 0.09375,0 0.125,-0.046875 0.140625,-0.203125 l 0.21875,-1.5 c 0,-0.109375 -0.09375,-0.109375 -0.234375,-0.109375 H 1 c -0.1875,0 -0.21875,0 -0.265625,0.171875 L 0.25,-3.84375 c -0.015625,0.046875 -0.046875,0.109375 -0.046875,0.15625 0,0.0625 0.0625,0.109375 0.125,0.109375 0.09375,0 0.109375,-0.046875 0.15625,-0.171875 C 0.9375,-5.03125 1.15625,-5.125 2.375,-5.125 h 0.3125 c 0.234375,0 0.25,0.015625 0.25,0.078125 0,0.015625 -0.03125,0.171875 -0.046875,0.203125 l -1.046875,4.1875 c -0.078125,0.3125 -0.09375,0.390625 -0.921875,0.390625 -0.265625,0 -0.34375,0 -0.34375,0.15625 0,0 0,0.109375 0.140625,0.109375 0.21875,0 0.765625,-0.03125 0.984375,-0.03125 H 2.375 c 0.21875,0 0.78125,0.03125 1,0.03125 0.0625,0 0.1875,0 0.1875,-0.15625 0,-0.109375 -0.09375,-0.109375 -0.296875,-0.109375 -0.203125,0 -0.265625,0 -0.46875,-0.015625 -0.25,-0.015625 -0.28125,-0.046875 -0.28125,-0.15625 0,-0.03125 0,-0.0625 0.03125,-0.140625 z m 0,0"
               id="path4285" />
          </g>
        </g>
        <path
           style="fill:none;stroke:#000000;stroke-width:0.478;stroke-linecap:butt;stroke-linejoin:miter;stroke-miterlimit:10;stroke-opacity:1"
           d="M -0.0013125,9.375e-5 H 11.03775"
           transform="matrix(1,0,0,-1,43.556,7.254)"
           id="path4291" />
        <g
           clip-path="url(#clipPath3062)"
           clip-rule="nonzero"
           id="g4299">
          <g
             style="fill:#000000;fill-opacity:1"
             id="g4297">
            <g
               id="g4295"
               transform="translate(43.896999,14.365)">
              <path
                 style="stroke:none"
                 d="M 3.890625,-2.734375 C 3.78125,-3.171875 3.484375,-3.640625 2.75,-3.640625 c -0.75,0 -1.234375,0.34375 -1.609375,0.671875 -0.8125,0.703125 -0.8125,1.625 -0.8125,1.6875 0,0.5 0.390625,1.453125 1.59375,1.453125 0.671875,0 1.375,-0.328125 1.921875,-1.0625 0.515625,-0.71875 0.90625,-1.890625 0.90625,-2.6875 0,-1.296875 -0.796875,-2.125 -1.859375,-2.125 -1.21875,0 -1.59375,1.03125 -1.59375,1.265625 0,0.203125 0.140625,0.296875 0.3125,0.296875 0.25,0 0.453125,-0.21875 0.453125,-0.4375 0,-0.09375 -0.03125,-0.28125 -0.34375,-0.296875 0.3125,-0.515625 0.84375,-0.609375 1.171875,-0.609375 0.71875,0 1.21875,0.546875 1.21875,1.46875 0,0.453125 -0.09375,0.875 -0.203125,1.28125 z M 1.9375,-0.078125 c -0.890625,0 -0.9375,-0.75 -0.9375,-0.90625 0,-0.3125 0.234375,-1.15625 0.3125,-1.359375 0.203125,-0.46875 0.703125,-1.078125 1.46875,-1.078125 0.671875,0 0.953125,0.515625 0.953125,1.078125 0,0.609375 -0.5625,2.265625 -1.796875,2.265625 z m 0,0"
                 id="path4293" />
            </g>
          </g>
        </g>
        <g
           clip-path="url(#clipPath6796)"
           clip-rule="nonzero"
           id="g4307">
          <g
             style="fill:#000000;fill-opacity:1"
             id="g4305">
            <g
               id="g4303"
               transform="translate(48.828999,14.365)">
              <path
                 style="stroke:none"
                 d="m 4.65625,-2.421875 c 0,-0.96875 -0.609375,-1.171875 -1.3125,-1.171875 -0.96875,0 -1.40625,0.640625 -1.5,0.8125 v -0.8125 l -1.390625,0.0625 v 0.421875 c 0.46875,0 0.515625,0 0.515625,0.296875 v 2.390625 H 0.453125 V 0 c 0.421875,-0.03125 0.703125,-0.03125 1,-0.03125 0.3125,0 0.59375,0 1.015625,0.03125 V -0.421875 H 1.9375 v -1.59375 c 0,-0.890625 0.765625,-1.25 1.28125,-1.25 C 3.5,-3.265625 3.6875,-3.125 3.6875,-2.5 v 2.078125 H 3.15625 V 0 c 0.421875,-0.03125 0.703125,-0.03125 1.015625,-0.03125 0.3125,0 0.578125,0 1,0.03125 V -0.421875 H 4.65625 Z m 0,0"
                 id="path4301" />
            </g>
          </g>
        </g>
        <g
           style="fill:#000000;fill-opacity:1"
           id="g4313">
          <g
             id="g4311"
             transform="translate(59.111,10.242)">
            <path
               style="stroke:none"
               d="m 8.0625,-3.875 c 0.171875,0 0.390625,0 0.390625,-0.21875 C 8.453125,-4.3125 8.25,-4.3125 8.0625,-4.3125 H 1.03125 c -0.171875,0 -0.390625,0 -0.390625,0.21875 0,0.21875 0.203125,0.21875 0.390625,0.21875 z m 0,2.21875 c 0.171875,0 0.390625,0 0.390625,-0.203125 C 8.453125,-2.09375 8.25,-2.09375 8.0625,-2.09375 H 1.03125 c -0.171875,0 -0.390625,0 -0.390625,0.21875 0,0.21875 0.203125,0.21875 0.390625,0.21875 z m 0,0"
               id="path4309" />
          </g>
        </g>
        <g
           style="fill:#000000;fill-opacity:1"
           id="g4319">
          <g
             id="g4317"
             transform="translate(72.400398,10.242)">
            <path
               style="stroke:none"
               d="M 5.03125,-6.65625 V -7 H 0.8125 v 0.34375 z m 0,0"
               id="path4315" />
          </g>
        </g>
        <g
           style="fill:#000000;fill-opacity:1"
           id="g4325">
          <g
             id="g4323"
             transform="translate(71.536003,10.242)">
            <path
               style="stroke:none"
               d="m 5.265625,-5.15625 c 0,-0.0625 -0.046875,-0.109375 -0.109375,-0.109375 -0.09375,0 -0.546875,0.4375 -0.78125,0.859375 -0.21875,-0.546875 -0.578125,-0.859375 -1.09375,-0.859375 -1.359375,0 -2.8125,1.734375 -2.8125,3.515625 0,1.171875 0.6875,1.875 1.5,1.875 0.640625,0 1.15625,-0.484375 1.40625,-0.765625 L 3.390625,-0.625 2.9375,1.171875 2.828125,1.609375 c -0.109375,0.34375 -0.28125,0.34375 -0.84375,0.359375 -0.125,0 -0.25,0 -0.25,0.234375 0,0.078125 0.078125,0.109375 0.15625,0.109375 0.171875,0 0.375,-0.015625 0.546875,-0.015625 h 1.21875 c 0.1875,0 0.390625,0.015625 0.5625,0.015625 0.078125,0 0.21875,0 0.21875,-0.21875 0,-0.125 -0.09375,-0.125 -0.28125,-0.125 -0.5625,0 -0.59375,-0.078125 -0.59375,-0.171875 0,-0.0625 0.015625,-0.078125 0.046875,-0.234375 z m -1.6875,3.734375 C 3.53125,-1.21875 3.53125,-1.1875 3.359375,-0.96875 3.09375,-0.640625 2.5625,-0.125 2.015625,-0.125 1.515625,-0.125 1.25,-0.5625 1.25,-1.265625 c 0,-0.65625 0.359375,-2 0.59375,-2.5 0.40625,-0.84375 0.96875,-1.265625 1.4375,-1.265625 0.78125,0 0.9375,0.984375 0.9375,1.078125 0,0.015625 -0.03125,0.15625 -0.046875,0.1875 z m 0,0"
               id="path4321" />
          </g>
        </g>
        <g
           style="fill:#000000;fill-opacity:1"
           id="g4331">
          <g
             id="g4329"
             transform="translate(76.725998,12.036)">
            <path
               style="stroke:none"
               d="m 2.25,-1.625 c 0.125,-0.125 0.453125,-0.390625 0.59375,-0.5 0.484375,-0.453125 0.953125,-0.890625 0.953125,-1.609375 0,-0.953125 -0.796875,-1.5625 -1.78125,-1.5625 -0.96875,0 -1.59375,0.71875 -1.59375,1.4375 0,0.390625 0.3125,0.4375 0.421875,0.4375 0.171875,0 0.421875,-0.109375 0.421875,-0.421875 0,-0.40625 -0.40625,-0.40625 -0.5,-0.40625 C 1,-4.84375 1.53125,-5.03125 1.921875,-5.03125 c 0.734375,0 1.125,0.625 1.125,1.296875 0,0.828125 -0.578125,1.4375 -1.53125,2.390625 l -1,1.046875 C 0.421875,-0.21875 0.421875,-0.203125 0.421875,0 H 3.5625 l 0.234375,-1.421875 h -0.25 C 3.53125,-1.265625 3.46875,-0.875 3.375,-0.71875 c -0.046875,0.0625 -0.65625,0.0625 -0.78125,0.0625 H 1.171875 Z m 0,0"
               id="path4327" />
          </g>
        </g>
      </g>
    </g>
    <g
       inkscape:label=""
       transform="matrix(0.750002,0,0,0.750002,114.1956,228.1508)"
       id="g6305">
      <g
         id="g6303"
         transform="matrix(1.33333,0,0,1.33333,-0.625,0.224167)">
        <g
           style="fill:#000000;fill-opacity:1"
           id="g6223">
          <g
             id="g6221"
             transform="translate(0,10.242)">
            <path
               style="stroke:none"
               d="m 5.265625,-5.15625 c 0,-0.0625 -0.046875,-0.109375 -0.109375,-0.109375 -0.09375,0 -0.546875,0.4375 -0.78125,0.859375 -0.21875,-0.546875 -0.578125,-0.859375 -1.09375,-0.859375 -1.359375,0 -2.8125,1.734375 -2.8125,3.515625 0,1.171875 0.6875,1.875 1.5,1.875 0.640625,0 1.15625,-0.484375 1.40625,-0.765625 L 3.390625,-0.625 2.9375,1.171875 2.828125,1.609375 c -0.109375,0.34375 -0.28125,0.34375 -0.84375,0.359375 -0.125,0 -0.25,0 -0.25,0.234375 0,0.078125 0.078125,0.109375 0.15625,0.109375 0.171875,0 0.375,-0.015625 0.546875,-0.015625 h 1.21875 c 0.1875,0 0.390625,0.015625 0.5625,0.015625 0.078125,0 0.21875,0 0.21875,-0.21875 0,-0.125 -0.09375,-0.125 -0.28125,-0.125 -0.5625,0 -0.59375,-0.078125 -0.59375,-0.171875 0,-0.0625 0.015625,-0.078125 0.046875,-0.234375 z m -1.6875,3.734375 C 3.53125,-1.21875 3.53125,-1.1875 3.359375,-0.96875 3.09375,-0.640625 2.5625,-0.125 2.015625,-0.125 1.515625,-0.125 1.25,-0.5625 1.25,-1.265625 c 0,-0.65625 0.359375,-2 0.59375,-2.5 0.40625,-0.84375 0.96875,-1.265625 1.4375,-1.265625 0.78125,0 0.9375,0.984375 0.9375,1.078125 0,0.015625 -0.03125,0.15625 -0.046875,0.1875 z m 0,0"
               id="path6219" />
          </g>
        </g>
        <g
           style="fill:#000000;fill-opacity:1"
           id="g6229">
          <g
             id="g6227"
             transform="translate(5.1900001,12.036)">
            <path
               style="stroke:none"
               d="m 1.59375,-1.3125 c 0.03125,-0.109375 0.109375,-0.421875 0.125,-0.53125 0.109375,-0.4375 0.109375,-0.4375 0.296875,-0.703125 0.265625,-0.390625 0.640625,-0.75 1.171875,-0.75 0.28125,0 0.453125,0.171875 0.453125,0.546875 0,0.4375 -0.328125,1.34375 -0.484375,1.734375 -0.109375,0.265625 -0.109375,0.3125 -0.109375,0.421875 0,0.453125 0.375,0.671875 0.71875,0.671875 0.78125,0 1.109375,-1.109375 1.109375,-1.21875 C 4.875,-1.21875 4.8125,-1.25 4.75,-1.25 c -0.09375,0 -0.109375,0.0625 -0.125,0.140625 -0.1875,0.65625 -0.53125,0.96875 -0.828125,0.96875 -0.125,0 -0.1875,-0.078125 -0.1875,-0.265625 0,-0.1875 0.0625,-0.359375 0.140625,-0.5625 0.109375,-0.296875 0.46875,-1.21875 0.46875,-1.65625 0,-0.609375 -0.421875,-0.890625 -0.984375,-0.890625 -0.65625,0 -1.0625,0.390625 -1.296875,0.6875 -0.0625,-0.4375 -0.40625,-0.6875 -0.8125,-0.6875 -0.28125,0 -0.484375,0.1875 -0.609375,0.4375 -0.203125,0.375 -0.28125,0.765625 -0.28125,0.78125 0,0.078125 0.0625,0.109375 0.125,0.109375 0.109375,0 0.109375,-0.03125 0.171875,-0.25 0.09375,-0.390625 0.234375,-0.859375 0.5625,-0.859375 0.21875,0 0.265625,0.203125 0.265625,0.375 0,0.15625 -0.046875,0.296875 -0.109375,0.5625 -0.015625,0.0625 -0.140625,0.53125 -0.171875,0.640625 L 0.78125,-0.515625 c -0.03125,0.125 -0.078125,0.3125 -0.078125,0.34375 0,0.1875 0.15625,0.25 0.265625,0.25 0.140625,0 0.265625,-0.09375 0.3125,-0.1875 C 1.3125,-0.15625 1.375,-0.4375 1.40625,-0.59375 Z m 0,0"
               id="path6225" />
          </g>
        </g>
        <g
           style="fill:#000000;fill-opacity:1"
           id="g6235">
          <g
             id="g6233"
             transform="translate(14.147,10.242)">
            <path
               style="stroke:none"
               d="m 8.0625,-3.875 c 0.171875,0 0.390625,0 0.390625,-0.21875 C 8.453125,-4.3125 8.25,-4.3125 8.0625,-4.3125 H 1.03125 c -0.171875,0 -0.390625,0 -0.390625,0.21875 0,0.21875 0.203125,0.21875 0.390625,0.21875 z m 0,2.21875 c 0.171875,0 0.390625,0 0.390625,-0.203125 C 8.453125,-2.09375 8.25,-2.09375 8.0625,-2.09375 H 1.03125 c -0.171875,0 -0.390625,0 -0.390625,0.21875 0,0.21875 0.203125,0.21875 0.390625,0.21875 z m 0,0"
               id="path6231" />
          </g>
        </g>
        <g
           style="fill:#000000;fill-opacity:1"
           id="g6241">
          <g
             id="g6239"
             transform="translate(26.573,10.242)">
            <path
               style="stroke:none"
               d="m 7.875,-2.75 c 0.203125,0 0.421875,0 0.421875,-0.234375 0,-0.25 -0.21875,-0.25 -0.421875,-0.25 H 1.40625 c -0.203125,0 -0.421875,0 -0.421875,0.25 0,0.234375 0.21875,0.234375 0.421875,0.234375 z m 0,0"
               id="path6237" />
          </g>
        </g>
        <g
           style="fill:#000000;fill-opacity:1"
           id="g6247">
          <g
             id="g6245"
             transform="translate(35.870998,10.242)">
            <path
               style="stroke:none"
               d="m 3.359375,-8 c 0.015625,-0.046875 0.03125,-0.109375 0.03125,-0.171875 0,-0.125 -0.109375,-0.125 -0.140625,-0.125 -0.015625,0 -0.4375,0.03125 -0.65625,0.0625 C 2.390625,-8.21875 2.21875,-8.203125 2,-8.1875 c -0.296875,0.03125 -0.375,0.03125 -0.375,0.25 0,0.125 0.125,0.125 0.234375,0.125 0.609375,0 0.609375,0.109375 0.609375,0.21875 0,0.046875 0,0.078125 -0.046875,0.296875 L 0.703125,-0.46875 C 0.65625,-0.28125 0.65625,-0.265625 0.65625,-0.1875 c 0,0.265625 0.203125,0.3125 0.328125,0.3125 0.328125,0 0.40625,-0.265625 0.5,-0.640625 L 2.046875,-2.75 c 0.859375,0.09375 1.375,0.453125 1.375,1.03125 0,0.0625 0,0.109375 -0.046875,0.296875 -0.046875,0.171875 -0.046875,0.328125 -0.046875,0.375 0,0.703125 0.46875,1.171875 1.078125,1.171875 0.546875,0 0.828125,-0.5 0.921875,-0.671875 0.25,-0.4375 0.40625,-1.109375 0.40625,-1.15625 0,-0.0625 -0.046875,-0.109375 -0.109375,-0.109375 -0.109375,0 -0.125,0.046875 -0.171875,0.234375 C 5.28125,-0.953125 5.03125,-0.125 4.421875,-0.125 4.1875,-0.125 4.03125,-0.234375 4.03125,-0.6875 c 0,-0.234375 0.046875,-0.5 0.09375,-0.671875 0.046875,-0.21875 0.046875,-0.234375 0.046875,-0.375 0,-0.703125 -0.640625,-1.09375 -1.734375,-1.234375 0.4375,-0.265625 0.859375,-0.734375 1.03125,-0.921875 0.671875,-0.765625 1.140625,-1.140625 1.6875,-1.140625 0.28125,0 0.359375,0.078125 0.4375,0.140625 -0.4375,0.046875 -0.609375,0.359375 -0.609375,0.59375 0,0.296875 0.234375,0.390625 0.390625,0.390625 0.328125,0 0.609375,-0.28125 0.609375,-0.65625 0,-0.34375 -0.265625,-0.703125 -0.8125,-0.703125 -0.65625,0 -1.1875,0.453125 -2.046875,1.421875 -0.109375,0.140625 -0.5625,0.59375 -1,0.765625 z m 0,0"
               id="path6243" />
          </g>
        </g>
        <g
           style="fill:#000000;fill-opacity:1"
           id="g6253">
          <g
             id="g6251"
             transform="translate(43.556,5.5349998)">
            <path
               style="stroke:none"
               d="M 3.890625,-2.734375 C 3.78125,-3.171875 3.484375,-3.640625 2.75,-3.640625 c -0.75,0 -1.234375,0.34375 -1.609375,0.671875 -0.8125,0.703125 -0.8125,1.625 -0.8125,1.6875 0,0.5 0.390625,1.453125 1.59375,1.453125 0.671875,0 1.375,-0.328125 1.921875,-1.0625 0.515625,-0.71875 0.90625,-1.890625 0.90625,-2.6875 0,-1.296875 -0.796875,-2.125 -1.859375,-2.125 -1.21875,0 -1.59375,1.03125 -1.59375,1.265625 0,0.203125 0.140625,0.296875 0.3125,0.296875 0.25,0 0.453125,-0.21875 0.453125,-0.4375 0,-0.09375 -0.03125,-0.28125 -0.34375,-0.296875 0.3125,-0.515625 0.84375,-0.609375 1.171875,-0.609375 0.71875,0 1.21875,0.546875 1.21875,1.46875 0,0.453125 -0.09375,0.875 -0.203125,1.28125 z M 1.9375,-0.078125 c -0.890625,0 -0.9375,-0.75 -0.9375,-0.90625 0,-0.3125 0.234375,-1.15625 0.3125,-1.359375 0.203125,-0.46875 0.703125,-1.078125 1.46875,-1.078125 0.671875,0 0.953125,0.515625 0.953125,1.078125 0,0.609375 -0.5625,2.265625 -1.796875,2.265625 z m 0,0"
               id="path6249" />
          </g>
        </g>
        <g
           style="fill:#000000;fill-opacity:1"
           id="g6259">
          <g
             id="g6257"
             transform="translate(48.487103,5.5349998)">
            <path
               style="stroke:none"
               d="M 3.609375,-4.828125 C 3.671875,-5.109375 3.6875,-5.125 4.015625,-5.125 h 0.59375 c 0.828125,0 0.921875,0.265625 0.921875,0.65625 0,0.203125 -0.046875,0.546875 -0.046875,0.59375 -0.015625,0.078125 -0.03125,0.15625 -0.03125,0.171875 0,0.09375 0.078125,0.125 0.125,0.125 0.09375,0 0.125,-0.046875 0.140625,-0.203125 l 0.21875,-1.5 c 0,-0.109375 -0.09375,-0.109375 -0.234375,-0.109375 H 1 c -0.1875,0 -0.21875,0 -0.265625,0.171875 L 0.25,-3.84375 c -0.015625,0.046875 -0.046875,0.109375 -0.046875,0.15625 0,0.0625 0.0625,0.109375 0.125,0.109375 0.09375,0 0.109375,-0.046875 0.15625,-0.171875 C 0.9375,-5.03125 1.15625,-5.125 2.375,-5.125 h 0.3125 c 0.234375,0 0.25,0.015625 0.25,0.078125 0,0.015625 -0.03125,0.171875 -0.046875,0.203125 l -1.046875,4.1875 c -0.078125,0.3125 -0.09375,0.390625 -0.921875,0.390625 -0.265625,0 -0.34375,0 -0.34375,0.15625 0,0 0,0.109375 0.140625,0.109375 0.21875,0 0.765625,-0.03125 0.984375,-0.03125 H 2.375 c 0.21875,0 0.78125,0.03125 1,0.03125 0.0625,0 0.1875,0 0.1875,-0.15625 0,-0.109375 -0.09375,-0.109375 -0.296875,-0.109375 -0.203125,0 -0.265625,0 -0.46875,-0.015625 -0.25,-0.015625 -0.28125,-0.046875 -0.28125,-0.15625 0,-0.03125 0,-0.0625 0.03125,-0.140625 z m 0,0"
               id="path6255" />
          </g>
        </g>
        <path
           style="fill:none;stroke:#000000;stroke-width:0.478;stroke-linecap:butt;stroke-linejoin:miter;stroke-miterlimit:10;stroke-opacity:1"
           d="M -0.0013125,9.375e-5 H 11.03775"
           transform="matrix(1,0,0,-1,43.556,7.254)"
           id="path6261" />
        <g
           clip-path="url(#clipPath3246)"
           clip-rule="nonzero"
           id="g6269">
          <g
             style="fill:#000000;fill-opacity:1"
             id="g6267">
            <g
               id="g6265"
               transform="translate(43.896999,14.365)">
              <path
                 style="stroke:none"
                 d="M 3.890625,-2.734375 C 3.78125,-3.171875 3.484375,-3.640625 2.75,-3.640625 c -0.75,0 -1.234375,0.34375 -1.609375,0.671875 -0.8125,0.703125 -0.8125,1.625 -0.8125,1.6875 0,0.5 0.390625,1.453125 1.59375,1.453125 0.671875,0 1.375,-0.328125 1.921875,-1.0625 0.515625,-0.71875 0.90625,-1.890625 0.90625,-2.6875 0,-1.296875 -0.796875,-2.125 -1.859375,-2.125 -1.21875,0 -1.59375,1.03125 -1.59375,1.265625 0,0.203125 0.140625,0.296875 0.3125,0.296875 0.25,0 0.453125,-0.21875 0.453125,-0.4375 0,-0.09375 -0.03125,-0.28125 -0.34375,-0.296875 0.3125,-0.515625 0.84375,-0.609375 1.171875,-0.609375 0.71875,0 1.21875,0.546875 1.21875,1.46875 0,0.453125 -0.09375,0.875 -0.203125,1.28125 z M 1.9375,-0.078125 c -0.890625,0 -0.9375,-0.75 -0.9375,-0.90625 0,-0.3125 0.234375,-1.15625 0.3125,-1.359375 0.203125,-0.46875 0.703125,-1.078125 1.46875,-1.078125 0.671875,0 0.953125,0.515625 0.953125,1.078125 0,0.609375 -0.5625,2.265625 -1.796875,2.265625 z m 0,0"
                 id="path6263" />
            </g>
          </g>
        </g>
        <g
           clip-path="url(#clipPath8402)"
           clip-rule="nonzero"
           id="g6277">
          <g
             style="fill:#000000;fill-opacity:1"
             id="g6275">
            <g
               id="g6273"
               transform="translate(48.828999,14.365)">
              <path
                 style="stroke:none"
                 d="m 4.65625,-2.421875 c 0,-0.96875 -0.609375,-1.171875 -1.3125,-1.171875 -0.96875,0 -1.40625,0.640625 -1.5,0.8125 v -0.8125 l -1.390625,0.0625 v 0.421875 c 0.46875,0 0.515625,0 0.515625,0.296875 v 2.390625 H 0.453125 V 0 c 0.421875,-0.03125 0.703125,-0.03125 1,-0.03125 0.3125,0 0.59375,0 1.015625,0.03125 V -0.421875 H 1.9375 v -1.59375 c 0,-0.890625 0.765625,-1.25 1.28125,-1.25 C 3.5,-3.265625 3.6875,-3.125 3.6875,-2.5 v 2.078125 H 3.15625 V 0 c 0.421875,-0.03125 0.703125,-0.03125 1.015625,-0.03125 0.3125,0 0.578125,0 1,0.03125 V -0.421875 H 4.65625 Z m 0,0"
                 id="path6271" />
            </g>
          </g>
        </g>
        <g
           style="fill:#000000;fill-opacity:1"
           id="g6283">
          <g
             id="g6281"
             transform="translate(59.111,10.242)">
            <path
               style="stroke:none"
               d="m 8.0625,-3.875 c 0.171875,0 0.390625,0 0.390625,-0.21875 C 8.453125,-4.3125 8.25,-4.3125 8.0625,-4.3125 H 1.03125 c -0.171875,0 -0.390625,0 -0.390625,0.21875 0,0.21875 0.203125,0.21875 0.390625,0.21875 z m 0,2.21875 c 0.171875,0 0.390625,0 0.390625,-0.203125 C 8.453125,-2.09375 8.25,-2.09375 8.0625,-2.09375 H 1.03125 c -0.171875,0 -0.390625,0 -0.390625,0.21875 0,0.21875 0.203125,0.21875 0.390625,0.21875 z m 0,0"
               id="path6279" />
          </g>
        </g>
        <g
           style="fill:#000000;fill-opacity:1"
           id="g6289">
          <g
             id="g6287"
             transform="translate(72.400398,10.242)">
            <path
               style="stroke:none"
               d="M 5.03125,-6.65625 V -7 H 0.8125 v 0.34375 z m 0,0"
               id="path6285" />
          </g>
        </g>
        <g
           style="fill:#000000;fill-opacity:1"
           id="g6295">
          <g
             id="g6293"
             transform="translate(71.536003,10.242)">
            <path
               style="stroke:none"
               d="m 5.265625,-5.15625 c 0,-0.0625 -0.046875,-0.109375 -0.109375,-0.109375 -0.09375,0 -0.546875,0.4375 -0.78125,0.859375 -0.21875,-0.546875 -0.578125,-0.859375 -1.09375,-0.859375 -1.359375,0 -2.8125,1.734375 -2.8125,3.515625 0,1.171875 0.6875,1.875 1.5,1.875 0.640625,0 1.15625,-0.484375 1.40625,-0.765625 L 3.390625,-0.625 2.9375,1.171875 2.828125,1.609375 c -0.109375,0.34375 -0.28125,0.34375 -0.84375,0.359375 -0.125,0 -0.25,0 -0.25,0.234375 0,0.078125 0.078125,0.109375 0.15625,0.109375 0.171875,0 0.375,-0.015625 0.546875,-0.015625 h 1.21875 c 0.1875,0 0.390625,0.015625 0.5625,0.015625 0.078125,0 0.21875,0 0.21875,-0.21875 0,-0.125 -0.09375,-0.125 -0.28125,-0.125 -0.5625,0 -0.59375,-0.078125 -0.59375,-0.171875 0,-0.0625 0.015625,-0.078125 0.046875,-0.234375 z m -1.6875,3.734375 C 3.53125,-1.21875 3.53125,-1.1875 3.359375,-0.96875 3.09375,-0.640625 2.5625,-0.125 2.015625,-0.125 1.515625,-0.125 1.25,-0.5625 1.25,-1.265625 c 0,-0.65625 0.359375,-2 0.59375,-2.5 0.40625,-0.84375 0.96875,-1.265625 1.4375,-1.265625 0.78125,0 0.9375,0.984375 0.9375,1.078125 0,0.015625 -0.03125,0.15625 -0.046875,0.1875 z m 0,0"
               id="path6291" />
          </g>
        </g>
        <g
           style="fill:#000000;fill-opacity:1"
           id="g6301">
          <g
             id="g6299"
             transform="translate(76.725998,12.036)">
            <path
               style="stroke:none"
               d="m 2.015625,-2.65625 c 0.625,0 1.03125,0.453125 1.03125,1.296875 0,1 -0.5625,1.28125 -0.984375,1.28125 -0.4375,0 -1.046875,-0.15625 -1.328125,-0.578125 0.296875,0 0.5,-0.1875 0.5,-0.4375 0,-0.265625 -0.1875,-0.4375 -0.453125,-0.4375 -0.203125,0 -0.4375,0.125 -0.4375,0.453125 0,0.75 0.8125,1.25 1.734375,1.25 C 3.125,0.171875 3.875,-0.5625 3.875,-1.359375 3.875,-2.03125 3.34375,-2.625 2.53125,-2.8125 c 0.625,-0.21875 1.109375,-0.75 1.109375,-1.390625 0,-0.640625 -0.71875,-1.09375 -1.546875,-1.09375 -0.859375,0 -1.5,0.453125 -1.5,1.0625 0,0.296875 0.1875,0.421875 0.40625,0.421875 0.25,0 0.40625,-0.171875 0.40625,-0.40625 0,-0.296875 -0.265625,-0.40625 -0.4375,-0.40625 0.34375,-0.4375 0.953125,-0.46875 1.09375,-0.46875 0.203125,0 0.8125,0.0625 0.8125,0.890625 0,0.546875 -0.234375,0.890625 -0.34375,1.015625 -0.234375,0.25 -0.421875,0.265625 -0.90625,0.296875 -0.15625,0 -0.21875,0.015625 -0.21875,0.125 0,0.109375 0.078125,0.109375 0.21875,0.109375 z m 0,0"
               id="path6297" />
          </g>
        </g>
      </g>
    </g>
    <g
       inkscape:label=""
       transform="matrix(0.750002,0,0,0.750002,79.116819,139.80644)"
       id="g7569">
      <g
         id="g7567"
         transform="matrix(1.33333,0,0,1.33333,-0.375,0.330667)">
        <g
           clip-path="url(#clipPath5621)"
           clip-rule="nonzero"
           id="g31">
          <g
             style="fill:#000000;fill-opacity:1"
             id="g29">
            <g
               id="use27"
               transform="translate(0,9.7740002)">
              <path
                 style="stroke:none"
                 d="M 4.984375,-7.296875 C 5.0625,-7.578125 5.078125,-7.6875 5.265625,-7.734375 5.359375,-7.75 5.75,-7.75 6,-7.75 c 1.203125,0 1.75,0.046875 1.75,0.96875 0,0.1875 -0.046875,0.640625 -0.109375,1.078125 L 7.625,-5.5625 c 0,0.046875 0.046875,0.125 0.125,0.125 0.109375,0 0.109375,-0.0625 0.15625,-0.25 L 8.25,-7.8125 c 0.015625,-0.09375 0.015625,-0.125 0.015625,-0.15625 0,-0.140625 -0.0625,-0.140625 -0.3125,-0.140625 h -6.53125 c -0.28125,0 -0.28125,0.015625 -0.359375,0.234375 l -0.734375,2.15625 c 0,0.015625 -0.046875,0.15625 -0.046875,0.15625 0,0.0625 0.046875,0.125 0.125,0.125 0.09375,0 0.125,-0.046875 0.171875,-0.203125 0.5,-1.453125 0.75,-2.109375 2.34375,-2.109375 H 3.71875 c 0.28125,0 0.40625,0 0.40625,0.125 0,0.03125 0,0.0625 -0.0625,0.28125 L 2.46875,-0.9375 c -0.125,0.46875 -0.15625,0.59375 -1.421875,0.59375 -0.296875,0 -0.375,0 -0.375,0.21875 0,0.125 0.125,0.125 0.1875,0.125 0.296875,0 0.609375,-0.03125 0.90625,-0.03125 h 1.875 C 3.9375,-0.03125 4.25,0 4.546875,0 4.6875,0 4.8125,0 4.8125,-0.234375 c 0,-0.109375 -0.09375,-0.109375 -0.40625,-0.109375 -1.078125,0 -1.078125,-0.109375 -1.078125,-0.296875 0,0 0,-0.09375 0.046875,-0.28125 z m 0,0"
                 id="path52" />
            </g>
          </g>
        </g>
        <g
           style="fill:#000000;fill-opacity:1"
           id="g35">
          <g
             id="use33"
             transform="translate(11.808,9.7740002)">
            <path
               style="stroke:none"
               d="m 8.0625,-3.875 c 0.171875,0 0.390625,0 0.390625,-0.21875 C 8.453125,-4.3125 8.25,-4.3125 8.0625,-4.3125 H 1.03125 c -0.171875,0 -0.390625,0 -0.390625,0.21875 0,0.21875 0.203125,0.21875 0.390625,0.21875 z m 0,2.21875 c 0.171875,0 0.390625,0 0.390625,-0.203125 C 8.453125,-2.09375 8.25,-2.09375 8.0625,-2.09375 H 1.03125 c -0.171875,0 -0.390625,0 -0.390625,0.21875 0,0.21875 0.203125,0.21875 0.390625,0.21875 z m 0,0"
               id="path7556" />
          </g>
        </g>
        <g
           style="fill:#000000;fill-opacity:1"
           id="g39">
          <g
             id="use37"
             transform="translate(26.525999,6.7519999)">
            <path
               style="stroke:none"
               d="M 5.03125,-6.65625 V -7 H 0.8125 v 0.34375 z m 0,0"
               id="path60" />
          </g>
        </g>
        <g
           clip-path="url(#clipPath4194)"
           clip-rule="nonzero"
           id="g45">
          <g
             style="fill:#000000;fill-opacity:1"
             id="g43">
            <g
               id="use41"
               transform="translate(24.233,9.7740002)">
              <path
                 style="stroke:none"
                 d="M 4.984375,-7.296875 C 5.0625,-7.578125 5.078125,-7.6875 5.265625,-7.734375 5.359375,-7.75 5.75,-7.75 6,-7.75 c 1.203125,0 1.75,0.046875 1.75,0.96875 0,0.1875 -0.046875,0.640625 -0.109375,1.078125 L 7.625,-5.5625 c 0,0.046875 0.046875,0.125 0.125,0.125 0.109375,0 0.109375,-0.0625 0.15625,-0.25 L 8.25,-7.8125 c 0.015625,-0.09375 0.015625,-0.125 0.015625,-0.15625 0,-0.140625 -0.0625,-0.140625 -0.3125,-0.140625 h -6.53125 c -0.28125,0 -0.28125,0.015625 -0.359375,0.234375 l -0.734375,2.15625 c 0,0.015625 -0.046875,0.15625 -0.046875,0.15625 0,0.0625 0.046875,0.125 0.125,0.125 0.09375,0 0.125,-0.046875 0.171875,-0.203125 0.5,-1.453125 0.75,-2.109375 2.34375,-2.109375 H 3.71875 c 0.28125,0 0.40625,0 0.40625,0.125 0,0.03125 0,0.0625 -0.0625,0.28125 L 2.46875,-0.9375 c -0.125,0.46875 -0.15625,0.59375 -1.421875,0.59375 -0.296875,0 -0.375,0 -0.375,0.21875 0,0.125 0.125,0.125 0.1875,0.125 0.296875,0 0.609375,-0.03125 0.90625,-0.03125 h 1.875 C 3.9375,-0.03125 4.25,0 4.546875,0 4.6875,0 4.8125,0 4.8125,-0.234375 c 0,-0.109375 -0.09375,-0.109375 -0.40625,-0.109375 -1.078125,0 -1.078125,-0.109375 -1.078125,-0.296875 0,0 0,-0.09375 0.046875,-0.28125 z m 0,0"
                 id="path64" />
            </g>
          </g>
        </g>
      </g>
    </g>
    <g
       inkscape:label=""
       transform="matrix(0.750002,0,0,0.750002,270.08128,37.333612)"
       id="g9446">
      <g
         id="g9444"
         transform="matrix(1.33333,0,0,1.33333,-0.375,-0.0808334)">
        <g
           style="fill:#000000;fill-opacity:1"
           id="g9431">
          <g
             id="g9429"
             transform="translate(0,8.1700001)">
            <path
               style="stroke:none"
               d="M 4.984375,-7.296875 C 5.0625,-7.578125 5.078125,-7.6875 5.265625,-7.734375 5.359375,-7.75 5.75,-7.75 6,-7.75 c 1.203125,0 1.75,0.046875 1.75,0.96875 0,0.1875 -0.046875,0.640625 -0.109375,1.078125 L 7.625,-5.5625 c 0,0.046875 0.046875,0.125 0.125,0.125 0.109375,0 0.109375,-0.0625 0.15625,-0.25 L 8.25,-7.8125 c 0.015625,-0.09375 0.015625,-0.125 0.015625,-0.15625 0,-0.140625 -0.0625,-0.140625 -0.3125,-0.140625 h -6.53125 c -0.28125,0 -0.28125,0.015625 -0.359375,0.234375 l -0.734375,2.15625 c 0,0.015625 -0.046875,0.15625 -0.046875,0.15625 0,0.0625 0.046875,0.125 0.125,0.125 0.09375,0 0.125,-0.046875 0.171875,-0.203125 0.5,-1.453125 0.75,-2.109375 2.34375,-2.109375 H 3.71875 c 0.28125,0 0.40625,0 0.40625,0.125 0,0.03125 0,0.0625 -0.0625,0.28125 L 2.46875,-0.9375 c -0.125,0.46875 -0.15625,0.59375 -1.421875,0.59375 -0.296875,0 -0.375,0 -0.375,0.21875 0,0.125 0.125,0.125 0.1875,0.125 0.296875,0 0.609375,-0.03125 0.90625,-0.03125 h 1.875 C 3.9375,-0.03125 4.25,0 4.546875,0 4.6875,0 4.8125,0 4.8125,-0.234375 c 0,-0.109375 -0.09375,-0.109375 -0.40625,-0.109375 -1.078125,0 -1.078125,-0.109375 -1.078125,-0.296875 0,0 0,-0.09375 0.046875,-0.28125 z m 0,0"
               id="path50" />
          </g>
        </g>
        <g
           style="fill:#000000;fill-opacity:1"
           id="g33">
          <g
             id="use31"
             transform="translate(11.808,8.1700001)">
            <path
               style="stroke:none"
               d="m 8.0625,-3.875 c 0.171875,0 0.390625,0 0.390625,-0.21875 C 8.453125,-4.3125 8.25,-4.3125 8.0625,-4.3125 H 1.03125 c -0.171875,0 -0.390625,0 -0.390625,0.21875 0,0.21875 0.203125,0.21875 0.390625,0.21875 z m 0,2.21875 c 0.171875,0 0.390625,0 0.390625,-0.203125 C 8.453125,-2.09375 8.25,-2.09375 8.0625,-2.09375 H 1.03125 c -0.171875,0 -0.390625,0 -0.390625,0.21875 0,0.21875 0.203125,0.21875 0.390625,0.21875 z m 0,0"
               id="path54" />
          </g>
        </g>
        <g
           style="fill:#000000;fill-opacity:1"
           id="g37">
          <g
             id="use35"
             transform="translate(24.233,8.1700001)">
            <path
               style="stroke:none"
               d="M 4.984375,-7.296875 C 5.0625,-7.578125 5.078125,-7.6875 5.265625,-7.734375 5.359375,-7.75 5.75,-7.75 6,-7.75 c 1.203125,0 1.75,0.046875 1.75,0.96875 0,0.1875 -0.046875,0.640625 -0.109375,1.078125 L 7.625,-5.5625 c 0,0.046875 0.046875,0.125 0.125,0.125 0.109375,0 0.109375,-0.0625 0.15625,-0.25 L 8.25,-7.8125 c 0.015625,-0.09375 0.015625,-0.125 0.015625,-0.15625 0,-0.140625 -0.0625,-0.140625 -0.3125,-0.140625 h -6.53125 c -0.28125,0 -0.28125,0.015625 -0.359375,0.234375 l -0.734375,2.15625 c 0,0.015625 -0.046875,0.15625 -0.046875,0.15625 0,0.0625 0.046875,0.125 0.125,0.125 0.09375,0 0.125,-0.046875 0.171875,-0.203125 0.5,-1.453125 0.75,-2.109375 2.34375,-2.109375 H 3.71875 c 0.28125,0 0.40625,0 0.40625,0.125 0,0.03125 0,0.0625 -0.0625,0.28125 L 2.46875,-0.9375 c -0.125,0.46875 -0.15625,0.59375 -1.421875,0.59375 -0.296875,0 -0.375,0 -0.375,0.21875 0,0.125 0.125,0.125 0.1875,0.125 0.296875,0 0.609375,-0.03125 0.90625,-0.03125 h 1.875 C 3.9375,-0.03125 4.25,0 4.546875,0 4.6875,0 4.8125,0 4.8125,-0.234375 c 0,-0.109375 -0.09375,-0.109375 -0.40625,-0.109375 -1.078125,0 -1.078125,-0.109375 -1.078125,-0.296875 0,0 0,-0.09375 0.046875,-0.28125 z m 0,0"
               id="path58" />
          </g>
        </g>
        <g
           clip-path="url(#clipPath629)"
           clip-rule="nonzero"
           id="g9442">
          <g
             style="fill:#000000;fill-opacity:1"
             id="g41">
            <g
               id="use39"
               transform="translate(31.094,9.9630003)">
              <path
                 style="stroke:none"
                 d="m 4.296875,-2.1875 c -0.46875,-0.5625 -0.53125,-0.625 -0.8125,-0.828125 -0.359375,-0.28125 -0.84375,-0.5 -1.375,-0.5 -0.96875,0 -1.640625,0.859375 -1.640625,1.796875 0,0.9375 0.65625,1.796875 1.609375,1.796875 0.65625,0 1.421875,-0.34375 2.078125,-1.328125 0.46875,0.5625 0.53125,0.625 0.8125,0.828125 0.375,0.28125 0.859375,0.5 1.375,0.5 C 7.328125,0.078125 8,-0.765625 8,-1.71875 8,-2.65625 7.328125,-3.515625 6.390625,-3.515625 c -0.65625,0 -1.421875,0.34375 -2.09375,1.328125 z m 0.25,0.296875 C 4.84375,-2.390625 5.5,-3.21875 6.4375,-3.21875 c 0.859375,0 1.328125,0.78125 1.328125,1.5 0,0.765625 -0.578125,1.375 -1.28125,1.375 -0.703125,0 -1.171875,-0.59375 -1.9375,-1.546875 z m -0.625,0.34375 c -0.296875,0.5 -0.953125,1.328125 -1.890625,1.328125 -0.859375,0 -1.34375,-0.78125 -1.34375,-1.5 0,-0.765625 0.59375,-1.359375 1.296875,-1.359375 0.703125,0 1.171875,0.578125 1.9375,1.53125 z m 0,0"
                 id="path62" />
            </g>
          </g>
        </g>
      </g>
    </g>
    <g
       inkscape:label=""
       transform="matrix(0.750002,0,0,0.750002,151.59401,97.53149)"
       id="g10744">
      <g
         id="g10742"
         transform="matrix(1.33333,0,0,1.33333,-0.729167,-0.0169996)">
        <g
           clip-path="url(#clipPath3957)"
           clip-rule="nonzero"
           id="g19">
          <g
             style="fill:#000000;fill-opacity:1"
             id="g17">
            <g
               id="use15"
               transform="translate(0,8.1689997)">
              <path
                 style="stroke:none"
                 d="M 4.390625,-7.25 C 4.5,-7.703125 4.53125,-7.8125 5.578125,-7.8125 c 0.328125,0 0.40625,0 0.40625,-0.234375 0,-0.109375 -0.125,-0.109375 -0.171875,-0.109375 -0.25,0 -0.515625,0.015625 -0.75,0.015625 H 3.453125 c -0.21875,0 -0.484375,-0.015625 -0.71875,-0.015625 -0.09375,0 -0.21875,0 -0.21875,0.21875 0,0.125 0.109375,0.125 0.28125,0.125 0.734375,0 0.734375,0.09375 0.734375,0.21875 0,0.03125 0,0.09375 -0.046875,0.28125 l -1.625,6.421875 C 1.75,-0.46875 1.734375,-0.34375 0.890625,-0.34375 c -0.21875,0 -0.34375,0 -0.34375,0.21875 C 0.546875,0 0.625,0 0.859375,0 H 6.21875 C 6.484375,0 6.484375,-0.015625 6.578125,-0.234375 L 7.5,-2.765625 c 0.015625,-0.0625 0.046875,-0.140625 0.046875,-0.171875 0,-0.078125 -0.0625,-0.125 -0.125,-0.125 -0.015625,0 -0.078125,0 -0.09375,0.046875 C 7.296875,-3 7.296875,-2.96875 7.203125,-2.75 c -0.375,1.046875 -0.921875,2.40625 -2.9375,2.40625 H 3.125 c -0.171875,0 -0.203125,0 -0.265625,-0.015625 C 2.71875,-0.375 2.71875,-0.390625 2.71875,-0.484375 c 0,-0.09375 0.015625,-0.15625 0.046875,-0.265625 z m 0,0"
                 id="path26" />
            </g>
          </g>
        </g>
      </g>
    </g>
    <g
       inkscape:label=""
       transform="matrix(0.750002,0,0,0.750002,219.71013,136.9202)"
       id="g12053">
      <g
         id="g12051"
         transform="matrix(1.33333,0,0,1.33333,-0.729167,-0.0169996)">
        <g
           clip-path="url(#clipPath2349)"
           clip-rule="nonzero"
           id="g12049">
          <g
             style="fill:#000000;fill-opacity:1"
             id="g12047">
            <g
               id="g12045"
               transform="translate(0,8.1689997)">
              <path
                 style="stroke:none"
                 d="M 8.9375,-7.296875 C 9.046875,-7.703125 9.078125,-7.8125 9.921875,-7.8125 c 0.21875,0 0.328125,0 0.328125,-0.21875 0,-0.125 -0.109375,-0.125 -0.171875,-0.125 -0.21875,0 -0.46875,0.015625 -0.6875,0.015625 H 7.96875 C 7.75,-8.140625 7.5,-8.15625 7.265625,-8.15625 c -0.078125,0 -0.21875,0 -0.21875,0.21875 0,0.125 0.078125,0.125 0.296875,0.125 0.71875,0 0.71875,0.09375 0.71875,0.21875 0,0.03125 0,0.09375 -0.046875,0.28125 l -0.71875,2.890625 H 3.6875 l 0.71875,-2.875 C 4.5,-7.703125 4.53125,-7.8125 5.375,-7.8125 c 0.21875,0 0.34375,0 0.34375,-0.21875 0,-0.125 -0.109375,-0.125 -0.1875,-0.125 -0.21875,0 -0.46875,0.015625 -0.6875,0.015625 H 3.4375 c -0.234375,0 -0.484375,-0.015625 -0.71875,-0.015625 -0.078125,0 -0.21875,0 -0.21875,0.21875 0,0.125 0.078125,0.125 0.3125,0.125 0.71875,0 0.71875,0.09375 0.71875,0.21875 0,0.03125 0,0.09375 -0.046875,0.28125 l -1.625,6.421875 C 1.75,-0.46875 1.734375,-0.34375 0.90625,-0.34375 c -0.265625,0 -0.359375,0 -0.359375,0.21875 C 0.546875,0 0.6875,0 0.71875,0 0.9375,0 1.1875,-0.03125 1.40625,-0.03125 H 2.828125 C 3.046875,-0.03125 3.296875,0 3.53125,0 3.625,0 3.75,0 3.75,-0.234375 3.75,-0.34375 3.640625,-0.34375 3.46875,-0.34375 c -0.734375,0 -0.734375,-0.09375 -0.734375,-0.21875 0,-0.015625 0,-0.09375 0.03125,-0.1875 l 0.8125,-3.328125 h 3.625 C 7,-3.28125 6.390625,-0.78125 6.375,-0.71875 c -0.140625,0.359375 -0.328125,0.359375 -1.03125,0.375 -0.140625,0 -0.25,0 -0.25,0.21875 C 5.09375,0 5.21875,0 5.265625,0 5.46875,0 5.71875,-0.03125 5.953125,-0.03125 h 1.40625 C 7.59375,-0.03125 7.84375,0 8.0625,0 c 0.09375,0 0.234375,0 0.234375,-0.234375 0,-0.109375 -0.109375,-0.109375 -0.28125,-0.109375 -0.734375,0 -0.734375,-0.09375 -0.734375,-0.21875 0,-0.015625 0,-0.09375 0.015625,-0.1875 z m 0,0"
                 id="path12043" />
            </g>
          </g>
        </g>
      </g>
    </g>
    <g
       inkscape:label=""
       transform="matrix(0.750002,0,0,0.750002,241.03912,196.58009)"
       id="g13378">
      <g
         id="g13376"
         transform="matrix(1.33333,0,0,1.33333,-0.75,-0.0169996)">
        <g
           clip-path="url(#clipPath5291)"
           clip-rule="nonzero"
           id="g13374">
          <g
             style="fill:#000000;fill-opacity:1"
             id="g13372">
            <g
               id="g13370"
               transform="translate(0,8.1689997)">
              <path
                 style="stroke:none"
                 d="M 1.875,-0.890625 C 1.765625,-0.46875 1.75,-0.34375 0.90625,-0.34375 c -0.21875,0 -0.34375,0 -0.34375,0.21875 C 0.5625,0 0.640625,0 0.875,0 h 3.78125 c 2.421875,0 4.78125,-2.5 4.78125,-5.15625 0,-1.734375 -1.03125,-3 -2.75,-3 H 2.859375 c -0.234375,0 -0.34375,0 -0.34375,0.21875 0,0.125 0.109375,0.125 0.296875,0.125 0.71875,0 0.71875,0.09375 0.71875,0.21875 0,0.03125 0,0.09375 -0.046875,0.28125 z M 4.40625,-7.34375 C 4.5,-7.796875 4.546875,-7.8125 5.015625,-7.8125 h 1.3125 c 1.125,0 2.15625,0.609375 2.15625,2.25 0,0.609375 -0.234375,2.6875 -1.390625,4 -0.34375,0.390625 -1.25,1.21875 -2.625,1.21875 H 3.109375 c -0.171875,0 -0.1875,0 -0.265625,-0.015625 -0.125,-0.015625 -0.140625,-0.03125 -0.140625,-0.125 0,-0.09375 0.015625,-0.15625 0.046875,-0.265625 z m 0,0"
                 id="path13368" />
            </g>
          </g>
        </g>
      </g>
    </g>
    <path
       style="fill:#f384ff;fill-opacity:1;stroke:#000000;stroke-width:0.75000188;stroke-dasharray:none;marker-end:url(#TriangleStart)"
       d="m 159.84105,68.145311 c 0,-14.435148 0,-14.435148 0,-14.435148"
       id="path14536" />
    <path
       style="fill:#f384ff;fill-opacity:1;stroke:#000000;stroke-width:0.750002;stroke-dasharray:none;marker-end:url(#TriangleStart-3)"
       d="m 156.5731,205.38355 c 0,14.43515 0,14.43515 0,14.43515"
       id="path14536-7" />
    <path
       style="fill:#f384ff;fill-opacity:1;stroke:#000000;stroke-width:0.750002;stroke-dasharray:none;marker-end:url(#TriangleStart-3-5)"
       d="m 247.44651,136.49197 c 14.43515,0 14.43515,0 14.43515,0"
       id="path14536-7-5" />
    <path
       style="fill:none;fill-opacity:1;stroke:#000000;stroke-width:0.750002;stroke-dasharray:none;marker-end:url(#marker15637)"
       d="m 167.78257,147.13174 c 21.04184,95.89716 39.03408,3.72518 73.1153,86.9381"
       id="path15457"
       sodipodi:nodetypes="cc" />
    <g
       inkscape:label=""
       transform="matrix(0.750002,0,0,0.750002,231.61527,243.50778)"
       id="g17671">
      <g
         id="g17669"
         transform="matrix(1.33333,0,0,1.33333,-0.291667,-0.0068334)">
        <g
           style="fill:#000000;fill-opacity:1"
           id="g52">
          <g
             id="use48"
             transform="translate(0,8.302)">
            <path
               style="stroke:none"
               d="M 2.015625,-4.8125 H 3.6875 V -5.15625 H 2.015625 v -2.1875 H 1.75 C 1.734375,-6.234375 1.296875,-5.078125 0.21875,-5.046875 V -4.8125 h 1.015625 v 3.328125 c 0,1.328125 0.875,1.609375 1.515625,1.609375 0.75,0 1.140625,-0.75 1.140625,-1.609375 V -2.15625 h -0.25 V -1.5 c 0,0.859375 -0.359375,1.359375 -0.8125,1.359375 -0.8125,0 -0.8125,-1.109375 -0.8125,-1.3125 z m 0,0"
               id="path113" />
          </g>
          <g
             id="use50"
             transform="translate(4.5525398,8.302)">
            <path
               style="stroke:none"
               d="m 4.609375,-3.1875 c 0,-0.65625 0,-1.125 -0.515625,-1.59375 C 3.671875,-5.15625 3.125,-5.328125 2.609375,-5.328125 1.625,-5.328125 0.875,-4.6875 0.875,-3.90625 c 0,0.34375 0.21875,0.515625 0.5,0.515625 0.28125,0 0.484375,-0.203125 0.484375,-0.5 C 1.859375,-4.375 1.4375,-4.375 1.25,-4.375 c 0.28125,-0.5 0.859375,-0.71875 1.328125,-0.71875 0.546875,0 1.265625,0.453125 1.265625,1.53125 v 0.484375 c -2.40625,0.03125 -3.3125,1.03125 -3.3125,1.953125 0,0.953125 1.09375,1.25 1.828125,1.25 0.78125,0 1.328125,-0.484375 1.546875,-1.0625 0.046875,0.5625 0.421875,1 0.9375,1 0.25,0 0.9375,-0.171875 0.9375,-1.125 V -1.734375 H 5.515625 V -1.0625 c 0,0.6875 -0.28125,0.78125 -0.453125,0.78125 -0.453125,0 -0.453125,-0.640625 -0.453125,-0.8125 z m -0.765625,1.5 c 0,1.171875 -0.875,1.5625 -1.390625,1.5625 -0.59375,0 -1.078125,-0.421875 -1.078125,-1 0,-1.578125 2.03125,-1.71875 2.46875,-1.75 z m 0,0"
               id="path117" />
          </g>
        </g>
        <g
           clip-path="url(#clipPath2258)"
           clip-rule="nonzero"
           id="g58">
          <g
             style="fill:#000000;fill-opacity:1"
             id="g56">
            <g
               id="use54"
               transform="translate(10.106926,8.302)">
              <path
                 style="stroke:none"
                 d="M 3.3125,0.25 H 2.53125 V 0.84375 C 3.125,0.84375 3.5,1.109375 3.5,1.5 3.5,1.859375 3.234375,2.15625 1.90625,2.15625 H 1.546875 v 0.25 H 2.0625 C 3.375,2.40625 4.28125,2.203125 4.28125,1.5 4.28125,0.84375 3.484375,0.6875 3.3125,0.65625 Z m 0,0"
                 id="path121" />
            </g>
          </g>
        </g>
        <g
           style="fill:#000000;fill-opacity:1"
           id="g17625">
          <g
             id="g17613"
             transform="translate(10.408197,8.302)">
            <path
               style="stroke:none"
               d="m 3.921875,-5.0625 c 0,-0.203125 0,-0.265625 -0.125,-0.265625 -0.09375,0 -0.3125,0.265625 -0.40625,0.375 -0.359375,-0.3125 -0.734375,-0.375 -1.125,-0.375 -1.4375,0 -1.875,0.78125 -1.875,1.4375 0,0.140625 0,0.5625 0.453125,0.96875 0.390625,0.34375 0.796875,0.421875 1.34375,0.53125 0.65625,0.125 0.8125,0.171875 1.109375,0.40625 0.21875,0.171875 0.375,0.4375 0.375,0.78125 C 3.671875,-0.6875 3.375,-0.125 2.3125,-0.125 1.53125,-0.125 0.953125,-0.578125 0.6875,-1.765625 0.640625,-1.984375 0.640625,-2 0.640625,-2.015625 0.609375,-2.0625 0.5625,-2.0625 0.53125,-2.0625 0.390625,-2.0625 0.390625,-2 0.390625,-1.78125 v 1.625 c 0,0.21875 0,0.28125 0.125,0.28125 0.0625,0 0.0625,-0.015625 0.265625,-0.265625 C 0.84375,-0.234375 0.84375,-0.25 1.03125,-0.4375 1.484375,0.125 2.125,0.125 2.328125,0.125 c 1.25,0 1.875,-0.703125 1.875,-1.640625 0,-0.640625 -0.390625,-1.03125 -0.5,-1.140625 -0.421875,-0.375 -0.75,-0.4375 -1.546875,-0.578125 -0.34375,-0.078125 -1.21875,-0.25 -1.21875,-0.96875 0,-0.359375 0.25,-0.90625 1.328125,-0.90625 1.296875,0 1.375,1.109375 1.390625,1.46875 0.015625,0.109375 0.09375,0.109375 0.140625,0.109375 0.125,0 0.125,-0.0625 0.125,-0.28125 z m 0,0"
               id="path125" />
          </g>
          <g
             id="use62"
             transform="translate(15.025295,8.302)">
            <path
               style="stroke:none"
               d="m 2.0625,-5.265625 -1.625,0.125 v 0.34375 c 0.75,0 0.859375,0.078125 0.859375,0.65625 v 3.25 c 0,0.546875 -0.125,0.546875 -0.90625,0.546875 V 0 c 0.34375,-0.03125 0.90625,-0.03125 1.265625,-0.03125 0.125,0 0.8125,0 1.21875,0.03125 v -0.34375 c -0.765625,0 -0.8125,-0.0625 -0.8125,-0.53125 z m 0,0"
               id="path129" />
          </g>
          <g
             id="g17618"
             transform="translate(18.277109,8.302)">
            <path
               style="stroke:none"
               d="m 5.3125,-2.90625 c 0,-1.109375 0,-1.4375 -0.265625,-1.828125 -0.34375,-0.46875 -0.90625,-0.53125 -1.3125,-0.53125 -1.171875,0 -1.625,0.984375 -1.71875,1.21875 v -1.21875 l -1.640625,0.125 v 0.34375 c 0.8125,0 0.921875,0.09375 0.921875,0.671875 v 3.234375 c 0,0.546875 -0.140625,0.546875 -0.921875,0.546875 V 0 c 0.3125,-0.03125 0.96875,-0.03125 1.296875,-0.03125 0.34375,0 1,0 1.296875,0.03125 v -0.34375 c -0.75,0 -0.90625,0 -0.90625,-0.546875 v -2.21875 c 0,-1.25 0.828125,-1.921875 1.578125,-1.921875 0.734375,0 0.90625,0.609375 0.90625,1.34375 v 2.796875 c 0,0.546875 -0.140625,0.546875 -0.90625,0.546875 V 0 c 0.296875,-0.03125 0.953125,-0.03125 1.28125,-0.03125 0.34375,0 1,0 1.3125,0.03125 v -0.34375 c -0.609375,0 -0.90625,0 -0.921875,-0.359375 z m 0,0"
               id="path133" />
          </g>
          <g
             id="use66"
             transform="translate(24.780739,8.302)">
            <path
               style="stroke:none"
               d="m 2.0625,-5.265625 -1.625,0.125 v 0.34375 c 0.75,0 0.859375,0.078125 0.859375,0.65625 v 3.25 c 0,0.546875 -0.125,0.546875 -0.90625,0.546875 V 0 c 0.34375,-0.03125 0.90625,-0.03125 1.265625,-0.03125 0.125,0 0.8125,0 1.21875,0.03125 v -0.34375 c -0.765625,0 -0.8125,-0.0625 -0.8125,-0.53125 z m 0,0"
               id="path137" />
          </g>
          <g
             id="g17623"
             transform="translate(28.032553,8.302)">
            <path
               style="stroke:none"
               d="m 8.578125,-2.90625 c 0,-1.109375 0,-1.4375 -0.28125,-1.828125 -0.34375,-0.46875 -0.90625,-0.53125 -1.3125,-0.53125 -1,0 -1.5,0.71875 -1.6875,1.171875 -0.171875,-0.921875 -0.8125,-1.171875 -1.5625,-1.171875 -1.171875,0 -1.625,0.984375 -1.71875,1.21875 v -1.21875 l -1.640625,0.125 v 0.34375 c 0.8125,0 0.921875,0.09375 0.921875,0.671875 v 3.234375 c 0,0.546875 -0.140625,0.546875 -0.921875,0.546875 V 0 c 0.3125,-0.03125 0.96875,-0.03125 1.296875,-0.03125 0.34375,0 1,0 1.296875,0.03125 v -0.34375 c -0.75,0 -0.90625,0 -0.90625,-0.546875 v -2.21875 c 0,-1.25 0.828125,-1.921875 1.578125,-1.921875 0.734375,0 0.90625,0.609375 0.90625,1.34375 v 2.796875 c 0,0.546875 -0.140625,0.546875 -0.90625,0.546875 V 0 c 0.296875,-0.03125 0.953125,-0.03125 1.28125,-0.03125 0.34375,0 1,0 1.3125,0.03125 v -0.34375 c -0.765625,0 -0.921875,0 -0.921875,-0.546875 v -2.21875 c 0,-1.25 0.828125,-1.921875 1.578125,-1.921875 0.734375,0 0.90625,0.609375 0.90625,1.34375 v 2.796875 c 0,0.546875 -0.140625,0.546875 -0.90625,0.546875 V 0 c 0.3125,-0.03125 0.953125,-0.03125 1.28125,-0.03125 0.34375,0 1,0 1.3125,0.03125 v -0.34375 c -0.609375,0 -0.90625,0 -0.90625,-0.359375 z m 0,0"
               id="path141" />
          </g>
        </g>
        <g
           style="fill:#000000;fill-opacity:1"
           id="g17635">
          <g
             id="g17628"
             transform="translate(41.68539,8.302)">
            <path
               style="stroke:none"
               d="m 2.078125,-7.359375 c 0,-0.3125 -0.25,-0.59375 -0.578125,-0.59375 -0.3125,0 -0.578125,0.25 -0.578125,0.578125 0,0.359375 0.28125,0.578125 0.578125,0.578125 0.359375,0 0.578125,-0.296875 0.578125,-0.5625 z M 0.4375,-5.140625 v 0.34375 c 0.75,0 0.859375,0.078125 0.859375,0.65625 v 3.25 c 0,0.546875 -0.125,0.546875 -0.90625,0.546875 V 0 c 0.34375,-0.03125 0.90625,-0.03125 1.265625,-0.03125 0.125,0 0.8125,0 1.21875,0.03125 v -0.34375 c -0.765625,0 -0.8125,-0.0625 -0.8125,-0.53125 v -4.390625 z m 0,0"
               id="path145" />
          </g>
          <g
             id="use74"
             transform="translate(44.937206,8.302)">
            <path
               style="stroke:none"
               d="M 2.0625,-8.296875 0.390625,-8.15625 v 0.34375 c 0.8125,0 0.90625,0.078125 0.90625,0.671875 v 6.25 c 0,0.546875 -0.125,0.546875 -0.90625,0.546875 V 0 c 0.34375,-0.03125 0.921875,-0.03125 1.28125,-0.03125 0.359375,0 0.953125,0 1.296875,0.03125 v -0.34375 c -0.765625,0 -0.90625,0 -0.90625,-0.546875 z m 0,0"
               id="path149" />
          </g>
          <g
             id="g17633"
             transform="translate(48.189018,8.302)">
            <path
               style="stroke:none"
               d="m 4.578125,-2.765625 c 0.265625,0 0.28125,0 0.28125,-0.234375 0,-1.203125 -0.640625,-2.328125 -2.09375,-2.328125 -1.359375,0 -2.40625,1.234375 -2.40625,2.703125 0,1.578125 1.21875,2.75 2.546875,2.75 1.421875,0 1.953125,-1.296875 1.953125,-1.546875 0,-0.078125 -0.046875,-0.125 -0.125,-0.125 -0.09375,0 -0.125,0.0625 -0.140625,0.125 -0.3125,1 -1.109375,1.28125 -1.625,1.28125 -0.5,0 -1.703125,-0.34375 -1.703125,-2.40625 v -0.21875 z M 1.28125,-3 c 0.09375,-1.875 1.140625,-2.09375 1.484375,-2.09375 1.28125,0 1.34375,1.6875 1.359375,2.09375 z m 0,0"
               id="path153" />
          </g>
        </g>
        <g
           style="fill:#000000;fill-opacity:1"
           id="g17659">
          <g
             id="g17638"
             transform="translate(57.289318,8.302)">
            <path
               style="stroke:none"
               d="m 4.609375,-3.1875 c 0,-0.65625 0,-1.125 -0.515625,-1.59375 C 3.671875,-5.15625 3.125,-5.328125 2.609375,-5.328125 1.625,-5.328125 0.875,-4.6875 0.875,-3.90625 c 0,0.34375 0.21875,0.515625 0.5,0.515625 0.28125,0 0.484375,-0.203125 0.484375,-0.5 C 1.859375,-4.375 1.4375,-4.375 1.25,-4.375 c 0.28125,-0.5 0.859375,-0.71875 1.328125,-0.71875 0.546875,0 1.265625,0.453125 1.265625,1.53125 v 0.484375 c -2.40625,0.03125 -3.3125,1.03125 -3.3125,1.953125 0,0.953125 1.09375,1.25 1.828125,1.25 0.78125,0 1.328125,-0.484375 1.546875,-1.0625 0.046875,0.5625 0.421875,1 0.9375,1 0.25,0 0.9375,-0.171875 0.9375,-1.125 V -1.734375 H 5.515625 V -1.0625 c 0,0.6875 -0.28125,0.78125 -0.453125,0.78125 -0.453125,0 -0.453125,-0.640625 -0.453125,-0.8125 z m -0.765625,1.5 c 0,1.171875 -0.875,1.5625 -1.390625,1.5625 -0.59375,0 -1.078125,-0.421875 -1.078125,-1 0,-1.578125 2.03125,-1.71875 2.46875,-1.75 z m 0,0"
               id="path157" />
          </g>
          <g
             id="use82"
             transform="translate(63.142586,8.302)">
            <path
               style="stroke:none"
               d="m 3.34375,-3.171875 c 0,0 -0.078125,-0.109375 -0.078125,-0.109375 0,-0.046875 0.75,-0.6875 0.84375,-0.78125 C 4.9375,-4.78125 5.46875,-4.796875 5.71875,-4.8125 V -5.15625 C 5.46875,-5.125 5.15625,-5.125 4.8125,-5.125 c -0.3125,0 -0.921875,0 -1.203125,-0.03125 v 0.34375 c 0.203125,0.015625 0.34375,0.125 0.34375,0.3125 0,0.25 -0.234375,0.453125 -0.25,0.453125 L 2,-2.53125 V -8.296875 L 0.328125,-8.15625 v 0.34375 c 0.8125,0 0.921875,0.078125 0.921875,0.671875 v 6.25 c 0,0.546875 -0.140625,0.546875 -0.921875,0.546875 V 0 c 0.34375,-0.03125 0.921875,-0.03125 1.28125,-0.03125 0.34375,0 0.921875,0 1.265625,0.03125 v -0.34375 c -0.765625,0 -0.921875,0 -0.921875,-0.546875 V -2.15625 L 2.71875,-2.828125 3.875,-1.171875 c 0.171875,0.25 0.265625,0.390625 0.265625,0.546875 0,0.21875 -0.171875,0.28125 -0.421875,0.28125 V 0 c 0.296875,-0.03125 0.890625,-0.03125 1.203125,-0.03125 0.515625,0 0.546875,0 1.046875,0.03125 v -0.34375 c -0.3125,0 -0.6875,0 -1.015625,-0.5 z m 0,0"
               id="path161" />
          </g>
          <g
             id="g17643"
             transform="translate(69.32103,8.302)">
            <path
               style="stroke:none"
               d="M 2.015625,-4.8125 H 3.6875 V -5.15625 H 2.015625 v -2.1875 H 1.75 C 1.734375,-6.234375 1.296875,-5.078125 0.21875,-5.046875 V -4.8125 h 1.015625 v 3.328125 c 0,1.328125 0.875,1.609375 1.515625,1.609375 0.75,0 1.140625,-0.75 1.140625,-1.609375 V -2.15625 h -0.25 V -1.5 c 0,0.859375 -0.359375,1.359375 -0.8125,1.359375 -0.8125,0 -0.8125,-1.109375 -0.8125,-1.3125 z m 0,0"
               id="path165" />
          </g>
          <g
             id="use86"
             transform="translate(73.873573,8.302)">
            <path
               style="stroke:none"
               d="m 4.609375,-3.1875 c 0,-0.65625 0,-1.125 -0.515625,-1.59375 C 3.671875,-5.15625 3.125,-5.328125 2.609375,-5.328125 1.625,-5.328125 0.875,-4.6875 0.875,-3.90625 c 0,0.34375 0.21875,0.515625 0.5,0.515625 0.28125,0 0.484375,-0.203125 0.484375,-0.5 C 1.859375,-4.375 1.4375,-4.375 1.25,-4.375 c 0.28125,-0.5 0.859375,-0.71875 1.328125,-0.71875 0.546875,0 1.265625,0.453125 1.265625,1.53125 v 0.484375 c -2.40625,0.03125 -3.3125,1.03125 -3.3125,1.953125 0,0.953125 1.09375,1.25 1.828125,1.25 0.78125,0 1.328125,-0.484375 1.546875,-1.0625 0.046875,0.5625 0.421875,1 0.9375,1 0.25,0 0.9375,-0.171875 0.9375,-1.125 V -1.734375 H 5.515625 V -1.0625 c 0,0.6875 -0.28125,0.78125 -0.453125,0.78125 -0.453125,0 -0.453125,-0.640625 -0.453125,-0.8125 z m -0.765625,1.5 c 0,1.171875 -0.875,1.5625 -1.390625,1.5625 -0.59375,0 -1.078125,-0.421875 -1.078125,-1 0,-1.578125 2.03125,-1.71875 2.46875,-1.75 z m 0,0"
               id="path169" />
          </g>
          <g
             id="use88"
             transform="translate(79.726837,8.302)">
            <path
               style="stroke:none"
               d="m 2,-2.78125 c 0,-1.15625 0.46875,-2.25 1.390625,-2.25 0.09375,0 0.125,0 0.171875,0.015625 -0.09375,0.046875 -0.28125,0.109375 -0.28125,0.4375 0,0.34375 0.265625,0.484375 0.453125,0.484375 0.25,0 0.484375,-0.15625 0.484375,-0.484375 0,-0.359375 -0.328125,-0.6875 -0.84375,-0.6875 -1.015625,0 -1.359375,1.09375 -1.421875,1.328125 H 1.9375 v -1.328125 l -1.609375,0.125 v 0.34375 c 0.8125,0 0.921875,0.09375 0.921875,0.671875 v 3.234375 c 0,0.546875 -0.140625,0.546875 -0.921875,0.546875 V 0 c 0.34375,-0.03125 1,-0.03125 1.359375,-0.03125 0.328125,0 1.171875,0 1.4375,0.03125 V -0.34375 H 2.890625 C 2.015625,-0.34375 2,-0.484375 2,-0.90625 Z m 0,0"
               id="path173" />
          </g>
          <g
             id="g17650"
             transform="translate(84.279381,8.302)">
            <path
               style="stroke:none"
               d="m 2.0625,-5.265625 -1.625,0.125 v 0.34375 c 0.75,0 0.859375,0.078125 0.859375,0.65625 v 3.25 c 0,0.546875 -0.125,0.546875 -0.90625,0.546875 V 0 c 0.34375,-0.03125 0.90625,-0.03125 1.265625,-0.03125 0.125,0 0.8125,0 1.21875,0.03125 v -0.34375 c -0.765625,0 -0.8125,-0.0625 -0.8125,-0.53125 z m 0,0"
               id="path177" />
          </g>
          <g
             id="use92"
             transform="translate(87.531189,8.302)">
            <path
               style="stroke:none"
               d="M 2.0625,-8.296875 0.390625,-8.15625 v 0.34375 c 0.8125,0 0.90625,0.078125 0.90625,0.671875 v 6.25 c 0,0.546875 -0.125,0.546875 -0.90625,0.546875 V 0 c 0.34375,-0.03125 0.921875,-0.03125 1.28125,-0.03125 0.359375,0 0.953125,0 1.296875,0.03125 v -0.34375 c -0.765625,0 -0.90625,0 -0.90625,-0.546875 z m 0,0"
               id="path181" />
          </g>
          <g
             id="use94"
             transform="translate(90.783005,8.302)">
            <path
               style="stroke:none"
               d="m 4.609375,-3.1875 c 0,-0.65625 0,-1.125 -0.515625,-1.59375 C 3.671875,-5.15625 3.125,-5.328125 2.609375,-5.328125 1.625,-5.328125 0.875,-4.6875 0.875,-3.90625 c 0,0.34375 0.21875,0.515625 0.5,0.515625 0.28125,0 0.484375,-0.203125 0.484375,-0.5 C 1.859375,-4.375 1.4375,-4.375 1.25,-4.375 c 0.28125,-0.5 0.859375,-0.71875 1.328125,-0.71875 0.546875,0 1.265625,0.453125 1.265625,1.53125 v 0.484375 c -2.40625,0.03125 -3.3125,1.03125 -3.3125,1.953125 0,0.953125 1.09375,1.25 1.828125,1.25 0.78125,0 1.328125,-0.484375 1.546875,-1.0625 0.046875,0.5625 0.421875,1 0.9375,1 0.25,0 0.9375,-0.171875 0.9375,-1.125 V -1.734375 H 5.515625 V -1.0625 c 0,0.6875 -0.28125,0.78125 -0.453125,0.78125 -0.453125,0 -0.453125,-0.640625 -0.453125,-0.8125 z m -0.765625,1.5 c 0,1.171875 -0.875,1.5625 -1.390625,1.5625 -0.59375,0 -1.078125,-0.421875 -1.078125,-1 0,-1.578125 2.03125,-1.71875 2.46875,-1.75 z m 0,0"
               id="path185" />
          </g>
          <g
             id="g17657"
             transform="translate(96.636276,8.302)">
            <path
               style="stroke:none"
               d="m 5.3125,-2.90625 c 0,-1.109375 0,-1.4375 -0.265625,-1.828125 -0.34375,-0.46875 -0.90625,-0.53125 -1.3125,-0.53125 -1.171875,0 -1.625,0.984375 -1.71875,1.21875 v -1.21875 l -1.640625,0.125 v 0.34375 c 0.8125,0 0.921875,0.09375 0.921875,0.671875 v 3.234375 c 0,0.546875 -0.140625,0.546875 -0.921875,0.546875 V 0 c 0.3125,-0.03125 0.96875,-0.03125 1.296875,-0.03125 0.34375,0 1,0 1.296875,0.03125 v -0.34375 c -0.75,0 -0.90625,0 -0.90625,-0.546875 v -2.21875 c 0,-1.25 0.828125,-1.921875 1.578125,-1.921875 0.734375,0 0.90625,0.609375 0.90625,1.34375 v 2.796875 c 0,0.546875 -0.140625,0.546875 -0.90625,0.546875 V 0 c 0.296875,-0.03125 0.953125,-0.03125 1.28125,-0.03125 0.34375,0 1,0 1.3125,0.03125 v -0.34375 c -0.609375,0 -0.90625,0 -0.921875,-0.359375 z m 0,0"
               id="path189" />
          </g>
        </g>
        <g
           style="fill:#000000;fill-opacity:1"
           id="g106">
          <g
             id="use100"
             transform="translate(107.04926,8.302)">
            <path
               style="stroke:none"
               d="m 2.0625,-5.265625 -1.625,0.125 v 0.34375 c 0.75,0 0.859375,0.078125 0.859375,0.65625 v 3.25 c 0,0.546875 -0.125,0.546875 -0.90625,0.546875 V 0 c 0.34375,-0.03125 0.90625,-0.03125 1.265625,-0.03125 0.125,0 0.8125,0 1.21875,0.03125 v -0.34375 c -0.765625,0 -0.8125,-0.0625 -0.8125,-0.53125 z m 0,0"
               id="path193" />
          </g>
          <g
             id="g17664"
             transform="translate(110.30106,8.302)">
            <path
               style="stroke:none"
               d="m 3.921875,-5.0625 c 0,-0.203125 0,-0.265625 -0.125,-0.265625 -0.09375,0 -0.3125,0.265625 -0.40625,0.375 -0.359375,-0.3125 -0.734375,-0.375 -1.125,-0.375 -1.4375,0 -1.875,0.78125 -1.875,1.4375 0,0.140625 0,0.5625 0.453125,0.96875 0.390625,0.34375 0.796875,0.421875 1.34375,0.53125 0.65625,0.125 0.8125,0.171875 1.109375,0.40625 0.21875,0.171875 0.375,0.4375 0.375,0.78125 C 3.671875,-0.6875 3.375,-0.125 2.3125,-0.125 1.53125,-0.125 0.953125,-0.578125 0.6875,-1.765625 0.640625,-1.984375 0.640625,-2 0.640625,-2.015625 0.609375,-2.0625 0.5625,-2.0625 0.53125,-2.0625 0.390625,-2.0625 0.390625,-2 0.390625,-1.78125 v 1.625 c 0,0.21875 0,0.28125 0.125,0.28125 0.0625,0 0.0625,-0.015625 0.265625,-0.265625 C 0.84375,-0.234375 0.84375,-0.25 1.03125,-0.4375 1.484375,0.125 2.125,0.125 2.328125,0.125 c 1.25,0 1.875,-0.703125 1.875,-1.640625 0,-0.640625 -0.390625,-1.03125 -0.5,-1.140625 -0.421875,-0.375 -0.75,-0.4375 -1.546875,-0.578125 -0.34375,-0.078125 -1.21875,-0.25 -1.21875,-0.96875 0,-0.359375 0.25,-0.90625 1.328125,-0.90625 1.296875,0 1.375,1.109375 1.390625,1.46875 0.015625,0.109375 0.09375,0.109375 0.140625,0.109375 0.125,0 0.125,-0.0625 0.125,-0.28125 z m 0,0"
               id="path197" />
          </g>
          <g
             id="use104"
             transform="translate(114.91817,8.302)">
            <path
               style="stroke:none"
               d="m 2.0625,-5.265625 -1.625,0.125 v 0.34375 c 0.75,0 0.859375,0.078125 0.859375,0.65625 v 3.25 c 0,0.546875 -0.125,0.546875 -0.90625,0.546875 V 0 c 0.34375,-0.03125 0.90625,-0.03125 1.265625,-0.03125 0.125,0 0.8125,0 1.21875,0.03125 v -0.34375 c -0.765625,0 -0.8125,-0.0625 -0.8125,-0.53125 z m 0,0"
               id="path201" />
          </g>
        </g>
      </g>
    </g>
  </g>
</svg>
