<?xml version="1.0" encoding="UTF-8" standalone="no"?>
<!-- Created with Inkscape (http://www.inkscape.org/) -->

<svg
   width="210mm"
   height="297mm"
   viewBox="0 0 210 297"
   version="1.1"
   id="svg5"
   sodipodi:docname="7c_ElemanMesh.svg"
   inkscape:export-filename="../../../../../../Applications/7c_ElemanMesh.png"
   inkscape:export-xdpi="900"
   inkscape:export-ydpi="900"
   inkscape:version="1.2.2 (b0a8486, 2022-12-01)"
   xmlns:inkscape="http://www.inkscape.org/namespaces/inkscape"
   xmlns:sodipodi="http://sodipodi.sourceforge.net/DTD/sodipodi-0.dtd"
   xmlns="http://www.w3.org/2000/svg"
   xmlns:svg="http://www.w3.org/2000/svg">
  <sodipodi:namedview
     id="namedview7"
     pagecolor="#ffffff"
     bordercolor="#666666"
     borderopacity="1.0"
     inkscape:showpageshadow="2"
     inkscape:pageopacity="0.0"
     inkscape:pagecheckerboard="0"
     inkscape:deskcolor="#d1d1d1"
     inkscape:document-units="mm"
     showgrid="false"
     inkscape:zoom="2.1417558"
     inkscape:cx="309.5591"
     inkscape:cy="508.22788"
     inkscape:window-width="1854"
     inkscape:window-height="1016"
     inkscape:window-x="0"
     inkscape:window-y="0"
     inkscape:window-maximized="1"
     inkscape:current-layer="layer1" />
  <defs
     id="defs2">
    <clipPath
       id="clipPath600">
      <path
         clip-rule="nonzero"
         d="M 1,0 H 5 V 7.703125 H 1 Z m 0,0"
         id="path233" />
    </clipPath>
    <clipPath
       id="clipPath9554">
      <path
         clip-rule="nonzero"
         d="M 0,0 H 5.851562 V 7.703125 H 0 Z m 0,0"
         id="path3693" />
    </clipPath>
    <clipPath
       id="clipPath7735">
      <path
         clip-rule="nonzero"
         d="M 0,0 H 5.851562 V 7.703125 H 0 Z m 0,0"
         id="path6508" />
    </clipPath>
    <clipPath
       id="clipPath2505">
      <path
         clip-rule="nonzero"
         d="M 0,0 H 5.851562 V 7.703125 H 0 Z m 0,0"
         id="path9141" />
    </clipPath>
    <clipPath
       id="clipPath1502">
      <path
         clip-rule="nonzero"
         d="M 0,0 H 6 V 7.472656 H 0 Z m 0,0"
         id="path7803" />
    </clipPath>
    <clipPath
       id="clipPath8389">
      <path
         clip-rule="nonzero"
         d="M 0,0 H 9 V 8.167969 H 0 Z m 0,0"
         id="path9149" />
    </clipPath>
    <clipPath
       id="clipPath57">
      <path
         clip-rule="nonzero"
         d="M 0,0 H 9 V 8.167969 H 0 Z m 0,0"
         id="path6109" />
    </clipPath>
    <clipPath
       id="clipPath6763">
      <path
         clip-rule="nonzero"
         d="M 0,0 H 7 V 8.167969 H 0 Z m 0,0"
         id="path5847" />
    </clipPath>
    <clipPath
       id="clipPath5097">
      <path
         clip-rule="nonzero"
         d="M 0,0 H 8.773438 V 8.167969 H 0 Z m 0,0"
         id="path8000" />
    </clipPath>
    <clipPath
       id="clipPath5891">
      <path
         clip-rule="nonzero"
         d="M 0,0 H 10.621094 V 8.167969 H 0 Z m 0,0"
         id="path7590" />
    </clipPath>
    <clipPath
       id="clipPath3750">
      <path
         clip-rule="nonzero"
         d="M 0,0 H 7.964844 V 8.167969 H 0 Z m 0,0"
         id="path7069" />
    </clipPath>
    <clipPath
       id="clipPath9554-1">
      <path
         clip-rule="nonzero"
         d="M 0,0 H 5.851562 V 7.703125 H 0 Z m 0,0"
         id="path3693-2" />
    </clipPath>
    <clipPath
       id="clipPath3607">
      <path
         clip-rule="nonzero"
         d="M 10,0 H 33 V 11.953125 H 10 Z m 0,0"
         id="path4469" />
    </clipPath>
    <clipPath
       id="clipPath6516">
      <path
         clip-rule="nonzero"
         d="M 10,0 H 33 V 11.953125 H 10 Z m 0,0"
         id="path3404" />
    </clipPath>
    <clipPath
       id="clipPath4338">
      <path
         clip-rule="nonzero"
         d="M 10,0 H 33 V 11.953125 H 10 Z m 0,0"
         id="path6886" />
    </clipPath>
    <clipPath
       id="clipPath5000">
      <path
         clip-rule="nonzero"
         d="M 10,0 H 33 V 11.953125 H 10 Z m 0,0"
         id="path3352" />
    </clipPath>
    <clipPath
       id="clipPath2162">
      <path
         clip-rule="nonzero"
         d="M 10,0 H 33 V 11.953125 H 10 Z m 0,0"
         id="path465" />
    </clipPath>
    <clipPath
       id="clipPath2505-7">
      <path
         clip-rule="nonzero"
         d="M 0,0 H 5.851562 V 7.703125 H 0 Z m 0,0"
         id="path9141-0" />
    </clipPath>
    <clipPath
       id="clipPath7611">
      <path
         clip-rule="nonzero"
         d="M 0,0 H 5.851562 V 7.703125 H 0 Z m 0,0"
         id="path8581" />
    </clipPath>
  </defs>
  <g
     inkscape:label="Layer 1"
     inkscape:groupmode="layer"
     id="layer1">
    <rect
       style="fill:#87deaa;stroke:#000000;stroke-width:0.201337"
       id="rect234-3-6"
       width="51.973324"
       height="38.543476"
       x="91.411865"
       y="82.058258" />
    <circle
       style="fill:none;stroke:#000000;stroke-width:0.264999;stroke-dasharray:none"
       id="path1791-6"
       cx="117.40235"
       cy="101.67883"
       r="3.442513" />
    <g
       inkscape:label=""
       transform="translate(144.75158,121.20555)"
       id="g7667">
      <g
         fill="#000000"
         fill-opacity="1"
         id="g27"
         transform="matrix(0.352778,0,0,0.352778,-0.115755,9.7028e-4)">
        <g
           id="use25"
           transform="translate(0,8.9659996)">
          <path
             d="m 4.3125,-7.78125 c 0,-0.234375 0,-0.28125 -0.171875,-0.28125 -0.09375,0 -0.125,0 -0.21875,0.140625 L 0.328125,-2.34375 V -2 H 3.46875 v 1.09375 c 0,0.4375 -0.03125,0.5625 -0.90625,0.5625 H 2.328125 V 0 c 0.28125,-0.03125 1.21875,-0.03125 1.5625,-0.03125 0.328125,0 1.28125,0 1.5625,0.03125 V -0.34375 H 5.21875 c -0.875,0 -0.90625,-0.125 -0.90625,-0.5625 V -2 H 5.515625 V -2.34375 H 4.3125 Z m -0.78125,0.9375 v 4.5 H 0.625 Z m 0,0"
             id="path47" />
        </g>
      </g>
      <g
         clip-path="url(#clipPath3607)"
         id="g41"
         transform="matrix(0.352778,0,0,0.352778,-0.115755,9.7028e-4)">
        <g
           fill="#000000"
           fill-opacity="1"
           id="g39">
          <g
             id="use29"
             transform="translate(9.7506609,8.9659996)">
            <path
               d="m 3.890625,2.90625 c 0,-0.03125 0,-0.0625 -0.203125,-0.265625 C 2.484375,1.4375 1.8125,-0.53125 1.8125,-2.96875 c 0,-2.328125 0.5625,-4.328125 1.953125,-5.734375 0.125,-0.109375 0.125,-0.125 0.125,-0.171875 0,-0.0625 -0.0625,-0.09375 -0.109375,-0.09375 -0.15625,0 -1.140625,0.859375 -1.71875,2.03125 -0.609375,1.21875 -0.890625,2.484375 -0.890625,3.96875 0,1.0625 0.171875,2.484375 0.78125,3.75 C 2.671875,2.21875 3.640625,3 3.78125,3 3.828125,3 3.890625,2.96875 3.890625,2.90625 Z m 0,0"
               id="path51" />
          </g>
          <g
             id="use31"
             transform="translate(14.303201,8.9659996)">
            <path
               d="m 3.4375,-7.65625 c 0,-0.28125 0,-0.296875 -0.234375,-0.296875 C 2.921875,-7.625 2.3125,-7.1875 1.09375,-7.1875 v 0.34375 c 0.265625,0 0.859375,0 1.53125,-0.296875 v 6.21875 c 0,0.4375 -0.046875,0.578125 -1.09375,0.578125 h -0.375 V 0 c 0.328125,-0.03125 1.484375,-0.03125 1.875,-0.03125 0.40625,0 1.546875,0 1.875,0.03125 v -0.34375 h -0.375 c -1.046875,0 -1.09375,-0.140625 -1.09375,-0.578125 z m 0,0"
               id="path55" />
          </g>
          <g
             id="use33"
             transform="translate(20.156467,8.9659996)">
            <path
               d="m 2.328125,0.046875 c 0,-0.734375 -0.25,-1.203125 -0.71875,-1.203125 -0.34375,0 -0.5625,0.265625 -0.5625,0.578125 C 1.046875,-0.265625 1.265625,0 1.625,0 c 0.1875,0 0.3125,-0.078125 0.390625,-0.140625 0.03125,-0.03125 0.046875,-0.03125 0.046875,-0.03125 0.03125,0 0.03125,0.15625 0.03125,0.21875 0,0.765625 -0.3125,1.484375 -0.84375,2.03125 -0.046875,0.03125 -0.0625,0.0625 -0.0625,0.109375 0,0.0625 0.0625,0.125 0.125,0.125 0.109375,0 1.015625,-0.890625 1.015625,-2.265625 z m 0,0"
               id="path59" />
          </g>
          <g
             id="use35"
             transform="translate(23.408281,8.9659996)">
            <path
               d="m 3.4375,-7.65625 c 0,-0.28125 0,-0.296875 -0.234375,-0.296875 C 2.921875,-7.625 2.3125,-7.1875 1.09375,-7.1875 v 0.34375 c 0.265625,0 0.859375,0 1.53125,-0.296875 v 6.21875 c 0,0.4375 -0.046875,0.578125 -1.09375,0.578125 h -0.375 V 0 c 0.328125,-0.03125 1.484375,-0.03125 1.875,-0.03125 0.40625,0 1.546875,0 1.875,0.03125 v -0.34375 h -0.375 c -1.046875,0 -1.09375,-0.140625 -1.09375,-0.578125 z m 0,0"
               id="path63" />
          </g>
          <g
             id="use37"
             transform="translate(29.261547,8.9659996)">
            <path
               d="M 3.375,-2.96875 C 3.375,-3.890625 3.25,-5.359375 2.578125,-6.75 1.875,-8.1875 0.890625,-8.96875 0.765625,-8.96875 c -0.046875,0 -0.109375,0.03125 -0.109375,0.09375 0,0.046875 0,0.0625 0.203125,0.265625 1.203125,1.203125 1.859375,3.1875 1.859375,5.625 0,2.3125 -0.5625,4.3125 -1.9375,5.71875 C 0.65625,2.84375 0.65625,2.875 0.65625,2.90625 0.65625,2.96875 0.71875,3 0.765625,3 0.921875,3 1.90625,2.140625 2.484375,0.96875 3.09375,-0.25 3.375,-1.546875 3.375,-2.96875 Z m 0,0"
               id="path67" />
          </g>
        </g>
      </g>
    </g>
    <g
       inkscape:label=""
       transform="translate(89.885854,121.63439)"
       id="g7840">
      <g
         fill="#000000"
         fill-opacity="1"
         id="g30"
         transform="matrix(0.352778,0,0,0.352778,-0.170877,9.7028e-4)">
        <g
           id="use28"
           transform="translate(0,8.9659996)">
          <path
             d="m 2.203125,-4.296875 c -0.203125,0.015625 -0.25,0.03125 -0.25,0.140625 0,0.109375 0.0625,0.109375 0.265625,0.109375 h 0.546875 c 1.03125,0 1.484375,0.84375 1.484375,1.984375 0,1.578125 -0.8125,1.984375 -1.40625,1.984375 -0.578125,0 -1.546875,-0.265625 -1.90625,-1.0625 0.390625,0.0625 0.734375,-0.15625 0.734375,-0.578125 0,-0.34375 -0.25,-0.59375 -0.578125,-0.59375 -0.296875,0 -0.609375,0.171875 -0.609375,0.625 0,1.0625 1.0625,1.9375 2.390625,1.9375 1.421875,0 2.484375,-1.09375 2.484375,-2.296875 C 5.359375,-3.140625 4.46875,-4 3.328125,-4.203125 4.359375,-4.5 5.03125,-5.375 5.03125,-6.3125 c 0,-0.9375 -0.984375,-1.640625 -2.140625,-1.640625 -1.1875,0 -2.078125,0.734375 -2.078125,1.609375 0,0.46875 0.375,0.578125 0.546875,0.578125 0.25,0 0.546875,-0.1875 0.546875,-0.546875 0,-0.375 -0.296875,-0.546875 -0.5625,-0.546875 -0.0625,0 -0.09375,0 -0.125,0.015625 0.453125,-0.8125 1.578125,-0.8125 1.640625,-0.8125 0.390625,0 1.171875,0.171875 1.171875,1.34375 0,0.234375 -0.03125,0.890625 -0.390625,1.40625 C 3.28125,-4.375 2.875,-4.34375 2.5625,-4.328125 Z m 0,0"
             id="path50" />
        </g>
      </g>
      <g
         clip-path="url(#clipPath6516)"
         id="g44"
         transform="matrix(0.352778,0,0,0.352778,-0.170877,9.7028e-4)">
        <g
           fill="#000000"
           fill-opacity="1"
           id="g42">
          <g
             id="use32"
             transform="translate(9.7506609,8.9659996)">
            <path
               d="m 3.890625,2.90625 c 0,-0.03125 0,-0.0625 -0.203125,-0.265625 C 2.484375,1.4375 1.8125,-0.53125 1.8125,-2.96875 c 0,-2.328125 0.5625,-4.328125 1.953125,-5.734375 0.125,-0.109375 0.125,-0.125 0.125,-0.171875 0,-0.0625 -0.0625,-0.09375 -0.109375,-0.09375 -0.15625,0 -1.140625,0.859375 -1.71875,2.03125 -0.609375,1.21875 -0.890625,2.484375 -0.890625,3.96875 0,1.0625 0.171875,2.484375 0.78125,3.75 C 2.671875,2.21875 3.640625,3 3.78125,3 3.828125,3 3.890625,2.96875 3.890625,2.90625 Z m 0,0"
               id="path54" />
          </g>
          <g
             id="use34"
             transform="translate(14.303201,8.9659996)">
            <path
               d="m 5.359375,-3.828125 c 0,-0.984375 -0.0625,-1.953125 -0.5,-2.859375 -0.484375,-1 -1.34375,-1.265625 -1.9375,-1.265625 -0.6875,0 -1.53125,0.34375 -1.984375,1.34375 -0.328125,0.75 -0.453125,1.5 -0.453125,2.78125 0,1.15625 0.09375,2.03125 0.515625,2.890625 0.46875,0.90625 1.296875,1.1875 1.921875,1.1875 1.03125,0 1.625,-0.625 1.984375,-1.3125 0.421875,-0.890625 0.453125,-2.0625 0.453125,-2.765625 z m -2.4375,3.84375 C 2.53125,0.015625 1.75,-0.203125 1.53125,-1.5 c -0.125,-0.71875 -0.125,-1.625 -0.125,-2.46875 0,-0.984375 0,-1.859375 0.1875,-2.5625 0.203125,-0.8125 0.8125,-1.171875 1.328125,-1.171875 0.453125,0 1.140625,0.265625 1.375,1.296875 0.15625,0.6875 0.15625,1.625 0.15625,2.4375 0,0.796875 0,1.703125 -0.140625,2.4375 -0.21875,1.3125 -0.984375,1.546875 -1.390625,1.546875 z m 0,0"
               id="path58" />
          </g>
          <g
             id="use36"
             transform="translate(20.156467,8.9659996)">
            <path
               d="m 2.328125,0.046875 c 0,-0.734375 -0.25,-1.203125 -0.71875,-1.203125 -0.34375,0 -0.5625,0.265625 -0.5625,0.578125 C 1.046875,-0.265625 1.265625,0 1.625,0 c 0.1875,0 0.3125,-0.078125 0.390625,-0.140625 0.03125,-0.03125 0.046875,-0.03125 0.046875,-0.03125 0.03125,0 0.03125,0.15625 0.03125,0.21875 0,0.765625 -0.3125,1.484375 -0.84375,2.03125 -0.046875,0.03125 -0.0625,0.0625 -0.0625,0.109375 0,0.0625 0.0625,0.125 0.125,0.125 0.109375,0 1.015625,-0.890625 1.015625,-2.265625 z m 0,0"
               id="path62" />
          </g>
          <g
             id="use38"
             transform="translate(23.408281,8.9659996)">
            <path
               d="m 3.4375,-7.65625 c 0,-0.28125 0,-0.296875 -0.234375,-0.296875 C 2.921875,-7.625 2.3125,-7.1875 1.09375,-7.1875 v 0.34375 c 0.265625,0 0.859375,0 1.53125,-0.296875 v 6.21875 c 0,0.4375 -0.046875,0.578125 -1.09375,0.578125 h -0.375 V 0 c 0.328125,-0.03125 1.484375,-0.03125 1.875,-0.03125 0.40625,0 1.546875,0 1.875,0.03125 v -0.34375 h -0.375 c -1.046875,0 -1.09375,-0.140625 -1.09375,-0.578125 z m 0,0"
               id="path66" />
          </g>
          <g
             id="use40"
             transform="translate(29.261547,8.9659996)">
            <path
               d="M 3.375,-2.96875 C 3.375,-3.890625 3.25,-5.359375 2.578125,-6.75 1.875,-8.1875 0.890625,-8.96875 0.765625,-8.96875 c -0.046875,0 -0.109375,0.03125 -0.109375,0.09375 0,0.046875 0,0.0625 0.203125,0.265625 1.203125,1.203125 1.859375,3.1875 1.859375,5.625 0,2.3125 -0.5625,4.3125 -1.9375,5.71875 C 0.65625,2.84375 0.65625,2.875 0.65625,2.90625 0.65625,2.96875 0.71875,3 0.765625,3 0.921875,3 1.90625,2.140625 2.484375,0.96875 3.09375,-0.25 3.375,-1.546875 3.375,-2.96875 Z m 0,0"
               id="path70" />
          </g>
        </g>
      </g>
    </g>
    <g
       inkscape:label=""
       transform="translate(90.067362,77.457557)"
       id="g8054">
      <g
         fill="#000000"
         fill-opacity="1"
         id="g8028"
         transform="matrix(0.352778,0,0,0.352778,-0.20395,9.7028e-4)">
        <g
           id="g8026"
           transform="translate(0,8.9659996)">
          <path
             d="M 5.265625,-2.015625 H 5 c -0.046875,0.203125 -0.140625,0.875 -0.25,1.0625 C 4.65625,-0.84375 3.984375,-0.84375 3.625,-0.84375 H 1.40625 c 0.328125,-0.28125 1.0625,-1.046875 1.359375,-1.328125 1.828125,-1.671875 2.5,-2.296875 2.5,-3.484375 0,-1.375 -1.09375,-2.296875 -2.484375,-2.296875 -1.375,0 -2.203125,1.1875 -2.203125,2.21875 0,0.609375 0.53125,0.609375 0.5625,0.609375 0.265625,0 0.5625,-0.1875 0.5625,-0.5625 0,-0.34375 -0.21875,-0.5625 -0.5625,-0.5625 -0.09375,0 -0.125,0 -0.15625,0.015625 0.21875,-0.8125 0.875,-1.375 1.640625,-1.375 1.015625,0 1.640625,0.859375 1.640625,1.953125 C 4.265625,-4.640625 3.6875,-3.75 3,-2.984375 L 0.578125,-0.28125 V 0 h 4.375 z m 0,0"
             id="path8024" />
        </g>
      </g>
      <g
         clip-path="url(#clipPath4338)"
         id="g8052"
         transform="matrix(0.352778,0,0,0.352778,-0.20395,9.7028e-4)">
        <g
           fill="#000000"
           fill-opacity="1"
           id="g8050">
          <g
             id="g8032"
             transform="translate(9.7506609,8.9659996)">
            <path
               d="m 3.890625,2.90625 c 0,-0.03125 0,-0.0625 -0.203125,-0.265625 C 2.484375,1.4375 1.8125,-0.53125 1.8125,-2.96875 c 0,-2.328125 0.5625,-4.328125 1.953125,-5.734375 0.125,-0.109375 0.125,-0.125 0.125,-0.171875 0,-0.0625 -0.0625,-0.09375 -0.109375,-0.09375 -0.15625,0 -1.140625,0.859375 -1.71875,2.03125 -0.609375,1.21875 -0.890625,2.484375 -0.890625,3.96875 0,1.0625 0.171875,2.484375 0.78125,3.75 C 2.671875,2.21875 3.640625,3 3.78125,3 3.828125,3 3.890625,2.96875 3.890625,2.90625 Z m 0,0"
               id="path8030" />
          </g>
          <g
             id="g8036"
             transform="translate(14.303201,8.9659996)">
            <path
               d="m 5.359375,-3.828125 c 0,-0.984375 -0.0625,-1.953125 -0.5,-2.859375 -0.484375,-1 -1.34375,-1.265625 -1.9375,-1.265625 -0.6875,0 -1.53125,0.34375 -1.984375,1.34375 -0.328125,0.75 -0.453125,1.5 -0.453125,2.78125 0,1.15625 0.09375,2.03125 0.515625,2.890625 0.46875,0.90625 1.296875,1.1875 1.921875,1.1875 1.03125,0 1.625,-0.625 1.984375,-1.3125 0.421875,-0.890625 0.453125,-2.0625 0.453125,-2.765625 z m -2.4375,3.84375 C 2.53125,0.015625 1.75,-0.203125 1.53125,-1.5 c -0.125,-0.71875 -0.125,-1.625 -0.125,-2.46875 0,-0.984375 0,-1.859375 0.1875,-2.5625 0.203125,-0.8125 0.8125,-1.171875 1.328125,-1.171875 0.453125,0 1.140625,0.265625 1.375,1.296875 0.15625,0.6875 0.15625,1.625 0.15625,2.4375 0,0.796875 0,1.703125 -0.140625,2.4375 -0.21875,1.3125 -0.984375,1.546875 -1.390625,1.546875 z m 0,0"
               id="path8034" />
          </g>
          <g
             id="g8040"
             transform="translate(20.156467,8.9659996)">
            <path
               d="m 2.328125,0.046875 c 0,-0.734375 -0.25,-1.203125 -0.71875,-1.203125 -0.34375,0 -0.5625,0.265625 -0.5625,0.578125 C 1.046875,-0.265625 1.265625,0 1.625,0 c 0.1875,0 0.3125,-0.078125 0.390625,-0.140625 0.03125,-0.03125 0.046875,-0.03125 0.046875,-0.03125 0.03125,0 0.03125,0.15625 0.03125,0.21875 0,0.765625 -0.3125,1.484375 -0.84375,2.03125 -0.046875,0.03125 -0.0625,0.0625 -0.0625,0.109375 0,0.0625 0.0625,0.125 0.125,0.125 0.109375,0 1.015625,-0.890625 1.015625,-2.265625 z m 0,0"
               id="path8038" />
          </g>
          <g
             id="g8044"
             transform="translate(23.408281,8.9659996)">
            <path
               d="M 5.265625,-2.015625 H 5 c -0.046875,0.203125 -0.140625,0.875 -0.25,1.0625 C 4.65625,-0.84375 3.984375,-0.84375 3.625,-0.84375 H 1.40625 c 0.328125,-0.28125 1.0625,-1.046875 1.359375,-1.328125 1.828125,-1.671875 2.5,-2.296875 2.5,-3.484375 0,-1.375 -1.09375,-2.296875 -2.484375,-2.296875 -1.375,0 -2.203125,1.1875 -2.203125,2.21875 0,0.609375 0.53125,0.609375 0.5625,0.609375 0.265625,0 0.5625,-0.1875 0.5625,-0.5625 0,-0.34375 -0.21875,-0.5625 -0.5625,-0.5625 -0.09375,0 -0.125,0 -0.15625,0.015625 0.21875,-0.8125 0.875,-1.375 1.640625,-1.375 1.015625,0 1.640625,0.859375 1.640625,1.953125 C 4.265625,-4.640625 3.6875,-3.75 3,-2.984375 L 0.578125,-0.28125 V 0 h 4.375 z m 0,0"
               id="path8042" />
          </g>
          <g
             id="g8048"
             transform="translate(29.261547,8.9659996)">
            <path
               d="M 3.375,-2.96875 C 3.375,-3.890625 3.25,-5.359375 2.578125,-6.75 1.875,-8.1875 0.890625,-8.96875 0.765625,-8.96875 c -0.046875,0 -0.109375,0.03125 -0.109375,0.09375 0,0.046875 0,0.0625 0.203125,0.265625 1.203125,1.203125 1.859375,3.1875 1.859375,5.625 0,2.3125 -0.5625,4.3125 -1.9375,5.71875 C 0.65625,2.84375 0.65625,2.875 0.65625,2.90625 0.65625,2.96875 0.71875,3 0.765625,3 0.921875,3 1.90625,2.140625 2.484375,0.96875 3.09375,-0.25 3.375,-1.546875 3.375,-2.96875 Z m 0,0"
               id="path8046" />
          </g>
        </g>
      </g>
    </g>
    <g
       inkscape:label=""
       transform="translate(144.32639,77.983307)"
       id="g8570">
      <g
         fill="#000000"
         fill-opacity="1"
         id="g8544"
         transform="matrix(0.352778,0,0,0.352778,-0.385851,9.7028e-4)">
        <g
           id="g8542"
           transform="translate(0,8.9659996)">
          <path
             d="m 3.4375,-7.65625 c 0,-0.28125 0,-0.296875 -0.234375,-0.296875 C 2.921875,-7.625 2.3125,-7.1875 1.09375,-7.1875 v 0.34375 c 0.265625,0 0.859375,0 1.53125,-0.296875 v 6.21875 c 0,0.4375 -0.046875,0.578125 -1.09375,0.578125 h -0.375 V 0 c 0.328125,-0.03125 1.484375,-0.03125 1.875,-0.03125 0.40625,0 1.546875,0 1.875,0.03125 v -0.34375 h -0.375 c -1.046875,0 -1.09375,-0.140625 -1.09375,-0.578125 z m 0,0"
             id="path8540" />
        </g>
      </g>
      <g
         clip-path="url(#clipPath2162)"
         id="g8568"
         transform="matrix(0.352778,0,0,0.352778,-0.385851,9.7028e-4)">
        <g
           fill="#000000"
           fill-opacity="1"
           id="g8566">
          <g
             id="g8548"
             transform="translate(9.7506609,8.9659996)">
            <path
               d="m 3.890625,2.90625 c 0,-0.03125 0,-0.0625 -0.203125,-0.265625 C 2.484375,1.4375 1.8125,-0.53125 1.8125,-2.96875 c 0,-2.328125 0.5625,-4.328125 1.953125,-5.734375 0.125,-0.109375 0.125,-0.125 0.125,-0.171875 0,-0.0625 -0.0625,-0.09375 -0.109375,-0.09375 -0.15625,0 -1.140625,0.859375 -1.71875,2.03125 -0.609375,1.21875 -0.890625,2.484375 -0.890625,3.96875 0,1.0625 0.171875,2.484375 0.78125,3.75 C 2.671875,2.21875 3.640625,3 3.78125,3 3.828125,3 3.890625,2.96875 3.890625,2.90625 Z m 0,0"
               id="path8546" />
          </g>
          <g
             id="g8552"
             transform="translate(14.303201,8.9659996)">
            <path
               d="m 3.4375,-7.65625 c 0,-0.28125 0,-0.296875 -0.234375,-0.296875 C 2.921875,-7.625 2.3125,-7.1875 1.09375,-7.1875 v 0.34375 c 0.265625,0 0.859375,0 1.53125,-0.296875 v 6.21875 c 0,0.4375 -0.046875,0.578125 -1.09375,0.578125 h -0.375 V 0 c 0.328125,-0.03125 1.484375,-0.03125 1.875,-0.03125 0.40625,0 1.546875,0 1.875,0.03125 v -0.34375 h -0.375 c -1.046875,0 -1.09375,-0.140625 -1.09375,-0.578125 z m 0,0"
               id="path8550" />
          </g>
          <g
             id="g8556"
             transform="translate(20.156467,8.9659996)">
            <path
               d="m 2.328125,0.046875 c 0,-0.734375 -0.25,-1.203125 -0.71875,-1.203125 -0.34375,0 -0.5625,0.265625 -0.5625,0.578125 C 1.046875,-0.265625 1.265625,0 1.625,0 c 0.1875,0 0.3125,-0.078125 0.390625,-0.140625 0.03125,-0.03125 0.046875,-0.03125 0.046875,-0.03125 0.03125,0 0.03125,0.15625 0.03125,0.21875 0,0.765625 -0.3125,1.484375 -0.84375,2.03125 -0.046875,0.03125 -0.0625,0.0625 -0.0625,0.109375 0,0.0625 0.0625,0.125 0.125,0.125 0.109375,0 1.015625,-0.890625 1.015625,-2.265625 z m 0,0"
               id="path8554" />
          </g>
          <g
             id="g8560"
             transform="translate(23.408281,8.9659996)">
            <path
               d="M 5.265625,-2.015625 H 5 c -0.046875,0.203125 -0.140625,0.875 -0.25,1.0625 C 4.65625,-0.84375 3.984375,-0.84375 3.625,-0.84375 H 1.40625 c 0.328125,-0.28125 1.0625,-1.046875 1.359375,-1.328125 1.828125,-1.671875 2.5,-2.296875 2.5,-3.484375 0,-1.375 -1.09375,-2.296875 -2.484375,-2.296875 -1.375,0 -2.203125,1.1875 -2.203125,2.21875 0,0.609375 0.53125,0.609375 0.5625,0.609375 0.265625,0 0.5625,-0.1875 0.5625,-0.5625 0,-0.34375 -0.21875,-0.5625 -0.5625,-0.5625 -0.09375,0 -0.125,0 -0.15625,0.015625 0.21875,-0.8125 0.875,-1.375 1.640625,-1.375 1.015625,0 1.640625,0.859375 1.640625,1.953125 C 4.265625,-4.640625 3.6875,-3.75 3,-2.984375 L 0.578125,-0.28125 V 0 h 4.375 z m 0,0"
               id="path8558" />
          </g>
          <g
             id="g8564"
             transform="translate(29.261547,8.9659996)">
            <path
               d="M 3.375,-2.96875 C 3.375,-3.890625 3.25,-5.359375 2.578125,-6.75 1.875,-8.1875 0.890625,-8.96875 0.765625,-8.96875 c -0.046875,0 -0.109375,0.03125 -0.109375,0.09375 0,0.046875 0,0.0625 0.203125,0.265625 1.203125,1.203125 1.859375,3.1875 1.859375,5.625 0,2.3125 -0.5625,4.3125 -1.9375,5.71875 C 0.65625,2.84375 0.65625,2.875 0.65625,2.90625 0.65625,2.96875 0.71875,3 0.765625,3 0.921875,3 1.90625,2.140625 2.484375,0.96875 3.09375,-0.25 3.375,-1.546875 3.375,-2.96875 Z m 0,0"
               id="path8562" />
          </g>
        </g>
      </g>
    </g>
    <g
       inkscape:label=""
       transform="translate(116.41804,100.29544)"
       id="g2267"
       inkscape:export-filename="7c_ElemanMesh.png"
       inkscape:export-xdpi="900"
       inkscape:export-ydpi="900">
      <g
         clip-path="url(#clipPath7611)"
         id="g17"
         transform="matrix(0.352778,0,0,0.352778,-0.170877,0.0878858)">
        <g
           fill="#000000"
           fill-opacity="1"
           id="g15">
          <g
             id="use13"
             transform="translate(0,7.704)">
            <path
               d="m 2.203125,-4.296875 c -0.203125,0.015625 -0.25,0.03125 -0.25,0.140625 0,0.109375 0.0625,0.109375 0.265625,0.109375 h 0.546875 c 1.03125,0 1.484375,0.84375 1.484375,1.984375 0,1.578125 -0.8125,1.984375 -1.40625,1.984375 -0.578125,0 -1.546875,-0.265625 -1.90625,-1.0625 0.390625,0.0625 0.734375,-0.15625 0.734375,-0.578125 0,-0.34375 -0.25,-0.59375 -0.578125,-0.59375 -0.296875,0 -0.609375,0.171875 -0.609375,0.625 0,1.0625 1.0625,1.9375 2.390625,1.9375 1.421875,0 2.484375,-1.09375 2.484375,-2.296875 C 5.359375,-3.140625 4.46875,-4 3.328125,-4.203125 4.359375,-4.5 5.03125,-5.375 5.03125,-6.3125 c 0,-0.9375 -0.984375,-1.640625 -2.140625,-1.640625 -1.1875,0 -2.078125,0.734375 -2.078125,1.609375 0,0.46875 0.375,0.578125 0.546875,0.578125 0.25,0 0.546875,-0.1875 0.546875,-0.546875 0,-0.375 -0.296875,-0.546875 -0.5625,-0.546875 -0.0625,0 -0.09375,0 -0.125,0.015625 0.453125,-0.8125 1.578125,-0.8125 1.640625,-0.8125 0.390625,0 1.171875,0.171875 1.171875,1.34375 0,0.234375 -0.03125,0.890625 -0.390625,1.40625 C 3.28125,-4.375 2.875,-4.34375 2.5625,-4.328125 Z m 0,0"
               id="path23" />
          </g>
        </g>
      </g>
    </g>
  </g>
</svg>
