<?xml version="1.0" encoding="UTF-8" standalone="no"?>
<!-- Created with Inkscape (http://www.inkscape.org/) -->

<svg
   width="210mm"
   height="297mm"
   viewBox="0 0 210 297"
   version="1.1"
   id="svg5"
   sodipodi:docname="7c_TamMesh.svg"
   inkscape:export-filename="7c_TamMesh.png"
   inkscape:export-xdpi="900"
   inkscape:export-ydpi="900"
   inkscape:version="1.2.2 (b0a8486, 2022-12-01)"
   xmlns:inkscape="http://www.inkscape.org/namespaces/inkscape"
   xmlns:sodipodi="http://sodipodi.sourceforge.net/DTD/sodipodi-0.dtd"
   xmlns="http://www.w3.org/2000/svg"
   xmlns:svg="http://www.w3.org/2000/svg">
  <sodipodi:namedview
     id="namedview7"
     pagecolor="#ffffff"
     bordercolor="#666666"
     borderopacity="1.0"
     inkscape:showpageshadow="2"
     inkscape:pageopacity="0.0"
     inkscape:pagecheckerboard="0"
     inkscape:deskcolor="#d1d1d1"
     inkscape:document-units="mm"
     showgrid="false"
     inkscape:zoom="1.5144501"
     inkscape:cx="207.66614"
     inkscape:cy="457.2617"
     inkscape:window-width="1860"
     inkscape:window-height="1016"
     inkscape:window-x="60"
     inkscape:window-y="27"
     inkscape:window-maximized="1"
     inkscape:current-layer="layer1" />
  <defs
     id="defs2">
    <marker
       style="overflow:visible"
       id="marker1687"
       refX="0"
       refY="0"
       orient="auto-start-reverse"
       inkscape:stockid="TriangleStart"
       markerWidth="5.3244081"
       markerHeight="6.155385"
       viewBox="0 0 5.3244081 6.1553851"
       inkscape:isstock="true"
       inkscape:collect="always"
       preserveAspectRatio="xMidYMid">
      <path
         transform="scale(0.5)"
         style="fill:context-stroke;fill-rule:evenodd;stroke:context-stroke;stroke-width:1pt"
         d="M 5.77,0 -2.88,5 V -5 Z"
         id="path1685" />
    </marker>
    <marker
       style="overflow:visible"
       id="TriangleStart"
       refX="0"
       refY="0"
       orient="auto-start-reverse"
       inkscape:stockid="TriangleStart"
       markerWidth="5.3244081"
       markerHeight="6.155385"
       viewBox="0 0 5.3244081 6.1553851"
       inkscape:isstock="true"
       inkscape:collect="always"
       preserveAspectRatio="xMidYMid">
      <path
         transform="scale(0.5)"
         style="fill:context-stroke;fill-rule:evenodd;stroke:context-stroke;stroke-width:1pt"
         d="M 5.77,0 -2.88,5 V -5 Z"
         id="path135" />
    </marker>
    <clipPath
       id="clipPath600">
      <path
         clip-rule="nonzero"
         d="M 1,0 H 5 V 7.703125 H 1 Z m 0,0"
         id="path233" />
    </clipPath>
    <clipPath
       id="clipPath9554">
      <path
         clip-rule="nonzero"
         d="M 0,0 H 5.851562 V 7.703125 H 0 Z m 0,0"
         id="path3693" />
    </clipPath>
    <clipPath
       id="clipPath7735">
      <path
         clip-rule="nonzero"
         d="M 0,0 H 5.851562 V 7.703125 H 0 Z m 0,0"
         id="path6508" />
    </clipPath>
    <clipPath
       id="clipPath2505">
      <path
         clip-rule="nonzero"
         d="M 0,0 H 5.851562 V 7.703125 H 0 Z m 0,0"
         id="path9141" />
    </clipPath>
    <clipPath
       id="clipPath1502">
      <path
         clip-rule="nonzero"
         d="M 0,0 H 6 V 7.472656 H 0 Z m 0,0"
         id="path7803" />
    </clipPath>
    <clipPath
       id="clipPath8389">
      <path
         clip-rule="nonzero"
         d="M 0,0 H 9 V 8.167969 H 0 Z m 0,0"
         id="path9149" />
    </clipPath>
    <clipPath
       id="clipPath57">
      <path
         clip-rule="nonzero"
         d="M 0,0 H 9 V 8.167969 H 0 Z m 0,0"
         id="path6109" />
    </clipPath>
    <clipPath
       id="clipPath6763">
      <path
         clip-rule="nonzero"
         d="M 0,0 H 7 V 8.167969 H 0 Z m 0,0"
         id="path5847" />
    </clipPath>
    <clipPath
       id="clipPath5097">
      <path
         clip-rule="nonzero"
         d="M 0,0 H 8.773438 V 8.167969 H 0 Z m 0,0"
         id="path8000" />
    </clipPath>
    <clipPath
       id="clipPath5891">
      <path
         clip-rule="nonzero"
         d="M 0,0 H 10.621094 V 8.167969 H 0 Z m 0,0"
         id="path7590" />
    </clipPath>
    <clipPath
       id="clipPath3750">
      <path
         clip-rule="nonzero"
         d="M 0,0 H 7.964844 V 8.167969 H 0 Z m 0,0"
         id="path7069" />
    </clipPath>
  </defs>
  <g
     inkscape:label="Layer 1"
     inkscape:groupmode="layer"
     id="layer1">
    <rect
       style="fill:#ffe6d5;stroke:#000000;stroke-width:0.201337"
       id="rect234-3"
       width="51.973324"
       height="38.543476"
       x="39.436081"
       y="82.058731" />
    <rect
       style="fill:#ffe6d5;stroke:#000000;stroke-width:0.201337"
       id="rect234-3-6"
       width="51.973324"
       height="38.543476"
       x="91.411865"
       y="82.058258" />
    <rect
       style="fill:#ffe6d5;stroke:#000000;stroke-width:0.201337"
       id="rect234-3-5"
       width="51.973324"
       height="38.543476"
       x="39.445503"
       y="120.61186" />
    <rect
       style="fill:#ffe6d5;stroke:#000000;stroke-width:0.201337"
       id="rect234-3-6-3"
       width="51.973324"
       height="38.543476"
       x="91.421295"
       y="120.61138" />
    <g
       inkscape:label=""
       transform="translate(65.500845,101.45633)"
       id="g478">
      <g
         clip-path="url(#clipPath600)"
         id="g17"
         transform="matrix(0.352778,0,0,0.352778,-0.385851,0.0878858)">
        <g
           fill="#000000"
           fill-opacity="1"
           id="g15">
          <g
             id="use13"
             transform="translate(0,7.704)">
            <path
               d="m 3.4375,-7.65625 c 0,-0.28125 0,-0.296875 -0.234375,-0.296875 C 2.921875,-7.625 2.3125,-7.1875 1.09375,-7.1875 v 0.34375 c 0.265625,0 0.859375,0 1.53125,-0.296875 v 6.21875 c 0,0.4375 -0.046875,0.578125 -1.09375,0.578125 h -0.375 V 0 c 0.328125,-0.03125 1.484375,-0.03125 1.875,-0.03125 0.40625,0 1.546875,0 1.875,0.03125 v -0.34375 h -0.375 c -1.046875,0 -1.09375,-0.140625 -1.09375,-0.578125 z m 0,0"
               id="path23" />
          </g>
        </g>
      </g>
    </g>
    <g
       inkscape:label=""
       transform="translate(116.40952,100.67984)"
       id="g527">
      <g
         clip-path="url(#clipPath9554)"
         id="g525"
         transform="matrix(0.352778,0,0,0.352778,-0.20395,0.0878858)">
        <g
           fill="#000000"
           fill-opacity="1"
           id="g523">
          <g
             id="g521"
             transform="translate(0,7.704)">
            <path
               d="M 5.265625,-2.015625 H 5 c -0.046875,0.203125 -0.140625,0.875 -0.25,1.0625 C 4.65625,-0.84375 3.984375,-0.84375 3.625,-0.84375 H 1.40625 c 0.328125,-0.28125 1.0625,-1.046875 1.359375,-1.328125 1.828125,-1.671875 2.5,-2.296875 2.5,-3.484375 0,-1.375 -1.09375,-2.296875 -2.484375,-2.296875 -1.375,0 -2.203125,1.1875 -2.203125,2.21875 0,0.609375 0.53125,0.609375 0.5625,0.609375 0.265625,0 0.5625,-0.1875 0.5625,-0.5625 0,-0.34375 -0.21875,-0.5625 -0.5625,-0.5625 -0.09375,0 -0.125,0 -0.15625,0.015625 0.21875,-0.8125 0.875,-1.375 1.640625,-1.375 1.015625,0 1.640625,0.859375 1.640625,1.953125 C 4.265625,-4.640625 3.6875,-3.75 3,-2.984375 L 0.578125,-0.28125 V 0 h 4.375 z m 0,0"
               id="path519" />
          </g>
        </g>
      </g>
    </g>
    <g
       inkscape:label=""
       transform="translate(64.888553,137.53541)"
       id="g590">
      <g
         clip-path="url(#clipPath7735)"
         id="g588"
         transform="matrix(0.352778,0,0,0.352778,-0.170877,0.0878858)">
        <g
           fill="#000000"
           fill-opacity="1"
           id="g586">
          <g
             id="g584"
             transform="translate(0,7.704)">
            <path
               d="m 2.203125,-4.296875 c -0.203125,0.015625 -0.25,0.03125 -0.25,0.140625 0,0.109375 0.0625,0.109375 0.265625,0.109375 h 0.546875 c 1.03125,0 1.484375,0.84375 1.484375,1.984375 0,1.578125 -0.8125,1.984375 -1.40625,1.984375 -0.578125,0 -1.546875,-0.265625 -1.90625,-1.0625 0.390625,0.0625 0.734375,-0.15625 0.734375,-0.578125 0,-0.34375 -0.25,-0.59375 -0.578125,-0.59375 -0.296875,0 -0.609375,0.171875 -0.609375,0.625 0,1.0625 1.0625,1.9375 2.390625,1.9375 1.421875,0 2.484375,-1.09375 2.484375,-2.296875 C 5.359375,-3.140625 4.46875,-4 3.328125,-4.203125 4.359375,-4.5 5.03125,-5.375 5.03125,-6.3125 c 0,-0.9375 -0.984375,-1.640625 -2.140625,-1.640625 -1.1875,0 -2.078125,0.734375 -2.078125,1.609375 0,0.46875 0.375,0.578125 0.546875,0.578125 0.25,0 0.546875,-0.1875 0.546875,-0.546875 0,-0.375 -0.296875,-0.546875 -0.5625,-0.546875 -0.0625,0 -0.09375,0 -0.125,0.015625 0.453125,-0.8125 1.578125,-0.8125 1.640625,-0.8125 0.390625,0 1.171875,0.171875 1.171875,1.34375 0,0.234375 -0.03125,0.890625 -0.390625,1.40625 C 3.28125,-4.375 2.875,-4.34375 2.5625,-4.328125 Z m 0,0"
               id="path582" />
          </g>
        </g>
      </g>
    </g>
    <g
       inkscape:label=""
       transform="translate(115.9719,138.87676)"
       id="g667">
      <g
         clip-path="url(#clipPath2505)"
         id="g665"
         transform="matrix(0.352778,0,0,0.352778,-0.115755,0.126471)">
        <g
           fill="#000000"
           fill-opacity="1"
           id="g663">
          <g
             id="g661"
             transform="translate(0,7.704)">
            <path
               d="m 4.3125,-7.78125 c 0,-0.234375 0,-0.28125 -0.171875,-0.28125 -0.09375,0 -0.125,0 -0.21875,0.140625 L 0.328125,-2.34375 V -2 H 3.46875 v 1.09375 c 0,0.4375 -0.03125,0.5625 -0.90625,0.5625 H 2.328125 V 0 c 0.28125,-0.03125 1.21875,-0.03125 1.5625,-0.03125 0.328125,0 1.28125,0 1.5625,0.03125 V -0.34375 H 5.21875 c -0.875,0 -0.90625,-0.125 -0.90625,-0.5625 V -2 H 5.515625 V -2.34375 H 4.3125 Z m -0.78125,0.9375 v 4.5 H 0.625 Z m 0,0"
               id="path659" />
          </g>
        </g>
      </g>
    </g>
    <g
       inkscape:label=""
       transform="translate(151.94236,158.31549)"
       id="g751">
      <g
         fill="#000000"
         fill-opacity="1"
         id="g12"
         transform="matrix(0.352778,0,0,0.352778,-0.115755,0.0418483)">
        <g
           id="use10"
           transform="translate(0,5.1469998)">
          <path
             d="m 5.671875,-4.875 c -0.390625,0.0625 -0.53125,0.359375 -0.53125,0.578125 0,0.296875 0.21875,0.390625 0.390625,0.390625 0.359375,0 0.609375,-0.3125 0.609375,-0.640625 0,-0.5 -0.578125,-0.71875 -1.078125,-0.71875 -0.71875,0 -1.125,0.71875 -1.234375,0.9375 -0.28125,-0.890625 -1.015625,-0.9375 -1.234375,-0.9375 -1.21875,0 -1.859375,1.5625 -1.859375,1.828125 0,0.046875 0.046875,0.109375 0.125,0.109375 0.09375,0 0.125,-0.078125 0.140625,-0.125 0.40625,-1.328125 1.21875,-1.578125 1.5625,-1.578125 0.53125,0 0.640625,0.5 0.640625,0.78125 0,0.265625 -0.078125,0.546875 -0.21875,1.125 L 2.578125,-1.5 c -0.171875,0.71875 -0.515625,1.375 -1.15625,1.375 -0.0625,0 -0.359375,0 -0.609375,-0.15625 C 1.25,-0.359375 1.34375,-0.71875 1.34375,-0.859375 1.34375,-1.09375 1.15625,-1.25 0.9375,-1.25 c -0.296875,0 -0.609375,0.265625 -0.609375,0.640625 0,0.5 0.5625,0.734375 1.078125,0.734375 0.578125,0 0.984375,-0.453125 1.234375,-0.953125 C 2.828125,-0.125 3.4375,0.125 3.875,0.125 5.09375,0.125 5.734375,-1.453125 5.734375,-1.703125 5.734375,-1.765625 5.6875,-1.8125 5.625,-1.8125 5.515625,-1.8125 5.5,-1.75 5.46875,-1.65625 5.140625,-0.609375 4.453125,-0.125 3.90625,-0.125 3.484375,-0.125 3.265625,-0.4375 3.265625,-0.921875 3.265625,-1.1875 3.3125,-1.375 3.5,-2.15625 L 3.921875,-3.796875 C 4.09375,-4.5 4.5,-5.03125 5.0625,-5.03125 c 0.015625,0 0.359375,0 0.609375,0.15625 z m 0,0"
             id="path18" />
        </g>
      </g>
    </g>
    <g
       inkscape:label=""
       transform="translate(38.444961,68.942067)"
       id="g847">
      <g
         clip-path="url(#clipPath1502)"
         id="g845"
         transform="matrix(0.352778,0,0,0.352778,-0.115755,0.0418483)">
        <g
           fill="#000000"
           fill-opacity="1"
           id="g843">
          <g
             id="g841"
             transform="translate(0,5.1469998)">
            <path
               d="m 3.140625,1.34375 c -0.3125,0.453125 -0.78125,0.859375 -1.375,0.859375 C 1.625,2.203125 1.046875,2.171875 0.875,1.625 c 0.03125,0.015625 0.09375,0.015625 0.109375,0.015625 0.359375,0 0.609375,-0.3125 0.609375,-0.59375 C 1.59375,0.78125 1.359375,0.6875 1.1875,0.6875 c -0.203125,0 -0.609375,0.140625 -0.609375,0.71875 0,0.609375 0.515625,1.03125 1.1875,1.03125 C 2.96875,2.4375 4.171875,1.34375 4.5,0.015625 L 5.671875,-4.65625 C 5.6875,-4.703125 5.71875,-4.78125 5.71875,-4.859375 5.71875,-5.03125 5.5625,-5.15625 5.390625,-5.15625 5.28125,-5.15625 5.03125,-5.109375 4.9375,-4.75 L 4.046875,-1.234375 C 4,-1.015625 4,-0.984375 3.890625,-0.859375 3.65625,-0.53125 3.265625,-0.125 2.6875,-0.125 c -0.671875,0 -0.734375,-0.65625 -0.734375,-0.96875 0,-0.6875 0.328125,-1.609375 0.65625,-2.46875 0.125,-0.34375 0.203125,-0.515625 0.203125,-0.75 0,-0.5 -0.359375,-0.953125 -0.953125,-0.953125 -1.09375,0 -1.53125,1.734375 -1.53125,1.828125 0,0.046875 0.046875,0.109375 0.125,0.109375 0.109375,0 0.125,-0.046875 0.171875,-0.21875 0.28125,-1 0.734375,-1.484375 1.203125,-1.484375 0.109375,0 0.3125,0 0.3125,0.390625 0,0.3125 -0.125,0.65625 -0.3125,1.109375 C 1.25,-1.953125 1.25,-1.5625 1.25,-1.28125 1.25,-0.140625 2.0625,0.125 2.65625,0.125 3,0.125 3.4375,0.015625 3.84375,-0.4375 l 0.015625,0.015625 C 3.6875,0.28125 3.5625,0.75 3.140625,1.34375 Z m 0,0"
               id="path839" />
          </g>
        </g>
      </g>
    </g>
    <path
       style="fill:none;stroke:#000000;stroke-width:0.265;stroke-linecap:butt;stroke-linejoin:miter;stroke-dasharray:none;stroke-opacity:1;marker-start:url(#marker1687);marker-end:url(#TriangleStart)"
       d="m 39.466279,74.391912 0,84.765328 109.324991,0"
       id="path912"
       sodipodi:nodetypes="ccc" />
    <circle
       style="fill:none;stroke:#000000;stroke-width:0.264999;stroke-dasharray:none"
       id="path1791"
       cx="66.040794"
       cy="102.8792"
       r="3.442513" />
    <circle
       style="fill:none;stroke:#000000;stroke-width:0.264999;stroke-dasharray:none"
       id="path1791-5"
       cx="116.81461"
       cy="140.19479"
       r="3.442513" />
    <circle
       style="fill:none;stroke:#000000;stroke-width:0.264999;stroke-dasharray:none"
       id="path1791-6"
       cx="117.40235"
       cy="101.67883"
       r="3.442513" />
    <circle
       style="fill:none;stroke:#000000;stroke-width:0.264999;stroke-dasharray:none"
       id="path1791-2"
       cx="65.689415"
       cy="139.24059"
       r="3.442513" />
    <circle
       style="fill:#000000;stroke:#000000;stroke-width:0.0516902;stroke-dasharray:none"
       id="path1791-9"
       cx="39.385048"
       cy="159.28096"
       r="0.67148942" />
    <g
       inkscape:label=""
       transform="translate(36.646594,160.1134)"
       id="g3307">
      <g
         clip-path="url(#clipPath57)"
         id="g3305"
         transform="matrix(0.352778,0,0,0.352778,-0.225998,0.0892088)">
        <g
           fill="#000000"
           fill-opacity="1"
           id="g3303">
          <g
             id="g3301"
             transform="translate(0,8.1689997)">
            <path
               d="m 8.453125,-4.046875 c 0,-2.484375 -1.8125,-4.375 -3.90625,-4.375 -2.125,0 -3.90625,1.921875 -3.90625,4.375 0,2.421875 1.8125,4.296875 3.90625,4.296875 2.140625,0 3.90625,-1.90625 3.90625,-4.296875 z M 4.546875,-0.03125 C 3.328125,-0.03125 1.75,-1.171875 1.75,-4.234375 c 0,-2.921875 1.671875,-3.921875 2.796875,-3.921875 1.171875,0 2.796875,1.03125 2.796875,3.921875 0,3.109375 -1.625,4.203125 -2.796875,4.203125 z m 0,0"
               id="path3299" />
          </g>
        </g>
      </g>
    </g>
    <g
       inkscape:label=""
       transform="translate(33.919503,118.90808)"
       id="g6239">
      <g
         clip-path="url(#clipPath5891)"
         id="g6237"
         transform="matrix(0.352778,0,0,0.352778,-0.192925,-0.0044978)">
        <g
           fill="#000000"
           fill-opacity="1"
           id="g6235">
          <g
             id="g6233"
             transform="translate(0,8.1689997)">
            <path
               d="M 8.9375,-7.296875 C 9.046875,-7.703125 9.078125,-7.8125 9.921875,-7.8125 c 0.21875,0 0.328125,0 0.328125,-0.21875 0,-0.125 -0.109375,-0.125 -0.171875,-0.125 -0.21875,0 -0.46875,0.015625 -0.6875,0.015625 H 7.96875 C 7.75,-8.140625 7.5,-8.15625 7.265625,-8.15625 c -0.078125,0 -0.21875,0 -0.21875,0.21875 0,0.125 0.078125,0.125 0.296875,0.125 0.71875,0 0.71875,0.09375 0.71875,0.21875 0,0.03125 0,0.09375 -0.046875,0.28125 l -0.71875,2.890625 H 3.6875 l 0.71875,-2.875 C 4.5,-7.703125 4.53125,-7.8125 5.375,-7.8125 c 0.21875,0 0.34375,0 0.34375,-0.21875 0,-0.125 -0.109375,-0.125 -0.1875,-0.125 -0.21875,0 -0.46875,0.015625 -0.6875,0.015625 H 3.4375 c -0.234375,0 -0.484375,-0.015625 -0.71875,-0.015625 -0.078125,0 -0.21875,0 -0.21875,0.21875 0,0.125 0.078125,0.125 0.3125,0.125 0.71875,0 0.71875,0.09375 0.71875,0.21875 0,0.03125 0,0.09375 -0.046875,0.28125 l -1.625,6.421875 C 1.75,-0.46875 1.734375,-0.34375 0.90625,-0.34375 c -0.265625,0 -0.359375,0 -0.359375,0.21875 C 0.546875,0 0.6875,0 0.71875,0 0.9375,0 1.1875,-0.03125 1.40625,-0.03125 H 2.828125 C 3.046875,-0.03125 3.296875,0 3.53125,0 3.625,0 3.75,0 3.75,-0.234375 3.75,-0.34375 3.640625,-0.34375 3.46875,-0.34375 c -0.734375,0 -0.734375,-0.09375 -0.734375,-0.21875 0,-0.015625 0,-0.09375 0.03125,-0.1875 l 0.8125,-3.328125 h 3.625 C 7,-3.28125 6.390625,-0.78125 6.375,-0.71875 c -0.140625,0.359375 -0.328125,0.359375 -1.03125,0.375 -0.140625,0 -0.25,0 -0.25,0.21875 C 5.09375,0 5.21875,0 5.265625,0 5.46875,0 5.71875,-0.03125 5.953125,-0.03125 h 1.40625 C 7.59375,-0.03125 7.84375,0 8.0625,0 c 0.09375,0 0.234375,0 0.234375,-0.234375 0,-0.109375 -0.109375,-0.109375 -0.28125,-0.109375 -0.734375,0 -0.734375,-0.09375 -0.734375,-0.21875 0,-0.015625 0,-0.09375 0.015625,-0.1875 z m 0,0"
               id="path6231" />
          </g>
        </g>
      </g>
    </g>
    <g
       inkscape:label=""
       transform="translate(89.750807,162.33895)"
       id="g6640">
      <g
         clip-path="url(#clipPath3750)"
         id="g6638"
         transform="matrix(0.352778,0,0,0.352778,-0.192925,-0.0044978)">
        <g
           fill="#000000"
           fill-opacity="1"
           id="g6636">
          <g
             id="g6634"
             transform="translate(0,8.1689997)">
            <path
               d="M 4.390625,-7.25 C 4.5,-7.703125 4.53125,-7.8125 5.578125,-7.8125 c 0.328125,0 0.40625,0 0.40625,-0.234375 0,-0.109375 -0.125,-0.109375 -0.171875,-0.109375 -0.25,0 -0.515625,0.015625 -0.75,0.015625 H 3.453125 c -0.21875,0 -0.484375,-0.015625 -0.71875,-0.015625 -0.09375,0 -0.21875,0 -0.21875,0.21875 0,0.125 0.109375,0.125 0.28125,0.125 0.734375,0 0.734375,0.09375 0.734375,0.21875 0,0.03125 0,0.09375 -0.046875,0.28125 l -1.625,6.421875 C 1.75,-0.46875 1.734375,-0.34375 0.890625,-0.34375 c -0.21875,0 -0.34375,0 -0.34375,0.21875 C 0.546875,0 0.625,0 0.859375,0 H 6.21875 C 6.484375,0 6.484375,-0.015625 6.578125,-0.234375 L 7.5,-2.765625 c 0.015625,-0.0625 0.046875,-0.140625 0.046875,-0.171875 0,-0.078125 -0.0625,-0.125 -0.125,-0.125 -0.015625,0 -0.078125,0 -0.09375,0.046875 C 7.296875,-3 7.296875,-2.96875 7.203125,-2.75 c -0.375,1.046875 -0.921875,2.40625 -2.9375,2.40625 H 3.125 c -0.171875,0 -0.203125,0 -0.265625,-0.015625 C 2.71875,-0.375 2.71875,-0.390625 2.71875,-0.484375 c 0,-0.09375 0.015625,-0.15625 0.046875,-0.265625 z m 0,0"
               id="path6632" />
          </g>
        </g>
      </g>
    </g>
  </g>
</svg>
