<?xml version="1.0" encoding="UTF-8" standalone="no"?>
<!-- Created with Inkscape (http://www.inkscape.org/) -->

<svg
   width="210mm"
   height="297mm"
   viewBox="0 0 210 297"
   version="1.1"
   id="svg5"
   sodipodi:docname="7e_referansEleman.svg"
   inkscape:version="1.2.2 (b0a8486, 2022-12-01)"
   inkscape:export-filename="referansEleman.png"
   inkscape:export-xdpi="300"
   inkscape:export-ydpi="300"
   xmlns:inkscape="http://www.inkscape.org/namespaces/inkscape"
   xmlns:sodipodi="http://sodipodi.sourceforge.net/DTD/sodipodi-0.dtd"
   xmlns="http://www.w3.org/2000/svg"
   xmlns:svg="http://www.w3.org/2000/svg">
  <sodipodi:namedview
     id="namedview7"
     pagecolor="#ffffff"
     bordercolor="#000000"
     borderopacity="0.25"
     inkscape:showpageshadow="2"
     inkscape:pageopacity="0.0"
     inkscape:pagecheckerboard="0"
     inkscape:deskcolor="#d1d1d1"
     inkscape:document-units="mm"
     showgrid="false"
     inkscape:zoom="2.8079686"
     inkscape:cx="372.51129"
     inkscape:cy="431.80682"
     inkscape:window-width="1854"
     inkscape:window-height="1016"
     inkscape:window-x="0"
     inkscape:window-y="0"
     inkscape:window-maximized="1"
     inkscape:current-layer="layer1" />
  <defs
     id="defs2">
    <marker
       style="overflow:visible"
       id="marker2063"
       refX="0"
       refY="0"
       orient="auto-start-reverse"
       inkscape:stockid="TriangleStart"
       markerWidth="5.3244081"
       markerHeight="6.155385"
       viewBox="0 0 5.3244081 6.1553851"
       inkscape:isstock="true"
       inkscape:collect="always"
       preserveAspectRatio="xMidYMid">
      <path
         transform="scale(0.5)"
         style="fill:context-stroke;fill-rule:evenodd;stroke:context-stroke;stroke-width:1pt"
         d="M 5.77,0 -2.88,5 V -5 Z"
         id="path2061" />
    </marker>
    <marker
       style="overflow:visible"
       id="marker1999"
       refX="0"
       refY="0"
       orient="auto-start-reverse"
       inkscape:stockid="TriangleStart"
       markerWidth="5.3244081"
       markerHeight="6.155385"
       viewBox="0 0 5.3244081 6.1553851"
       inkscape:isstock="true"
       inkscape:collect="always"
       preserveAspectRatio="xMidYMid">
      <path
         transform="scale(0.5)"
         style="fill:context-stroke;fill-rule:evenodd;stroke:context-stroke;stroke-width:1pt"
         d="M 5.77,0 -2.88,5 V -5 Z"
         id="path1997" />
    </marker>
    <marker
       style="overflow:visible"
       id="marker1945"
       refX="0"
       refY="0"
       orient="auto-start-reverse"
       inkscape:stockid="TriangleStart"
       markerWidth="5.3244081"
       markerHeight="6.155385"
       viewBox="0 0 5.3244081 6.1553851"
       inkscape:isstock="true"
       inkscape:collect="always"
       preserveAspectRatio="xMidYMid">
      <path
         transform="scale(0.5)"
         style="fill:context-stroke;fill-rule:evenodd;stroke:context-stroke;stroke-width:1pt"
         d="M 5.77,0 -2.88,5 V -5 Z"
         id="path1943" />
    </marker>
    <marker
       style="overflow:visible"
       id="TriangleStart"
       refX="0"
       refY="0"
       orient="auto-start-reverse"
       inkscape:stockid="TriangleStart"
       markerWidth="5.3244081"
       markerHeight="6.155385"
       viewBox="0 0 5.3244081 6.1553851"
       inkscape:isstock="true"
       inkscape:collect="always"
       preserveAspectRatio="xMidYMid">
      <path
         transform="scale(0.5)"
         style="fill:context-stroke;fill-rule:evenodd;stroke:context-stroke;stroke-width:1pt"
         d="M 5.77,0 -2.88,5 V -5 Z"
         id="path135" />
    </marker>
    <inkscape:path-effect
       effect="spiro"
       id="path-effect1628"
       is_visible="true"
       lpeversion="1" />
    <inkscape:path-effect
       effect="spiro"
       id="path-effect1624"
       is_visible="true"
       lpeversion="1" />
    <clipPath
       id="clipPath1416">
      <path
         clip-rule="nonzero"
         d="M 0,0 H 6 V 7.472656 H 0 Z m 0,0"
         id="path7201" />
    </clipPath>
    <clipPath
       id="clipPath2414">
      <path
         clip-rule="nonzero"
         d="M 0,0 H 7 V 7.472656 H 0 Z m 0,0"
         id="path5287" />
    </clipPath>
    <clipPath
       id="clipPath2794">
      <path
         clip-rule="nonzero"
         d="M 1,0 H 14.957031 V 10.027344 H 1 Z m 0,0"
         id="path3141" />
    </clipPath>
    <clipPath
       id="clipPath9443">
      <path
         clip-rule="nonzero"
         d="M 1,0 H 23 V 11.953125 H 1 Z m 0,0"
         id="path300" />
    </clipPath>
    <clipPath
       id="clipPath4181">
      <path
         clip-rule="nonzero"
         d="M 1,0 H 27 V 11.953125 H 1 Z m 0,0"
         id="path3139" />
    </clipPath>
    <clipPath
       id="clipPath9379">
      <path
         clip-rule="nonzero"
         d="M 1,0 H 31 V 11.953125 H 1 Z m 0,0"
         id="path8168" />
    </clipPath>
    <clipPath
       id="clipPath3885">
      <path
         clip-rule="nonzero"
         d="M 1,0 H 27 V 11.953125 H 1 Z m 0,0"
         id="path574" />
    </clipPath>
    <clipPath
       id="clipPath5535">
      <path
         clip-rule="nonzero"
         d="M 1,0 H 14 V 11.953125 H 1 Z m 0,0"
         id="path779" />
    </clipPath>
    <clipPath
       id="clipPath7417">
      <path
         clip-rule="nonzero"
         d="M 1,0 H 5 V 7.703125 H 1 Z m 0,0"
         id="path6450" />
    </clipPath>
    <clipPath
       id="clipPath3812">
      <path
         clip-rule="nonzero"
         d="M 0,0 H 5.851562 V 7.703125 H 0 Z m 0,0"
         id="path3915" />
    </clipPath>
    <clipPath
       id="clipPath124">
      <path
         clip-rule="nonzero"
         d="M 0,0 H 5.851562 V 7.703125 H 0 Z m 0,0"
         id="path9436" />
    </clipPath>
    <clipPath
       id="clipPath9495">
      <path
         clip-rule="nonzero"
         d="M 0,0 H 5.851562 V 7.703125 H 0 Z m 0,0"
         id="path9108" />
    </clipPath>
    <clipPath
       id="clipPath124-6">
      <path
         clip-rule="nonzero"
         d="M 0,0 H 5.851562 V 7.703125 H 0 Z m 0,0"
         id="path9436-2" />
    </clipPath>
    <clipPath
       id="clipPath7417-6">
      <path
         clip-rule="nonzero"
         d="M 1,0 H 5 V 7.703125 H 1 Z m 0,0"
         id="path6450-1" />
    </clipPath>
    <clipPath
       id="clipPath9495-8">
      <path
         clip-rule="nonzero"
         d="M 0,0 H 5.851562 V 7.703125 H 0 Z m 0,0"
         id="path9108-7" />
    </clipPath>
    <clipPath
       id="clipPath3812-9">
      <path
         clip-rule="nonzero"
         d="M 0,0 H 5.851562 V 7.703125 H 0 Z m 0,0"
         id="path3915-2" />
    </clipPath>
    <clipPath
       id="clipPath9495-8-0">
      <path
         clip-rule="nonzero"
         d="M 0,0 H 5.851562 V 7.703125 H 0 Z m 0,0"
         id="path9108-7-2" />
    </clipPath>
  </defs>
  <g
     inkscape:label="Layer 1"
     inkscape:groupmode="layer"
     id="layer1">
    <rect
       style="fill:none;stroke:#000000;stroke-width:0.280437;stroke-dasharray:none"
       id="rect1514"
       width="52.992481"
       height="52.992481"
       x="70.427536"
       y="81.266891" />
    <path
       style="fill:none;stroke:#000000;stroke-width:0.280436;stroke-dasharray:none;marker-start:url(#marker1999);marker-end:url(#marker2063)"
       d="M 96.910907,72.821092 V 142.46661"
       id="path1622"
       inkscape:path-effect="#path-effect1624"
       inkscape:original-d="m 96.910907,72.821092 c 1.5e-4,23.215325 1.5e-4,46.430498 0,69.645518" />
    <path
       style="fill:none;stroke:#000000;stroke-width:0.280436;stroke-dasharray:none;marker-start:url(#TriangleStart);marker-end:url(#marker1945)"
       d="M 59.657943,108.14368 H 131.95205"
       id="path1626"
       inkscape:path-effect="#path-effect1628"
       inkscape:original-d="m 59.657943,108.14368 c 22.290224,1.4e-4 50.103827,1.4e-4 72.294107,0"
       sodipodi:nodetypes="cc" />
    <g
       inkscape:label=""
       transform="translate(99.067935,68.279681)"
       id="g2580">
      <g
         clip-path="url(#clipPath1416)"
         id="g17"
         transform="matrix(0.352778,0,0,0.352778,-0.115755,0.0418483)">
        <g
           fill="#000000"
           fill-opacity="1"
           id="g15">
          <g
             id="use13"
             transform="translate(0,5.1469998)">
            <path
               d="m 5.671875,-3.3125 c 0.0625,-0.234375 0.09375,-0.375 0.09375,-0.703125 0,-0.71875 -0.40625,-1.25 -1.3125,-1.25 -1.078125,0 -1.625,0.75 -1.84375,1.046875 -0.046875,-0.6875 -0.53125,-1.046875 -1.0625,-1.046875 -0.34375,0 -0.609375,0.15625 -0.84375,0.609375 -0.21875,0.4375 -0.375,1.171875 -0.375,1.21875 0,0.046875 0.046875,0.109375 0.125,0.109375 0.09375,0 0.109375,-0.015625 0.1875,-0.296875 0.171875,-0.703125 0.40625,-1.40625 0.875,-1.40625 0.28125,0 0.375,0.1875 0.375,0.546875 0,0.265625 -0.125,0.734375 -0.203125,1.109375 l -0.34375,1.28125 c -0.046875,0.234375 -0.171875,0.765625 -0.234375,0.984375 -0.078125,0.3125 -0.21875,0.875 -0.21875,0.9375 0,0.15625 0.140625,0.296875 0.3125,0.296875 0.140625,0 0.3125,-0.078125 0.40625,-0.25 C 1.640625,-0.1875 1.75,-0.609375 1.8125,-0.84375 L 2.0625,-1.921875 2.46875,-3.5 C 2.484375,-3.578125 2.78125,-4.171875 3.234375,-4.546875 3.53125,-4.84375 3.9375,-5.03125 4.40625,-5.03125 c 0.484375,0 0.65625,0.359375 0.65625,0.828125 0,0.359375 -0.046875,0.546875 -0.109375,0.765625 L 3.5625,2.0625 C 3.546875,2.125 3.53125,2.203125 3.53125,2.265625 c 0,0.1875 0.140625,0.296875 0.3125,0.296875 0.109375,0 0.359375,-0.046875 0.453125,-0.40625 z m 0,0"
               id="path23" />
          </g>
        </g>
      </g>
    </g>
    <g
       inkscape:label=""
       transform="translate(135.48443,103.9262)"
       id="g3679">
      <g
         fill="#000000"
         fill-opacity="1"
         id="g12"
         transform="matrix(0.352778,0,0,0.352778,-0.0937066,0.00370415)">
        <g
           id="use10"
           transform="translate(0,8.302)">
          <path
             d="m 3.125,0.0625 -1.265625,-0.5 c -0.3125,-0.125 -1.015625,-0.40625 -1.015625,-1.125 0,-1.03125 1.25,-2.078125 1.5,-2.078125 0.015625,0 0.125,0.03125 0.171875,0.046875 0.3125,0.09375 0.625,0.09375 0.84375,0.09375 0.375,0 1.078125,0 1.078125,-0.34375 C 4.4375,-4.109375 4,-4.140625 3.484375,-4.140625 3.25,-4.140625 2.921875,-4.140625 2.5,-4 2.21875,-4.25 2.09375,-4.625 2.09375,-4.984375 c 0,-0.65625 0.421875,-1.59375 1.375,-2.03125 0.21875,0.25 0.5,0.25 0.75,0.25 0.296875,0 1.03125,0 1.03125,-0.34375 0,-0.296875 -0.578125,-0.296875 -0.953125,-0.296875 -0.25,0 -0.421875,0 -0.765625,0.0625 -0.046875,-0.15625 -0.0625,-0.171875 -0.0625,-0.4375 0,-0.21875 0.046875,-0.375 0.046875,-0.421875 0,-0.0625 -0.0625,-0.109375 -0.125,-0.109375 -0.1875,0 -0.1875,0.4375 -0.1875,0.53125 0,0.171875 0.015625,0.328125 0.078125,0.484375 -1.421875,0.421875 -2.0625,1.4375 -2.0625,2.21875 0,0.71875 0.484375,1.109375 0.796875,1.28125 -1.234375,0.671875 -1.75,1.890625 -1.75,2.546875 0,1.03125 0.9375,1.40625 1.375,1.578125 l 1.078125,0.4375 C 3.015625,0.875 3.5,1.078125 3.578125,1.125 c 0.125,0.078125 0.21875,0.21875 0.21875,0.421875 0,0.25 -0.1875,0.65625 -0.609375,0.65625 -0.171875,0 -0.5625,-0.046875 -1,-0.375 C 2.109375,1.75 2.09375,1.75 2.046875,1.75 c -0.0625,0 -0.125,0.046875 -0.125,0.109375 0,0.140625 0.625,0.578125 1.265625,0.578125 0.765625,0 1.234375,-0.734375 1.234375,-1.25 0,-0.375 -0.203125,-0.671875 -0.578125,-0.84375 z m 0.609375,-7.171875 c 0.203125,-0.0625 0.40625,-0.0625 0.5625,-0.0625 0.40625,0 0.4375,0.015625 0.671875,0.078125 C 4.828125,-7.046875 4.734375,-7 4.234375,-7 4,-7 3.859375,-7 3.734375,-7.109375 Z M 2.78125,-3.84375 c 0.296875,-0.0625 0.546875,-0.0625 0.703125,-0.0625 0.390625,0 0.40625,0.015625 0.671875,0.0625 -0.125,0.0625 -0.234375,0.109375 -0.75,0.109375 -0.28125,0 -0.40625,0 -0.625,-0.109375 z m 0,0"
             id="path18" />
        </g>
      </g>
    </g>
    <g
       inkscape:label=""
       transform="translate(124.6069,77.01294)"
       id="g6232">
      <g
         clip-path="url(#clipPath9443)"
         id="g34"
         transform="matrix(0.352778,0,0,0.352778,-0.413411,9.7028e-4)">
        <g
           fill="#000000"
           fill-opacity="1"
           id="g32">
          <g
             id="use22"
             transform="translate(0,8.9659996)">
            <path
               d="m 3.890625,2.90625 c 0,-0.03125 0,-0.0625 -0.203125,-0.265625 C 2.484375,1.4375 1.8125,-0.53125 1.8125,-2.96875 c 0,-2.328125 0.5625,-4.328125 1.953125,-5.734375 0.125,-0.109375 0.125,-0.125 0.125,-0.171875 0,-0.0625 -0.0625,-0.09375 -0.109375,-0.09375 -0.15625,0 -1.140625,0.859375 -1.71875,2.03125 -0.609375,1.21875 -0.890625,2.484375 -0.890625,3.96875 0,1.0625 0.171875,2.484375 0.78125,3.75 C 2.671875,2.21875 3.640625,3 3.78125,3 3.828125,3 3.890625,2.96875 3.890625,2.90625 Z m 0,0"
               id="path40" />
          </g>
          <g
             id="use24"
             transform="translate(4.5525398,8.9659996)">
            <path
               d="m 3.4375,-7.65625 c 0,-0.28125 0,-0.296875 -0.234375,-0.296875 C 2.921875,-7.625 2.3125,-7.1875 1.09375,-7.1875 v 0.34375 c 0.265625,0 0.859375,0 1.53125,-0.296875 v 6.21875 c 0,0.4375 -0.046875,0.578125 -1.09375,0.578125 h -0.375 V 0 c 0.328125,-0.03125 1.484375,-0.03125 1.875,-0.03125 0.40625,0 1.546875,0 1.875,0.03125 v -0.34375 h -0.375 c -1.046875,0 -1.09375,-0.140625 -1.09375,-0.578125 z m 0,0"
               id="path44" />
          </g>
          <g
             id="use26"
             transform="translate(10.405806,8.9659996)">
            <path
               d="m 2.328125,0.046875 c 0,-0.734375 -0.25,-1.203125 -0.71875,-1.203125 -0.34375,0 -0.5625,0.265625 -0.5625,0.578125 C 1.046875,-0.265625 1.265625,0 1.625,0 c 0.1875,0 0.3125,-0.078125 0.390625,-0.140625 0.03125,-0.03125 0.046875,-0.03125 0.046875,-0.03125 0.03125,0 0.03125,0.15625 0.03125,0.21875 0,0.765625 -0.3125,1.484375 -0.84375,2.03125 -0.046875,0.03125 -0.0625,0.0625 -0.0625,0.109375 0,0.0625 0.0625,0.125 0.125,0.125 0.109375,0 1.015625,-0.890625 1.015625,-2.265625 z m 0,0"
               id="path48" />
          </g>
          <g
             id="use28"
             transform="translate(13.65762,8.9659996)">
            <path
               d="m 3.4375,-7.65625 c 0,-0.28125 0,-0.296875 -0.234375,-0.296875 C 2.921875,-7.625 2.3125,-7.1875 1.09375,-7.1875 v 0.34375 c 0.265625,0 0.859375,0 1.53125,-0.296875 v 6.21875 c 0,0.4375 -0.046875,0.578125 -1.09375,0.578125 h -0.375 V 0 c 0.328125,-0.03125 1.484375,-0.03125 1.875,-0.03125 0.40625,0 1.546875,0 1.875,0.03125 v -0.34375 h -0.375 c -1.046875,0 -1.09375,-0.140625 -1.09375,-0.578125 z m 0,0"
               id="path52" />
          </g>
          <g
             id="use30"
             transform="translate(19.510885,8.9659996)">
            <path
               d="M 3.375,-2.96875 C 3.375,-3.890625 3.25,-5.359375 2.578125,-6.75 1.875,-8.1875 0.890625,-8.96875 0.765625,-8.96875 c -0.046875,0 -0.109375,0.03125 -0.109375,0.09375 0,0.046875 0,0.0625 0.203125,0.265625 1.203125,1.203125 1.859375,3.1875 1.859375,5.625 0,2.3125 -0.5625,4.3125 -1.9375,5.71875 C 0.65625,2.84375 0.65625,2.875 0.65625,2.90625 0.65625,2.96875 0.71875,3 0.765625,3 0.921875,3 1.90625,2.140625 2.484375,0.96875 3.09375,-0.25 3.375,-1.546875 3.375,-2.96875 Z m 0,0"
               id="path56" />
          </g>
        </g>
      </g>
    </g>
    <g
       inkscape:label=""
       transform="translate(124.43616,134.5127)"
       id="g7157">
      <g
         clip-path="url(#clipPath4181)"
         id="g39"
         transform="matrix(0.352778,0,0,0.352778,-0.413411,9.7028e-4)">
        <g
           fill="#000000"
           fill-opacity="1"
           id="g37">
          <g
             id="use25"
             transform="translate(0,8.9659996)">
            <path
               d="m 3.890625,2.90625 c 0,-0.03125 0,-0.0625 -0.203125,-0.265625 C 2.484375,1.4375 1.8125,-0.53125 1.8125,-2.96875 c 0,-2.328125 0.5625,-4.328125 1.953125,-5.734375 0.125,-0.109375 0.125,-0.125 0.125,-0.171875 0,-0.0625 -0.0625,-0.09375 -0.109375,-0.09375 -0.15625,0 -1.140625,0.859375 -1.71875,2.03125 -0.609375,1.21875 -0.890625,2.484375 -0.890625,3.96875 0,1.0625 0.171875,2.484375 0.78125,3.75 C 2.671875,2.21875 3.640625,3 3.78125,3 3.828125,3 3.890625,2.96875 3.890625,2.90625 Z m 0,0"
               id="path45" />
          </g>
          <g
             id="use27"
             transform="translate(4.5525398,8.9659996)">
            <path
               d="m 3.4375,-7.65625 c 0,-0.28125 0,-0.296875 -0.234375,-0.296875 C 2.921875,-7.625 2.3125,-7.1875 1.09375,-7.1875 v 0.34375 c 0.265625,0 0.859375,0 1.53125,-0.296875 v 6.21875 c 0,0.4375 -0.046875,0.578125 -1.09375,0.578125 h -0.375 V 0 c 0.328125,-0.03125 1.484375,-0.03125 1.875,-0.03125 0.40625,0 1.546875,0 1.875,0.03125 v -0.34375 h -0.375 c -1.046875,0 -1.09375,-0.140625 -1.09375,-0.578125 z m 0,0"
               id="path49" />
          </g>
          <g
             id="use29"
             transform="translate(10.405806,8.9659996)">
            <path
               d="m 2.328125,0.046875 c 0,-0.734375 -0.25,-1.203125 -0.71875,-1.203125 -0.34375,0 -0.5625,0.265625 -0.5625,0.578125 C 1.046875,-0.265625 1.265625,0 1.625,0 c 0.1875,0 0.3125,-0.078125 0.390625,-0.140625 0.03125,-0.03125 0.046875,-0.03125 0.046875,-0.03125 0.03125,0 0.03125,0.15625 0.03125,0.21875 0,0.765625 -0.3125,1.484375 -0.84375,2.03125 -0.046875,0.03125 -0.0625,0.0625 -0.0625,0.109375 0,0.0625 0.0625,0.125 0.125,0.125 0.109375,0 1.015625,-0.890625 1.015625,-2.265625 z m 0,0"
               id="path53" />
          </g>
          <g
             id="use31"
             transform="translate(13.65762,8.9659996)">
            <path
               d="M 3.234375,-2.265625 V -2.90625 H 0.125 v 0.640625 z m 0,0"
               id="path57" />
          </g>
          <g
             id="use33"
             transform="translate(17.559797,8.9659996)">
            <path
               d="m 3.4375,-7.65625 c 0,-0.28125 0,-0.296875 -0.234375,-0.296875 C 2.921875,-7.625 2.3125,-7.1875 1.09375,-7.1875 v 0.34375 c 0.265625,0 0.859375,0 1.53125,-0.296875 v 6.21875 c 0,0.4375 -0.046875,0.578125 -1.09375,0.578125 h -0.375 V 0 c 0.328125,-0.03125 1.484375,-0.03125 1.875,-0.03125 0.40625,0 1.546875,0 1.875,0.03125 v -0.34375 h -0.375 c -1.046875,0 -1.09375,-0.140625 -1.09375,-0.578125 z m 0,0"
               id="path61" />
          </g>
          <g
             id="use35"
             transform="translate(23.413063,8.9659996)">
            <path
               d="M 3.375,-2.96875 C 3.375,-3.890625 3.25,-5.359375 2.578125,-6.75 1.875,-8.1875 0.890625,-8.96875 0.765625,-8.96875 c -0.046875,0 -0.109375,0.03125 -0.109375,0.09375 0,0.046875 0,0.0625 0.203125,0.265625 1.203125,1.203125 1.859375,3.1875 1.859375,5.625 0,2.3125 -0.5625,4.3125 -1.9375,5.71875 C 0.65625,2.84375 0.65625,2.875 0.65625,2.90625 0.65625,2.96875 0.71875,3 0.765625,3 0.921875,3 1.90625,2.140625 2.484375,0.96875 3.09375,-0.25 3.375,-1.546875 3.375,-2.96875 Z m 0,0"
               id="path65" />
          </g>
        </g>
      </g>
    </g>
    <g
       inkscape:label=""
       transform="translate(62.620171,136.08626)"
       id="g8127">
      <g
         clip-path="url(#clipPath9379)"
         id="g41"
         transform="matrix(0.352778,0,0,0.352778,-0.413411,9.7028e-4)">
        <g
           fill="#000000"
           fill-opacity="1"
           id="g8124">
          <g
             id="g8105"
             transform="translate(0,8.9659996)">
            <path
               d="m 3.890625,2.90625 c 0,-0.03125 0,-0.0625 -0.203125,-0.265625 C 2.484375,1.4375 1.8125,-0.53125 1.8125,-2.96875 c 0,-2.328125 0.5625,-4.328125 1.953125,-5.734375 0.125,-0.109375 0.125,-0.125 0.125,-0.171875 0,-0.0625 -0.0625,-0.09375 -0.109375,-0.09375 -0.15625,0 -1.140625,0.859375 -1.71875,2.03125 -0.609375,1.21875 -0.890625,2.484375 -0.890625,3.96875 0,1.0625 0.171875,2.484375 0.78125,3.75 C 2.671875,2.21875 3.640625,3 3.78125,3 3.828125,3 3.890625,2.96875 3.890625,2.90625 Z m 0,0"
               id="path47" />
          </g>
          <g
             id="g8108"
             transform="translate(4.5525398,8.9659996)">
            <path
               d="M 3.234375,-2.265625 V -2.90625 H 0.125 v 0.640625 z m 0,0"
               id="path51" />
          </g>
          <g
             id="g8111"
             transform="translate(8.4547167,8.9659996)">
            <path
               d="m 3.4375,-7.65625 c 0,-0.28125 0,-0.296875 -0.234375,-0.296875 C 2.921875,-7.625 2.3125,-7.1875 1.09375,-7.1875 v 0.34375 c 0.265625,0 0.859375,0 1.53125,-0.296875 v 6.21875 c 0,0.4375 -0.046875,0.578125 -1.09375,0.578125 h -0.375 V 0 c 0.328125,-0.03125 1.484375,-0.03125 1.875,-0.03125 0.40625,0 1.546875,0 1.875,0.03125 v -0.34375 h -0.375 c -1.046875,0 -1.09375,-0.140625 -1.09375,-0.578125 z m 0,0"
               id="path55" />
          </g>
          <g
             id="g8114"
             transform="translate(14.307983,8.9659996)">
            <path
               d="m 2.328125,0.046875 c 0,-0.734375 -0.25,-1.203125 -0.71875,-1.203125 -0.34375,0 -0.5625,0.265625 -0.5625,0.578125 C 1.046875,-0.265625 1.265625,0 1.625,0 c 0.1875,0 0.3125,-0.078125 0.390625,-0.140625 0.03125,-0.03125 0.046875,-0.03125 0.046875,-0.03125 0.03125,0 0.03125,0.15625 0.03125,0.21875 0,0.765625 -0.3125,1.484375 -0.84375,2.03125 -0.046875,0.03125 -0.0625,0.0625 -0.0625,0.109375 0,0.0625 0.0625,0.125 0.125,0.125 0.109375,0 1.015625,-0.890625 1.015625,-2.265625 z m 0,0"
               id="path59" />
          </g>
          <g
             id="g8117"
             transform="translate(17.559797,8.9659996)">
            <path
               d="M 3.234375,-2.265625 V -2.90625 H 0.125 v 0.640625 z m 0,0"
               id="path63" />
          </g>
          <g
             id="g8120"
             transform="translate(21.461975,8.9659996)">
            <path
               d="m 3.4375,-7.65625 c 0,-0.28125 0,-0.296875 -0.234375,-0.296875 C 2.921875,-7.625 2.3125,-7.1875 1.09375,-7.1875 v 0.34375 c 0.265625,0 0.859375,0 1.53125,-0.296875 v 6.21875 c 0,0.4375 -0.046875,0.578125 -1.09375,0.578125 h -0.375 V 0 c 0.328125,-0.03125 1.484375,-0.03125 1.875,-0.03125 0.40625,0 1.546875,0 1.875,0.03125 v -0.34375 h -0.375 c -1.046875,0 -1.09375,-0.140625 -1.09375,-0.578125 z m 0,0"
               id="path67" />
          </g>
          <g
             id="use37"
             transform="translate(27.315241,8.9659996)">
            <path
               d="M 3.375,-2.96875 C 3.375,-3.890625 3.25,-5.359375 2.578125,-6.75 1.875,-8.1875 0.890625,-8.96875 0.765625,-8.96875 c -0.046875,0 -0.109375,0.03125 -0.109375,0.09375 0,0.046875 0,0.0625 0.203125,0.265625 1.203125,1.203125 1.859375,3.1875 1.859375,5.625 0,2.3125 -0.5625,4.3125 -1.9375,5.71875 C 0.65625,2.84375 0.65625,2.875 0.65625,2.90625 0.65625,2.96875 0.71875,3 0.765625,3 0.921875,3 1.90625,2.140625 2.484375,0.96875 3.09375,-0.25 3.375,-1.546875 3.375,-2.96875 Z m 0,0"
               id="path71" />
          </g>
        </g>
      </g>
    </g>
    <g
       inkscape:label=""
       transform="translate(61.806584,76.563203)"
       id="g9142">
      <g
         clip-path="url(#clipPath3885)"
         id="g9140"
         transform="matrix(0.352778,0,0,0.352778,-0.413411,9.7028e-4)">
        <g
           fill="#000000"
           fill-opacity="1"
           id="g9138">
          <g
             id="g9116"
             transform="translate(0,8.9659996)">
            <path
               d="m 3.890625,2.90625 c 0,-0.03125 0,-0.0625 -0.203125,-0.265625 C 2.484375,1.4375 1.8125,-0.53125 1.8125,-2.96875 c 0,-2.328125 0.5625,-4.328125 1.953125,-5.734375 0.125,-0.109375 0.125,-0.125 0.125,-0.171875 0,-0.0625 -0.0625,-0.09375 -0.109375,-0.09375 -0.15625,0 -1.140625,0.859375 -1.71875,2.03125 -0.609375,1.21875 -0.890625,2.484375 -0.890625,3.96875 0,1.0625 0.171875,2.484375 0.78125,3.75 C 2.671875,2.21875 3.640625,3 3.78125,3 3.828125,3 3.890625,2.96875 3.890625,2.90625 Z m 0,0"
               id="path9114" />
          </g>
          <g
             id="g9120"
             transform="translate(4.5525398,8.9659996)">
            <path
               d="M 3.234375,-2.265625 V -2.90625 H 0.125 v 0.640625 z m 0,0"
               id="path9118" />
          </g>
          <g
             id="g9124"
             transform="translate(8.4547167,8.9659996)">
            <path
               d="m 3.4375,-7.65625 c 0,-0.28125 0,-0.296875 -0.234375,-0.296875 C 2.921875,-7.625 2.3125,-7.1875 1.09375,-7.1875 v 0.34375 c 0.265625,0 0.859375,0 1.53125,-0.296875 v 6.21875 c 0,0.4375 -0.046875,0.578125 -1.09375,0.578125 h -0.375 V 0 c 0.328125,-0.03125 1.484375,-0.03125 1.875,-0.03125 0.40625,0 1.546875,0 1.875,0.03125 v -0.34375 h -0.375 c -1.046875,0 -1.09375,-0.140625 -1.09375,-0.578125 z m 0,0"
               id="path9122" />
          </g>
          <g
             id="g9128"
             transform="translate(14.307983,8.9659996)">
            <path
               d="m 2.328125,0.046875 c 0,-0.734375 -0.25,-1.203125 -0.71875,-1.203125 -0.34375,0 -0.5625,0.265625 -0.5625,0.578125 C 1.046875,-0.265625 1.265625,0 1.625,0 c 0.1875,0 0.3125,-0.078125 0.390625,-0.140625 0.03125,-0.03125 0.046875,-0.03125 0.046875,-0.03125 0.03125,0 0.03125,0.15625 0.03125,0.21875 0,0.765625 -0.3125,1.484375 -0.84375,2.03125 -0.046875,0.03125 -0.0625,0.0625 -0.0625,0.109375 0,0.0625 0.0625,0.125 0.125,0.125 0.109375,0 1.015625,-0.890625 1.015625,-2.265625 z m 0,0"
               id="path9126" />
          </g>
          <g
             id="g9132"
             transform="translate(17.559797,8.9659996)">
            <path
               d="m 3.4375,-7.65625 c 0,-0.28125 0,-0.296875 -0.234375,-0.296875 C 2.921875,-7.625 2.3125,-7.1875 1.09375,-7.1875 v 0.34375 c 0.265625,0 0.859375,0 1.53125,-0.296875 v 6.21875 c 0,0.4375 -0.046875,0.578125 -1.09375,0.578125 h -0.375 V 0 c 0.328125,-0.03125 1.484375,-0.03125 1.875,-0.03125 0.40625,0 1.546875,0 1.875,0.03125 v -0.34375 h -0.375 c -1.046875,0 -1.09375,-0.140625 -1.09375,-0.578125 z m 0,0"
               id="path9130" />
          </g>
          <g
             id="g9136"
             transform="translate(23.413063,8.9659996)">
            <path
               d="M 3.375,-2.96875 C 3.375,-3.890625 3.25,-5.359375 2.578125,-6.75 1.875,-8.1875 0.890625,-8.96875 0.765625,-8.96875 c -0.046875,0 -0.109375,0.03125 -0.109375,0.09375 0,0.046875 0,0.0625 0.203125,0.265625 1.203125,1.203125 1.859375,3.1875 1.859375,5.625 0,2.3125 -0.5625,4.3125 -1.9375,5.71875 C 0.65625,2.84375 0.65625,2.875 0.65625,2.90625 0.65625,2.96875 0.71875,3 0.765625,3 0.921875,3 1.90625,2.140625 2.484375,0.96875 3.09375,-0.25 3.375,-1.546875 3.375,-2.96875 Z m 0,0"
               id="path9134" />
          </g>
        </g>
      </g>
    </g>
    <path
       style="fill:none;stroke:#000000;stroke-width:0.499999;stroke-dasharray:none"
       id="path14059"
       sodipodi:type="arc"
       sodipodi:cx="70.534012"
       sodipodi:cy="81.281563"
       sodipodi:rx="0.35845405"
       sodipodi:ry="0.35845405"
       sodipodi:start="0"
       sodipodi:end="6.0213859"
       sodipodi:open="true"
       sodipodi:arc-type="arc"
       d="m 70.892466,81.281563 a 0.35845405,0.35845405 0 0 1 -0.33501,0.357686 0.35845405,0.35845405 0 0 1 -0.378832,-0.310899 0.35845405,0.35845405 0 0 1 0.285457,-0.398354 0.35845405,0.35845405 0 0 1 0.416171,0.258792" />
    <circle
       style="fill:none;stroke:#000000;stroke-width:0.499999;stroke-dasharray:none"
       id="path14059-3"
       cx="70.399521"
       cy="134.24539"
       r="0.35845405" />
    <circle
       style="fill:none;stroke:#000000;stroke-width:0.499999;stroke-dasharray:none"
       id="path14059-3-6"
       cx="123.44163"
       cy="134.26335"
       r="0.35845405" />
    <circle
       style="fill:none;stroke:#000000;stroke-width:0.499999;stroke-dasharray:none"
       id="path14059-3-6-7"
       cx="123.41174"
       cy="81.371056"
       r="0.35845405" />
    <g
       inkscape:label=""
       transform="translate(119.84347,83.262441)"
       id="g12522">
      <g
         clip-path="url(#clipPath124-6)"
         id="g12520"
         transform="matrix(0.352778,0,0,0.352778,-0.170877,0.0878858)">
        <g
           fill="#000000"
           fill-opacity="1"
           id="g12518">
          <g
             id="g12516"
             transform="translate(0,7.704)">
            <path
               d="m 2.203125,-4.296875 c -0.203125,0.015625 -0.25,0.03125 -0.25,0.140625 0,0.109375 0.0625,0.109375 0.265625,0.109375 h 0.546875 c 1.03125,0 1.484375,0.84375 1.484375,1.984375 0,1.578125 -0.8125,1.984375 -1.40625,1.984375 -0.578125,0 -1.546875,-0.265625 -1.90625,-1.0625 0.390625,0.0625 0.734375,-0.15625 0.734375,-0.578125 0,-0.34375 -0.25,-0.59375 -0.578125,-0.59375 -0.296875,0 -0.609375,0.171875 -0.609375,0.625 0,1.0625 1.0625,1.9375 2.390625,1.9375 1.421875,0 2.484375,-1.09375 2.484375,-2.296875 C 5.359375,-3.140625 4.46875,-4 3.328125,-4.203125 4.359375,-4.5 5.03125,-5.375 5.03125,-6.3125 c 0,-0.9375 -0.984375,-1.640625 -2.140625,-1.640625 -1.1875,0 -2.078125,0.734375 -2.078125,1.609375 0,0.46875 0.375,0.578125 0.546875,0.578125 0.25,0 0.546875,-0.1875 0.546875,-0.546875 0,-0.375 -0.296875,-0.546875 -0.5625,-0.546875 -0.0625,0 -0.09375,0 -0.125,0.015625 0.453125,-0.8125 1.578125,-0.8125 1.640625,-0.8125 0.390625,0 1.171875,0.171875 1.171875,1.34375 0,0.234375 -0.03125,0.890625 -0.390625,1.40625 C 3.28125,-4.375 2.875,-4.34375 2.5625,-4.328125 Z m 0,0"
               id="path12514" />
          </g>
        </g>
      </g>
    </g>
    <g
       inkscape:label=""
       transform="translate(71.88145,129.15045)"
       id="g10438">
      <g
         clip-path="url(#clipPath7417-6)"
         id="g10436"
         transform="matrix(0.352778,0,0,0.352778,-0.385851,0.0878858)">
        <g
           fill="#000000"
           fill-opacity="1"
           id="g10434">
          <g
             id="g10432"
             transform="translate(0,7.704)">
            <path
               d="m 3.4375,-7.65625 c 0,-0.28125 0,-0.296875 -0.234375,-0.296875 C 2.921875,-7.625 2.3125,-7.1875 1.09375,-7.1875 v 0.34375 c 0.265625,0 0.859375,0 1.53125,-0.296875 v 6.21875 c 0,0.4375 -0.046875,0.578125 -1.09375,0.578125 h -0.375 V 0 c 0.328125,-0.03125 1.484375,-0.03125 1.875,-0.03125 0.40625,0 1.546875,0 1.875,0.03125 v -0.34375 h -0.375 c -1.046875,0 -1.09375,-0.140625 -1.09375,-0.578125 z m 0,0"
               id="path10430" />
          </g>
        </g>
      </g>
    </g>
    <g
       inkscape:label=""
       transform="translate(120.15922,129.7158)"
       id="g11473">
      <g
         clip-path="url(#clipPath3812-9)"
         id="g11471"
         transform="matrix(0.352778,0,0,0.352778,-0.20395,0.0878858)">
        <g
           fill="#000000"
           fill-opacity="1"
           id="g11469">
          <g
             id="g11467"
             transform="translate(0,7.704)">
            <path
               d="M 5.265625,-2.015625 H 5 c -0.046875,0.203125 -0.140625,0.875 -0.25,1.0625 C 4.65625,-0.84375 3.984375,-0.84375 3.625,-0.84375 H 1.40625 c 0.328125,-0.28125 1.0625,-1.046875 1.359375,-1.328125 1.828125,-1.671875 2.5,-2.296875 2.5,-3.484375 0,-1.375 -1.09375,-2.296875 -2.484375,-2.296875 -1.375,0 -2.203125,1.1875 -2.203125,2.21875 0,0.609375 0.53125,0.609375 0.5625,0.609375 0.265625,0 0.5625,-0.1875 0.5625,-0.5625 0,-0.34375 -0.21875,-0.5625 -0.5625,-0.5625 -0.09375,0 -0.125,0 -0.15625,0.015625 0.21875,-0.8125 0.875,-1.375 1.640625,-1.375 1.015625,0 1.640625,0.859375 1.640625,1.953125 C 4.265625,-4.640625 3.6875,-3.75 3,-2.984375 L 0.578125,-0.28125 V 0 h 4.375 z m 0,0"
               id="path11465" />
          </g>
        </g>
      </g>
    </g>
    <g
       inkscape:label=""
       transform="translate(71.696953,82.6585)"
       id="g12811">
      <g
         clip-path="url(#clipPath9495-8-0)"
         id="g12809"
         transform="matrix(0.352778,0,0,0.352778,-0.115755,0.126471)">
        <g
           fill="#000000"
           fill-opacity="1"
           id="g12807">
          <g
             id="g12805"
             transform="translate(0,7.704)">
            <path
               d="m 4.3125,-7.78125 c 0,-0.234375 0,-0.28125 -0.171875,-0.28125 -0.09375,0 -0.125,0 -0.21875,0.140625 L 0.328125,-2.34375 V -2 H 3.46875 v 1.09375 c 0,0.4375 -0.03125,0.5625 -0.90625,0.5625 H 2.328125 V 0 c 0.28125,-0.03125 1.21875,-0.03125 1.5625,-0.03125 0.328125,0 1.28125,0 1.5625,0.03125 V -0.34375 H 5.21875 c -0.875,0 -0.90625,-0.125 -0.90625,-0.5625 V -2 H 5.515625 V -2.34375 H 4.3125 Z m -0.78125,0.9375 v 4.5 H 0.625 Z m 0,0"
               id="path12803" />
          </g>
        </g>
      </g>
    </g>
  </g>
</svg>
