<?xml version="1.0" encoding="UTF-8" standalone="no"?>
<!-- Created with Inkscape (http://www.inkscape.org/) -->

<svg
   width="210mm"
   height="297mm"
   viewBox="0 0 210 297"
   version="1.1"
   id="svg5"
   sodipodi:docname="7e_TamMesh.svg"
   inkscape:export-filename="7c_TamMesh.png"
   inkscape:export-xdpi="900"
   inkscape:export-ydpi="900"
   inkscape:version="1.2.2 (b0a8486, 2022-12-01)"
   xmlns:inkscape="http://www.inkscape.org/namespaces/inkscape"
   xmlns:sodipodi="http://sodipodi.sourceforge.net/DTD/sodipodi-0.dtd"
   xmlns="http://www.w3.org/2000/svg"
   xmlns:svg="http://www.w3.org/2000/svg">
  <sodipodi:namedview
     id="namedview7"
     pagecolor="#ffffff"
     bordercolor="#666666"
     borderopacity="1.0"
     inkscape:showpageshadow="2"
     inkscape:pageopacity="0.0"
     inkscape:pagecheckerboard="0"
     inkscape:deskcolor="#d1d1d1"
     inkscape:document-units="mm"
     showgrid="false"
     inkscape:zoom="1.5144501"
     inkscape:cx="326.85131"
     inkscape:cy="449.99832"
     inkscape:window-width="1854"
     inkscape:window-height="1016"
     inkscape:window-x="0"
     inkscape:window-y="0"
     inkscape:window-maximized="1"
     inkscape:current-layer="layer1" />
  <defs
     id="defs2">
    <marker
       style="overflow:visible"
       id="marker1687"
       refX="0"
       refY="0"
       orient="auto-start-reverse"
       inkscape:stockid="TriangleStart"
       markerWidth="5.3244081"
       markerHeight="6.155385"
       viewBox="0 0 5.3244081 6.1553851"
       inkscape:isstock="true"
       inkscape:collect="always"
       preserveAspectRatio="xMidYMid">
      <path
         transform="scale(0.5)"
         style="fill:context-stroke;fill-rule:evenodd;stroke:context-stroke;stroke-width:1pt"
         d="M 5.77,0 -2.88,5 V -5 Z"
         id="path1685" />
    </marker>
    <marker
       style="overflow:visible"
       id="TriangleStart"
       refX="0"
       refY="0"
       orient="auto-start-reverse"
       inkscape:stockid="TriangleStart"
       markerWidth="5.3244081"
       markerHeight="6.155385"
       viewBox="0 0 5.3244081 6.1553851"
       inkscape:isstock="true"
       inkscape:collect="always"
       preserveAspectRatio="xMidYMid">
      <path
         transform="scale(0.5)"
         style="fill:context-stroke;fill-rule:evenodd;stroke:context-stroke;stroke-width:1pt"
         d="M 5.77,0 -2.88,5 V -5 Z"
         id="path135" />
    </marker>
    <clipPath
       id="clipPath600">
      <path
         clip-rule="nonzero"
         d="M 1,0 H 5 V 7.703125 H 1 Z m 0,0"
         id="path233" />
    </clipPath>
    <clipPath
       id="clipPath9554">
      <path
         clip-rule="nonzero"
         d="M 0,0 H 5.851562 V 7.703125 H 0 Z m 0,0"
         id="path3693" />
    </clipPath>
    <clipPath
       id="clipPath7735">
      <path
         clip-rule="nonzero"
         d="M 0,0 H 5.851562 V 7.703125 H 0 Z m 0,0"
         id="path6508" />
    </clipPath>
    <clipPath
       id="clipPath2505">
      <path
         clip-rule="nonzero"
         d="M 0,0 H 5.851562 V 7.703125 H 0 Z m 0,0"
         id="path9141" />
    </clipPath>
    <clipPath
       id="clipPath1502">
      <path
         clip-rule="nonzero"
         d="M 0,0 H 6 V 7.472656 H 0 Z m 0,0"
         id="path7803" />
    </clipPath>
    <clipPath
       id="clipPath8389">
      <path
         clip-rule="nonzero"
         d="M 0,0 H 9 V 8.167969 H 0 Z m 0,0"
         id="path9149" />
    </clipPath>
    <clipPath
       id="clipPath57">
      <path
         clip-rule="nonzero"
         d="M 0,0 H 9 V 8.167969 H 0 Z m 0,0"
         id="path6109" />
    </clipPath>
    <clipPath
       id="clipPath6763">
      <path
         clip-rule="nonzero"
         d="M 0,0 H 7 V 8.167969 H 0 Z m 0,0"
         id="path5847" />
    </clipPath>
    <clipPath
       id="clipPath5097">
      <path
         clip-rule="nonzero"
         d="M 0,0 H 8.773438 V 8.167969 H 0 Z m 0,0"
         id="path8000" />
    </clipPath>
    <clipPath
       id="clipPath5891">
      <path
         clip-rule="nonzero"
         d="M 0,0 H 10.621094 V 8.167969 H 0 Z m 0,0"
         id="path7590" />
    </clipPath>
    <clipPath
       id="clipPath3750">
      <path
         clip-rule="nonzero"
         d="M 0,0 H 7.964844 V 8.167969 H 0 Z m 0,0"
         id="path7069" />
    </clipPath>
    <clipPath
       id="clipPath7735-3">
      <path
         clip-rule="nonzero"
         d="M 0,0 H 5.851562 V 7.703125 H 0 Z m 0,0"
         id="path6508-6" />
    </clipPath>
    <clipPath
       id="clipPath9554-7">
      <path
         clip-rule="nonzero"
         d="M 0,0 H 5.851562 V 7.703125 H 0 Z m 0,0"
         id="path3693-5" />
    </clipPath>
    <clipPath
       id="clipPath600-3">
      <path
         clip-rule="nonzero"
         d="M 1,0 H 5 V 7.703125 H 1 Z m 0,0"
         id="path233-5" />
    </clipPath>
    <clipPath
       id="clipPath7559">
      <path
         clip-rule="nonzero"
         d="M 0,0 H 5.851562 V 7.703125 H 0 Z m 0,0"
         id="path1569" />
    </clipPath>
    <clipPath
       id="clipPath9327">
      <path
         clip-rule="nonzero"
         d="M 0,0 H 5.851562 V 7.703125 H 0 Z m 0,0"
         id="path9682" />
    </clipPath>
    <clipPath
       id="clipPath387">
      <path
         clip-rule="nonzero"
         d="M 1,0 H 5 V 7.703125 H 1 Z m 0,0"
         id="path7311" />
    </clipPath>
    <clipPath
       id="clipPath260">
      <path
         clip-rule="nonzero"
         d="M 0,0 H 5.851562 V 7.703125 H 0 Z m 0,0"
         id="path3504" />
    </clipPath>
    <clipPath
       id="clipPath8217">
      <path
         clip-rule="nonzero"
         d="M 0,0 H 5.851562 V 7.703125 H 0 Z m 0,0"
         id="path5217" />
    </clipPath>
    <clipPath
       id="clipPath9245">
      <path
         clip-rule="nonzero"
         d="M 0,0 H 5.851562 V 7.703125 H 0 Z m 0,0"
         id="path8541" />
    </clipPath>
    <clipPath
       id="clipPath3996">
      <path
         clip-rule="nonzero"
         d="M 0,0 H 5.851562 V 7.703125 H 0 Z m 0,0"
         id="path8311" />
    </clipPath>
    <clipPath
       id="clipPath8015">
      <path
         clip-rule="nonzero"
         d="M 0,0 H 5.851562 V 7.703125 H 0 Z m 0,0"
         id="path7495" />
    </clipPath>
    <clipPath
       id="clipPath7814">
      <path
         clip-rule="nonzero"
         d="M 0,0 H 5.851562 V 7.703125 H 0 Z m 0,0"
         id="path2971" />
    </clipPath>
    <clipPath
       id="clipPath1457">
      <path
         clip-rule="nonzero"
         d="M 0,0 H 5.851562 V 7.703125 H 0 Z m 0,0"
         id="path154" />
    </clipPath>
  </defs>
  <g
     inkscape:label="Layer 1"
     inkscape:groupmode="layer"
     id="layer1">
    <rect
       style="fill:#6febff;stroke:#000000;stroke-width:0.201337;fill-opacity:1"
       id="rect234-3"
       width="51.973324"
       height="38.543476"
       x="39.436081"
       y="120.68793" />
    <rect
       style="fill:#6febff;stroke:#000000;stroke-width:0.201337;fill-opacity:1"
       id="rect234-3-6"
       width="51.973324"
       height="38.543476"
       x="91.411865"
       y="120.68745" />
    <rect
       style="fill:#6febff;stroke:#000000;stroke-width:0.201337;fill-opacity:1"
       id="rect234-3-5"
       width="51.973324"
       height="38.543476"
       x="39.445503"
       y="81.982712" />
    <rect
       style="fill:#6febff;stroke:#000000;stroke-width:0.201337;fill-opacity:1"
       id="rect234-3-6-3"
       width="51.973324"
       height="38.543476"
       x="91.421295"
       y="81.982239" />
    <g
       inkscape:label=""
       transform="translate(151.94236,158.31549)"
       id="g751">
      <g
         fill="#000000"
         fill-opacity="1"
         id="g12"
         transform="matrix(0.352778,0,0,0.352778,-0.115755,0.0418483)">
        <g
           id="use10"
           transform="translate(0,5.1469998)">
          <path
             d="m 5.671875,-4.875 c -0.390625,0.0625 -0.53125,0.359375 -0.53125,0.578125 0,0.296875 0.21875,0.390625 0.390625,0.390625 0.359375,0 0.609375,-0.3125 0.609375,-0.640625 0,-0.5 -0.578125,-0.71875 -1.078125,-0.71875 -0.71875,0 -1.125,0.71875 -1.234375,0.9375 -0.28125,-0.890625 -1.015625,-0.9375 -1.234375,-0.9375 -1.21875,0 -1.859375,1.5625 -1.859375,1.828125 0,0.046875 0.046875,0.109375 0.125,0.109375 0.09375,0 0.125,-0.078125 0.140625,-0.125 0.40625,-1.328125 1.21875,-1.578125 1.5625,-1.578125 0.53125,0 0.640625,0.5 0.640625,0.78125 0,0.265625 -0.078125,0.546875 -0.21875,1.125 L 2.578125,-1.5 c -0.171875,0.71875 -0.515625,1.375 -1.15625,1.375 -0.0625,0 -0.359375,0 -0.609375,-0.15625 C 1.25,-0.359375 1.34375,-0.71875 1.34375,-0.859375 1.34375,-1.09375 1.15625,-1.25 0.9375,-1.25 c -0.296875,0 -0.609375,0.265625 -0.609375,0.640625 0,0.5 0.5625,0.734375 1.078125,0.734375 0.578125,0 0.984375,-0.453125 1.234375,-0.953125 C 2.828125,-0.125 3.4375,0.125 3.875,0.125 5.09375,0.125 5.734375,-1.453125 5.734375,-1.703125 5.734375,-1.765625 5.6875,-1.8125 5.625,-1.8125 5.515625,-1.8125 5.5,-1.75 5.46875,-1.65625 5.140625,-0.609375 4.453125,-0.125 3.90625,-0.125 3.484375,-0.125 3.265625,-0.4375 3.265625,-0.921875 3.265625,-1.1875 3.3125,-1.375 3.5,-2.15625 L 3.921875,-3.796875 C 4.09375,-4.5 4.5,-5.03125 5.0625,-5.03125 c 0.015625,0 0.359375,0 0.609375,0.15625 z m 0,0"
             id="path18" />
        </g>
      </g>
    </g>
    <g
       inkscape:label=""
       transform="translate(38.444961,68.942067)"
       id="g847">
      <g
         clip-path="url(#clipPath1502)"
         id="g845"
         transform="matrix(0.352778,0,0,0.352778,-0.115755,0.0418483)">
        <g
           fill="#000000"
           fill-opacity="1"
           id="g843">
          <g
             id="g841"
             transform="translate(0,5.1469998)">
            <path
               d="m 3.140625,1.34375 c -0.3125,0.453125 -0.78125,0.859375 -1.375,0.859375 C 1.625,2.203125 1.046875,2.171875 0.875,1.625 c 0.03125,0.015625 0.09375,0.015625 0.109375,0.015625 0.359375,0 0.609375,-0.3125 0.609375,-0.59375 C 1.59375,0.78125 1.359375,0.6875 1.1875,0.6875 c -0.203125,0 -0.609375,0.140625 -0.609375,0.71875 0,0.609375 0.515625,1.03125 1.1875,1.03125 C 2.96875,2.4375 4.171875,1.34375 4.5,0.015625 L 5.671875,-4.65625 C 5.6875,-4.703125 5.71875,-4.78125 5.71875,-4.859375 5.71875,-5.03125 5.5625,-5.15625 5.390625,-5.15625 5.28125,-5.15625 5.03125,-5.109375 4.9375,-4.75 L 4.046875,-1.234375 C 4,-1.015625 4,-0.984375 3.890625,-0.859375 3.65625,-0.53125 3.265625,-0.125 2.6875,-0.125 c -0.671875,0 -0.734375,-0.65625 -0.734375,-0.96875 0,-0.6875 0.328125,-1.609375 0.65625,-2.46875 0.125,-0.34375 0.203125,-0.515625 0.203125,-0.75 0,-0.5 -0.359375,-0.953125 -0.953125,-0.953125 -1.09375,0 -1.53125,1.734375 -1.53125,1.828125 0,0.046875 0.046875,0.109375 0.125,0.109375 0.109375,0 0.125,-0.046875 0.171875,-0.21875 0.28125,-1 0.734375,-1.484375 1.203125,-1.484375 0.109375,0 0.3125,0 0.3125,0.390625 0,0.3125 -0.125,0.65625 -0.3125,1.109375 C 1.25,-1.953125 1.25,-1.5625 1.25,-1.28125 1.25,-0.140625 2.0625,0.125 2.65625,0.125 3,0.125 3.4375,0.015625 3.84375,-0.4375 l 0.015625,0.015625 C 3.6875,0.28125 3.5625,0.75 3.140625,1.34375 Z m 0,0"
               id="path839" />
          </g>
        </g>
      </g>
    </g>
    <path
       style="fill:none;stroke:#000000;stroke-width:0.265;stroke-linecap:butt;stroke-linejoin:miter;stroke-dasharray:none;stroke-opacity:1;marker-start:url(#marker1687);marker-end:url(#TriangleStart)"
       d="m 39.466279,74.391912 0,84.765328 109.324991,0"
       id="path912"
       sodipodi:nodetypes="ccc" />
    <circle
       style="fill:none;stroke:#000000;stroke-width:0.264999;stroke-dasharray:none"
       id="path1791"
       cx="66.040794"
       cy="141.50819"
       r="3.442513" />
    <circle
       style="fill:none;stroke:#000000;stroke-width:0.264999;stroke-dasharray:none"
       id="path1791-5"
       cx="117.34378"
       cy="101.56583"
       r="3.442513" />
    <circle
       style="fill:none;stroke:#000000;stroke-width:0.264999;stroke-dasharray:none"
       id="path1791-6"
       cx="117.40235"
       cy="140.3078"
       r="3.442513" />
    <circle
       style="fill:none;stroke:#000000;stroke-width:0.264999;stroke-dasharray:none"
       id="path1791-2"
       cx="65.689415"
       cy="100.61158"
       r="3.442513" />
    <circle
       style="fill:#000000;stroke:#000000;stroke-width:0.0516902;stroke-dasharray:none"
       id="path1791-9"
       cx="39.385048"
       cy="159.28096"
       r="0.67148942" />
    <g
       inkscape:label=""
       transform="translate(116.19809,100.41194)"
       id="g590">
      <g
         clip-path="url(#clipPath7735-3)"
         id="g588"
         transform="matrix(0.352778,0,0,0.352778,-0.170877,0.0878858)">
        <g
           fill="#000000"
           fill-opacity="1"
           id="g586">
          <g
             id="g584"
             transform="translate(0,7.704)">
            <path
               d="m 2.203125,-4.296875 c -0.203125,0.015625 -0.25,0.03125 -0.25,0.140625 0,0.109375 0.0625,0.109375 0.265625,0.109375 h 0.546875 c 1.03125,0 1.484375,0.84375 1.484375,1.984375 0,1.578125 -0.8125,1.984375 -1.40625,1.984375 -0.578125,0 -1.546875,-0.265625 -1.90625,-1.0625 0.390625,0.0625 0.734375,-0.15625 0.734375,-0.578125 0,-0.34375 -0.25,-0.59375 -0.578125,-0.59375 -0.296875,0 -0.609375,0.171875 -0.609375,0.625 0,1.0625 1.0625,1.9375 2.390625,1.9375 1.421875,0 2.484375,-1.09375 2.484375,-2.296875 C 5.359375,-3.140625 4.46875,-4 3.328125,-4.203125 4.359375,-4.5 5.03125,-5.375 5.03125,-6.3125 c 0,-0.9375 -0.984375,-1.640625 -2.140625,-1.640625 -1.1875,0 -2.078125,0.734375 -2.078125,1.609375 0,0.46875 0.375,0.578125 0.546875,0.578125 0.25,0 0.546875,-0.1875 0.546875,-0.546875 0,-0.375 -0.296875,-0.546875 -0.5625,-0.546875 -0.0625,0 -0.09375,0 -0.125,0.015625 0.453125,-0.8125 1.578125,-0.8125 1.640625,-0.8125 0.390625,0 1.171875,0.171875 1.171875,1.34375 0,0.234375 -0.03125,0.890625 -0.390625,1.40625 C 3.28125,-4.375 2.875,-4.34375 2.5625,-4.328125 Z m 0,0"
               id="path582" />
          </g>
        </g>
      </g>
    </g>
    <g
       inkscape:label=""
       transform="translate(64.687881,99.009247)"
       id="g527">
      <g
         clip-path="url(#clipPath9554-7)"
         id="g525"
         transform="matrix(0.352778,0,0,0.352778,-0.20395,0.0878858)">
        <g
           fill="#000000"
           fill-opacity="1"
           id="g523">
          <g
             id="g521"
             transform="translate(0,7.704)">
            <path
               d="M 5.265625,-2.015625 H 5 c -0.046875,0.203125 -0.140625,0.875 -0.25,1.0625 C 4.65625,-0.84375 3.984375,-0.84375 3.625,-0.84375 H 1.40625 c 0.328125,-0.28125 1.0625,-1.046875 1.359375,-1.328125 1.828125,-1.671875 2.5,-2.296875 2.5,-3.484375 0,-1.375 -1.09375,-2.296875 -2.484375,-2.296875 -1.375,0 -2.203125,1.1875 -2.203125,2.21875 0,0.609375 0.53125,0.609375 0.5625,0.609375 0.265625,0 0.5625,-0.1875 0.5625,-0.5625 0,-0.34375 -0.21875,-0.5625 -0.5625,-0.5625 -0.09375,0 -0.125,0 -0.15625,0.015625 0.21875,-0.8125 0.875,-1.375 1.640625,-1.375 1.015625,0 1.640625,0.859375 1.640625,1.953125 C 4.265625,-4.640625 3.6875,-3.75 3,-2.984375 L 0.578125,-0.28125 V 0 h 4.375 z m 0,0"
               id="path519" />
          </g>
        </g>
      </g>
    </g>
    <g
       inkscape:label=""
       transform="translate(116.90457,139.01689)"
       id="g478">
      <g
         clip-path="url(#clipPath600-3)"
         id="g17"
         transform="matrix(0.352778,0,0,0.352778,-0.385851,0.0878858)">
        <g
           fill="#000000"
           fill-opacity="1"
           id="g15">
          <g
             id="use13"
             transform="translate(0,7.704)">
            <path
               d="m 3.4375,-7.65625 c 0,-0.28125 0,-0.296875 -0.234375,-0.296875 C 2.921875,-7.625 2.3125,-7.1875 1.09375,-7.1875 v 0.34375 c 0.265625,0 0.859375,0 1.53125,-0.296875 v 6.21875 c 0,0.4375 -0.046875,0.578125 -1.09375,0.578125 h -0.375 V 0 c 0.328125,-0.03125 1.484375,-0.03125 1.875,-0.03125 0.40625,0 1.546875,0 1.875,0.03125 v -0.34375 h -0.375 c -1.046875,0 -1.09375,-0.140625 -1.09375,-0.578125 z m 0,0"
               id="path23" />
          </g>
        </g>
      </g>
    </g>
    <g
       inkscape:label=""
       transform="translate(65.31272,139.69963)"
       id="g3007">
      <g
         clip-path="url(#clipPath7559)"
         id="g3005"
         transform="matrix(0.352778,0,0,0.352778,-0.170877,0.0878858)">
        <g
           fill="#000000"
           fill-opacity="1"
           id="g3003">
          <g
             id="g3001"
             transform="translate(0,7.704)">
            <path
               d="m 5.359375,-3.828125 c 0,-0.984375 -0.0625,-1.953125 -0.5,-2.859375 -0.484375,-1 -1.34375,-1.265625 -1.9375,-1.265625 -0.6875,0 -1.53125,0.34375 -1.984375,1.34375 -0.328125,0.75 -0.453125,1.5 -0.453125,2.78125 0,1.15625 0.09375,2.03125 0.515625,2.890625 0.46875,0.90625 1.296875,1.1875 1.921875,1.1875 1.03125,0 1.625,-0.625 1.984375,-1.3125 0.421875,-0.890625 0.453125,-2.0625 0.453125,-2.765625 z m -2.4375,3.84375 C 2.53125,0.015625 1.75,-0.203125 1.53125,-1.5 c -0.125,-0.71875 -0.125,-1.625 -0.125,-2.46875 0,-0.984375 0,-1.859375 0.1875,-2.5625 0.203125,-0.8125 0.8125,-1.171875 1.328125,-1.171875 0.453125,0 1.140625,0.265625 1.375,1.296875 0.15625,0.6875 0.15625,1.625 0.15625,2.4375 0,0.796875 0,1.703125 -0.140625,2.4375 -0.21875,1.3125 -0.984375,1.546875 -1.390625,1.546875 z m 0,0"
               id="path2999" />
          </g>
        </g>
      </g>
    </g>
    <g
       inkscape:label=""
       transform="translate(37.796036,160.86643)"
       id="g3972">
      <g
         clip-path="url(#clipPath9327)"
         id="g3970"
         transform="matrix(0.352778,0,0,0.352778,-0.170877,0.0878858)">
        <g
           fill="#000000"
           fill-opacity="1"
           id="g3968">
          <g
             id="g3966"
             transform="translate(0,7.704)">
            <path
               d="m 5.359375,-3.828125 c 0,-0.984375 -0.0625,-1.953125 -0.5,-2.859375 -0.484375,-1 -1.34375,-1.265625 -1.9375,-1.265625 -0.6875,0 -1.53125,0.34375 -1.984375,1.34375 -0.328125,0.75 -0.453125,1.5 -0.453125,2.78125 0,1.15625 0.09375,2.03125 0.515625,2.890625 0.46875,0.90625 1.296875,1.1875 1.921875,1.1875 1.03125,0 1.625,-0.625 1.984375,-1.3125 0.421875,-0.890625 0.453125,-2.0625 0.453125,-2.765625 z m -2.4375,3.84375 C 2.53125,0.015625 1.75,-0.203125 1.53125,-1.5 c -0.125,-0.71875 -0.125,-1.625 -0.125,-2.46875 0,-0.984375 0,-1.859375 0.1875,-2.5625 0.203125,-0.8125 0.8125,-1.171875 1.328125,-1.171875 0.453125,0 1.140625,0.265625 1.375,1.296875 0.15625,0.6875 0.15625,1.625 0.15625,2.4375 0,0.796875 0,1.703125 -0.140625,2.4375 -0.21875,1.3125 -0.984375,1.546875 -1.390625,1.546875 z m 0,0"
               id="path3964" />
          </g>
        </g>
      </g>
    </g>
    <g
       inkscape:label=""
       transform="translate(92.829404,160.33726)"
       id="g4201">
      <g
         clip-path="url(#clipPath387)"
         id="g4199"
         transform="matrix(0.352778,0,0,0.352778,-0.385851,0.0878858)">
        <g
           fill="#000000"
           fill-opacity="1"
           id="g4197">
          <g
             id="g4195"
             transform="translate(0,7.704)">
            <path
               d="m 3.4375,-7.65625 c 0,-0.28125 0,-0.296875 -0.234375,-0.296875 C 2.921875,-7.625 2.3125,-7.1875 1.09375,-7.1875 v 0.34375 c 0.265625,0 0.859375,0 1.53125,-0.296875 v 6.21875 c 0,0.4375 -0.046875,0.578125 -1.09375,0.578125 h -0.375 V 0 c 0.328125,-0.03125 1.484375,-0.03125 1.875,-0.03125 0.40625,0 1.546875,0 1.875,0.03125 v -0.34375 h -0.375 c -1.046875,0 -1.09375,-0.140625 -1.09375,-0.578125 z m 0,0"
               id="path4193" />
          </g>
        </g>
      </g>
    </g>
    <g
       inkscape:label=""
       transform="translate(142.57134,160.86643)"
       id="g4444">
      <g
         clip-path="url(#clipPath260)"
         id="g4442"
         transform="matrix(0.352778,0,0,0.352778,-0.20395,0.0878858)">
        <g
           fill="#000000"
           fill-opacity="1"
           id="g4440">
          <g
             id="g4438"
             transform="translate(0,7.704)">
            <path
               d="M 5.265625,-2.015625 H 5 c -0.046875,0.203125 -0.140625,0.875 -0.25,1.0625 C 4.65625,-0.84375 3.984375,-0.84375 3.625,-0.84375 H 1.40625 c 0.328125,-0.28125 1.0625,-1.046875 1.359375,-1.328125 1.828125,-1.671875 2.5,-2.296875 2.5,-3.484375 0,-1.375 -1.09375,-2.296875 -2.484375,-2.296875 -1.375,0 -2.203125,1.1875 -2.203125,2.21875 0,0.609375 0.53125,0.609375 0.5625,0.609375 0.265625,0 0.5625,-0.1875 0.5625,-0.5625 0,-0.34375 -0.21875,-0.5625 -0.5625,-0.5625 -0.09375,0 -0.125,0 -0.15625,0.015625 0.21875,-0.8125 0.875,-1.375 1.640625,-1.375 1.015625,0 1.640625,0.859375 1.640625,1.953125 C 4.265625,-4.640625 3.6875,-3.75 3,-2.984375 L 0.578125,-0.28125 V 0 h 4.375 z m 0,0"
               id="path4436" />
          </g>
        </g>
      </g>
    </g>
    <g
       inkscape:label=""
       transform="translate(36.208535,119.062)"
       id="g5421">
      <g
         clip-path="url(#clipPath8217)"
         id="g5419"
         transform="matrix(0.352778,0,0,0.352778,-0.170877,0.0878858)">
        <g
           fill="#000000"
           fill-opacity="1"
           id="g5417">
          <g
             id="g5415"
             transform="translate(0,7.704)">
            <path
               d="m 2.203125,-4.296875 c -0.203125,0.015625 -0.25,0.03125 -0.25,0.140625 0,0.109375 0.0625,0.109375 0.265625,0.109375 h 0.546875 c 1.03125,0 1.484375,0.84375 1.484375,1.984375 0,1.578125 -0.8125,1.984375 -1.40625,1.984375 -0.578125,0 -1.546875,-0.265625 -1.90625,-1.0625 0.390625,0.0625 0.734375,-0.15625 0.734375,-0.578125 0,-0.34375 -0.25,-0.59375 -0.578125,-0.59375 -0.296875,0 -0.609375,0.171875 -0.609375,0.625 0,1.0625 1.0625,1.9375 2.390625,1.9375 1.421875,0 2.484375,-1.09375 2.484375,-2.296875 C 5.359375,-3.140625 4.46875,-4 3.328125,-4.203125 4.359375,-4.5 5.03125,-5.375 5.03125,-6.3125 c 0,-0.9375 -0.984375,-1.640625 -2.140625,-1.640625 -1.1875,0 -2.078125,0.734375 -2.078125,1.609375 0,0.46875 0.375,0.578125 0.546875,0.578125 0.25,0 0.546875,-0.1875 0.546875,-0.546875 0,-0.375 -0.296875,-0.546875 -0.5625,-0.546875 -0.0625,0 -0.09375,0 -0.125,0.015625 0.453125,-0.8125 1.578125,-0.8125 1.640625,-0.8125 0.390625,0 1.171875,0.171875 1.171875,1.34375 0,0.234375 -0.03125,0.890625 -0.390625,1.40625 C 3.28125,-4.375 2.875,-4.34375 2.5625,-4.328125 Z m 0,0"
               id="path5413" />
          </g>
        </g>
      </g>
    </g>
    <g
       inkscape:label=""
       transform="translate(93.358571,116.41615)"
       id="g5662">
      <g
         clip-path="url(#clipPath9245)"
         id="g5660"
         transform="matrix(0.352778,0,0,0.352778,-0.115755,0.126471)">
        <g
           fill="#000000"
           fill-opacity="1"
           id="g5658">
          <g
             id="g5656"
             transform="translate(0,7.704)">
            <path
               d="m 4.3125,-7.78125 c 0,-0.234375 0,-0.28125 -0.171875,-0.28125 -0.09375,0 -0.125,0 -0.21875,0.140625 L 0.328125,-2.34375 V -2 H 3.46875 v 1.09375 c 0,0.4375 -0.03125,0.5625 -0.90625,0.5625 H 2.328125 V 0 c 0.28125,-0.03125 1.21875,-0.03125 1.5625,-0.03125 0.328125,0 1.28125,0 1.5625,0.03125 V -0.34375 H 5.21875 c -0.875,0 -0.90625,-0.125 -0.90625,-0.5625 V -2 H 5.515625 V -2.34375 H 4.3125 Z m -0.78125,0.9375 v 4.5 H 0.625 Z m 0,0"
               id="path5654" />
          </g>
        </g>
      </g>
    </g>
    <g
       inkscape:label=""
       transform="translate(145.21719,119.062)"
       id="g5917">
      <g
         clip-path="url(#clipPath3996)"
         id="g5915"
         transform="matrix(0.352778,0,0,0.352778,-0.20395,0.0823736)">
        <g
           fill="#000000"
           fill-opacity="1"
           id="g5913">
          <g
             id="g5911"
             transform="translate(0,7.704)">
            <path
               d="m 1.53125,-6.84375 c 0.515625,0.15625 0.9375,0.171875 1.0625,0.171875 1.34375,0 2.21875,-0.984375 2.21875,-1.15625 0,-0.046875 -0.03125,-0.109375 -0.109375,-0.109375 -0.015625,0 -0.046875,0 -0.15625,0.046875 C 3.890625,-7.609375 3.3125,-7.5625 3,-7.5625 c -0.78125,0 -1.34375,-0.25 -1.578125,-0.34375 C 1.34375,-7.9375 1.3125,-7.9375 1.296875,-7.9375 c -0.09375,0 -0.09375,0.078125 -0.09375,0.265625 V -4.125 c 0,0.21875 0,0.28125 0.140625,0.28125 0.0625,0 0.078125,0 0.203125,-0.15625 C 1.875,-4.484375 2.4375,-4.765625 3.03125,-4.765625 c 0.640625,0 0.953125,0.578125 1.046875,0.78125 0.203125,0.46875 0.21875,1.0625 0.21875,1.515625 0,0.453125 0,1.125 -0.34375,1.671875 -0.265625,0.421875 -0.71875,0.71875 -1.25,0.71875 -0.796875,0 -1.5625,-0.53125 -1.78125,-1.40625 0.0625,0.03125 0.125,0.03125 0.1875,0.03125 0.203125,0 0.53125,-0.109375 0.53125,-0.515625 0,-0.34375 -0.234375,-0.53125 -0.53125,-0.53125 -0.21875,0 -0.53125,0.109375 -0.53125,0.578125 0,1.015625 0.828125,2.171875 2.140625,2.171875 1.359375,0 2.546875,-1.140625 2.546875,-2.65625 0,-1.421875 -0.96875,-2.609375 -2.21875,-2.609375 -0.6875,0 -1.203125,0.3125 -1.515625,0.640625 z m 0,0"
               id="path5909" />
          </g>
        </g>
      </g>
    </g>
    <g
       inkscape:label=""
       transform="translate(36.208535,79.374367)"
       id="g6936">
      <g
         clip-path="url(#clipPath8015)"
         id="g6934"
         transform="matrix(0.352778,0,0,0.352778,-0.170877,0.0878858)">
        <g
           fill="#000000"
           fill-opacity="1"
           id="g6932">
          <g
             id="g6930"
             transform="translate(0,7.704)">
            <path
               d="m 1.46875,-4.15625 c 0,-3.03125 1.46875,-3.5 2.109375,-3.5 0.4375,0 0.875,0.125 1.09375,0.484375 -0.140625,0 -0.59375,0 -0.59375,0.484375 0,0.265625 0.171875,0.5 0.484375,0.5 0.296875,0 0.5,-0.1875 0.5,-0.53125 0,-0.625 -0.453125,-1.234375 -1.484375,-1.234375 -1.515625,0 -3.09375,1.546875 -3.09375,4.171875 0,3.296875 1.4375,4.03125 2.453125,4.03125 1.3125,0 2.421875,-1.140625 2.421875,-2.6875 0,-1.59375 -1.109375,-2.65625 -2.3125,-2.65625 -1.0625,0 -1.453125,0.921875 -1.578125,1.25 z m 1.46875,4.078125 c -0.75,0 -1.109375,-0.65625 -1.21875,-0.90625 C 1.609375,-1.296875 1.5,-1.890625 1.5,-2.71875 c 0,-0.953125 0.421875,-2.140625 1.5,-2.140625 0.65625,0 1,0.453125 1.1875,0.859375 0.1875,0.4375 0.1875,1.03125 0.1875,1.546875 0,0.609375 0,1.15625 -0.234375,1.609375 -0.296875,0.5625 -0.71875,0.765625 -1.203125,0.765625 z m 0,0"
               id="path6928" />
          </g>
        </g>
      </g>
    </g>
    <g
       inkscape:label=""
       transform="translate(90.183569,76.728532)"
       id="g7219">
      <g
         clip-path="url(#clipPath7814)"
         id="g7217"
         transform="matrix(0.352778,0,0,0.352778,-0.225998,0.131983)">
        <g
           fill="#000000"
           fill-opacity="1"
           id="g7215">
          <g
             id="g7213"
             transform="translate(0,7.704)">
            <path
               d="m 5.671875,-7.421875 v -0.28125 h -2.875 c -1.453125,0 -1.46875,-0.15625 -1.515625,-0.375 H 1.015625 l -0.375,2.390625 H 0.90625 c 0.03125,-0.21875 0.140625,-0.953125 0.296875,-1.09375 0.09375,-0.0625 1,-0.0625 1.15625,-0.0625 H 4.90625 l -1.265625,1.8125 c -0.328125,0.46875 -1.53125,2.421875 -1.53125,4.671875 0,0.125 0,0.609375 0.484375,0.609375 0.5,0 0.5,-0.46875 0.5,-0.625 V -0.96875 C 3.09375,-2.75 3.375,-4.140625 3.9375,-4.9375 Z m 0,0"
               id="path7211" />
          </g>
        </g>
      </g>
    </g>
    <g
       inkscape:label=""
       transform="translate(144.68802,79.374367)"
       id="g7516">
      <g
         clip-path="url(#clipPath1457)"
         id="g7514"
         transform="matrix(0.352778,0,0,0.352778,-0.170877,0.0878858)">
        <g
           fill="#000000"
           fill-opacity="1"
           id="g7512">
          <g
             id="g7510"
             transform="translate(0,7.704)">
            <path
               d="m 3.5625,-4.3125 c 0.59375,-0.328125 1.46875,-0.875 1.46875,-1.875 0,-1.046875 -1,-1.765625 -2.109375,-1.765625 -1.171875,0 -2.109375,0.875 -2.109375,1.96875 0,0.40625 0.125,0.8125 0.453125,1.21875 0.140625,0.15625 0.140625,0.15625 0.984375,0.75 -1.15625,0.53125 -1.765625,1.34375 -1.765625,2.203125 0,1.28125 1.21875,2.0625 2.4375,2.0625 1.328125,0 2.4375,-0.984375 2.4375,-2.234375 0,-1.21875 -0.859375,-1.75 -1.796875,-2.328125 z M 1.9375,-5.390625 C 1.78125,-5.5 1.296875,-5.8125 1.296875,-6.390625 c 0,-0.78125 0.8125,-1.265625 1.625,-1.265625 0.859375,0 1.625,0.609375 1.625,1.46875 0,0.734375 -0.53125,1.328125 -1.21875,1.703125 z M 2.5,-3.84375 l 1.4375,0.9375 c 0.3125,0.203125 0.875,0.578125 0.875,1.296875 0,0.921875 -0.921875,1.53125 -1.890625,1.53125 -1.015625,0 -1.875,-0.734375 -1.875,-1.734375 0,-0.921875 0.671875,-1.671875 1.453125,-2.03125 z m 0,0"
               id="path7508" />
          </g>
        </g>
      </g>
    </g>
    <circle
       style="fill:#000000;fill-opacity:1;stroke:#000000;stroke-width:0.264999"
       id="path8716"
       cx="39.832939"
       cy="82.286469"
       r="1.1280812" />
    <circle
       style="fill:#000000;fill-opacity:1;stroke:#000000;stroke-width:0.264999"
       id="path8716-6"
       cx="91.37117"
       cy="82.810585"
       r="1.1280812" />
    <circle
       style="fill:#000000;fill-opacity:1;stroke:#000000;stroke-width:0.264999"
       id="path8716-2"
       cx="143.25882"
       cy="82.461174"
       r="1.1280812" />
    <circle
       style="fill:#000000;fill-opacity:1;stroke:#000000;stroke-width:0.264999"
       id="path8716-9"
       cx="143.43353"
       cy="120.54706"
       r="1.1280812" />
    <circle
       style="fill:#000000;fill-opacity:1;stroke:#000000;stroke-width:0.264999"
       id="path8716-1"
       cx="91.545883"
       cy="120.72176"
       r="1.1280812" />
    <circle
       style="fill:#000000;fill-opacity:1;stroke:#000000;stroke-width:0.264999"
       id="path8716-27"
       cx="39.658234"
       cy="120.72176"
       r="1.1280812" />
    <circle
       style="fill:#000000;fill-opacity:1;stroke:#000000;stroke-width:0.264999"
       id="path8716-0"
       cx="39.658234"
       cy="159.33176"
       r="1.1280812" />
    <circle
       style="fill:#000000;fill-opacity:1;stroke:#000000;stroke-width:0.264999"
       id="path8716-93"
       cx="91.545883"
       cy="159.33176"
       r="1.1280812" />
    <circle
       style="fill:#000000;fill-opacity:1;stroke:#000000;stroke-width:0.264999"
       id="path8716-60"
       cx="143.60823"
       cy="158.45824"
       r="1.1280812" />
  </g>
</svg>
