<?xml version="1.0" encoding="UTF-8" standalone="no"?>
<!-- Created with Inkscape (http://www.inkscape.org/) -->

<svg
   width="297mm"
   height="210mm"
   viewBox="0 0 297 210"
   version="1.1"
   id="svg5"
   sodipodi:docname="alanEsleme.svg"
   inkscape:version="1.2.2 (b0a8486, 2022-12-01)"
   xmlns:inkscape="http://www.inkscape.org/namespaces/inkscape"
   xmlns:sodipodi="http://sodipodi.sourceforge.net/DTD/sodipodi-0.dtd"
   xmlns="http://www.w3.org/2000/svg"
   xmlns:svg="http://www.w3.org/2000/svg">
  <sodipodi:namedview
     id="namedview7"
     pagecolor="#ffffff"
     bordercolor="#000000"
     borderopacity="0.25"
     inkscape:showpageshadow="2"
     inkscape:pageopacity="0.0"
     inkscape:pagecheckerboard="0"
     inkscape:deskcolor="#d1d1d1"
     inkscape:document-units="mm"
     showgrid="false"
     inkscape:zoom="1.9855336"
     inkscape:cx="425.57829"
     inkscape:cy="440.9394"
     inkscape:window-width="1846"
     inkscape:window-height="1016"
     inkscape:window-x="0"
     inkscape:window-y="0"
     inkscape:window-maximized="1"
     inkscape:current-layer="layer1" />
  <defs
     id="defs2">
    <marker
       style="overflow:visible"
       id="marker3505"
       refX="0"
       refY="0"
       orient="auto-start-reverse"
       inkscape:stockid="TriangleStart"
       markerWidth="5.3244081"
       markerHeight="6.155385"
       viewBox="0 0 5.3244081 6.1553851"
       inkscape:isstock="true"
       inkscape:collect="always"
       preserveAspectRatio="xMidYMid">
      <path
         transform="scale(0.5)"
         style="fill:context-stroke;fill-rule:evenodd;stroke:context-stroke;stroke-width:1pt"
         d="M 5.77,0 -2.88,5 V -5 Z"
         id="path3503" />
    </marker>
    <marker
       style="overflow:visible"
       id="marker3441"
       refX="0"
       refY="0"
       orient="auto-start-reverse"
       inkscape:stockid="TriangleStart"
       markerWidth="5.3244081"
       markerHeight="6.155385"
       viewBox="0 0 5.3244081 6.1553851"
       inkscape:isstock="true"
       inkscape:collect="always"
       preserveAspectRatio="xMidYMid">
      <path
         transform="scale(0.5)"
         style="fill:context-stroke;fill-rule:evenodd;stroke:context-stroke;stroke-width:1pt"
         d="M 5.77,0 -2.88,5 V -5 Z"
         id="path3439" />
    </marker>
    <marker
       style="overflow:visible"
       id="marker3393"
       refX="0"
       refY="0"
       orient="auto-start-reverse"
       inkscape:stockid="TriangleStart"
       markerWidth="5.3244081"
       markerHeight="6.155385"
       viewBox="0 0 5.3244081 6.1553851"
       inkscape:isstock="true"
       inkscape:collect="always"
       preserveAspectRatio="xMidYMid">
      <path
         transform="scale(0.5)"
         style="fill:context-stroke;fill-rule:evenodd;stroke:context-stroke;stroke-width:1pt"
         d="M 5.77,0 -2.88,5 V -5 Z"
         id="path3391" />
    </marker>
    <marker
       style="overflow:visible"
       id="TriangleStart"
       refX="0"
       refY="0"
       orient="auto-start-reverse"
       inkscape:stockid="TriangleStart"
       markerWidth="5.3244081"
       markerHeight="6.155385"
       viewBox="0 0 5.3244081 6.1553851"
       inkscape:isstock="true"
       inkscape:collect="always"
       preserveAspectRatio="xMidYMid">
      <path
         transform="scale(0.5)"
         style="fill:context-stroke;fill-rule:evenodd;stroke:context-stroke;stroke-width:1pt"
         d="M 5.77,0 -2.88,5 V -5 Z"
         id="path135" />
    </marker>
    <inkscape:path-effect
       effect="spiro"
       id="path-effect2974"
       is_visible="true"
       lpeversion="1" />
    <inkscape:path-effect
       effect="spiro"
       id="path-effect2970"
       is_visible="true"
       lpeversion="1" />
    <clipPath
       id="clipPath2218">
      <path
         clip-rule="nonzero"
         d="M 0,0 H 6 V 7.472656 H 0 Z m 0,0"
         id="path7927" />
    </clipPath>
    <clipPath
       id="clipPath2491">
      <path
         clip-rule="nonzero"
         d="M 0,0 H 12 V 10.628906 H 0 Z m 0,0"
         id="path1889" />
    </clipPath>
    <marker
       style="overflow:visible"
       id="marker3393-3"
       refX="0"
       refY="0"
       orient="auto-start-reverse"
       inkscape:stockid="TriangleStart"
       markerWidth="5.3244081"
       markerHeight="6.155385"
       viewBox="0 0 5.3244081 6.1553851"
       inkscape:isstock="true"
       inkscape:collect="always"
       preserveAspectRatio="xMidYMid">
      <path
         transform="scale(0.5)"
         style="fill:context-stroke;fill-rule:evenodd;stroke:context-stroke;stroke-width:1pt"
         d="M 5.77,0 -2.88,5 V -5 Z"
         id="path3391-6" />
    </marker>
    <inkscape:path-effect
       effect="spiro"
       id="path-effect2970-7"
       is_visible="true"
       lpeversion="1" />
    <marker
       style="overflow:visible"
       id="TriangleStart-5"
       refX="0"
       refY="0"
       orient="auto-start-reverse"
       inkscape:stockid="TriangleStart"
       markerWidth="5.3244081"
       markerHeight="6.155385"
       viewBox="0 0 5.3244081 6.1553851"
       inkscape:isstock="true"
       inkscape:collect="always"
       preserveAspectRatio="xMidYMid">
      <path
         transform="scale(0.5)"
         style="fill:context-stroke;fill-rule:evenodd;stroke:context-stroke;stroke-width:1pt"
         d="M 5.77,0 -2.88,5 V -5 Z"
         id="path135-3" />
    </marker>
    <inkscape:path-effect
       effect="spiro"
       id="path-effect2974-5"
       is_visible="true"
       lpeversion="1" />
    <marker
       style="overflow:visible"
       id="marker3505-6"
       refX="0"
       refY="0"
       orient="auto-start-reverse"
       inkscape:stockid="TriangleStart"
       markerWidth="5.3244081"
       markerHeight="6.155385"
       viewBox="0 0 5.3244081 6.1553851"
       inkscape:isstock="true"
       inkscape:collect="always"
       preserveAspectRatio="xMidYMid">
      <path
         transform="scale(0.5)"
         style="fill:context-stroke;fill-rule:evenodd;stroke:context-stroke;stroke-width:1pt"
         d="M 5.77,0 -2.88,5 V -5 Z"
         id="path3503-2" />
    </marker>
    <marker
       style="overflow:visible"
       id="marker3441-9"
       refX="0"
       refY="0"
       orient="auto-start-reverse"
       inkscape:stockid="TriangleStart"
       markerWidth="5.3244081"
       markerHeight="6.155385"
       viewBox="0 0 5.3244081 6.1553851"
       inkscape:isstock="true"
       inkscape:collect="always"
       preserveAspectRatio="xMidYMid">
      <path
         transform="scale(0.5)"
         style="fill:context-stroke;fill-rule:evenodd;stroke:context-stroke;stroke-width:1pt"
         d="M 5.77,0 -2.88,5 V -5 Z"
         id="path3439-1" />
    </marker>
    <clipPath
       id="clipPath2218-2">
      <path
         clip-rule="nonzero"
         d="M 0,0 H 6 V 7.472656 H 0 Z m 0,0"
         id="path7927-7" />
    </clipPath>
    <clipPath
       id="clipPath2491-0">
      <path
         clip-rule="nonzero"
         d="M 0,0 H 12 V 10.628906 H 0 Z m 0,0"
         id="path1889-9" />
    </clipPath>
    <clipPath
       id="clipPath3895">
      <path
         clip-rule="nonzero"
         d="M 0,0 H 6 V 7.472656 H 0 Z m 0,0"
         id="path8528" />
    </clipPath>
    <clipPath
       id="clipPath3518">
      <path
         clip-rule="nonzero"
         d="M 0,0 H 6 V 5.148438 H 0 Z m 0,0"
         id="path6767" />
    </clipPath>
    <clipPath
       id="clipPath846">
      <path
         clip-rule="nonzero"
         d="M 0,0 H 6.539062 V 5.3125 H 0 Z m 0,0"
         id="path5560" />
    </clipPath>
    <clipPath
       id="clipPath9103">
      <path
         clip-rule="nonzero"
         d="M 0,0 H 7.472656 V 8.300781 H 0 Z m 0,0"
         id="path1095" />
    </clipPath>
    <clipPath
       id="clipPath2983">
      <path
         clip-rule="nonzero"
         d="M 0,0 H 14.859375 V 8.300781 H 0 Z m 0,0"
         id="path4199" />
    </clipPath>
    <clipPath
       id="clipPath7637">
      <path
         clip-rule="nonzero"
         d="m 0,2 h 6 v 8.492188 H 0 Z m 0,0"
         id="path8777" />
    </clipPath>
    <clipPath
       id="clipPath9349">
      <path
         clip-rule="nonzero"
         d="m 0,2 h 6 v 8.492188 H 0 Z m 0,0"
         id="path4519" />
    </clipPath>
    <clipPath
       id="clipPath8896">
      <path
         clip-rule="nonzero"
         d="M 0,0 H 6 V 10.628906 H 0 Z m 0,0"
         id="path2317" />
    </clipPath>
    <clipPath
       id="clipPath7638">
      <path
         clip-rule="nonzero"
         d="m 30,4 h 4 v 6.628906 h -4 z m 0,0"
         id="path2478" />
    </clipPath>
    <clipPath
       id="clipPath8602">
      <path
         clip-rule="nonzero"
         d="M 0,0 H 6 V 10.628906 H 0 Z m 0,0"
         id="path663" />
    </clipPath>
    <clipPath
       id="clipPath4340">
      <path
         clip-rule="nonzero"
         d="m 30,4 h 4 v 6.628906 h -4 z m 0,0"
         id="path5707" />
    </clipPath>
  </defs>
  <g
     inkscape:label="Layer 1"
     inkscape:groupmode="layer"
     id="layer1">
    <path
       style="fill:none;stroke:#000000;stroke-width:0.3;stroke-dasharray:none;marker-start:url(#marker3393)"
       d="M 45.410074,78.942933 V 131.28041"
       id="path2968"
       inkscape:path-effect="#path-effect2970"
       inkscape:original-d="m 45.410074,78.942933 c 1.8e-4,17.446001 1.8e-4,34.891827 0,52.337477" />
    <path
       style="fill:none;stroke:#000000;stroke-width:0.3;stroke-dasharray:none;marker-end:url(#TriangleStart)"
       d="M 45.484621,131.17677 H 99.594447"
       id="path2972"
       inkscape:path-effect="#path-effect2974"
       inkscape:original-d="m 45.484621,131.17677 c 18.121932,1.8e-4 36.073399,1.8e-4 54.109826,0" />
    <path
       style="fill:none;fill-opacity:1;stroke:#000000;stroke-width:0.3;stroke-dasharray:none;marker-start:url(#marker3505);marker-end:url(#marker3441)"
       d="m 57.321558,106.01267 v 14.83297 h 15.333864"
       id="path3437" />
    <g
       inkscape:label=""
       transform="translate(48.859759,76.195572)"
       id="g4030">
      <g
         clip-path="url(#clipPath2218)"
         id="g17"
         transform="matrix(0.352778,0,0,0.352778,-0.115755,0.0418483)">
        <g
           fill="#000000"
           fill-opacity="1"
           id="g15">
          <g
             id="use13"
             transform="translate(0,5.1469998)">
            <path
               d="m 5.671875,-3.3125 c 0.0625,-0.234375 0.09375,-0.375 0.09375,-0.703125 0,-0.71875 -0.40625,-1.25 -1.3125,-1.25 -1.078125,0 -1.625,0.75 -1.84375,1.046875 -0.046875,-0.6875 -0.53125,-1.046875 -1.0625,-1.046875 -0.34375,0 -0.609375,0.15625 -0.84375,0.609375 -0.21875,0.4375 -0.375,1.171875 -0.375,1.21875 0,0.046875 0.046875,0.109375 0.125,0.109375 0.09375,0 0.109375,-0.015625 0.1875,-0.296875 0.171875,-0.703125 0.40625,-1.40625 0.875,-1.40625 0.28125,0 0.375,0.1875 0.375,0.546875 0,0.265625 -0.125,0.734375 -0.203125,1.109375 l -0.34375,1.28125 c -0.046875,0.234375 -0.171875,0.765625 -0.234375,0.984375 -0.078125,0.3125 -0.21875,0.875 -0.21875,0.9375 0,0.15625 0.140625,0.296875 0.3125,0.296875 0.140625,0 0.3125,-0.078125 0.40625,-0.25 C 1.640625,-0.1875 1.75,-0.609375 1.8125,-0.84375 L 2.0625,-1.921875 2.46875,-3.5 C 2.484375,-3.578125 2.78125,-4.171875 3.234375,-4.546875 3.53125,-4.84375 3.9375,-5.03125 4.40625,-5.03125 c 0.484375,0 0.65625,0.359375 0.65625,0.828125 0,0.359375 -0.046875,0.546875 -0.109375,0.765625 L 3.5625,2.0625 C 3.546875,2.125 3.53125,2.203125 3.53125,2.265625 c 0,0.1875 0.140625,0.296875 0.3125,0.296875 0.109375,0 0.359375,-0.046875 0.453125,-0.40625 z m 0,0"
               id="path23" />
          </g>
        </g>
      </g>
    </g>
    <g
       inkscape:label=""
       transform="translate(100.6303,132.27457)"
       id="g4118">
      <g
         fill="#000000"
         fill-opacity="1"
         id="g12"
         transform="matrix(0.352778,0,0,0.352778,-0.0937066,0.00370415)">
        <g
           id="use10"
           transform="translate(0,8.302)">
          <path
             d="m 3.125,0.0625 -1.265625,-0.5 c -0.3125,-0.125 -1.015625,-0.40625 -1.015625,-1.125 0,-1.03125 1.25,-2.078125 1.5,-2.078125 0.015625,0 0.125,0.03125 0.171875,0.046875 0.3125,0.09375 0.625,0.09375 0.84375,0.09375 0.375,0 1.078125,0 1.078125,-0.34375 C 4.4375,-4.109375 4,-4.140625 3.484375,-4.140625 3.25,-4.140625 2.921875,-4.140625 2.5,-4 2.21875,-4.25 2.09375,-4.625 2.09375,-4.984375 c 0,-0.65625 0.421875,-1.59375 1.375,-2.03125 0.21875,0.25 0.5,0.25 0.75,0.25 0.296875,0 1.03125,0 1.03125,-0.34375 0,-0.296875 -0.578125,-0.296875 -0.953125,-0.296875 -0.25,0 -0.421875,0 -0.765625,0.0625 -0.046875,-0.15625 -0.0625,-0.171875 -0.0625,-0.4375 0,-0.21875 0.046875,-0.375 0.046875,-0.421875 0,-0.0625 -0.0625,-0.109375 -0.125,-0.109375 -0.1875,0 -0.1875,0.4375 -0.1875,0.53125 0,0.171875 0.015625,0.328125 0.078125,0.484375 -1.421875,0.421875 -2.0625,1.4375 -2.0625,2.21875 0,0.71875 0.484375,1.109375 0.796875,1.28125 -1.234375,0.671875 -1.75,1.890625 -1.75,2.546875 0,1.03125 0.9375,1.40625 1.375,1.578125 l 1.078125,0.4375 C 3.015625,0.875 3.5,1.078125 3.578125,1.125 c 0.125,0.078125 0.21875,0.21875 0.21875,0.421875 0,0.25 -0.1875,0.65625 -0.609375,0.65625 -0.171875,0 -0.5625,-0.046875 -1,-0.375 C 2.109375,1.75 2.09375,1.75 2.046875,1.75 c -0.0625,0 -0.125,0.046875 -0.125,0.109375 0,0.140625 0.625,0.578125 1.265625,0.578125 0.765625,0 1.234375,-0.734375 1.234375,-1.25 0,-0.375 -0.203125,-0.671875 -0.578125,-0.84375 z m 0.609375,-7.171875 c 0.203125,-0.0625 0.40625,-0.0625 0.5625,-0.0625 0.40625,0 0.4375,0.015625 0.671875,0.078125 C 4.828125,-7.046875 4.734375,-7 4.234375,-7 4,-7 3.859375,-7 3.734375,-7.109375 Z M 2.78125,-3.84375 c 0.296875,-0.0625 0.546875,-0.0625 0.703125,-0.0625 0.390625,0 0.40625,0.015625 0.671875,0.0625 -0.125,0.0625 -0.234375,0.109375 -0.75,0.109375 -0.28125,0 -0.40625,0 -0.625,-0.109375 z m 0,0"
             id="path18" />
        </g>
      </g>
    </g>
    <g
       inkscape:label=""
       transform="translate(62.267117,122.81444)"
       id="g4216">
      <g
         fill="#000000"
         fill-opacity="1"
         id="g4214"
         transform="matrix(0.352778,0,0,0.352778,-0.170877,0.00370415)">
        <g
           id="g4210"
           transform="translate(0,8.302)">
          <path
             d="m 6.015625,-8 c 0.015625,-0.046875 0.03125,-0.109375 0.03125,-0.171875 0,-0.125 -0.125,-0.125 -0.140625,-0.125 -0.015625,0 -0.59375,0.046875 -0.65625,0.0625 -0.203125,0.015625 -0.390625,0.03125 -0.59375,0.046875 -0.3125,0.03125 -0.390625,0.03125 -0.390625,0.25 0,0.125 0.09375,0.125 0.265625,0.125 0.578125,0 0.59375,0.109375 0.59375,0.21875 0,0.078125 -0.015625,0.171875 -0.03125,0.203125 l -0.734375,2.90625 c -0.125,-0.3125 -0.453125,-0.78125 -1.078125,-0.78125 -1.34375,0 -2.796875,1.734375 -2.796875,3.515625 0,1.171875 0.6875,1.875 1.5,1.875 0.65625,0 1.21875,-0.515625 1.546875,-0.90625 0.125,0.703125 0.6875,0.90625 1.046875,0.90625 0.359375,0 0.640625,-0.21875 0.859375,-0.65625 0.1875,-0.40625 0.359375,-1.125 0.359375,-1.171875 0,-0.0625 -0.046875,-0.109375 -0.125,-0.109375 C 5.5625,-1.8125 5.5625,-1.75 5.515625,-1.578125 5.328125,-0.875 5.109375,-0.125 4.609375,-0.125 4.265625,-0.125 4.25,-0.4375 4.25,-0.671875 c 0,-0.046875 0,-0.296875 0.078125,-0.625 z M 3.59375,-1.421875 C 3.53125,-1.21875 3.53125,-1.1875 3.375,-0.96875 3.109375,-0.640625 2.578125,-0.125 2.015625,-0.125 1.53125,-0.125 1.25,-0.5625 1.25,-1.265625 c 0,-0.65625 0.375,-2 0.609375,-2.5 0.40625,-0.84375 0.96875,-1.265625 1.421875,-1.265625 0.796875,0 0.953125,0.984375 0.953125,1.078125 0,0.015625 -0.03125,0.15625 -0.046875,0.1875 z m 0,0"
             id="path4208" />
        </g>
        <g
           id="use15"
           transform="translate(6.0828061,8.302)">
          <path
             d="m 3.125,0.0625 -1.265625,-0.5 c -0.3125,-0.125 -1.015625,-0.40625 -1.015625,-1.125 0,-1.03125 1.25,-2.078125 1.5,-2.078125 0.015625,0 0.125,0.03125 0.171875,0.046875 0.3125,0.09375 0.625,0.09375 0.84375,0.09375 0.375,0 1.078125,0 1.078125,-0.34375 C 4.4375,-4.109375 4,-4.140625 3.484375,-4.140625 3.25,-4.140625 2.921875,-4.140625 2.5,-4 2.21875,-4.25 2.09375,-4.625 2.09375,-4.984375 c 0,-0.65625 0.421875,-1.59375 1.375,-2.03125 0.21875,0.25 0.5,0.25 0.75,0.25 0.296875,0 1.03125,0 1.03125,-0.34375 0,-0.296875 -0.578125,-0.296875 -0.953125,-0.296875 -0.25,0 -0.421875,0 -0.765625,0.0625 -0.046875,-0.15625 -0.0625,-0.171875 -0.0625,-0.4375 0,-0.21875 0.046875,-0.375 0.046875,-0.421875 0,-0.0625 -0.0625,-0.109375 -0.125,-0.109375 -0.1875,0 -0.1875,0.4375 -0.1875,0.53125 0,0.171875 0.015625,0.328125 0.078125,0.484375 -1.421875,0.421875 -2.0625,1.4375 -2.0625,2.21875 0,0.71875 0.484375,1.109375 0.796875,1.28125 -1.234375,0.671875 -1.75,1.890625 -1.75,2.546875 0,1.03125 0.9375,1.40625 1.375,1.578125 l 1.078125,0.4375 C 3.015625,0.875 3.5,1.078125 3.578125,1.125 c 0.125,0.078125 0.21875,0.21875 0.21875,0.421875 0,0.25 -0.1875,0.65625 -0.609375,0.65625 -0.171875,0 -0.5625,-0.046875 -1,-0.375 C 2.109375,1.75 2.09375,1.75 2.046875,1.75 c -0.0625,0 -0.125,0.046875 -0.125,0.109375 0,0.140625 0.625,0.578125 1.265625,0.578125 0.765625,0 1.234375,-0.734375 1.234375,-1.25 0,-0.375 -0.203125,-0.671875 -0.578125,-0.84375 z m 0.609375,-7.171875 c 0.203125,-0.0625 0.40625,-0.0625 0.5625,-0.0625 0.40625,0 0.4375,0.015625 0.671875,0.078125 C 4.828125,-7.046875 4.734375,-7 4.234375,-7 4,-7 3.859375,-7 3.734375,-7.109375 Z M 2.78125,-3.84375 c 0.296875,-0.0625 0.546875,-0.0625 0.703125,-0.0625 0.390625,0 0.40625,0.015625 0.671875,0.0625 -0.125,0.0625 -0.234375,0.109375 -0.75,0.109375 -0.28125,0 -0.40625,0 -0.625,-0.109375 z m 0,0"
             id="path27" />
        </g>
      </g>
    </g>
    <g
       inkscape:label=""
       transform="translate(51.730012,111.32698)"
       id="g4328">
      <g
         clip-path="url(#clipPath2491)"
         id="g22"
         transform="matrix(0.352778,0,0,0.352778,-0.170877,-0.001808)">
        <g
           fill="#000000"
           fill-opacity="1"
           id="g20">
          <g
             id="use16"
             transform="translate(0,8.302)">
            <path
               d="m 6.015625,-8 c 0.015625,-0.046875 0.03125,-0.109375 0.03125,-0.171875 0,-0.125 -0.125,-0.125 -0.140625,-0.125 -0.015625,0 -0.59375,0.046875 -0.65625,0.0625 -0.203125,0.015625 -0.390625,0.03125 -0.59375,0.046875 -0.3125,0.03125 -0.390625,0.03125 -0.390625,0.25 0,0.125 0.09375,0.125 0.265625,0.125 0.578125,0 0.59375,0.109375 0.59375,0.21875 0,0.078125 -0.015625,0.171875 -0.03125,0.203125 l -0.734375,2.90625 c -0.125,-0.3125 -0.453125,-0.78125 -1.078125,-0.78125 -1.34375,0 -2.796875,1.734375 -2.796875,3.515625 0,1.171875 0.6875,1.875 1.5,1.875 0.65625,0 1.21875,-0.515625 1.546875,-0.90625 0.125,0.703125 0.6875,0.90625 1.046875,0.90625 0.359375,0 0.640625,-0.21875 0.859375,-0.65625 0.1875,-0.40625 0.359375,-1.125 0.359375,-1.171875 0,-0.0625 -0.046875,-0.109375 -0.125,-0.109375 C 5.5625,-1.8125 5.5625,-1.75 5.515625,-1.578125 5.328125,-0.875 5.109375,-0.125 4.609375,-0.125 4.265625,-0.125 4.25,-0.4375 4.25,-0.671875 c 0,-0.046875 0,-0.296875 0.078125,-0.625 z M 3.59375,-1.421875 C 3.53125,-1.21875 3.53125,-1.1875 3.375,-0.96875 3.109375,-0.640625 2.578125,-0.125 2.015625,-0.125 1.53125,-0.125 1.25,-0.5625 1.25,-1.265625 c 0,-0.65625 0.375,-2 0.609375,-2.5 0.40625,-0.84375 0.96875,-1.265625 1.421875,-1.265625 0.796875,0 0.953125,0.984375 0.953125,1.078125 0,0.015625 -0.03125,0.15625 -0.046875,0.1875 z m 0,0"
               id="path28" />
          </g>
          <g
             id="use18"
             transform="translate(6.0828061,8.302)">
            <path
               d="m 5.671875,-3.3125 c 0.0625,-0.234375 0.09375,-0.375 0.09375,-0.703125 0,-0.71875 -0.40625,-1.25 -1.3125,-1.25 -1.078125,0 -1.625,0.75 -1.84375,1.046875 -0.046875,-0.6875 -0.53125,-1.046875 -1.0625,-1.046875 -0.34375,0 -0.609375,0.15625 -0.84375,0.609375 -0.21875,0.4375 -0.375,1.171875 -0.375,1.21875 0,0.046875 0.046875,0.109375 0.125,0.109375 0.09375,0 0.109375,-0.015625 0.1875,-0.296875 0.171875,-0.703125 0.40625,-1.40625 0.875,-1.40625 0.28125,0 0.375,0.1875 0.375,0.546875 0,0.265625 -0.125,0.734375 -0.203125,1.109375 l -0.34375,1.28125 c -0.046875,0.234375 -0.171875,0.765625 -0.234375,0.984375 -0.078125,0.3125 -0.21875,0.875 -0.21875,0.9375 0,0.15625 0.140625,0.296875 0.3125,0.296875 0.140625,0 0.3125,-0.078125 0.40625,-0.25 C 1.640625,-0.1875 1.75,-0.609375 1.8125,-0.84375 L 2.0625,-1.921875 2.46875,-3.5 C 2.484375,-3.578125 2.78125,-4.171875 3.234375,-4.546875 3.53125,-4.84375 3.9375,-5.03125 4.40625,-5.03125 c 0.484375,0 0.65625,0.359375 0.65625,0.828125 0,0.359375 -0.046875,0.546875 -0.109375,0.765625 L 3.5625,2.0625 C 3.546875,2.125 3.53125,2.203125 3.53125,2.265625 c 0,0.1875 0.140625,0.296875 0.3125,0.296875 0.109375,0 0.359375,-0.046875 0.453125,-0.40625 z m 0,0"
               id="path32" />
          </g>
        </g>
      </g>
    </g>
    <rect
       style="fill:#eee3e3;fill-opacity:1;stroke:#000000;stroke-width:0.303096;stroke-dasharray:none"
       id="rect4860"
       width="14.080053"
       height="13.295039"
       x="57.362968"
       y="107.52249" />
    <path
       style="fill:none;stroke:#000000;stroke-width:0.3;stroke-dasharray:none;marker-start:url(#marker3393-3)"
       d="m 130.79268,79.41496 v 52.33747"
       id="path2968-3"
       inkscape:path-effect="#path-effect2970-7"
       inkscape:original-d="m 130.79268,79.41496 c 1.8e-4,17.446003 1.8e-4,34.89182 0,52.33747" />
    <path
       style="fill:none;stroke:#000000;stroke-width:0.3;stroke-dasharray:none;marker-end:url(#TriangleStart-5)"
       d="m 130.86723,131.64879 h 54.10983"
       id="path2972-6"
       inkscape:path-effect="#path-effect2974-5"
       inkscape:original-d="m 130.86723,131.64879 c 18.12193,1.8e-4 36.0734,1.8e-4 54.10983,0" />
    <path
       style="fill:none;fill-opacity:1;stroke:#000000;stroke-width:0.3;stroke-dasharray:none;marker-start:url(#marker3505-6);marker-end:url(#marker3441-9)"
       d="m 156.82002,106.66448 v 14.83297 l 15.33386,-7.85215"
       id="path3437-0" />
    <rect
       style="fill:#eee3e3;fill-opacity:1;stroke:#000000;stroke-width:0.321266;stroke-dasharray:none"
       id="rect4860-2"
       width="15.818769"
       height="13.295039"
       x="176.23187"
       y="188.47853"
       transform="matrix(0.89008529,-0.45579401,0,1,0,0)" />
    <g
       inkscape:label=""
       transform="translate(187.31088,133.18939)"
       id="g5788">
      <g
         fill="#000000"
         fill-opacity="1"
         id="g5786"
         transform="matrix(0.352778,0,0,0.352778,-0.115755,0.0418483)">
        <g
           id="g5784"
           transform="translate(0,5.1469998)">
          <path
             d="m 5.671875,-4.875 c -0.390625,0.0625 -0.53125,0.359375 -0.53125,0.578125 0,0.296875 0.21875,0.390625 0.390625,0.390625 0.359375,0 0.609375,-0.3125 0.609375,-0.640625 0,-0.5 -0.578125,-0.71875 -1.078125,-0.71875 -0.71875,0 -1.125,0.71875 -1.234375,0.9375 -0.28125,-0.890625 -1.015625,-0.9375 -1.234375,-0.9375 -1.21875,0 -1.859375,1.5625 -1.859375,1.828125 0,0.046875 0.046875,0.109375 0.125,0.109375 0.09375,0 0.125,-0.078125 0.140625,-0.125 0.40625,-1.328125 1.21875,-1.578125 1.5625,-1.578125 0.53125,0 0.640625,0.5 0.640625,0.78125 0,0.265625 -0.078125,0.546875 -0.21875,1.125 L 2.578125,-1.5 c -0.171875,0.71875 -0.515625,1.375 -1.15625,1.375 -0.0625,0 -0.359375,0 -0.609375,-0.15625 C 1.25,-0.359375 1.34375,-0.71875 1.34375,-0.859375 1.34375,-1.09375 1.15625,-1.25 0.9375,-1.25 c -0.296875,0 -0.609375,0.265625 -0.609375,0.640625 0,0.5 0.5625,0.734375 1.078125,0.734375 0.578125,0 0.984375,-0.453125 1.234375,-0.953125 C 2.828125,-0.125 3.4375,0.125 3.875,0.125 5.09375,0.125 5.734375,-1.453125 5.734375,-1.703125 5.734375,-1.765625 5.6875,-1.8125 5.625,-1.8125 5.515625,-1.8125 5.5,-1.75 5.46875,-1.65625 5.140625,-0.609375 4.453125,-0.125 3.90625,-0.125 3.484375,-0.125 3.265625,-0.4375 3.265625,-0.921875 3.265625,-1.1875 3.3125,-1.375 3.5,-2.15625 L 3.921875,-3.796875 C 4.09375,-4.5 4.5,-5.03125 5.0625,-5.03125 c 0.015625,0 0.359375,0 0.609375,0.15625 z m 0,0"
             id="path5782" />
        </g>
      </g>
    </g>
    <g
       inkscape:label=""
       transform="translate(134.28747,77.165474)"
       id="g5984">
      <g
         clip-path="url(#clipPath3895)"
         id="g5982"
         transform="matrix(0.352778,0,0,0.352778,-0.115755,0.0418483)">
        <g
           fill="#000000"
           fill-opacity="1"
           id="g5980">
          <g
             id="g5978"
             transform="translate(0,5.1469998)">
            <path
               d="m 3.140625,1.34375 c -0.3125,0.453125 -0.78125,0.859375 -1.375,0.859375 C 1.625,2.203125 1.046875,2.171875 0.875,1.625 c 0.03125,0.015625 0.09375,0.015625 0.109375,0.015625 0.359375,0 0.609375,-0.3125 0.609375,-0.59375 C 1.59375,0.78125 1.359375,0.6875 1.1875,0.6875 c -0.203125,0 -0.609375,0.140625 -0.609375,0.71875 0,0.609375 0.515625,1.03125 1.1875,1.03125 C 2.96875,2.4375 4.171875,1.34375 4.5,0.015625 L 5.671875,-4.65625 C 5.6875,-4.703125 5.71875,-4.78125 5.71875,-4.859375 5.71875,-5.03125 5.5625,-5.15625 5.390625,-5.15625 5.28125,-5.15625 5.03125,-5.109375 4.9375,-4.75 L 4.046875,-1.234375 C 4,-1.015625 4,-0.984375 3.890625,-0.859375 3.65625,-0.53125 3.265625,-0.125 2.6875,-0.125 c -0.671875,0 -0.734375,-0.65625 -0.734375,-0.96875 0,-0.6875 0.328125,-1.609375 0.65625,-2.46875 0.125,-0.34375 0.203125,-0.515625 0.203125,-0.75 0,-0.5 -0.359375,-0.953125 -0.953125,-0.953125 -1.09375,0 -1.53125,1.734375 -1.53125,1.828125 0,0.046875 0.046875,0.109375 0.125,0.109375 0.109375,0 0.125,-0.046875 0.171875,-0.21875 0.28125,-1 0.734375,-1.484375 1.203125,-1.484375 0.109375,0 0.3125,0 0.3125,0.390625 0,0.3125 -0.125,0.65625 -0.3125,1.109375 C 1.25,-1.953125 1.25,-1.5625 1.25,-1.28125 1.25,-0.140625 2.0625,0.125 2.65625,0.125 3,0.125 3.4375,0.015625 3.84375,-0.4375 l 0.015625,0.015625 C 3.6875,0.28125 3.5625,0.75 3.140625,1.34375 Z m 0,0"
               id="path5976" />
          </g>
        </g>
      </g>
    </g>
    <g
       inkscape:label=""
       transform="translate(174.15017,112.64446)"
       id="g8058">
      <g
         clip-path="url(#clipPath846)"
         id="g8056"
         transform="matrix(0.352778,0,0,0.352778,-0.143316,0.0384086)">
        <g
           fill="#000000"
           fill-opacity="1"
           id="g8054">
          <g
             id="g8052"
             transform="translate(0,5.3130002)">
            <path
               d="m 5.5,-3.578125 c 0,-1.09375 -0.875,-1.84375 -2.5625,-1.84375 -0.671875,0 -2.078125,0.0625 -2.078125,1.078125 0,0.5 0.390625,0.703125 0.703125,0.703125 0.359375,0 0.703125,-0.25 0.703125,-0.703125 0,-0.21875 -0.078125,-0.4375 -0.28125,-0.5625 0.390625,-0.109375 0.6875,-0.109375 0.90625,-0.109375 0.8125,0 1.3125,0.453125 1.3125,1.4375 v 0.46875 c -1.890625,0 -3.796875,0.53125 -3.796875,1.859375 0,1.078125 1.390625,1.328125 2.21875,1.328125 0.90625,0 1.5,-0.515625 1.734375,-1.03125 0,0.4375 0,0.953125 1.203125,0.953125 h 0.625 c 0.25,0 0.34375,0 0.34375,-0.265625 0,-0.25 -0.109375,-0.25 -0.28125,-0.25 C 5.5,-0.53125 5.5,-0.71875 5.5,-0.984375 Z M 4.203125,-1.65625 c 0,1.125 -1.015625,1.328125 -1.390625,1.328125 -0.59375,0 -1.078125,-0.390625 -1.078125,-0.9375 0,-1.09375 1.296875,-1.453125 2.46875,-1.515625 z m 0,0"
               id="path8050" />
          </g>
        </g>
      </g>
    </g>
    <g
       inkscape:label=""
       transform="translate(154.16839,101.14302)"
       id="g9111">
      <g
         clip-path="url(#clipPath9103)"
         id="g9109"
         transform="matrix(0.352778,0,0,0.352778,-0.148828,-0.001808)">
        <g
           fill="#000000"
           fill-opacity="1"
           id="g9107">
          <g
             id="g9105"
             transform="translate(0,8.302)">
            <path
               d="m 2.484375,-8.296875 -2.0625,0.09375 V -7.6875 c 0.734375,0 0.828125,0 0.828125,0.46875 V 0 h 0.5 c 0.203125,-0.234375 0.40625,-0.453125 0.59375,-0.6875 0.609375,0.625 1.265625,0.765625 1.75,0.765625 C 5.734375,0.078125 7,-0.9375 7,-2.671875 7,-4.296875 5.875,-5.375 4.25,-5.375 c -0.71875,0 -1.28125,0.21875 -1.765625,0.609375 z m 0.0625,4.09375 c 0.421875,-0.5625 1.03125,-0.78125 1.546875,-0.78125 1.46875,0 1.46875,1.515625 1.46875,2.3125 0,0.53125 0,1.21875 -0.28125,1.65625 -0.375,0.578125 -0.9375,0.6875 -1.3125,0.6875 -0.8125,0 -1.25,-0.5625 -1.421875,-0.828125 z m 0,0"
               id="path9103" />
          </g>
        </g>
      </g>
    </g>
    <g
       inkscape:label=""
       transform="translate(161.32294,109.9524)"
       id="g10182">
      <g
         clip-path="url(#clipPath2983)"
         id="g10180"
         transform="matrix(0.352778,0,0,0.352778,-0.170877,0.0808743)">
        <g
           fill="#000000"
           fill-opacity="1"
           id="g10178">
          <g
             id="g10172"
             transform="translate(0,8.302)">
            <path
               d="m 6.015625,-8 c 0.015625,-0.046875 0.03125,-0.109375 0.03125,-0.171875 0,-0.125 -0.125,-0.125 -0.140625,-0.125 -0.015625,0 -0.59375,0.046875 -0.65625,0.0625 -0.203125,0.015625 -0.390625,0.03125 -0.59375,0.046875 -0.3125,0.03125 -0.390625,0.03125 -0.390625,0.25 0,0.125 0.09375,0.125 0.265625,0.125 0.578125,0 0.59375,0.109375 0.59375,0.21875 0,0.078125 -0.015625,0.171875 -0.03125,0.203125 l -0.734375,2.90625 c -0.125,-0.3125 -0.453125,-0.78125 -1.078125,-0.78125 -1.34375,0 -2.796875,1.734375 -2.796875,3.515625 0,1.171875 0.6875,1.875 1.5,1.875 0.65625,0 1.21875,-0.515625 1.546875,-0.90625 0.125,0.703125 0.6875,0.90625 1.046875,0.90625 0.359375,0 0.640625,-0.21875 0.859375,-0.65625 0.1875,-0.40625 0.359375,-1.125 0.359375,-1.171875 0,-0.0625 -0.046875,-0.109375 -0.125,-0.109375 C 5.5625,-1.8125 5.5625,-1.75 5.515625,-1.578125 5.328125,-0.875 5.109375,-0.125 4.609375,-0.125 4.265625,-0.125 4.25,-0.4375 4.25,-0.671875 c 0,-0.046875 0,-0.296875 0.078125,-0.625 z M 3.59375,-1.421875 C 3.53125,-1.21875 3.53125,-1.1875 3.375,-0.96875 3.109375,-0.640625 2.578125,-0.125 2.015625,-0.125 1.53125,-0.125 1.25,-0.5625 1.25,-1.265625 c 0,-0.65625 0.375,-2 0.609375,-2.5 0.40625,-0.84375 0.96875,-1.265625 1.421875,-1.265625 0.796875,0 0.953125,0.984375 0.953125,1.078125 0,0.015625 -0.03125,0.15625 -0.046875,0.1875 z m 0,0"
               id="path10170" />
          </g>
          <g
             id="g10176"
             transform="translate(6.0828061,8.302)">
            <path
               d="M 2.03125,-1.328125 C 1.609375,-0.625 1.203125,-0.375 0.640625,-0.34375 0.5,-0.328125 0.40625,-0.328125 0.40625,-0.125 c 0,0.078125 0.0625,0.125 0.140625,0.125 0.21875,0 0.75,-0.03125 0.96875,-0.03125 C 1.859375,-0.03125 2.25,0 2.578125,0 c 0.078125,0 0.21875,0 0.21875,-0.234375 0,-0.09375 -0.09375,-0.109375 -0.171875,-0.109375 -0.265625,-0.03125 -0.5,-0.125 -0.5,-0.40625 0,-0.171875 0.078125,-0.296875 0.234375,-0.5625 l 0.90625,-1.515625 H 6.3125 c 0.015625,0.109375 0.015625,0.203125 0.015625,0.3125 0.046875,0.3125 0.1875,1.5625 0.1875,1.78125 0,0.359375 -0.609375,0.390625 -0.796875,0.390625 -0.140625,0 -0.265625,0 -0.265625,0.21875 C 5.453125,0 5.5625,0 5.625,0 5.828125,0 6.078125,-0.03125 6.28125,-0.03125 H 6.953125 C 7.6875,-0.03125 8.21875,0 8.21875,0 8.3125,0 8.4375,0 8.4375,-0.234375 8.4375,-0.34375 8.328125,-0.34375 8.15625,-0.34375 7.5,-0.34375 7.484375,-0.453125 7.453125,-0.8125 L 6.71875,-8.265625 c -0.03125,-0.25 -0.078125,-0.265625 -0.203125,-0.265625 -0.125,0 -0.1875,0.015625 -0.296875,0.203125 z M 3.46875,-3.171875 5.875,-7.1875 6.28125,-3.171875 Z m 0,0"
               id="path10174" />
          </g>
        </g>
      </g>
    </g>
    <g
       inkscape:label=""
       transform="translate(81.251542,120.64998)"
       id="g11274">
      <g
         clip-path="url(#clipPath7637)"
         id="g28"
         transform="matrix(0.352778,0,0,0.352778,-0.115755,0.0892088)">
        <g
           fill="#000000"
           fill-opacity="1"
           id="g26">
          <g
             id="use24"
             transform="translate(0,8.1689997)">
            <path
               d="m 5.671875,-3.3125 c 0.0625,-0.234375 0.09375,-0.375 0.09375,-0.703125 0,-0.71875 -0.40625,-1.25 -1.3125,-1.25 -1.078125,0 -1.625,0.75 -1.84375,1.046875 -0.046875,-0.6875 -0.53125,-1.046875 -1.0625,-1.046875 -0.34375,0 -0.609375,0.15625 -0.84375,0.609375 -0.21875,0.4375 -0.375,1.171875 -0.375,1.21875 0,0.046875 0.046875,0.109375 0.125,0.109375 0.09375,0 0.109375,-0.015625 0.1875,-0.296875 0.171875,-0.703125 0.40625,-1.40625 0.875,-1.40625 0.28125,0 0.375,0.1875 0.375,0.546875 0,0.265625 -0.125,0.734375 -0.203125,1.109375 l -0.34375,1.28125 c -0.046875,0.234375 -0.171875,0.765625 -0.234375,0.984375 -0.078125,0.3125 -0.21875,0.875 -0.21875,0.9375 0,0.15625 0.140625,0.296875 0.3125,0.296875 0.140625,0 0.3125,-0.078125 0.40625,-0.25 C 1.640625,-0.1875 1.75,-0.609375 1.8125,-0.84375 L 2.0625,-1.921875 2.46875,-3.5 C 2.484375,-3.578125 2.78125,-4.171875 3.234375,-4.546875 3.53125,-4.84375 3.9375,-5.03125 4.40625,-5.03125 c 0.484375,0 0.65625,0.359375 0.65625,0.828125 0,0.359375 -0.046875,0.546875 -0.109375,0.765625 L 3.5625,2.0625 C 3.546875,2.125 3.53125,2.203125 3.53125,2.265625 c 0,0.1875 0.140625,0.296875 0.3125,0.296875 0.109375,0 0.359375,-0.046875 0.453125,-0.40625 z m 0,0"
               id="path46" />
          </g>
        </g>
      </g>
      <g
         fill="#000000"
         fill-opacity="1"
         id="g32"
         transform="matrix(0.352778,0,0,0.352778,-0.115755,0.0892088)">
        <g
           id="use30"
           transform="translate(9.5249996,8.1689997)">
          <path
             d="m 8.0625,-3.875 c 0.171875,0 0.390625,0 0.390625,-0.21875 C 8.453125,-4.3125 8.25,-4.3125 8.0625,-4.3125 H 1.03125 c -0.171875,0 -0.390625,0 -0.390625,0.21875 0,0.21875 0.203125,0.21875 0.390625,0.21875 z m 0,2.21875 c 0.171875,0 0.390625,0 0.390625,-0.203125 C 8.453125,-2.09375 8.25,-2.09375 8.0625,-2.09375 H 1.03125 c -0.171875,0 -0.390625,0 -0.390625,0.21875 0,0.21875 0.203125,0.21875 0.390625,0.21875 z m 0,0"
             id="path50" />
        </g>
      </g>
      <g
         fill="#000000"
         fill-opacity="1"
         id="g36"
         transform="matrix(0.352778,0,0,0.352778,-0.115755,0.0892088)">
        <g
           id="use34"
           transform="translate(21.951,8.1689997)">
          <path
             d="m 8.921875,-8.3125 c 0,-0.109375 -0.078125,-0.109375 -0.09375,-0.109375 -0.03125,0 -0.078125,0 -0.171875,0.125 l -0.828125,1 c -0.421875,-0.71875 -1.078125,-1.125 -1.96875,-1.125 -2.578125,0 -5.265625,2.625 -5.265625,5.4375 0,2 1.40625,3.234375 3.140625,3.234375 0.96875,0 1.796875,-0.40625 2.5,-0.984375 1.03125,-0.875 1.34375,-2.03125 1.34375,-2.140625 0,-0.09375 -0.09375,-0.09375 -0.125,-0.09375 -0.109375,0 -0.125,0.0625 -0.15625,0.109375 -0.546875,1.875 -2.15625,2.765625 -3.359375,2.765625 -1.265625,0 -2.359375,-0.8125 -2.359375,-2.515625 0,-0.375 0.125,-2.453125 1.46875,-4.03125 0.65625,-0.765625 1.78125,-1.421875 2.921875,-1.421875 1.3125,0 1.890625,1.078125 1.890625,2.296875 0,0.3125 -0.03125,0.578125 -0.03125,0.625 0,0.109375 0.125,0.109375 0.15625,0.109375 0.125,0 0.140625,-0.015625 0.1875,-0.234375 z m 0,0"
             id="path54" />
        </g>
      </g>
      <g
         fill="#000000"
         fill-opacity="1"
         id="g40"
         transform="matrix(0.352778,0,0,0.352778,-0.115755,0.0892088)">
        <g
           id="use38"
           transform="translate(30.326,9.9630003)">
          <path
             d="m 2.25,-1.625 c 0.125,-0.125 0.453125,-0.390625 0.59375,-0.5 0.484375,-0.453125 0.953125,-0.890625 0.953125,-1.609375 0,-0.953125 -0.796875,-1.5625 -1.78125,-1.5625 -0.96875,0 -1.59375,0.71875 -1.59375,1.4375 0,0.390625 0.3125,0.4375 0.421875,0.4375 0.171875,0 0.421875,-0.109375 0.421875,-0.421875 0,-0.40625 -0.40625,-0.40625 -0.5,-0.40625 C 1,-4.84375 1.53125,-5.03125 1.921875,-5.03125 c 0.734375,0 1.125,0.625 1.125,1.296875 0,0.828125 -0.578125,1.4375 -1.53125,2.390625 l -1,1.046875 C 0.421875,-0.21875 0.421875,-0.203125 0.421875,0 H 3.5625 l 0.234375,-1.421875 h -0.25 C 3.53125,-1.265625 3.46875,-0.875 3.375,-0.71875 c -0.046875,0.0625 -0.65625,0.0625 -0.78125,0.0625 H 1.171875 Z m 0,0"
             id="path58" />
        </g>
      </g>
    </g>
    <g
       inkscape:label=""
       transform="translate(204.11253,108.54122)"
       id="g11596">
      <g
         clip-path="url(#clipPath9349)"
         id="g11576"
         transform="matrix(0.352778,0,0,0.352778,-0.115755,0.0892088)">
        <g
           fill="#000000"
           fill-opacity="1"
           id="g11574">
          <g
             id="g11572"
             transform="translate(0,8.1689997)">
            <path
               d="m 5.671875,-3.3125 c 0.0625,-0.234375 0.09375,-0.375 0.09375,-0.703125 0,-0.71875 -0.40625,-1.25 -1.3125,-1.25 -1.078125,0 -1.625,0.75 -1.84375,1.046875 -0.046875,-0.6875 -0.53125,-1.046875 -1.0625,-1.046875 -0.34375,0 -0.609375,0.15625 -0.84375,0.609375 -0.21875,0.4375 -0.375,1.171875 -0.375,1.21875 0,0.046875 0.046875,0.109375 0.125,0.109375 0.09375,0 0.109375,-0.015625 0.1875,-0.296875 0.171875,-0.703125 0.40625,-1.40625 0.875,-1.40625 0.28125,0 0.375,0.1875 0.375,0.546875 0,0.265625 -0.125,0.734375 -0.203125,1.109375 l -0.34375,1.28125 c -0.046875,0.234375 -0.171875,0.765625 -0.234375,0.984375 -0.078125,0.3125 -0.21875,0.875 -0.21875,0.9375 0,0.15625 0.140625,0.296875 0.3125,0.296875 0.140625,0 0.3125,-0.078125 0.40625,-0.25 C 1.640625,-0.1875 1.75,-0.609375 1.8125,-0.84375 L 2.0625,-1.921875 2.46875,-3.5 C 2.484375,-3.578125 2.78125,-4.171875 3.234375,-4.546875 3.53125,-4.84375 3.9375,-5.03125 4.40625,-5.03125 c 0.484375,0 0.65625,0.359375 0.65625,0.828125 0,0.359375 -0.046875,0.546875 -0.109375,0.765625 L 3.5625,2.0625 C 3.546875,2.125 3.53125,2.203125 3.53125,2.265625 c 0,0.1875 0.140625,0.296875 0.3125,0.296875 0.109375,0 0.359375,-0.046875 0.453125,-0.40625 z m 0,0"
               id="path11570" />
          </g>
        </g>
      </g>
      <g
         fill="#000000"
         fill-opacity="1"
         id="g11582"
         transform="matrix(0.352778,0,0,0.352778,-0.115755,0.0892088)">
        <g
           id="g11580"
           transform="translate(9.5249996,8.1689997)">
          <path
             d="m 8.0625,-3.875 c 0.171875,0 0.390625,0 0.390625,-0.21875 C 8.453125,-4.3125 8.25,-4.3125 8.0625,-4.3125 H 1.03125 c -0.171875,0 -0.390625,0 -0.390625,0.21875 0,0.21875 0.203125,0.21875 0.390625,0.21875 z m 0,2.21875 c 0.171875,0 0.390625,0 0.390625,-0.203125 C 8.453125,-2.09375 8.25,-2.09375 8.0625,-2.09375 H 1.03125 c -0.171875,0 -0.390625,0 -0.390625,0.21875 0,0.21875 0.203125,0.21875 0.390625,0.21875 z m 0,0"
             id="path11578" />
        </g>
      </g>
      <g
         fill="#000000"
         fill-opacity="1"
         id="g11588"
         transform="matrix(0.352778,0,0,0.352778,-0.115755,0.0892088)">
        <g
           id="g11586"
           transform="translate(21.951,8.1689997)">
          <path
             d="m 8.921875,-8.3125 c 0,-0.109375 -0.078125,-0.109375 -0.09375,-0.109375 -0.03125,0 -0.078125,0 -0.171875,0.125 l -0.828125,1 c -0.421875,-0.71875 -1.078125,-1.125 -1.96875,-1.125 -2.578125,0 -5.265625,2.625 -5.265625,5.4375 0,2 1.40625,3.234375 3.140625,3.234375 0.96875,0 1.796875,-0.40625 2.5,-0.984375 1.03125,-0.875 1.34375,-2.03125 1.34375,-2.140625 0,-0.09375 -0.09375,-0.09375 -0.125,-0.09375 -0.109375,0 -0.125,0.0625 -0.15625,0.109375 -0.546875,1.875 -2.15625,2.765625 -3.359375,2.765625 -1.265625,0 -2.359375,-0.8125 -2.359375,-2.515625 0,-0.375 0.125,-2.453125 1.46875,-4.03125 0.65625,-0.765625 1.78125,-1.421875 2.921875,-1.421875 1.3125,0 1.890625,1.078125 1.890625,2.296875 0,0.3125 -0.03125,0.578125 -0.03125,0.625 0,0.109375 0.125,0.109375 0.15625,0.109375 0.125,0 0.140625,-0.015625 0.1875,-0.234375 z m 0,0"
             id="path11584" />
        </g>
      </g>
      <g
         fill="#000000"
         fill-opacity="1"
         id="g11594"
         transform="matrix(0.352778,0,0,0.352778,-0.115755,0.0892088)">
        <g
           id="g11592"
           transform="translate(30.326,9.9630003)">
          <path
             d="m 2.25,-1.625 c 0.125,-0.125 0.453125,-0.390625 0.59375,-0.5 0.484375,-0.453125 0.953125,-0.890625 0.953125,-1.609375 0,-0.953125 -0.796875,-1.5625 -1.78125,-1.5625 -0.96875,0 -1.59375,0.71875 -1.59375,1.4375 0,0.390625 0.3125,0.4375 0.421875,0.4375 0.171875,0 0.421875,-0.109375 0.421875,-0.421875 0,-0.40625 -0.40625,-0.40625 -0.5,-0.40625 C 1,-4.84375 1.53125,-5.03125 1.921875,-5.03125 c 0.734375,0 1.125,0.625 1.125,1.296875 0,0.828125 -0.578125,1.4375 -1.53125,2.390625 l -1,1.046875 C 0.421875,-0.21875 0.421875,-0.203125 0.421875,0 H 3.5625 l 0.234375,-1.421875 h -0.25 C 3.53125,-1.265625 3.46875,-0.875 3.375,-0.71875 c -0.046875,0.0625 -0.65625,0.0625 -0.78125,0.0625 H 1.171875 Z m 0,0"
             id="path11590" />
        </g>
      </g>
    </g>
    <g
       inkscape:label=""
       transform="translate(150.1292,90.15539)"
       id="g11940">
      <g
         clip-path="url(#clipPath8896)"
         id="g31"
         transform="matrix(0.352778,0,0,0.352778,-0.0937066,0.0422892)">
        <g
           fill="#000000"
           fill-opacity="1"
           id="g29">
          <g
             id="use27"
             transform="translate(0,8.302)">
            <path
               d="m 3.125,0.0625 -1.265625,-0.5 c -0.3125,-0.125 -1.015625,-0.40625 -1.015625,-1.125 0,-1.03125 1.25,-2.078125 1.5,-2.078125 0.015625,0 0.125,0.03125 0.171875,0.046875 0.3125,0.09375 0.625,0.09375 0.84375,0.09375 0.375,0 1.078125,0 1.078125,-0.34375 C 4.4375,-4.109375 4,-4.140625 3.484375,-4.140625 3.25,-4.140625 2.921875,-4.140625 2.5,-4 2.21875,-4.25 2.09375,-4.625 2.09375,-4.984375 c 0,-0.65625 0.421875,-1.59375 1.375,-2.03125 0.21875,0.25 0.5,0.25 0.75,0.25 0.296875,0 1.03125,0 1.03125,-0.34375 0,-0.296875 -0.578125,-0.296875 -0.953125,-0.296875 -0.25,0 -0.421875,0 -0.765625,0.0625 -0.046875,-0.15625 -0.0625,-0.171875 -0.0625,-0.4375 0,-0.21875 0.046875,-0.375 0.046875,-0.421875 0,-0.0625 -0.0625,-0.109375 -0.125,-0.109375 -0.1875,0 -0.1875,0.4375 -0.1875,0.53125 0,0.171875 0.015625,0.328125 0.078125,0.484375 -1.421875,0.421875 -2.0625,1.4375 -2.0625,2.21875 0,0.71875 0.484375,1.109375 0.796875,1.28125 -1.234375,0.671875 -1.75,1.890625 -1.75,2.546875 0,1.03125 0.9375,1.40625 1.375,1.578125 l 1.078125,0.4375 C 3.015625,0.875 3.5,1.078125 3.578125,1.125 c 0.125,0.078125 0.21875,0.21875 0.21875,0.421875 0,0.25 -0.1875,0.65625 -0.609375,0.65625 -0.171875,0 -0.5625,-0.046875 -1,-0.375 C 2.109375,1.75 2.09375,1.75 2.046875,1.75 c -0.0625,0 -0.125,0.046875 -0.125,0.109375 0,0.140625 0.625,0.578125 1.265625,0.578125 0.765625,0 1.234375,-0.734375 1.234375,-1.25 0,-0.375 -0.203125,-0.671875 -0.578125,-0.84375 z m 0.609375,-7.171875 c 0.203125,-0.0625 0.40625,-0.0625 0.5625,-0.0625 0.40625,0 0.4375,0.015625 0.671875,0.078125 C 4.828125,-7.046875 4.734375,-7 4.234375,-7 4,-7 3.859375,-7 3.734375,-7.109375 Z M 2.78125,-3.84375 c 0.296875,-0.0625 0.546875,-0.0625 0.703125,-0.0625 0.390625,0 0.40625,0.015625 0.671875,0.0625 -0.125,0.0625 -0.234375,0.109375 -0.75,0.109375 -0.28125,0 -0.40625,0 -0.625,-0.109375 z m 0,0"
               id="path51" />
          </g>
        </g>
      </g>
      <g
         fill="#000000"
         fill-opacity="1"
         id="g35"
         transform="matrix(0.352778,0,0,0.352778,-0.0937066,0.0422892)">
        <g
           id="use33"
           transform="translate(9.0109997,8.302)">
          <path
             d="m 8.0625,-3.875 c 0.171875,0 0.390625,0 0.390625,-0.21875 C 8.453125,-4.3125 8.25,-4.3125 8.0625,-4.3125 H 1.03125 c -0.171875,0 -0.390625,0 -0.390625,0.21875 0,0.21875 0.203125,0.21875 0.390625,0.21875 z m 0,2.21875 c 0.171875,0 0.390625,0 0.390625,-0.203125 C 8.453125,-2.09375 8.25,-2.09375 8.0625,-2.09375 H 1.03125 c -0.171875,0 -0.390625,0 -0.390625,0.21875 0,0.21875 0.203125,0.21875 0.390625,0.21875 z m 0,0"
             id="path55" />
        </g>
      </g>
      <g
         fill="#000000"
         fill-opacity="1"
         id="g39"
         transform="matrix(0.352778,0,0,0.352778,-0.0937066,0.0422892)">
        <g
           id="use37"
           transform="translate(21.437,8.302)">
          <path
             d="m 8.921875,-8.3125 c 0,-0.109375 -0.078125,-0.109375 -0.09375,-0.109375 -0.03125,0 -0.078125,0 -0.171875,0.125 l -0.828125,1 c -0.421875,-0.71875 -1.078125,-1.125 -1.96875,-1.125 -2.578125,0 -5.265625,2.625 -5.265625,5.4375 0,2 1.40625,3.234375 3.140625,3.234375 0.96875,0 1.796875,-0.40625 2.5,-0.984375 1.03125,-0.875 1.34375,-2.03125 1.34375,-2.140625 0,-0.09375 -0.09375,-0.09375 -0.125,-0.09375 -0.109375,0 -0.125,0.0625 -0.15625,0.109375 -0.546875,1.875 -2.15625,2.765625 -3.359375,2.765625 -1.265625,0 -2.359375,-0.8125 -2.359375,-2.515625 0,-0.375 0.125,-2.453125 1.46875,-4.03125 0.65625,-0.765625 1.78125,-1.421875 2.921875,-1.421875 1.3125,0 1.890625,1.078125 1.890625,2.296875 0,0.3125 -0.03125,0.578125 -0.03125,0.625 0,0.109375 0.125,0.109375 0.15625,0.109375 0.125,0 0.140625,-0.015625 0.1875,-0.234375 z m 0,0"
             id="path59" />
        </g>
      </g>
      <g
         clip-path="url(#clipPath7638)"
         id="g45"
         transform="matrix(0.352778,0,0,0.352778,-0.0937066,0.0422892)">
        <g
           fill="#000000"
           fill-opacity="1"
           id="g43">
          <g
             id="use41"
             transform="translate(29.812,10.096)">
            <path
               d="m 2.5,-5.078125 c 0,-0.21875 -0.015625,-0.21875 -0.234375,-0.21875 -0.328125,0.3125 -0.75,0.5 -1.5,0.5 v 0.265625 c 0.21875,0 0.640625,0 1.109375,-0.203125 v 4.078125 c 0,0.296875 -0.03125,0.390625 -0.78125,0.390625 H 0.8125 V 0 c 0.328125,-0.03125 1.015625,-0.03125 1.375,-0.03125 0.359375,0 1.046875,0 1.375,0.03125 V -0.265625 H 3.28125 c -0.75,0 -0.78125,-0.09375 -0.78125,-0.390625 z m 0,0"
               id="path63" />
          </g>
        </g>
      </g>
    </g>
    <g
       inkscape:label=""
       transform="translate(51.735282,96.874145)"
       id="g12339">
      <g
         clip-path="url(#clipPath8602)"
         id="g12317"
         transform="matrix(0.352778,0,0,0.352778,-0.0937066,0.0422892)">
        <g
           fill="#000000"
           fill-opacity="1"
           id="g12315">
          <g
             id="g12313"
             transform="translate(0,8.302)">
            <path
               d="m 3.125,0.0625 -1.265625,-0.5 c -0.3125,-0.125 -1.015625,-0.40625 -1.015625,-1.125 0,-1.03125 1.25,-2.078125 1.5,-2.078125 0.015625,0 0.125,0.03125 0.171875,0.046875 0.3125,0.09375 0.625,0.09375 0.84375,0.09375 0.375,0 1.078125,0 1.078125,-0.34375 C 4.4375,-4.109375 4,-4.140625 3.484375,-4.140625 3.25,-4.140625 2.921875,-4.140625 2.5,-4 2.21875,-4.25 2.09375,-4.625 2.09375,-4.984375 c 0,-0.65625 0.421875,-1.59375 1.375,-2.03125 0.21875,0.25 0.5,0.25 0.75,0.25 0.296875,0 1.03125,0 1.03125,-0.34375 0,-0.296875 -0.578125,-0.296875 -0.953125,-0.296875 -0.25,0 -0.421875,0 -0.765625,0.0625 -0.046875,-0.15625 -0.0625,-0.171875 -0.0625,-0.4375 0,-0.21875 0.046875,-0.375 0.046875,-0.421875 0,-0.0625 -0.0625,-0.109375 -0.125,-0.109375 -0.1875,0 -0.1875,0.4375 -0.1875,0.53125 0,0.171875 0.015625,0.328125 0.078125,0.484375 -1.421875,0.421875 -2.0625,1.4375 -2.0625,2.21875 0,0.71875 0.484375,1.109375 0.796875,1.28125 -1.234375,0.671875 -1.75,1.890625 -1.75,2.546875 0,1.03125 0.9375,1.40625 1.375,1.578125 l 1.078125,0.4375 C 3.015625,0.875 3.5,1.078125 3.578125,1.125 c 0.125,0.078125 0.21875,0.21875 0.21875,0.421875 0,0.25 -0.1875,0.65625 -0.609375,0.65625 -0.171875,0 -0.5625,-0.046875 -1,-0.375 C 2.109375,1.75 2.09375,1.75 2.046875,1.75 c -0.0625,0 -0.125,0.046875 -0.125,0.109375 0,0.140625 0.625,0.578125 1.265625,0.578125 0.765625,0 1.234375,-0.734375 1.234375,-1.25 0,-0.375 -0.203125,-0.671875 -0.578125,-0.84375 z m 0.609375,-7.171875 c 0.203125,-0.0625 0.40625,-0.0625 0.5625,-0.0625 0.40625,0 0.4375,0.015625 0.671875,0.078125 C 4.828125,-7.046875 4.734375,-7 4.234375,-7 4,-7 3.859375,-7 3.734375,-7.109375 Z M 2.78125,-3.84375 c 0.296875,-0.0625 0.546875,-0.0625 0.703125,-0.0625 0.390625,0 0.40625,0.015625 0.671875,0.0625 -0.125,0.0625 -0.234375,0.109375 -0.75,0.109375 -0.28125,0 -0.40625,0 -0.625,-0.109375 z m 0,0"
               id="path12311" />
          </g>
        </g>
      </g>
      <g
         fill="#000000"
         fill-opacity="1"
         id="g12323"
         transform="matrix(0.352778,0,0,0.352778,-0.0937066,0.0422892)">
        <g
           id="g12321"
           transform="translate(9.0109997,8.302)">
          <path
             d="m 8.0625,-3.875 c 0.171875,0 0.390625,0 0.390625,-0.21875 C 8.453125,-4.3125 8.25,-4.3125 8.0625,-4.3125 H 1.03125 c -0.171875,0 -0.390625,0 -0.390625,0.21875 0,0.21875 0.203125,0.21875 0.390625,0.21875 z m 0,2.21875 c 0.171875,0 0.390625,0 0.390625,-0.203125 C 8.453125,-2.09375 8.25,-2.09375 8.0625,-2.09375 H 1.03125 c -0.171875,0 -0.390625,0 -0.390625,0.21875 0,0.21875 0.203125,0.21875 0.390625,0.21875 z m 0,0"
             id="path12319" />
        </g>
      </g>
      <g
         fill="#000000"
         fill-opacity="1"
         id="g12329"
         transform="matrix(0.352778,0,0,0.352778,-0.0937066,0.0422892)">
        <g
           id="g12327"
           transform="translate(21.437,8.302)">
          <path
             d="m 8.921875,-8.3125 c 0,-0.109375 -0.078125,-0.109375 -0.09375,-0.109375 -0.03125,0 -0.078125,0 -0.171875,0.125 l -0.828125,1 c -0.421875,-0.71875 -1.078125,-1.125 -1.96875,-1.125 -2.578125,0 -5.265625,2.625 -5.265625,5.4375 0,2 1.40625,3.234375 3.140625,3.234375 0.96875,0 1.796875,-0.40625 2.5,-0.984375 1.03125,-0.875 1.34375,-2.03125 1.34375,-2.140625 0,-0.09375 -0.09375,-0.09375 -0.125,-0.09375 -0.109375,0 -0.125,0.0625 -0.15625,0.109375 -0.546875,1.875 -2.15625,2.765625 -3.359375,2.765625 -1.265625,0 -2.359375,-0.8125 -2.359375,-2.515625 0,-0.375 0.125,-2.453125 1.46875,-4.03125 0.65625,-0.765625 1.78125,-1.421875 2.921875,-1.421875 1.3125,0 1.890625,1.078125 1.890625,2.296875 0,0.3125 -0.03125,0.578125 -0.03125,0.625 0,0.109375 0.125,0.109375 0.15625,0.109375 0.125,0 0.140625,-0.015625 0.1875,-0.234375 z m 0,0"
             id="path12325" />
        </g>
      </g>
      <g
         clip-path="url(#clipPath4340)"
         id="g12337"
         transform="matrix(0.352778,0,0,0.352778,-0.0937066,0.0422892)">
        <g
           fill="#000000"
           fill-opacity="1"
           id="g12335">
          <g
             id="g12333"
             transform="translate(29.812,10.096)">
            <path
               d="m 2.5,-5.078125 c 0,-0.21875 -0.015625,-0.21875 -0.234375,-0.21875 -0.328125,0.3125 -0.75,0.5 -1.5,0.5 v 0.265625 c 0.21875,0 0.640625,0 1.109375,-0.203125 v 4.078125 c 0,0.296875 -0.03125,0.390625 -0.78125,0.390625 H 0.8125 V 0 c 0.328125,-0.03125 1.015625,-0.03125 1.375,-0.03125 0.359375,0 1.046875,0 1.375,0.03125 V -0.265625 H 3.28125 c -0.75,0 -0.78125,-0.09375 -0.78125,-0.390625 z m 0,0"
               id="path12331" />
          </g>
        </g>
      </g>
    </g>
  </g>
</svg>
