<?xml version="1.0" encoding="UTF-8" standalone="no"?>
<!-- Created with Inkscape (http://www.inkscape.org/) -->

<svg
   version="1.1"
   id="svg2"
   width="511.44696"
   height="389.04022"
   viewBox="0 0 511.44696 389.04022"
   sodipodi:docname="BirimEleman.svg"
   inkscape:version="1.2.2 (1:1.2.2+202212051552+b0a8486541)"
   xmlns:inkscape="http://www.inkscape.org/namespaces/inkscape"
   xmlns:sodipodi="http://sodipodi.sourceforge.net/DTD/sodipodi-0.dtd"
   xmlns="http://www.w3.org/2000/svg"
   xmlns:svg="http://www.w3.org/2000/svg">
  <defs
     id="defs6">
    <marker
       style="overflow:visible"
       id="marker15637"
       refX="0"
       refY="0"
       orient="auto-start-reverse"
       inkscape:stockid="TriangleStart"
       markerWidth="5.3244081"
       markerHeight="6.155385"
       viewBox="0 0 5.3244081 6.1553851"
       inkscape:isstock="true"
       inkscape:collect="always"
       preserveAspectRatio="xMidYMid">
      <path
         transform="scale(0.5)"
         style="fill:context-stroke;fill-rule:evenodd;stroke:context-stroke;stroke-width:1pt"
         d="M 5.77,0 -2.88,5 V -5 Z"
         id="path15635" />
    </marker>
    <marker
       style="overflow:visible"
       id="TriangleStart"
       refX="0"
       refY="0"
       orient="auto-start-reverse"
       inkscape:stockid="TriangleStart"
       markerWidth="5.3244081"
       markerHeight="6.155385"
       viewBox="0 0 5.3244081 6.1553851"
       inkscape:isstock="true"
       inkscape:collect="always"
       preserveAspectRatio="xMidYMid">
      <path
         transform="scale(0.5)"
         style="fill:context-stroke;fill-rule:evenodd;stroke:context-stroke;stroke-width:1pt"
         d="M 5.77,0 -2.88,5 V -5 Z"
         id="path14729" />
    </marker>
    <clipPath
       clipPathUnits="userSpaceOnUse"
       id="clipPath48">
      <path
         d="m 355.578,84.789 h 4 v 7.703 h -4 z"
         id="path46" />
    </clipPath>
    <clipPath
       clipPathUnits="userSpaceOnUse"
       id="clipPath58">
      <path
         d="M 0,0 H 384 V 292 H 0 Z"
         id="path56" />
    </clipPath>
    <clipPath
       clipPathUnits="userSpaceOnUse"
       id="clipPath70">
      <path
         d="m 107.738,87.898 h 5.852 v 7.703 h -5.852 z"
         id="path68" />
    </clipPath>
    <clipPath
       clipPathUnits="userSpaceOnUse"
       id="clipPath80">
      <path
         d="M 0,0 H 384 V 292 H 0 Z"
         id="path78" />
    </clipPath>
    <clipPath
       clipPathUnits="userSpaceOnUse"
       id="clipPath92">
      <path
         d="m 108.434,250.824 h 5.852 v 7.703 h -5.852 z"
         id="path90" />
    </clipPath>
    <clipPath
       clipPathUnits="userSpaceOnUse"
       id="clipPath102">
      <path
         d="M 0,0 H 384 V 292 H 0 Z"
         id="path100" />
    </clipPath>
    <clipPath
       clipPathUnits="userSpaceOnUse"
       id="clipPath114">
      <path
         d="m 354.758,250.219 h 5.852 v 7.703 h -5.852 z"
         id="path112" />
    </clipPath>
    <clipPath
       clipPathUnits="userSpaceOnUse"
       id="clipPath124">
      <path
         d="M 0,0 H 384 V 292 H 0 Z"
         id="path122" />
    </clipPath>
    <clipPath
       clipPathUnits="userSpaceOnUse"
       id="clipPath140">
      <path
         d="m 225.414,149.043 h 6 v 7.473 h -6 z"
         id="path138" />
    </clipPath>
    <clipPath
       clipPathUnits="userSpaceOnUse"
       id="clipPath150">
      <path
         d="M 0,0 H 384 V 292 H 0 Z"
         id="path148" />
    </clipPath>
    <clipPath
       clipPathUnits="userSpaceOnUse"
       id="clipPath162">
      <path
         d="m 207.926,2.227 h 3 V 14.18 h -3 z"
         id="path160" />
    </clipPath>
    <clipPath
       clipPathUnits="userSpaceOnUse"
       id="clipPath172">
      <path
         d="M 0,0 H 384 V 292 H 0 Z"
         id="path170" />
    </clipPath>
    <clipPath
       clipPathUnits="userSpaceOnUse"
       id="clipPath192">
      <path
         d="m 238.926,2.227 h 4 V 14.18 h -4 z"
         id="path190" />
    </clipPath>
    <clipPath
       clipPathUnits="userSpaceOnUse"
       id="clipPath202">
      <path
         d="M 0,0 H 384 V 292 H 0 Z"
         id="path200" />
    </clipPath>
    <clipPath
       clipPathUnits="userSpaceOnUse"
       id="clipPath214">
      <path
         d="m 243.926,2.227 h 5 V 14.18 h -5 z"
         id="path212" />
    </clipPath>
    <clipPath
       clipPathUnits="userSpaceOnUse"
       id="clipPath224">
      <path
         d="M 0,0 H 384 V 292 H 0 Z"
         id="path222" />
    </clipPath>
    <clipPath
       clipPathUnits="userSpaceOnUse"
       id="clipPath240">
      <path
         d="m 254.926,5.227 h 6.363 v 7 h -6.363 z"
         id="path238" />
    </clipPath>
    <clipPath
       clipPathUnits="userSpaceOnUse"
       id="clipPath250">
      <path
         d="M 0,0 H 384 V 292 H 0 Z"
         id="path248" />
    </clipPath>
    <clipPath
       clipPathUnits="userSpaceOnUse"
       id="clipPath262">
      <path
         d="m 0,178.195 h 2.828 v 11.953 H 0 Z"
         id="path260" />
    </clipPath>
    <clipPath
       clipPathUnits="userSpaceOnUse"
       id="clipPath272">
      <path
         d="M 0,0 H 384 V 292 H 0 Z"
         id="path270" />
    </clipPath>
    <clipPath
       clipPathUnits="userSpaceOnUse"
       id="clipPath290">
      <path
         d="m 22.828,181.195 h 6 v 8.953 h -6 z"
         id="path288" />
    </clipPath>
    <clipPath
       clipPathUnits="userSpaceOnUse"
       id="clipPath300">
      <path
         d="M 0,0 H 384 V 292 H 0 Z"
         id="path298" />
    </clipPath>
    <clipPath
       clipPathUnits="userSpaceOnUse"
       id="clipPath312">
      <path
         d="m 28.828,178.195 h 4 v 11.953 h -4 z"
         id="path310" />
    </clipPath>
    <clipPath
       clipPathUnits="userSpaceOnUse"
       id="clipPath322">
      <path
         d="M 0,0 H 384 V 292 H 0 Z"
         id="path320" />
    </clipPath>
    <clipPath
       clipPathUnits="userSpaceOnUse"
       id="clipPath334">
      <path
         d="m 33.828,178.195 h 5 v 11.953 h -5 z"
         id="path332" />
    </clipPath>
    <clipPath
       clipPathUnits="userSpaceOnUse"
       id="clipPath344">
      <path
         d="M 0,0 H 384 V 292 H 0 Z"
         id="path342" />
    </clipPath>
    <clipPath
       clipPathUnits="userSpaceOnUse"
       id="clipPath360">
      <path
         d="m 44.828,178.195 h 5.32 v 10 h -5.32 z"
         id="path358" />
    </clipPath>
    <clipPath
       clipPathUnits="userSpaceOnUse"
       id="clipPath370">
      <path
         d="M 0,0 H 384 V 292 H 0 Z"
         id="path368" />
    </clipPath>
    <clipPath
       clipPathUnits="userSpaceOnUse"
       id="clipPath424">
      <path
         d="m 229.316,284.078 h 6 v 7.703 h -6 z"
         id="path422" />
    </clipPath>
    <clipPath
       clipPathUnits="userSpaceOnUse"
       id="clipPath434">
      <path
         d="M 0,0 H 384 V 292 H 0 Z"
         id="path432" />
    </clipPath>
    <clipPath
       clipPathUnits="userSpaceOnUse"
       id="clipPath446">
      <path
         d="m 235.316,286.078 h 5.996 v 5.703 h -5.996 z"
         id="path444" />
    </clipPath>
    <clipPath
       clipPathUnits="userSpaceOnUse"
       id="clipPath456">
      <path
         d="M 0,0 H 384 V 292 H 0 Z"
         id="path454" />
    </clipPath>
    <clipPath
       clipPathUnits="userSpaceOnUse"
       id="clipPath468">
      <path
         d="m 372.918,165.305 h 6 v 8.301 h -6 z"
         id="path466" />
    </clipPath>
    <clipPath
       clipPathUnits="userSpaceOnUse"
       id="clipPath478">
      <path
         d="M 0,0 H 384 V 292 H 0 Z"
         id="path476" />
    </clipPath>
    <clipPath
       clipPathUnits="userSpaceOnUse"
       id="clipPath490">
      <path
         d="m 378.918,165.305 h 4.828 v 8.301 h -4.828 z"
         id="path488" />
    </clipPath>
    <clipPath
       clipPathUnits="userSpaceOnUse"
       id="clipPath500">
      <path
         d="M 0,0 H 384 V 292 H 0 Z"
         id="path498" />
    </clipPath>
    <clipPath
       id="clipPath9290">
      <path
         d="m 44,8 h 5 v 6.363281 h -5 z m 0,0"
         id="path4567" />
    </clipPath>
    <clipPath
       id="clipPath2248">
      <path
         d="m 49,10 h 6 v 4.363281 h -6 z m 0,0"
         id="path1410" />
    </clipPath>
    <clipPath
       id="clipPath3062">
      <path
         d="m 44,8 h 5 v 6.363281 h -5 z m 0,0"
         id="path1944" />
    </clipPath>
    <clipPath
       id="clipPath6796">
      <path
         d="m 49,10 h 6 v 4.363281 h -6 z m 0,0"
         id="path4654" />
    </clipPath>
    <clipPath
       id="clipPath3246">
      <path
         d="m 44,8 h 5 v 6.363281 h -5 z m 0,0"
         id="path1855" />
    </clipPath>
    <clipPath
       id="clipPath8402">
      <path
         d="m 49,10 h 6 v 4.363281 h -6 z m 0,0"
         id="path6435" />
    </clipPath>
    <clipPath
       id="clipPath5621">
      <path
         d="M 0,1 H 9 V 9.773438 H 0 Z m 0,0"
         id="path1199" />
    </clipPath>
    <clipPath
       id="clipPath4194">
      <path
         d="m 24,1 h 8.71875 V 9.773438 H 24 Z m 0,0"
         id="path1396" />
    </clipPath>
    <clipPath
       id="clipPath4133">
      <path
         d="M 31,4 H 41.867188 V 9.964844 H 31 Z m 0,0"
         id="path4912" />
    </clipPath>
    <clipPath
       id="clipPath629">
      <path
         d="m 31,6 h 9 v 3.964844 h -9 z m 0,0"
         id="path957" />
    </clipPath>
    <clipPath
       id="clipPath3957">
      <path
         d="M 0,0 H 7.964844 V 8.167969 H 0 Z m 0,0"
         id="path4003" />
    </clipPath>
    <clipPath
       id="clipPath2349">
      <path
         d="M 0,0 H 10.621094 V 8.167969 H 0 Z m 0,0"
         id="path12" />
    </clipPath>
    <clipPath
       id="clipPath5291">
      <path
         d="M 0,0 H 10 V 8.167969 H 0 Z m 0,0"
         id="path943" />
    </clipPath>
    <marker
       style="overflow:visible"
       id="TriangleStart-3"
       refX="0"
       refY="0"
       orient="auto-start-reverse"
       inkscape:stockid="TriangleStart"
       markerWidth="5.3244081"
       markerHeight="6.155385"
       viewBox="0 0 5.3244081 6.1553851"
       inkscape:isstock="true"
       inkscape:collect="always"
       preserveAspectRatio="xMidYMid">
      <path
         transform="scale(0.5)"
         style="fill:context-stroke;fill-rule:evenodd;stroke:context-stroke;stroke-width:1pt"
         d="M 5.77,0 -2.88,5 V -5 Z"
         id="path14729-6" />
    </marker>
    <marker
       style="overflow:visible"
       id="TriangleStart-3-5"
       refX="0"
       refY="0"
       orient="auto-start-reverse"
       inkscape:stockid="TriangleStart"
       markerWidth="5.3244081"
       markerHeight="6.155385"
       viewBox="0 0 5.3244081 6.1553851"
       inkscape:isstock="true"
       inkscape:collect="always"
       preserveAspectRatio="xMidYMid">
      <path
         transform="scale(0.5)"
         style="fill:context-stroke;fill-rule:evenodd;stroke:context-stroke;stroke-width:1pt"
         d="M 5.77,0 -2.88,5 V -5 Z"
         id="path14729-6-3" />
    </marker>
    <clipPath
       id="clipPath699">
      <path
         d="m 14,8 h 4 v 2.335938 h -4 z m 0,0"
         id="path7881" />
    </clipPath>
    <clipPath
       id="clipPath2258">
      <path
         d="m 11,8 h 4 v 2.335938 h -4 z m 0,0"
         id="path963" />
    </clipPath>
    <marker
       style="overflow:visible"
       id="TriangleStart-3-5-1"
       refX="0"
       refY="0"
       orient="auto-start-reverse"
       inkscape:stockid="TriangleStart"
       markerWidth="5.3244081"
       markerHeight="6.155385"
       viewBox="0 0 5.3244081 6.1553851"
       inkscape:isstock="true"
       inkscape:collect="always"
       preserveAspectRatio="xMidYMid">
      <path
         transform="scale(0.5)"
         style="fill:context-stroke;fill-rule:evenodd;stroke:context-stroke;stroke-width:1pt"
         d="M 5.77,0 -2.88,5 V -5 Z"
         id="path14729-6-3-2" />
    </marker>
    <clipPath
       id="clipPath6670">
      <path
         d="M 0,0 H 6 V 7.472656 H 0 Z m 0,0"
         id="path3914" />
    </clipPath>
    <clipPath
       id="clipPath2628">
      <path
         d="m 5,3 h 5 V 7.472656 H 5 Z m 0,0"
         id="path3177" />
    </clipPath>
    <clipPath
       id="clipPath6264">
      <path
         d="m 0,3 h 6 v 7.628906 H 0 Z m 0,0"
         id="path3866" />
    </clipPath>
    <clipPath
       id="clipPath8429">
      <path
         d="m 5,6 h 5 v 4.628906 H 5 Z m 0,0"
         id="path6356" />
    </clipPath>
    <clipPath
       id="clipPath9864">
      <path
         d="M 25,0 H 37 V 10.628906 H 25 Z m 0,0"
         id="path2718" />
    </clipPath>
    <clipPath
       id="clipPath6149">
      <path
         d="m 36,6 h 5 v 4.628906 h -5 z m 0,0"
         id="path9099" />
    </clipPath>
    <clipPath
       id="clipPath2459">
      <path
         d="m 5,6 h 5 v 5.644531 H 5 Z m 0,0"
         id="path4847" />
    </clipPath>
    <clipPath
       id="clipPath5702">
      <path
         d="m 36,6 h 4.820312 v 5.644531 H 36 Z m 0,0"
         id="path7586" />
    </clipPath>
    <clipPath
       id="clipPath4884">
      <path
         d="m 5,3 h 5 V 8.488281 H 5 Z m 0,0"
         id="path1871" />
    </clipPath>
    <clipPath
       id="clipPath3208">
      <path
         d="M 0,0 H 12 V 8.300781 H 0 Z m 0,0"
         id="path3041" />
    </clipPath>
    <clipPath
       id="clipPath942">
      <path
         d="M 0,0 H 12.734375 V 8.300781 H 0 Z m 0,0"
         id="path6839" />
    </clipPath>
    <clipPath
       id="clipPath646">
      <path
         d="M 0,0 H 12 V 10.628906 H 0 Z m 0,0"
         id="path6523" />
    </clipPath>
    <clipPath
       id="clipPath7261">
      <path
         d="m 41,5 h 13 v 7.308594 H 41 Z m 0,0"
         id="path275" />
    </clipPath>
    <clipPath
       id="clipPath6385">
      <path
         d="m 54,5 h 8 v 7.308594 h -8 z m 0,0"
         id="path9125" />
    </clipPath>
    <clipPath
       id="clipPath8829">
      <path
         d="m 7,0 h 4 V 11.953125 H 7 Z m 0,0"
         id="path1164" />
    </clipPath>
    <clipPath
       id="clipPath3501">
      <path
         d="m 50,0 h 4 v 11.953125 h -4 z m 0,0"
         id="path3503" />
    </clipPath>
  </defs>
  <sodipodi:namedview
     id="namedview4"
     pagecolor="#ffffff"
     bordercolor="#000000"
     borderopacity="0.25"
     inkscape:showpageshadow="2"
     inkscape:pageopacity="0.0"
     inkscape:pagecheckerboard="0"
     inkscape:deskcolor="#d1d1d1"
     showgrid="false"
     inkscape:zoom="2"
     inkscape:cx="157.25"
     inkscape:cy="189.75"
     inkscape:window-width="1846"
     inkscape:window-height="1016"
     inkscape:window-x="0"
     inkscape:window-y="0"
     inkscape:window-maximized="1"
     inkscape:current-layer="g10">
    <inkscape:page
       x="0"
       y="0"
       id="page8"
       width="511.44696"
       height="389.04022"
       inkscape:export-filename="BirimEleman.png"
       inkscape:export-xdpi="300"
       inkscape:export-ydpi="300" />
  </sodipodi:namedview>
  <g
     id="g10"
     inkscape:groupmode="layer"
     inkscape:label="Page 1"
     transform="matrix(1.33333 0 0 1.33333 0 1.43927e-05)">
    <g
       id="g12"
       transform="translate(-14.530574,6.0951462)">
      <g
         id="g26" />
    </g>
    <g
       id="g64" />
    <g
       id="g418" />
    <g
       id="g440" />
    <g
       id="g462" />
    <g
       id="g5482"
       transform="translate(-51.843936,10.689935)">
      <path
         style="fill:#f9f9f9;stroke:#000000;stroke-width:0.850395"
         d="M 124.92953,76.960977 136.16077,61.359973 H 295.40993 V 176.14378"
         id="path2436"
         sodipodi:nodetypes="cccc" />
      <rect
         style="fill:#f9f9f9;stroke:#000000;stroke-width:0.850395"
         id="rect2380"
         width="160.10968"
         height="113.92456"
         x="124.88252"
         y="77.569183" />
      <path
         style="fill:#f9f9f9;stroke:#000000;stroke-width:0.850395"
         d="M 284.80706,77.587986 295.47328,61.494304"
         id="path2564"
         sodipodi:nodetypes="cc" />
      <path
         style="fill:#f9f9f9;stroke:#000000;stroke-width:0.850395"
         d="m 285.33391,191.82136 c 9.93766,-16.11029 9.8388,-15.88767 9.8388,-15.88767"
         id="path2566"
         sodipodi:nodetypes="cc" />
    </g>
    <path
       style="fill:#f384ff;fill-opacity:1;stroke:#000000;stroke-width:0.750002;stroke-dasharray:none;marker-end:url(#TriangleStart)"
       d="m 159.84105,65.619914 c 0,-14.435148 0,-14.435148 0,-14.435148"
       id="path14536" />
    <path
       style="fill:#f384ff;fill-opacity:1;stroke:#000000;stroke-width:0.750002;stroke-dasharray:none;marker-end:url(#TriangleStart-3)"
       d="m 156.5731,226.11556 c 0,-14.43515 0,-14.43515 0,-14.43515"
       id="path14536-7" />
    <path
       style="fill:#f384ff;fill-opacity:1;stroke:#000000;stroke-width:0.750002;stroke-dasharray:none;marker-end:url(#TriangleStart-3-5)"
       d="m 251.47191,140.1815 c 14.43515,0 14.43515,0 14.43515,0"
       id="path14536-7-5" />
    <path
       style="fill:#f384ff;fill-opacity:1;stroke:#000000;stroke-width:0.750002;stroke-dasharray:none;marker-end:url(#TriangleStart-3-5-1)"
       d="m 46.758532,144.14034 c 14.43515,0 14.43515,0 14.43515,0"
       id="path14536-7-5-7" />
    <path
       style="fill:none;fill-opacity:1;stroke:#000000;stroke-width:0.750002;stroke-dasharray:none;marker-end:url(#marker15637)"
       d="m 174.37438,162.19477 c 21.04184,95.89716 39.03408,3.72518 73.1153,86.9381"
       id="path15457"
       sodipodi:nodetypes="cc" />
    <g
       inkscape:label=""
       transform="matrix(0.750002,0,0,0.750002,29.119907,139.41553)"
       id="g21171">
      <g
         id="surface2"
         transform="matrix(1.33333,0,0,1.33333,-0.625,0.158167)">
        <g
           clip-path="url(#clipPath6670)"
           clip-rule="nonzero"
           id="g28">
          <g
             style="fill:#000000;fill-opacity:1"
             id="g21163">
            <g
               id="use24"
               transform="translate(0,5.1469998)">
              <path
                 style="stroke:none"
                 d="m 5.265625,-5.15625 c 0,-0.0625 -0.046875,-0.109375 -0.109375,-0.109375 -0.09375,0 -0.546875,0.4375 -0.78125,0.859375 -0.21875,-0.546875 -0.578125,-0.859375 -1.09375,-0.859375 -1.359375,0 -2.8125,1.734375 -2.8125,3.515625 0,1.171875 0.6875,1.875 1.5,1.875 0.640625,0 1.15625,-0.484375 1.40625,-0.765625 L 3.390625,-0.625 2.9375,1.171875 2.828125,1.609375 c -0.109375,0.34375 -0.28125,0.34375 -0.84375,0.359375 -0.125,0 -0.25,0 -0.25,0.234375 0,0.078125 0.078125,0.109375 0.15625,0.109375 0.171875,0 0.375,-0.015625 0.546875,-0.015625 h 1.21875 c 0.1875,0 0.390625,0.015625 0.5625,0.015625 0.078125,0 0.21875,0 0.21875,-0.21875 0,-0.125 -0.09375,-0.125 -0.28125,-0.125 -0.5625,0 -0.59375,-0.078125 -0.59375,-0.171875 0,-0.0625 0.015625,-0.078125 0.046875,-0.234375 z m -1.6875,3.734375 C 3.53125,-1.21875 3.53125,-1.1875 3.359375,-0.96875 3.09375,-0.640625 2.5625,-0.125 2.015625,-0.125 1.515625,-0.125 1.25,-0.5625 1.25,-1.265625 c 0,-0.65625 0.359375,-2 0.59375,-2.5 0.40625,-0.84375 0.96875,-1.265625 1.4375,-1.265625 0.78125,0 0.9375,0.984375 0.9375,1.078125 0,0.015625 -0.03125,0.15625 -0.046875,0.1875 z m 0,0"
                 id="path41" />
            </g>
          </g>
        </g>
        <g
           clip-path="url(#clipPath2628)"
           clip-rule="nonzero"
           id="g34">
          <g
             style="fill:#000000;fill-opacity:1"
             id="g32">
            <g
               id="use30"
               transform="translate(5.1900001,6.941)">
              <path
                 style="stroke:none"
                 d="M 4,-3.171875 C 3.640625,-3.09375 3.625,-2.78125 3.625,-2.75 c 0,0.171875 0.140625,0.296875 0.3125,0.296875 0.171875,0 0.4375,-0.140625 0.4375,-0.484375 0,-0.453125 -0.5,-0.578125 -0.796875,-0.578125 C 3.21875,-3.515625 2.90625,-3.25 2.71875,-2.9375 2.546875,-3.359375 2.140625,-3.515625 1.8125,-3.515625 c -0.875,0 -1.359375,1 -1.359375,1.21875 0,0.078125 0.0625,0.109375 0.125,0.109375 0.09375,0 0.109375,-0.046875 0.125,-0.140625 0.1875,-0.578125 0.671875,-0.96875 1.078125,-0.96875 0.3125,0 0.46875,0.234375 0.46875,0.515625 C 2.25,-2.625 2.15625,-2.25 2.09375,-2 c -0.0625,0.234375 -0.234375,0.9375 -0.28125,1.09375 -0.109375,0.421875 -0.390625,0.765625 -0.75,0.765625 -0.03125,0 -0.234375,0 -0.40625,-0.109375 0.359375,-0.09375 0.359375,-0.421875 0.359375,-0.4375 0,-0.1875 -0.140625,-0.296875 -0.3125,-0.296875 -0.21875,0 -0.453125,0.1875 -0.453125,0.484375 0,0.375 0.390625,0.578125 0.796875,0.578125 0.421875,0 0.71875,-0.3125 0.859375,-0.578125 0.1875,0.390625 0.546875,0.578125 0.9375,0.578125 0.859375,0 1.34375,-1 1.34375,-1.21875 C 4.1875,-1.21875 4.125,-1.25 4.0625,-1.25 c -0.09375,0 -0.109375,0.0625 -0.140625,0.140625 -0.15625,0.53125 -0.609375,0.96875 -1.0625,0.96875 -0.265625,0 -0.453125,-0.171875 -0.453125,-0.515625 0,-0.15625 0.046875,-0.34375 0.15625,-0.78125 0.046875,-0.25 0.21875,-0.9375 0.265625,-1.09375 0.109375,-0.421875 0.390625,-0.765625 0.75,-0.765625 0.046875,0 0.25,0 0.421875,0.125 z m 0,0"
                 id="path45" />
            </g>
          </g>
        </g>
      </g>
    </g>
    <g
       inkscape:label=""
       transform="matrix(0.750002,0,0,0.750002,274.89933,134.49364)"
       id="g21655">
      <g
         id="g21653"
         transform="matrix(1.33333,0,0,1.33333,-0.625,-0.0068334)">
        <g
           clip-path="url(#clipPath6264)"
           clip-rule="nonzero"
           id="g43">
          <g
             style="fill:#000000;fill-opacity:1"
             id="g41">
            <g
               id="use39"
               transform="translate(0,8.302)">
              <path
                 style="stroke:none"
                 d="m 5.265625,-5.15625 c 0,-0.0625 -0.046875,-0.109375 -0.109375,-0.109375 -0.09375,0 -0.546875,0.4375 -0.78125,0.859375 -0.21875,-0.546875 -0.578125,-0.859375 -1.09375,-0.859375 -1.359375,0 -2.8125,1.734375 -2.8125,3.515625 0,1.171875 0.6875,1.875 1.5,1.875 0.640625,0 1.15625,-0.484375 1.40625,-0.765625 L 3.390625,-0.625 2.9375,1.171875 2.828125,1.609375 c -0.109375,0.34375 -0.28125,0.34375 -0.84375,0.359375 -0.125,0 -0.25,0 -0.25,0.234375 0,0.078125 0.078125,0.109375 0.15625,0.109375 0.171875,0 0.375,-0.015625 0.546875,-0.015625 h 1.21875 c 0.1875,0 0.390625,0.015625 0.5625,0.015625 0.078125,0 0.21875,0 0.21875,-0.21875 0,-0.125 -0.09375,-0.125 -0.28125,-0.125 -0.5625,0 -0.59375,-0.078125 -0.59375,-0.171875 0,-0.0625 0.015625,-0.078125 0.046875,-0.234375 z m -1.6875,3.734375 C 3.53125,-1.21875 3.53125,-1.1875 3.359375,-0.96875 3.09375,-0.640625 2.5625,-0.125 2.015625,-0.125 1.515625,-0.125 1.25,-0.5625 1.25,-1.265625 c 0,-0.65625 0.359375,-2 0.59375,-2.5 0.40625,-0.84375 0.96875,-1.265625 1.4375,-1.265625 0.78125,0 0.9375,0.984375 0.9375,1.078125 0,0.015625 -0.03125,0.15625 -0.046875,0.1875 z m 0,0"
                 id="path74" />
            </g>
          </g>
        </g>
        <g
           clip-path="url(#clipPath8429)"
           clip-rule="nonzero"
           id="g49">
          <g
             style="fill:#000000;fill-opacity:1"
             id="g47">
            <g
               id="use45"
               transform="translate(5.1900001,10.096)">
              <path
                 style="stroke:none"
                 d="M 4,-3.171875 C 3.640625,-3.09375 3.625,-2.78125 3.625,-2.75 c 0,0.171875 0.140625,0.296875 0.3125,0.296875 0.171875,0 0.4375,-0.140625 0.4375,-0.484375 0,-0.453125 -0.5,-0.578125 -0.796875,-0.578125 C 3.21875,-3.515625 2.90625,-3.25 2.71875,-2.9375 2.546875,-3.359375 2.140625,-3.515625 1.8125,-3.515625 c -0.875,0 -1.359375,1 -1.359375,1.21875 0,0.078125 0.0625,0.109375 0.125,0.109375 0.09375,0 0.109375,-0.046875 0.125,-0.140625 0.1875,-0.578125 0.671875,-0.96875 1.078125,-0.96875 0.3125,0 0.46875,0.234375 0.46875,0.515625 C 2.25,-2.625 2.15625,-2.25 2.09375,-2 c -0.0625,0.234375 -0.234375,0.9375 -0.28125,1.09375 -0.109375,0.421875 -0.390625,0.765625 -0.75,0.765625 -0.03125,0 -0.234375,0 -0.40625,-0.109375 0.359375,-0.09375 0.359375,-0.421875 0.359375,-0.4375 0,-0.1875 -0.140625,-0.296875 -0.3125,-0.296875 -0.21875,0 -0.453125,0.1875 -0.453125,0.484375 0,0.375 0.390625,0.578125 0.796875,0.578125 0.421875,0 0.71875,-0.3125 0.859375,-0.578125 0.1875,0.390625 0.546875,0.578125 0.9375,0.578125 0.859375,0 1.34375,-1 1.34375,-1.21875 C 4.1875,-1.21875 4.125,-1.25 4.0625,-1.25 c -0.09375,0 -0.109375,0.0625 -0.140625,0.140625 -0.15625,0.53125 -0.609375,0.96875 -1.0625,0.96875 -0.265625,0 -0.453125,-0.171875 -0.453125,-0.515625 0,-0.15625 0.046875,-0.34375 0.15625,-0.78125 0.046875,-0.25 0.21875,-0.9375 0.265625,-1.09375 0.109375,-0.421875 0.390625,-0.765625 0.75,-0.765625 0.046875,0 0.25,0 0.421875,0.125 z m 0,0"
                 id="path21634" />
            </g>
          </g>
        </g>
        <g
           style="fill:#000000;fill-opacity:1"
           id="g53">
          <g
             id="use51"
             transform="translate(13.112,8.302)">
            <path
               style="stroke:none"
               d="M 4.765625,-2.765625 H 8.0625 c 0.171875,0 0.390625,0 0.390625,-0.203125 0,-0.234375 -0.203125,-0.234375 -0.390625,-0.234375 H 4.765625 V -6.5 c 0,-0.171875 0,-0.390625 -0.21875,-0.390625 -0.21875,0 -0.21875,0.203125 -0.21875,0.390625 v 3.296875 H 1.03125 c -0.171875,0 -0.390625,0 -0.390625,0.21875 0,0.21875 0.203125,0.21875 0.390625,0.21875 H 4.328125 V 0.53125 c 0,0.171875 0,0.390625 0.21875,0.390625 0.21875,0 0.21875,-0.203125 0.21875,-0.390625 z m 0,0"
               id="path82" />
          </g>
        </g>
        <g
           clip-path="url(#clipPath9864)"
           clip-rule="nonzero"
           id="g61">
          <g
             style="fill:#000000;fill-opacity:1"
             id="g59">
            <g
               id="use55"
               transform="translate(24.872999,8.302)">
              <path
                 style="stroke:none"
                 d="m 6.015625,-8 c 0.015625,-0.046875 0.03125,-0.109375 0.03125,-0.171875 0,-0.125 -0.125,-0.125 -0.140625,-0.125 -0.015625,0 -0.59375,0.046875 -0.65625,0.0625 -0.203125,0.015625 -0.390625,0.03125 -0.59375,0.046875 -0.3125,0.03125 -0.390625,0.03125 -0.390625,0.25 0,0.125 0.09375,0.125 0.265625,0.125 0.578125,0 0.59375,0.109375 0.59375,0.21875 0,0.078125 -0.015625,0.171875 -0.03125,0.203125 l -0.734375,2.90625 c -0.125,-0.3125 -0.453125,-0.78125 -1.078125,-0.78125 -1.34375,0 -2.796875,1.734375 -2.796875,3.515625 0,1.171875 0.6875,1.875 1.5,1.875 0.65625,0 1.21875,-0.515625 1.546875,-0.90625 0.125,0.703125 0.6875,0.90625 1.046875,0.90625 0.359375,0 0.640625,-0.21875 0.859375,-0.65625 0.1875,-0.40625 0.359375,-1.125 0.359375,-1.171875 0,-0.0625 -0.046875,-0.109375 -0.125,-0.109375 C 5.5625,-1.8125 5.5625,-1.75 5.515625,-1.578125 5.328125,-0.875 5.109375,-0.125 4.609375,-0.125 4.265625,-0.125 4.25,-0.4375 4.25,-0.671875 c 0,-0.046875 0,-0.296875 0.078125,-0.625 z M 3.59375,-1.421875 C 3.53125,-1.21875 3.53125,-1.1875 3.375,-0.96875 3.109375,-0.640625 2.578125,-0.125 2.015625,-0.125 1.53125,-0.125 1.25,-0.5625 1.25,-1.265625 c 0,-0.65625 0.375,-2 0.609375,-2.5 0.40625,-0.84375 0.96875,-1.265625 1.421875,-1.265625 0.796875,0 0.953125,0.984375 0.953125,1.078125 0,0.015625 -0.03125,0.15625 -0.046875,0.1875 z m 0,0"
                 id="path86" />
            </g>
            <g
               id="use57"
               transform="translate(30.955807,8.302)">
              <path
                 style="stroke:none"
                 d="m 5.265625,-5.15625 c 0,-0.0625 -0.046875,-0.109375 -0.109375,-0.109375 -0.09375,0 -0.546875,0.4375 -0.78125,0.859375 -0.21875,-0.546875 -0.578125,-0.859375 -1.09375,-0.859375 -1.359375,0 -2.8125,1.734375 -2.8125,3.515625 0,1.171875 0.6875,1.875 1.5,1.875 0.640625,0 1.15625,-0.484375 1.40625,-0.765625 L 3.390625,-0.625 2.9375,1.171875 2.828125,1.609375 c -0.109375,0.34375 -0.28125,0.34375 -0.84375,0.359375 -0.125,0 -0.25,0 -0.25,0.234375 0,0.078125 0.078125,0.109375 0.15625,0.109375 0.171875,0 0.375,-0.015625 0.546875,-0.015625 h 1.21875 c 0.1875,0 0.390625,0.015625 0.5625,0.015625 0.078125,0 0.21875,0 0.21875,-0.21875 0,-0.125 -0.09375,-0.125 -0.28125,-0.125 -0.5625,0 -0.59375,-0.078125 -0.59375,-0.171875 0,-0.0625 0.015625,-0.078125 0.046875,-0.234375 z m -1.6875,3.734375 C 3.53125,-1.21875 3.53125,-1.1875 3.359375,-0.96875 3.09375,-0.640625 2.5625,-0.125 2.015625,-0.125 1.515625,-0.125 1.25,-0.5625 1.25,-1.265625 c 0,-0.65625 0.359375,-2 0.59375,-2.5 0.40625,-0.84375 0.96875,-1.265625 1.4375,-1.265625 0.78125,0 0.9375,0.984375 0.9375,1.078125 0,0.015625 -0.03125,0.15625 -0.046875,0.1875 z m 0,0"
                 id="path21644" />
            </g>
          </g>
        </g>
        <g
           clip-path="url(#clipPath6149)"
           clip-rule="nonzero"
           id="g67">
          <g
             style="fill:#000000;fill-opacity:1"
             id="g65">
            <g
               id="use63"
               transform="translate(36.146,10.096)">
              <path
                 style="stroke:none"
                 d="M 4,-3.171875 C 3.640625,-3.09375 3.625,-2.78125 3.625,-2.75 c 0,0.171875 0.140625,0.296875 0.3125,0.296875 0.171875,0 0.4375,-0.140625 0.4375,-0.484375 0,-0.453125 -0.5,-0.578125 -0.796875,-0.578125 C 3.21875,-3.515625 2.90625,-3.25 2.71875,-2.9375 2.546875,-3.359375 2.140625,-3.515625 1.8125,-3.515625 c -0.875,0 -1.359375,1 -1.359375,1.21875 0,0.078125 0.0625,0.109375 0.125,0.109375 0.09375,0 0.109375,-0.046875 0.125,-0.140625 0.1875,-0.578125 0.671875,-0.96875 1.078125,-0.96875 0.3125,0 0.46875,0.234375 0.46875,0.515625 C 2.25,-2.625 2.15625,-2.25 2.09375,-2 c -0.0625,0.234375 -0.234375,0.9375 -0.28125,1.09375 -0.109375,0.421875 -0.390625,0.765625 -0.75,0.765625 -0.03125,0 -0.234375,0 -0.40625,-0.109375 0.359375,-0.09375 0.359375,-0.421875 0.359375,-0.4375 0,-0.1875 -0.140625,-0.296875 -0.3125,-0.296875 -0.21875,0 -0.453125,0.1875 -0.453125,0.484375 0,0.375 0.390625,0.578125 0.796875,0.578125 0.421875,0 0.71875,-0.3125 0.859375,-0.578125 0.1875,0.390625 0.546875,0.578125 0.9375,0.578125 0.859375,0 1.34375,-1 1.34375,-1.21875 C 4.1875,-1.21875 4.125,-1.25 4.0625,-1.25 c -0.09375,0 -0.109375,0.0625 -0.140625,0.140625 -0.15625,0.53125 -0.609375,0.96875 -1.0625,0.96875 -0.265625,0 -0.453125,-0.171875 -0.453125,-0.515625 0,-0.15625 0.046875,-0.34375 0.15625,-0.78125 0.046875,-0.25 0.21875,-0.9375 0.265625,-1.09375 0.109375,-0.421875 0.390625,-0.765625 0.75,-0.765625 0.046875,0 0.25,0 0.421875,0.125 z m 0,0"
                 id="path94" />
            </g>
          </g>
        </g>
      </g>
    </g>
    <g
       inkscape:label=""
       transform="matrix(0.750002,0,0,0.750002,142.23103,31.904521)"
       id="g22212">
      <g
         id="g22210"
         transform="matrix(1.33333,0,0,1.33333,-0.625,-0.0068334)">
        <g
           style="fill:#000000;fill-opacity:1"
           id="g35">
          <g
             id="use33"
             transform="translate(0,8.302)">
            <path
               style="stroke:none"
               d="m 5.265625,-5.15625 c 0,-0.0625 -0.046875,-0.109375 -0.109375,-0.109375 -0.09375,0 -0.546875,0.4375 -0.78125,0.859375 -0.21875,-0.546875 -0.578125,-0.859375 -1.09375,-0.859375 -1.359375,0 -2.8125,1.734375 -2.8125,3.515625 0,1.171875 0.6875,1.875 1.5,1.875 0.640625,0 1.15625,-0.484375 1.40625,-0.765625 L 3.390625,-0.625 2.9375,1.171875 2.828125,1.609375 c -0.109375,0.34375 -0.28125,0.34375 -0.84375,0.359375 -0.125,0 -0.25,0 -0.25,0.234375 0,0.078125 0.078125,0.109375 0.15625,0.109375 0.171875,0 0.375,-0.015625 0.546875,-0.015625 h 1.21875 c 0.1875,0 0.390625,0.015625 0.5625,0.015625 0.078125,0 0.21875,0 0.21875,-0.21875 0,-0.125 -0.09375,-0.125 -0.28125,-0.125 -0.5625,0 -0.59375,-0.078125 -0.59375,-0.171875 0,-0.0625 0.015625,-0.078125 0.046875,-0.234375 z m -1.6875,3.734375 C 3.53125,-1.21875 3.53125,-1.1875 3.359375,-0.96875 3.09375,-0.640625 2.5625,-0.125 2.015625,-0.125 1.515625,-0.125 1.25,-0.5625 1.25,-1.265625 c 0,-0.65625 0.359375,-2 0.59375,-2.5 0.40625,-0.84375 0.96875,-1.265625 1.4375,-1.265625 0.78125,0 0.9375,0.984375 0.9375,1.078125 0,0.015625 -0.03125,0.15625 -0.046875,0.1875 z m 0,0"
               id="path64" />
          </g>
        </g>
        <g
           clip-path="url(#clipPath2459)"
           clip-rule="nonzero"
           id="g22196">
          <g
             style="fill:#000000;fill-opacity:1"
             id="g39">
            <g
               id="use37"
               transform="translate(5.1900001,10.095)">
              <path
                 style="stroke:none"
                 d="m 4.125,-3 c 0.03125,-0.109375 0.03125,-0.125 0.03125,-0.1875 0,-0.203125 -0.15625,-0.25 -0.25,-0.25 -0.046875,0 -0.21875,0.015625 -0.328125,0.21875 -0.015625,0.046875 -0.09375,0.328125 -0.125,0.5 L 2.96875,-0.8125 c 0,0.03125 -0.34375,0.671875 -0.921875,0.671875 -0.390625,0 -0.53125,-0.296875 -0.53125,-0.640625 0,-0.46875 0.265625,-1.171875 0.453125,-1.640625 C 2.046875,-2.625 2.078125,-2.6875 2.078125,-2.84375 c 0,-0.4375 -0.359375,-0.671875 -0.71875,-0.671875 -0.796875,0 -1.125,1.125 -1.125,1.21875 0,0.078125 0.0625,0.109375 0.125,0.109375 0.109375,0 0.109375,-0.046875 0.140625,-0.125 0.203125,-0.703125 0.546875,-0.984375 0.828125,-0.984375 0.125,0 0.1875,0.078125 0.1875,0.265625 0,0.171875 -0.0625,0.359375 -0.109375,0.5 -0.328125,0.84375 -0.46875,1.25 -0.46875,1.625 0,0.78125 0.59375,0.984375 1.0625,0.984375 0.375,0 0.640625,-0.171875 0.84375,-0.34375 -0.125,0.4375 -0.203125,0.75 -0.5,1.140625 C 2.078125,1.1875 1.765625,1.40625 1.40625,1.40625 1.265625,1.40625 0.96875,1.375 0.8125,1.140625 1.234375,1.109375 1.265625,0.75 1.265625,0.703125 c 0,-0.1875 -0.15625,-0.296875 -0.3125,-0.296875 C 0.765625,0.40625 0.5,0.546875 0.5,0.9375 0.5,1.3125 0.84375,1.625 1.40625,1.625 2.21875,1.625 3.125,0.96875 3.375,0.015625 Z m 0,0"
                 id="path22192" />
            </g>
          </g>
        </g>
        <g
           style="fill:#000000;fill-opacity:1"
           id="g45">
          <g
             id="use43"
             transform="translate(12.817,8.302)">
            <path
               style="stroke:none"
               d="M 4.765625,-2.765625 H 8.0625 c 0.171875,0 0.390625,0 0.390625,-0.203125 0,-0.234375 -0.203125,-0.234375 -0.390625,-0.234375 H 4.765625 V -6.5 c 0,-0.171875 0,-0.390625 -0.21875,-0.390625 -0.21875,0 -0.21875,0.203125 -0.21875,0.390625 v 3.296875 H 1.03125 c -0.171875,0 -0.390625,0 -0.390625,0.21875 0,0.21875 0.203125,0.21875 0.390625,0.21875 H 4.328125 V 0.53125 c 0,0.171875 0,0.390625 0.21875,0.390625 0.21875,0 0.21875,-0.203125 0.21875,-0.390625 z m 0,0"
               id="path72" />
          </g>
        </g>
        <g
           style="fill:#000000;fill-opacity:1"
           id="g51">
          <g
             id="use47"
             transform="translate(24.577999,8.302)">
            <path
               style="stroke:none"
               d="m 6.015625,-8 c 0.015625,-0.046875 0.03125,-0.109375 0.03125,-0.171875 0,-0.125 -0.125,-0.125 -0.140625,-0.125 -0.015625,0 -0.59375,0.046875 -0.65625,0.0625 -0.203125,0.015625 -0.390625,0.03125 -0.59375,0.046875 -0.3125,0.03125 -0.390625,0.03125 -0.390625,0.25 0,0.125 0.09375,0.125 0.265625,0.125 0.578125,0 0.59375,0.109375 0.59375,0.21875 0,0.078125 -0.015625,0.171875 -0.03125,0.203125 l -0.734375,2.90625 c -0.125,-0.3125 -0.453125,-0.78125 -1.078125,-0.78125 -1.34375,0 -2.796875,1.734375 -2.796875,3.515625 0,1.171875 0.6875,1.875 1.5,1.875 0.65625,0 1.21875,-0.515625 1.546875,-0.90625 0.125,0.703125 0.6875,0.90625 1.046875,0.90625 0.359375,0 0.640625,-0.21875 0.859375,-0.65625 0.1875,-0.40625 0.359375,-1.125 0.359375,-1.171875 0,-0.0625 -0.046875,-0.109375 -0.125,-0.109375 C 5.5625,-1.8125 5.5625,-1.75 5.515625,-1.578125 5.328125,-0.875 5.109375,-0.125 4.609375,-0.125 4.265625,-0.125 4.25,-0.4375 4.25,-0.671875 c 0,-0.046875 0,-0.296875 0.078125,-0.625 z M 3.59375,-1.421875 C 3.53125,-1.21875 3.53125,-1.1875 3.375,-0.96875 3.109375,-0.640625 2.578125,-0.125 2.015625,-0.125 1.53125,-0.125 1.25,-0.5625 1.25,-1.265625 c 0,-0.65625 0.375,-2 0.609375,-2.5 0.40625,-0.84375 0.96875,-1.265625 1.421875,-1.265625 0.796875,0 0.953125,0.984375 0.953125,1.078125 0,0.015625 -0.03125,0.15625 -0.046875,0.1875 z m 0,0"
               id="path76" />
          </g>
          <g
             id="use49"
             transform="translate(30.660807,8.302)">
            <path
               style="stroke:none"
               d="m 5.265625,-5.15625 c 0,-0.0625 -0.046875,-0.109375 -0.109375,-0.109375 -0.09375,0 -0.546875,0.4375 -0.78125,0.859375 -0.21875,-0.546875 -0.578125,-0.859375 -1.09375,-0.859375 -1.359375,0 -2.8125,1.734375 -2.8125,3.515625 0,1.171875 0.6875,1.875 1.5,1.875 0.640625,0 1.15625,-0.484375 1.40625,-0.765625 L 3.390625,-0.625 2.9375,1.171875 2.828125,1.609375 c -0.109375,0.34375 -0.28125,0.34375 -0.84375,0.359375 -0.125,0 -0.25,0 -0.25,0.234375 0,0.078125 0.078125,0.109375 0.15625,0.109375 0.171875,0 0.375,-0.015625 0.546875,-0.015625 h 1.21875 c 0.1875,0 0.390625,0.015625 0.5625,0.015625 0.078125,0 0.21875,0 0.21875,-0.21875 0,-0.125 -0.09375,-0.125 -0.28125,-0.125 -0.5625,0 -0.59375,-0.078125 -0.59375,-0.171875 0,-0.0625 0.015625,-0.078125 0.046875,-0.234375 z m -1.6875,3.734375 C 3.53125,-1.21875 3.53125,-1.1875 3.359375,-0.96875 3.09375,-0.640625 2.5625,-0.125 2.015625,-0.125 1.515625,-0.125 1.25,-0.5625 1.25,-1.265625 c 0,-0.65625 0.359375,-2 0.59375,-2.5 0.40625,-0.84375 0.96875,-1.265625 1.4375,-1.265625 0.78125,0 0.9375,0.984375 0.9375,1.078125 0,0.015625 -0.03125,0.15625 -0.046875,0.1875 z m 0,0"
               id="path80" />
          </g>
        </g>
        <g
           clip-path="url(#clipPath5702)"
           clip-rule="nonzero"
           id="g57">
          <g
             style="fill:#000000;fill-opacity:1"
             id="g55">
            <g
               id="use53"
               transform="translate(35.851002,10.095)">
              <path
                 style="stroke:none"
                 d="m 4.125,-3 c 0.03125,-0.109375 0.03125,-0.125 0.03125,-0.1875 0,-0.203125 -0.15625,-0.25 -0.25,-0.25 -0.046875,0 -0.21875,0.015625 -0.328125,0.21875 -0.015625,0.046875 -0.09375,0.328125 -0.125,0.5 L 2.96875,-0.8125 c 0,0.03125 -0.34375,0.671875 -0.921875,0.671875 -0.390625,0 -0.53125,-0.296875 -0.53125,-0.640625 0,-0.46875 0.265625,-1.171875 0.453125,-1.640625 C 2.046875,-2.625 2.078125,-2.6875 2.078125,-2.84375 c 0,-0.4375 -0.359375,-0.671875 -0.71875,-0.671875 -0.796875,0 -1.125,1.125 -1.125,1.21875 0,0.078125 0.0625,0.109375 0.125,0.109375 0.109375,0 0.109375,-0.046875 0.140625,-0.125 0.203125,-0.703125 0.546875,-0.984375 0.828125,-0.984375 0.125,0 0.1875,0.078125 0.1875,0.265625 0,0.171875 -0.0625,0.359375 -0.109375,0.5 -0.328125,0.84375 -0.46875,1.25 -0.46875,1.625 0,0.78125 0.59375,0.984375 1.0625,0.984375 0.375,0 0.640625,-0.171875 0.84375,-0.34375 -0.125,0.4375 -0.203125,0.75 -0.5,1.140625 C 2.078125,1.1875 1.765625,1.40625 1.40625,1.40625 1.265625,1.40625 0.96875,1.375 0.8125,1.140625 1.234375,1.109375 1.265625,0.75 1.265625,0.703125 c 0,-0.1875 -0.15625,-0.296875 -0.3125,-0.296875 C 0.765625,0.40625 0.5,0.546875 0.5,0.9375 0.5,1.3125 0.84375,1.625 1.40625,1.625 2.21875,1.625 3.125,0.96875 3.375,0.015625 Z m 0,0"
                 id="path84" />
            </g>
          </g>
        </g>
      </g>
    </g>
    <g
       inkscape:label=""
       transform="matrix(0.750002,0,0,0.750002,150.733,230.88939)"
       id="g22797">
      <g
         id="g22795"
         transform="matrix(1.33333,0,0,1.33333,-0.625,0.158167)">
        <g
           style="fill:#000000;fill-opacity:1"
           id="g23">
          <g
             id="use21"
             transform="translate(0,5.1469998)">
            <path
               style="stroke:none"
               d="m 5.265625,-5.15625 c 0,-0.0625 -0.046875,-0.109375 -0.109375,-0.109375 -0.09375,0 -0.546875,0.4375 -0.78125,0.859375 -0.21875,-0.546875 -0.578125,-0.859375 -1.09375,-0.859375 -1.359375,0 -2.8125,1.734375 -2.8125,3.515625 0,1.171875 0.6875,1.875 1.5,1.875 0.640625,0 1.15625,-0.484375 1.40625,-0.765625 L 3.390625,-0.625 2.9375,1.171875 2.828125,1.609375 c -0.109375,0.34375 -0.28125,0.34375 -0.84375,0.359375 -0.125,0 -0.25,0 -0.25,0.234375 0,0.078125 0.078125,0.109375 0.15625,0.109375 0.171875,0 0.375,-0.015625 0.546875,-0.015625 h 1.21875 c 0.1875,0 0.390625,0.015625 0.5625,0.015625 0.078125,0 0.21875,0 0.21875,-0.21875 0,-0.125 -0.09375,-0.125 -0.28125,-0.125 -0.5625,0 -0.59375,-0.078125 -0.59375,-0.171875 0,-0.0625 0.015625,-0.078125 0.046875,-0.234375 z m -1.6875,3.734375 C 3.53125,-1.21875 3.53125,-1.1875 3.359375,-0.96875 3.09375,-0.640625 2.5625,-0.125 2.015625,-0.125 1.515625,-0.125 1.25,-0.5625 1.25,-1.265625 c 0,-0.65625 0.359375,-2 0.59375,-2.5 0.40625,-0.84375 0.96875,-1.265625 1.4375,-1.265625 0.78125,0 0.9375,0.984375 0.9375,1.078125 0,0.015625 -0.03125,0.15625 -0.046875,0.1875 z m 0,0"
               id="path36" />
          </g>
        </g>
        <g
           clip-path="url(#clipPath4884)"
           clip-rule="nonzero"
           id="g29">
          <g
             style="fill:#000000;fill-opacity:1"
             id="g27">
            <g
               id="use25"
               transform="translate(5.1900001,6.9400001)">
              <path
                 style="stroke:none"
                 d="m 4.125,-3 c 0.03125,-0.109375 0.03125,-0.125 0.03125,-0.1875 0,-0.203125 -0.15625,-0.25 -0.25,-0.25 -0.046875,0 -0.21875,0.015625 -0.328125,0.21875 -0.015625,0.046875 -0.09375,0.328125 -0.125,0.5 L 2.96875,-0.8125 c 0,0.03125 -0.34375,0.671875 -0.921875,0.671875 -0.390625,0 -0.53125,-0.296875 -0.53125,-0.640625 0,-0.46875 0.265625,-1.171875 0.453125,-1.640625 C 2.046875,-2.625 2.078125,-2.6875 2.078125,-2.84375 c 0,-0.4375 -0.359375,-0.671875 -0.71875,-0.671875 -0.796875,0 -1.125,1.125 -1.125,1.21875 0,0.078125 0.0625,0.109375 0.125,0.109375 0.109375,0 0.109375,-0.046875 0.140625,-0.125 0.203125,-0.703125 0.546875,-0.984375 0.828125,-0.984375 0.125,0 0.1875,0.078125 0.1875,0.265625 0,0.171875 -0.0625,0.359375 -0.109375,0.5 -0.328125,0.84375 -0.46875,1.25 -0.46875,1.625 0,0.78125 0.59375,0.984375 1.0625,0.984375 0.375,0 0.640625,-0.171875 0.84375,-0.34375 -0.125,0.4375 -0.203125,0.75 -0.5,1.140625 C 2.078125,1.1875 1.765625,1.40625 1.40625,1.40625 1.265625,1.40625 0.96875,1.375 0.8125,1.140625 1.234375,1.109375 1.265625,0.75 1.265625,0.703125 c 0,-0.1875 -0.15625,-0.296875 -0.3125,-0.296875 C 0.765625,0.40625 0.5,0.546875 0.5,0.9375 0.5,1.3125 0.84375,1.625 1.40625,1.625 2.21875,1.625 3.125,0.96875 3.375,0.015625 Z m 0,0"
                 id="path40" />
            </g>
          </g>
        </g>
      </g>
    </g>
    <g
       inkscape:label=""
       transform="matrix(0.750002,0,0,0.750002,239.99495,196.12417)"
       id="g23389">
      <g
         id="g23387"
         transform="matrix(1.33333,0,0,1.33333,-0.645833,-0.0068334)">
        <g
           clip-path="url(#clipPath3208)"
           clip-rule="nonzero"
           id="g24">
          <g
             style="fill:#000000;fill-opacity:1"
             id="g22">
            <g
               id="use18"
               transform="translate(0,8.302)">
              <path
                 style="stroke:none"
                 d="m 6.015625,-8 c 0.015625,-0.046875 0.03125,-0.109375 0.03125,-0.171875 0,-0.125 -0.125,-0.125 -0.140625,-0.125 -0.015625,0 -0.59375,0.046875 -0.65625,0.0625 -0.203125,0.015625 -0.390625,0.03125 -0.59375,0.046875 -0.3125,0.03125 -0.390625,0.03125 -0.390625,0.25 0,0.125 0.09375,0.125 0.265625,0.125 0.578125,0 0.59375,0.109375 0.59375,0.21875 0,0.078125 -0.015625,0.171875 -0.03125,0.203125 l -0.734375,2.90625 c -0.125,-0.3125 -0.453125,-0.78125 -1.078125,-0.78125 -1.34375,0 -2.796875,1.734375 -2.796875,3.515625 0,1.171875 0.6875,1.875 1.5,1.875 0.65625,0 1.21875,-0.515625 1.546875,-0.90625 0.125,0.703125 0.6875,0.90625 1.046875,0.90625 0.359375,0 0.640625,-0.21875 0.859375,-0.65625 0.1875,-0.40625 0.359375,-1.125 0.359375,-1.171875 0,-0.0625 -0.046875,-0.109375 -0.125,-0.109375 C 5.5625,-1.8125 5.5625,-1.75 5.515625,-1.578125 5.328125,-0.875 5.109375,-0.125 4.609375,-0.125 4.265625,-0.125 4.25,-0.4375 4.25,-0.671875 c 0,-0.046875 0,-0.296875 0.078125,-0.625 z M 3.59375,-1.421875 C 3.53125,-1.21875 3.53125,-1.1875 3.375,-0.96875 3.109375,-0.640625 2.578125,-0.125 2.015625,-0.125 1.53125,-0.125 1.25,-0.5625 1.25,-1.265625 c 0,-0.65625 0.375,-2 0.609375,-2.5 0.40625,-0.84375 0.96875,-1.265625 1.421875,-1.265625 0.796875,0 0.953125,0.984375 0.953125,1.078125 0,0.015625 -0.03125,0.15625 -0.046875,0.1875 z m 0,0"
                 id="path31" />
            </g>
            <g
               id="use20"
               transform="translate(6.0828061,8.302)">
              <path
                 style="stroke:none"
                 d="m 1.515625,-0.96875 c 0.515625,-0.578125 0.9375,-0.953125 1.53125,-1.5 C 3.765625,-3.078125 4.078125,-3.375 4.25,-3.5625 5.078125,-4.390625 5.5,-5.078125 5.5,-5.171875 c 0,-0.09375 -0.09375,-0.09375 -0.125,-0.09375 -0.078125,0 -0.109375,0.046875 -0.15625,0.125 C 4.90625,-4.625 4.625,-4.375 4.3125,-4.375 c -0.25,0 -0.375,-0.109375 -0.609375,-0.390625 -0.25,-0.296875 -0.453125,-0.5 -0.796875,-0.5 -0.875,0 -1.40625,1.078125 -1.40625,1.328125 0,0.046875 0.015625,0.109375 0.125,0.109375 0.09375,0 0.109375,-0.046875 0.140625,-0.125 0.203125,-0.484375 0.78125,-0.5625 1,-0.5625 0.265625,0 0.5,0.078125 0.75,0.1875 0.453125,0.1875 0.640625,0.1875 0.765625,0.1875 0.078125,0 0.125,0 0.1875,0 C 4.078125,-3.6875 3.4375,-3.109375 2.890625,-2.625 L 1.6875,-1.5 c -0.734375,0.734375 -1.171875,1.4375 -1.171875,1.53125 0,0.0625 0.0625,0.09375 0.125,0.09375 0.078125,0 0.09375,-0.015625 0.171875,-0.15625 0.1875,-0.296875 0.578125,-0.75 1.015625,-0.75 0.25,0 0.375,0.09375 0.609375,0.390625 C 2.671875,-0.125 2.875,0.125 3.25,0.125 c 1.171875,0 1.84375,-1.53125 1.84375,-1.796875 0,-0.046875 -0.015625,-0.125 -0.140625,-0.125 -0.09375,0 -0.09375,0.046875 -0.140625,0.171875 -0.265625,0.703125 -0.96875,0.984375 -1.4375,0.984375 -0.25,0 -0.484375,-0.078125 -0.734375,-0.1875 -0.484375,-0.1875 -0.609375,-0.1875 -0.765625,-0.1875 -0.125,0 -0.25,0 -0.359375,0.046875 z m 0,0"
                 id="path35" />
            </g>
          </g>
        </g>
      </g>
    </g>
    <g
       inkscape:label=""
       transform="matrix(0.750002,0,0,0.750002,151.17099,188.08948)"
       id="g24006">
      <g
         id="g24004"
         transform="matrix(1.33333,0,0,1.33333,-0.645833,-0.0068334)">
        <g
           clip-path="url(#clipPath942)"
           clip-rule="nonzero"
           id="g24002">
          <g
             style="fill:#000000;fill-opacity:1"
             id="g24000">
            <g
               id="g23994"
               transform="translate(0,8.302)">
              <path
                 style="stroke:none"
                 d="m 6.015625,-8 c 0.015625,-0.046875 0.03125,-0.109375 0.03125,-0.171875 0,-0.125 -0.125,-0.125 -0.140625,-0.125 -0.015625,0 -0.59375,0.046875 -0.65625,0.0625 -0.203125,0.015625 -0.390625,0.03125 -0.59375,0.046875 -0.3125,0.03125 -0.390625,0.03125 -0.390625,0.25 0,0.125 0.09375,0.125 0.265625,0.125 0.578125,0 0.59375,0.109375 0.59375,0.21875 0,0.078125 -0.015625,0.171875 -0.03125,0.203125 l -0.734375,2.90625 c -0.125,-0.3125 -0.453125,-0.78125 -1.078125,-0.78125 -1.34375,0 -2.796875,1.734375 -2.796875,3.515625 0,1.171875 0.6875,1.875 1.5,1.875 0.65625,0 1.21875,-0.515625 1.546875,-0.90625 0.125,0.703125 0.6875,0.90625 1.046875,0.90625 0.359375,0 0.640625,-0.21875 0.859375,-0.65625 0.1875,-0.40625 0.359375,-1.125 0.359375,-1.171875 0,-0.0625 -0.046875,-0.109375 -0.125,-0.109375 C 5.5625,-1.8125 5.5625,-1.75 5.515625,-1.578125 5.328125,-0.875 5.109375,-0.125 4.609375,-0.125 4.265625,-0.125 4.25,-0.4375 4.25,-0.671875 c 0,-0.046875 0,-0.296875 0.078125,-0.625 z M 3.59375,-1.421875 C 3.53125,-1.21875 3.53125,-1.1875 3.375,-0.96875 3.109375,-0.640625 2.578125,-0.125 2.015625,-0.125 1.53125,-0.125 1.25,-0.5625 1.25,-1.265625 c 0,-0.65625 0.375,-2 0.609375,-2.5 0.40625,-0.84375 0.96875,-1.265625 1.421875,-1.265625 0.796875,0 0.953125,0.984375 0.953125,1.078125 0,0.015625 -0.03125,0.15625 -0.046875,0.1875 z m 0,0"
                 id="path23992" />
            </g>
            <g
               id="g23998"
               transform="translate(6.0828061,8.302)">
              <path
                 style="stroke:none"
                 d="m 5.671875,-4.875 c -0.390625,0.0625 -0.53125,0.359375 -0.53125,0.578125 0,0.296875 0.21875,0.390625 0.390625,0.390625 0.359375,0 0.609375,-0.3125 0.609375,-0.640625 0,-0.5 -0.578125,-0.71875 -1.078125,-0.71875 -0.71875,0 -1.125,0.71875 -1.234375,0.9375 -0.28125,-0.890625 -1.015625,-0.9375 -1.234375,-0.9375 -1.21875,0 -1.859375,1.5625 -1.859375,1.828125 0,0.046875 0.046875,0.109375 0.125,0.109375 0.09375,0 0.125,-0.078125 0.140625,-0.125 0.40625,-1.328125 1.21875,-1.578125 1.5625,-1.578125 0.53125,0 0.640625,0.5 0.640625,0.78125 0,0.265625 -0.078125,0.546875 -0.21875,1.125 L 2.578125,-1.5 c -0.171875,0.71875 -0.515625,1.375 -1.15625,1.375 -0.0625,0 -0.359375,0 -0.609375,-0.15625 C 1.25,-0.359375 1.34375,-0.71875 1.34375,-0.859375 1.34375,-1.09375 1.15625,-1.25 0.9375,-1.25 c -0.296875,0 -0.609375,0.265625 -0.609375,0.640625 0,0.5 0.5625,0.734375 1.078125,0.734375 0.578125,0 0.984375,-0.453125 1.234375,-0.953125 C 2.828125,-0.125 3.4375,0.125 3.875,0.125 5.09375,0.125 5.734375,-1.453125 5.734375,-1.703125 5.734375,-1.765625 5.6875,-1.8125 5.625,-1.8125 5.515625,-1.8125 5.5,-1.75 5.46875,-1.65625 5.140625,-0.609375 4.453125,-0.125 3.90625,-0.125 3.484375,-0.125 3.265625,-0.4375 3.265625,-0.921875 3.265625,-1.1875 3.3125,-1.375 3.5,-2.15625 L 3.921875,-3.796875 C 4.09375,-4.5 4.5,-5.03125 5.0625,-5.03125 c 0.015625,0 0.359375,0 0.609375,0.15625 z m 0,0"
                 id="path23996" />
            </g>
          </g>
        </g>
      </g>
    </g>
    <g
       inkscape:label=""
       transform="matrix(0.750002,0,0,0.750002,77.946201,138.30957)"
       id="g24643">
      <g
         id="g24641"
         transform="matrix(1.33333,0,0,1.33333,-0.645833,-0.0068334)">
        <g
           clip-path="url(#clipPath646)"
           clip-rule="nonzero"
           id="g24639">
          <g
             style="fill:#000000;fill-opacity:1"
             id="g24637">
            <g
               id="g24631"
               transform="translate(0,8.302)">
              <path
                 style="stroke:none"
                 d="m 6.015625,-8 c 0.015625,-0.046875 0.03125,-0.109375 0.03125,-0.171875 0,-0.125 -0.125,-0.125 -0.140625,-0.125 -0.015625,0 -0.59375,0.046875 -0.65625,0.0625 -0.203125,0.015625 -0.390625,0.03125 -0.59375,0.046875 -0.3125,0.03125 -0.390625,0.03125 -0.390625,0.25 0,0.125 0.09375,0.125 0.265625,0.125 0.578125,0 0.59375,0.109375 0.59375,0.21875 0,0.078125 -0.015625,0.171875 -0.03125,0.203125 l -0.734375,2.90625 c -0.125,-0.3125 -0.453125,-0.78125 -1.078125,-0.78125 -1.34375,0 -2.796875,1.734375 -2.796875,3.515625 0,1.171875 0.6875,1.875 1.5,1.875 0.65625,0 1.21875,-0.515625 1.546875,-0.90625 0.125,0.703125 0.6875,0.90625 1.046875,0.90625 0.359375,0 0.640625,-0.21875 0.859375,-0.65625 0.1875,-0.40625 0.359375,-1.125 0.359375,-1.171875 0,-0.0625 -0.046875,-0.109375 -0.125,-0.109375 C 5.5625,-1.8125 5.5625,-1.75 5.515625,-1.578125 5.328125,-0.875 5.109375,-0.125 4.609375,-0.125 4.265625,-0.125 4.25,-0.4375 4.25,-0.671875 c 0,-0.046875 0,-0.296875 0.078125,-0.625 z M 3.59375,-1.421875 C 3.53125,-1.21875 3.53125,-1.1875 3.375,-0.96875 3.109375,-0.640625 2.578125,-0.125 2.015625,-0.125 1.53125,-0.125 1.25,-0.5625 1.25,-1.265625 c 0,-0.65625 0.375,-2 0.609375,-2.5 0.40625,-0.84375 0.96875,-1.265625 1.421875,-1.265625 0.796875,0 0.953125,0.984375 0.953125,1.078125 0,0.015625 -0.03125,0.15625 -0.046875,0.1875 z m 0,0"
                 id="path24629" />
            </g>
            <g
               id="g24635"
               transform="translate(6.0828061,8.302)">
              <path
                 style="stroke:none"
                 d="m 3.140625,1.34375 c -0.3125,0.453125 -0.78125,0.859375 -1.375,0.859375 C 1.625,2.203125 1.046875,2.171875 0.875,1.625 c 0.03125,0.015625 0.09375,0.015625 0.109375,0.015625 0.359375,0 0.609375,-0.3125 0.609375,-0.59375 C 1.59375,0.78125 1.359375,0.6875 1.1875,0.6875 c -0.203125,0 -0.609375,0.140625 -0.609375,0.71875 0,0.609375 0.515625,1.03125 1.1875,1.03125 C 2.96875,2.4375 4.171875,1.34375 4.5,0.015625 L 5.671875,-4.65625 C 5.6875,-4.703125 5.71875,-4.78125 5.71875,-4.859375 5.71875,-5.03125 5.5625,-5.15625 5.390625,-5.15625 5.28125,-5.15625 5.03125,-5.109375 4.9375,-4.75 L 4.046875,-1.234375 C 4,-1.015625 4,-0.984375 3.890625,-0.859375 3.65625,-0.53125 3.265625,-0.125 2.6875,-0.125 c -0.671875,0 -0.734375,-0.65625 -0.734375,-0.96875 0,-0.6875 0.328125,-1.609375 0.65625,-2.46875 0.125,-0.34375 0.203125,-0.515625 0.203125,-0.75 0,-0.5 -0.359375,-0.953125 -0.953125,-0.953125 -1.09375,0 -1.53125,1.734375 -1.53125,1.828125 0,0.046875 0.046875,0.109375 0.125,0.109375 0.109375,0 0.125,-0.046875 0.171875,-0.21875 0.28125,-1 0.734375,-1.484375 1.203125,-1.484375 0.109375,0 0.3125,0 0.3125,0.390625 0,0.3125 -0.125,0.65625 -0.3125,1.109375 C 1.25,-1.953125 1.25,-1.5625 1.25,-1.28125 1.25,-0.140625 2.0625,0.125 2.65625,0.125 3,0.125 3.4375,0.015625 3.84375,-0.4375 l 0.015625,0.015625 C 3.6875,0.28125 3.5625,0.75 3.140625,1.34375 Z m 0,0"
                 id="path24633" />
            </g>
          </g>
        </g>
      </g>
    </g>
    <g
       inkscape:label=""
       transform="matrix(0.750002,0,0,0.750002,256.62682,244.29568)"
       id="g26045"
       inkscape:export-filename="./g26045.png"
       inkscape:export-xdpi="300"
       inkscape:export-ydpi="300">
      <g
         id="g26043"
         transform="matrix(1.33333,0,0,1.33333,-0.875,0.0036672)">
        <g
           style="fill:#000000;fill-opacity:1"
           id="g44">
          <g
             id="use42"
             transform="translate(0,8.9659996)">
            <path
               style="stroke:none"
               d="m 3.359375,-8 c 0.015625,-0.046875 0.03125,-0.109375 0.03125,-0.171875 0,-0.125 -0.109375,-0.125 -0.140625,-0.125 -0.015625,0 -0.59375,0.046875 -0.65625,0.0625 C 2.390625,-8.21875 2.21875,-8.203125 2,-8.1875 c -0.296875,0.03125 -0.390625,0.03125 -0.390625,0.25 0,0.125 0.09375,0.125 0.265625,0.125 0.59375,0 0.59375,0.109375 0.59375,0.21875 0,0.078125 -0.015625,0.171875 -0.03125,0.203125 L 0.703125,-0.46875 C 0.65625,-0.28125 0.65625,-0.265625 0.65625,-0.1875 c 0,0.265625 0.203125,0.3125 0.328125,0.3125 0.203125,0 0.359375,-0.15625 0.421875,-0.296875 L 1.9375,-2.328125 C 2,-2.59375 2.0625,-2.84375 2.125,-3.109375 2.265625,-3.609375 2.265625,-3.625 2.484375,-3.96875 2.71875,-4.3125 3.25,-5.03125 4.171875,-5.03125 c 0.484375,0 0.640625,0.359375 0.640625,0.828125 0,0.671875 -0.46875,1.984375 -0.71875,2.703125 -0.109375,0.28125 -0.171875,0.4375 -0.171875,0.65625 0,0.53125 0.375,0.96875 0.9375,0.96875 1.109375,0 1.53125,-1.765625 1.53125,-1.828125 0,-0.0625 -0.046875,-0.109375 -0.109375,-0.109375 -0.109375,0 -0.125,0.03125 -0.1875,0.234375 C 5.828125,-0.625 5.375,-0.125 4.90625,-0.125 c -0.125,0 -0.3125,0 -0.3125,-0.390625 0,-0.3125 0.140625,-0.6875 0.1875,-0.828125 0.21875,-0.5625 0.75,-1.984375 0.75,-2.671875 0,-0.71875 -0.421875,-1.25 -1.328125,-1.25 -0.671875,0 -1.28125,0.3125 -1.765625,0.9375 z m 0,0"
               id="path79" />
          </g>
        </g>
        <g
           clip-path="url(#clipPath8829)"
           clip-rule="nonzero"
           id="g50">
          <g
             style="fill:#000000;fill-opacity:1"
             id="g48">
            <g
               id="use46"
               transform="translate(6.7389998,8.9659996)">
              <path
                 style="stroke:none"
                 d="m 3.890625,2.90625 c 0,-0.03125 0,-0.0625 -0.203125,-0.265625 C 2.484375,1.4375 1.8125,-0.53125 1.8125,-2.96875 c 0,-2.328125 0.5625,-4.328125 1.953125,-5.734375 0.125,-0.109375 0.125,-0.125 0.125,-0.171875 0,-0.0625 -0.0625,-0.09375 -0.109375,-0.09375 -0.15625,0 -1.140625,0.859375 -1.71875,2.03125 -0.609375,1.21875 -0.890625,2.484375 -0.890625,3.96875 0,1.0625 0.171875,2.484375 0.78125,3.75 C 2.671875,2.21875 3.640625,3 3.78125,3 3.828125,3 3.890625,2.96875 3.890625,2.90625 Z m 0,0"
                 id="path83" />
            </g>
          </g>
        </g>
        <g
           style="fill:#000000;fill-opacity:1"
           id="g54">
          <g
             id="use52"
             transform="translate(11.291,8.9659996)">
            <path
               style="stroke:none"
               d="M 4.984375,-7.296875 C 5.0625,-7.578125 5.078125,-7.6875 5.265625,-7.734375 5.359375,-7.75 5.75,-7.75 6,-7.75 c 1.203125,0 1.75,0.046875 1.75,0.96875 0,0.1875 -0.046875,0.640625 -0.109375,1.078125 L 7.625,-5.5625 c 0,0.046875 0.046875,0.125 0.125,0.125 0.109375,0 0.109375,-0.0625 0.15625,-0.25 L 8.25,-7.8125 c 0.015625,-0.09375 0.015625,-0.125 0.015625,-0.15625 0,-0.140625 -0.0625,-0.140625 -0.3125,-0.140625 h -6.53125 c -0.28125,0 -0.28125,0.015625 -0.359375,0.234375 l -0.734375,2.15625 c 0,0.015625 -0.046875,0.15625 -0.046875,0.15625 0,0.0625 0.046875,0.125 0.125,0.125 0.09375,0 0.125,-0.046875 0.171875,-0.203125 0.5,-1.453125 0.75,-2.109375 2.34375,-2.109375 H 3.71875 c 0.28125,0 0.40625,0 0.40625,0.125 0,0.03125 0,0.0625 -0.0625,0.28125 L 2.46875,-0.9375 c -0.125,0.46875 -0.15625,0.59375 -1.421875,0.59375 -0.296875,0 -0.375,0 -0.375,0.21875 0,0.125 0.125,0.125 0.1875,0.125 0.296875,0 0.609375,-0.03125 0.90625,-0.03125 h 1.875 C 3.9375,-0.03125 4.25,0 4.546875,0 4.6875,0 4.8125,0 4.8125,-0.234375 c 0,-0.109375 -0.09375,-0.109375 -0.40625,-0.109375 -1.078125,0 -1.078125,-0.109375 -1.078125,-0.296875 0,0 0,-0.09375 0.046875,-0.28125 z m 0,0"
               id="path87" />
          </g>
        </g>
        <g
           style="fill:#000000;fill-opacity:1"
           id="g26031">
          <g
             id="use56"
             transform="translate(22.434,8.9659996)">
            <path
               style="stroke:none"
               d="m 7.875,-2.75 c 0.203125,0 0.421875,0 0.421875,-0.234375 0,-0.25 -0.21875,-0.25 -0.421875,-0.25 H 1.40625 c -0.203125,0 -0.421875,0 -0.421875,0.25 0,0.234375 0.21875,0.234375 0.421875,0.234375 z m 0,0"
               id="path91" />
          </g>
        </g>
        <g
           style="fill:#000000;fill-opacity:1"
           id="g62">
          <g
             id="use60"
             transform="translate(34.389999,8.9659996)">
            <path
               style="stroke:none"
               d="M 4.984375,-7.296875 C 5.0625,-7.578125 5.078125,-7.6875 5.265625,-7.734375 5.359375,-7.75 5.75,-7.75 6,-7.75 c 1.203125,0 1.75,0.046875 1.75,0.96875 0,0.1875 -0.046875,0.640625 -0.109375,1.078125 L 7.625,-5.5625 c 0,0.046875 0.046875,0.125 0.125,0.125 0.109375,0 0.109375,-0.0625 0.15625,-0.25 L 8.25,-7.8125 c 0.015625,-0.09375 0.015625,-0.125 0.015625,-0.15625 0,-0.140625 -0.0625,-0.140625 -0.3125,-0.140625 h -6.53125 c -0.28125,0 -0.28125,0.015625 -0.359375,0.234375 l -0.734375,2.15625 c 0,0.015625 -0.046875,0.15625 -0.046875,0.15625 0,0.0625 0.046875,0.125 0.125,0.125 0.09375,0 0.125,-0.046875 0.171875,-0.203125 0.5,-1.453125 0.75,-2.109375 2.34375,-2.109375 H 3.71875 c 0.28125,0 0.40625,0 0.40625,0.125 0,0.03125 0,0.0625 -0.0625,0.28125 L 2.46875,-0.9375 c -0.125,0.46875 -0.15625,0.59375 -1.421875,0.59375 -0.296875,0 -0.375,0 -0.375,0.21875 0,0.125 0.125,0.125 0.1875,0.125 0.296875,0 0.609375,-0.03125 0.90625,-0.03125 h 1.875 C 3.9375,-0.03125 4.25,0 4.546875,0 4.6875,0 4.8125,0 4.8125,-0.234375 c 0,-0.109375 -0.09375,-0.109375 -0.40625,-0.109375 -1.078125,0 -1.078125,-0.109375 -1.078125,-0.296875 0,0 0,-0.09375 0.046875,-0.28125 z m 0,0"
               id="path95" />
          </g>
        </g>
        <g
           style="fill:#000000;fill-opacity:1"
           id="g66">
          <g
             id="use64"
             transform="translate(41.250999,10.759)">
            <path
               style="stroke:none"
               d="m 4.296875,-2.1875 c -0.46875,-0.5625 -0.53125,-0.625 -0.8125,-0.828125 -0.359375,-0.28125 -0.84375,-0.5 -1.375,-0.5 -0.96875,0 -1.640625,0.859375 -1.640625,1.796875 0,0.9375 0.65625,1.796875 1.609375,1.796875 0.65625,0 1.421875,-0.34375 2.078125,-1.328125 0.46875,0.5625 0.53125,0.625 0.8125,0.828125 0.375,0.28125 0.859375,0.5 1.375,0.5 C 7.328125,0.078125 8,-0.765625 8,-1.71875 8,-2.65625 7.328125,-3.515625 6.390625,-3.515625 c -0.65625,0 -1.421875,0.34375 -2.09375,1.328125 z m 0.25,0.296875 C 4.84375,-2.390625 5.5,-3.21875 6.4375,-3.21875 c 0.859375,0 1.328125,0.78125 1.328125,1.5 0,0.765625 -0.578125,1.375 -1.28125,1.375 -0.703125,0 -1.171875,-0.59375 -1.9375,-1.546875 z m -0.625,0.34375 c -0.296875,0.5 -0.953125,1.328125 -1.890625,1.328125 -0.859375,0 -1.34375,-0.78125 -1.34375,-1.5 0,-0.765625 0.59375,-1.359375 1.296875,-1.359375 0.703125,0 1.171875,0.578125 1.9375,1.53125 z m 0,0"
               id="path99" />
          </g>
        </g>
        <g
           clip-path="url(#clipPath3501)"
           clip-rule="nonzero"
           id="g72">
          <g
             style="fill:#000000;fill-opacity:1"
             id="g70">
            <g
               id="use68"
               transform="translate(50.216999,8.9659996)">
              <path
                 style="stroke:none"
                 d="M 3.375,-2.96875 C 3.375,-3.890625 3.25,-5.359375 2.578125,-6.75 1.875,-8.1875 0.890625,-8.96875 0.765625,-8.96875 c -0.046875,0 -0.109375,0.03125 -0.109375,0.09375 0,0.046875 0,0.0625 0.203125,0.265625 1.203125,1.203125 1.859375,3.1875 1.859375,5.625 0,2.3125 -0.5625,4.3125 -1.9375,5.71875 C 0.65625,2.84375 0.65625,2.875 0.65625,2.90625 0.65625,2.96875 0.71875,3 0.765625,3 0.921875,3 1.90625,2.140625 2.484375,0.96875 3.09375,-0.25 3.375,-1.546875 3.375,-2.96875 Z m 0,0"
                 id="path103" />
            </g>
          </g>
        </g>
      </g>
    </g>
  </g>
</svg>
