<?xml version="1.0" encoding="UTF-8" standalone="no"?>
<!-- Created with Inkscape (http://www.inkscape.org/) -->

<svg
   width="210mm"
   height="297mm"
   viewBox="0 0 210 297"
   version="1.1"
   id="svg9419"
   sodipodi:docname="kanat.svg"
   inkscape:version="1.2.2 (b0a8486, 2022-12-01)"
   inkscape:export-filename="kanat.svg"
   inkscape:export-xdpi="900"
   inkscape:export-ydpi="900"
   xmlns:inkscape="http://www.inkscape.org/namespaces/inkscape"
   xmlns:sodipodi="http://sodipodi.sourceforge.net/DTD/sodipodi-0.dtd"
   xmlns:xlink="http://www.w3.org/1999/xlink"
   xmlns="http://www.w3.org/2000/svg"
   xmlns:svg="http://www.w3.org/2000/svg">
  <sodipodi:namedview
     id="namedview9421"
     pagecolor="#ffffff"
     bordercolor="#666666"
     borderopacity="1.0"
     inkscape:showpageshadow="2"
     inkscape:pageopacity="0.0"
     inkscape:pagecheckerboard="0"
     inkscape:deskcolor="#d1d1d1"
     inkscape:document-units="mm"
     showgrid="false"
     inkscape:zoom="1.5144501"
     inkscape:cx="378.02501"
     inkscape:cy="458.58231"
     inkscape:window-width="1860"
     inkscape:window-height="1016"
     inkscape:window-x="60"
     inkscape:window-y="27"
     inkscape:window-maximized="1"
     inkscape:current-layer="layer1" />
  <defs
     id="defs9416">
    <linearGradient
       id="linearGradient20877">
      <stop
         style="stop-color:#ffaaaa;stop-opacity:1;"
         offset="0"
         id="stop20881" />
      <stop
         style="stop-color:#aac2ff;stop-opacity:0;"
         offset="1"
         id="stop20883" />
    </linearGradient>
    <pattern
       inkscape:collect="always"
       patternUnits="userSpaceOnUse"
       width="11"
       height="1"
       patternTransform="translate(0,0) scale(10,10)"
       id="Strips1_10"
       inkscape:stockid="Stripes 1:10">
      <rect
         style="fill:black;stroke:none"
         x="0"
         y="-0.5"
         width="1"
         height="2"
         id="rect19754" />
    </pattern>
    <clipPath
       id="clipPath7398">
      <path
         clip-rule="nonzero"
         d="m 2,8 h 3 v 2.335938 H 2 Z m 0,0"
         id="path4630" />
    </clipPath>
    <clipPath
       id="clipPath7176">
      <path
         clip-rule="nonzero"
         d="m 5,11 h 4 v 1.992188 H 5 Z m 0,0"
         id="path3255" />
    </clipPath>
    <clipPath
       id="clipPath5001">
      <path
         clip-rule="nonzero"
         d="M 4,2 H 35.503906 V 12 H 4 Z m 0,0"
         id="path5444" />
    </clipPath>
    <clipPath
       id="clipPath1402">
      <path
         clip-rule="nonzero"
         d="M 0,0 H 31.863281 V 8.167969 H 0 Z m 0,0"
         id="path982" />
    </clipPath>
    <clipPath
       id="clipPath4406">
      <path
         clip-rule="nonzero"
         d="M 0,0 H 7.964844 V 8.167969 H 0 Z m 0,0"
         id="path2050" />
    </clipPath>
    <clipPath
       id="clipPath22">
      <path
         clip-rule="nonzero"
         d="M 0,0 H 7.894531 V 8.167969 H 0 Z m 0,0"
         id="path1330" />
    </clipPath>
    <clipPath
       id="clipPath9191">
      <path
         clip-rule="nonzero"
         d="M 0,0 H 8.773438 V 8.167969 H 0 Z m 0,0"
         id="path4314" />
    </clipPath>
    <linearGradient
       inkscape:collect="always"
       xlink:href="#linearGradient20877"
       id="linearGradient20879"
       x1="69.38942"
       y1="116.98077"
       x2="172.17412"
       y2="116.98077"
       gradientUnits="userSpaceOnUse" />
  </defs>
  <g
     inkscape:label="Layer 1"
     inkscape:groupmode="layer"
     id="layer1">
    <rect
       style="fill:#ffaaaa;stroke:#000000;stroke-width:0.181921"
       id="rect9592"
       width="29.153381"
       height="86.882767"
       x="40.17947"
       y="70.871536" />
    <rect
       style="fill:url(#linearGradient20879);stroke:#000000;stroke-width:0.264999;fill-opacity:1.0"
       id="rect9594"
       width="102.5197"
       height="10.465696"
       x="69.521919"
       y="111.74792" />
    <g
       inkscape:label=""
       transform="translate(111.74658,162.77478)"
       id="g10400">
      <g
         fill="#000000"
         fill-opacity="1"
         id="g33"
         transform="matrix(0.352778,0,0,0.352778,-0.225998,0.0422892)">
        <g
           id="use31"
           transform="translate(0,8.302)">
          <path
             d="M 2.484375,-4.984375 C 1.875,-5.140625 1.34375,-5.734375 1.34375,-6.5 c 0,-0.84375 0.671875,-1.59375 1.59375,-1.59375 1.96875,0 2.21875,1.9375 2.296875,2.453125 0.03125,0.140625 0.03125,0.1875 0.140625,0.1875 0.140625,0 0.140625,-0.0625 0.140625,-0.265625 v -2.421875 c 0,-0.21875 0,-0.28125 -0.125,-0.28125 -0.03125,0 -0.078125,0 -0.171875,0.15625 L 4.828125,-7.53125 C 4.25,-8.265625 3.46875,-8.421875 2.9375,-8.421875 c -1.328125,0 -2.296875,1.078125 -2.296875,2.296875 0,0.5625 0.203125,1.09375 0.65625,1.578125 0.40625,0.453125 0.828125,0.5625 1.671875,0.78125 0.421875,0.09375 1.078125,0.265625 1.25,0.328125 0.5625,0.28125 0.9375,0.921875 0.9375,1.59375 0,0.90625 -0.640625,1.75 -1.625,1.75 -0.546875,0 -1.28125,-0.140625 -1.875,-0.640625 -0.6875,-0.625 -0.734375,-1.484375 -0.75,-1.890625 -0.015625,-0.09375 -0.109375,-0.09375 -0.125,-0.09375 -0.140625,0 -0.140625,0.0625 -0.140625,0.28125 v 2.40625 c 0,0.21875 0,0.28125 0.125,0.28125 C 0.84375,0.25 0.84375,0.234375 0.9375,0.078125 0.984375,-0.015625 1.234375,-0.453125 1.328125,-0.640625 1.75,-0.15625 2.515625,0.25 3.53125,0.25 4.875,0.25 5.84375,-0.890625 5.84375,-2.203125 5.84375,-2.921875 5.5625,-3.46875 5.25,-3.859375 4.8125,-4.40625 4.265625,-4.53125 3.796875,-4.65625 Z m 0,0"
             id="path59" />
        </g>
      </g>
      <g
         clip-path="url(#clipPath7398)"
         id="g39"
         transform="matrix(0.352778,0,0,0.352778,-0.225998,0.0422892)">
        <g
           fill="#000000"
           fill-opacity="1"
           id="g37">
          <g
             id="use35"
             transform="translate(0.64558101,8.302)">
            <path
               d="M 3.3125,0.25 H 2.53125 V 0.84375 C 3.125,0.84375 3.5,1.109375 3.5,1.5 3.5,1.859375 3.234375,2.15625 1.90625,2.15625 H 1.546875 v 0.25 H 2.0625 C 3.375,2.40625 4.28125,2.203125 4.28125,1.5 4.28125,0.84375 3.484375,0.6875 3.3125,0.65625 Z m 0,0"
               id="path63" />
          </g>
        </g>
      </g>
      <g
         fill="#000000"
         fill-opacity="1"
         id="g49"
         transform="matrix(0.352778,0,0,0.352778,-0.225998,0.0422892)">
        <g
           id="use41"
           transform="translate(6.5060201,8.302)">
          <path
             d="m 4.578125,-2.765625 c 0.265625,0 0.28125,0 0.28125,-0.234375 0,-1.203125 -0.640625,-2.328125 -2.09375,-2.328125 -1.359375,0 -2.40625,1.234375 -2.40625,2.703125 0,1.578125 1.21875,2.75 2.546875,2.75 1.421875,0 1.953125,-1.296875 1.953125,-1.546875 0,-0.078125 -0.046875,-0.125 -0.125,-0.125 -0.09375,0 -0.125,0.0625 -0.140625,0.125 -0.3125,1 -1.109375,1.28125 -1.625,1.28125 -0.5,0 -1.703125,-0.34375 -1.703125,-2.40625 v -0.21875 z M 1.28125,-3 c 0.09375,-1.875 1.140625,-2.09375 1.484375,-2.09375 1.28125,0 1.34375,1.6875 1.359375,2.09375 z m 0,0"
             id="path67" />
        </g>
        <g
           id="use43"
           transform="translate(11.708923,8.302)">
          <path
             d="m 3.34375,-3.171875 c 0,0 -0.078125,-0.109375 -0.078125,-0.109375 0,-0.046875 0.75,-0.6875 0.84375,-0.78125 C 4.9375,-4.78125 5.46875,-4.796875 5.71875,-4.8125 V -5.15625 C 5.46875,-5.125 5.15625,-5.125 4.8125,-5.125 c -0.3125,0 -0.921875,0 -1.203125,-0.03125 v 0.34375 c 0.203125,0.015625 0.34375,0.125 0.34375,0.3125 0,0.25 -0.234375,0.453125 -0.25,0.453125 L 2,-2.53125 V -8.296875 L 0.328125,-8.15625 v 0.34375 c 0.8125,0 0.921875,0.078125 0.921875,0.671875 v 6.25 c 0,0.546875 -0.140625,0.546875 -0.921875,0.546875 V 0 c 0.34375,-0.03125 0.921875,-0.03125 1.28125,-0.03125 0.34375,0 0.921875,0 1.265625,0.03125 v -0.34375 c -0.765625,0 -0.921875,0 -0.921875,-0.546875 V -2.15625 L 2.71875,-2.828125 3.875,-1.171875 c 0.171875,0.25 0.265625,0.390625 0.265625,0.546875 0,0.21875 -0.171875,0.28125 -0.421875,0.28125 V 0 c 0.296875,-0.03125 0.890625,-0.03125 1.203125,-0.03125 0.515625,0 0.546875,0 1.046875,0.03125 v -0.34375 c -0.3125,0 -0.6875,0 -1.015625,-0.5 z m 0,0"
             id="path71" />
        </g>
        <g
           id="use45"
           transform="translate(17.887369,8.302)">
          <path
             d="m 2.078125,-7.359375 c 0,-0.3125 -0.25,-0.59375 -0.578125,-0.59375 -0.3125,0 -0.578125,0.25 -0.578125,0.578125 0,0.359375 0.28125,0.578125 0.578125,0.578125 0.359375,0 0.578125,-0.296875 0.578125,-0.5625 z M 0.4375,-5.140625 v 0.34375 c 0.75,0 0.859375,0.078125 0.859375,0.65625 v 3.25 c 0,0.546875 -0.125,0.546875 -0.90625,0.546875 V 0 c 0.34375,-0.03125 0.90625,-0.03125 1.265625,-0.03125 0.125,0 0.8125,0 1.21875,0.03125 v -0.34375 c -0.765625,0 -0.8125,-0.0625 -0.8125,-0.53125 v -4.390625 z m 0,0"
             id="path75" />
        </g>
        <g
           id="use47"
           transform="translate(21.139185,8.302)">
          <path
             d="M 2.0625,-8.296875 0.390625,-8.15625 v 0.34375 c 0.8125,0 0.90625,0.078125 0.90625,0.671875 v 6.25 c 0,0.546875 -0.125,0.546875 -0.90625,0.546875 V 0 c 0.34375,-0.03125 0.921875,-0.03125 1.28125,-0.03125 0.359375,0 0.953125,0 1.296875,0.03125 v -0.34375 c -0.765625,0 -0.90625,0 -0.90625,-0.546875 z m 0,0"
             id="path79" />
        </g>
      </g>
      <g
         fill="#000000"
         fill-opacity="1"
         id="g53"
         transform="matrix(0.352778,0,0,0.352778,-0.225998,0.0422892)">
        <g
           id="use51"
           transform="translate(28.288395,8.302)">
          <path
             d="m 3.4375,-7.65625 c 0,-0.28125 0,-0.296875 -0.234375,-0.296875 C 2.921875,-7.625 2.3125,-7.1875 1.09375,-7.1875 v 0.34375 c 0.265625,0 0.859375,0 1.53125,-0.296875 v 6.21875 c 0,0.4375 -0.046875,0.578125 -1.09375,0.578125 h -0.375 V 0 c 0.328125,-0.03125 1.484375,-0.03125 1.875,-0.03125 0.40625,0 1.546875,0 1.875,0.03125 v -0.34375 h -0.375 c -1.046875,0 -1.09375,-0.140625 -1.09375,-0.578125 z m 0,0"
             id="path83" />
        </g>
      </g>
    </g>
    <g
       inkscape:label=""
       transform="translate(49.6693,113.59251)"
       id="g11242">
      <g
         fill="#000000"
         fill-opacity="1"
         id="g42"
         transform="matrix(0.352778,0,0,0.352778,-0.15434,0.00639412)">
        <g
           id="use40"
           transform="translate(0.486,7.9349999)">
          <path
             d="m 2.203125,-7.359375 c 0,-0.359375 -0.296875,-0.59375 -0.578125,-0.59375 -0.328125,0 -0.578125,0.265625 -0.578125,0.59375 0,0.3125 0.25,0.5625 0.5625,0.5625 0.359375,0 0.59375,-0.28125 0.59375,-0.5625 z m 0,0"
             id="path74" />
        </g>
      </g>
      <g
         fill="#000000"
         fill-opacity="1"
         id="g46"
         transform="matrix(0.352778,0,0,0.352778,-0.15434,0.00639412)">
        <g
           id="use44"
           transform="translate(0,10.957)">
          <path
             d="m 2.59375,-7.25 c 0,-0.453125 0.03125,-0.5625 0.9375,-0.5625 H 3.796875 V -8.15625 C 3.5,-8.140625 2.46875,-8.140625 2.109375,-8.140625 c -0.359375,0 -1.390625,0 -1.671875,-0.015625 v 0.34375 h 0.25 c 0.90625,0 0.9375,0.109375 0.9375,0.5625 v 6.34375 c 0,0.4375 -0.03125,0.5625 -0.9375,0.5625 h -0.25 V 0 c 0.28125,-0.03125 1.3125,-0.03125 1.671875,-0.03125 0.359375,0 1.390625,0 1.6875,0.03125 V -0.34375 H 3.53125 c -0.90625,0 -0.9375,-0.125 -0.9375,-0.5625 z m 0,0"
             id="path78" />
        </g>
      </g>
      <g
         clip-path="url(#clipPath7176)"
         id="g52"
         transform="matrix(0.352778,0,0,0.352778,-0.15434,0.00639412)">
        <g
           fill="#000000"
           fill-opacity="1"
           id="g50">
          <g
             id="use48"
             transform="translate(3.935652,10.957)">
            <path
               d="M 3.3125,0.25 H 2.53125 V 0.84375 C 3.125,0.84375 3.5,1.109375 3.5,1.5 3.5,1.859375 3.234375,2.15625 1.90625,2.15625 H 1.546875 v 0.25 H 2.0625 C 3.375,2.40625 4.28125,2.203125 4.28125,1.5 4.28125,0.84375 3.484375,0.6875 3.3125,0.65625 Z m 0,0"
               id="path82" />
          </g>
        </g>
      </g>
      <g
         clip-path="url(#clipPath5001)"
         id="g68"
         transform="matrix(0.352778,0,0,0.352778,-0.15434,0.00639412)">
        <g
           fill="#000000"
           fill-opacity="1"
           id="g66">
          <g
             id="use54"
             transform="translate(4.224968,10.957)">
            <path
               d="m 3.921875,-5.0625 c 0,-0.203125 0,-0.265625 -0.125,-0.265625 -0.09375,0 -0.3125,0.265625 -0.40625,0.375 -0.359375,-0.3125 -0.734375,-0.375 -1.125,-0.375 -1.4375,0 -1.875,0.78125 -1.875,1.4375 0,0.140625 0,0.5625 0.453125,0.96875 0.390625,0.34375 0.796875,0.421875 1.34375,0.53125 0.65625,0.125 0.8125,0.171875 1.109375,0.40625 0.21875,0.171875 0.375,0.4375 0.375,0.78125 C 3.671875,-0.6875 3.375,-0.125 2.3125,-0.125 1.53125,-0.125 0.953125,-0.578125 0.6875,-1.765625 0.640625,-1.984375 0.640625,-2 0.640625,-2.015625 0.609375,-2.0625 0.5625,-2.0625 0.53125,-2.0625 0.390625,-2.0625 0.390625,-2 0.390625,-1.78125 v 1.625 c 0,0.21875 0,0.28125 0.125,0.28125 0.0625,0 0.0625,-0.015625 0.265625,-0.265625 C 0.84375,-0.234375 0.84375,-0.25 1.03125,-0.4375 1.484375,0.125 2.125,0.125 2.328125,0.125 c 1.25,0 1.875,-0.703125 1.875,-1.640625 0,-0.640625 -0.390625,-1.03125 -0.5,-1.140625 -0.421875,-0.375 -0.75,-0.4375 -1.546875,-0.578125 -0.34375,-0.078125 -1.21875,-0.25 -1.21875,-0.96875 0,-0.359375 0.25,-0.90625 1.328125,-0.90625 1.296875,0 1.375,1.109375 1.390625,1.46875 0.015625,0.109375 0.09375,0.109375 0.140625,0.109375 0.125,0 0.125,-0.0625 0.125,-0.28125 z m 0,0"
               id="path86" />
          </g>
          <g
             id="use56"
             transform="translate(8.8420658,10.957)">
            <path
               d="M 2.0625,-8.296875 0.390625,-8.15625 v 0.34375 c 0.8125,0 0.90625,0.078125 0.90625,0.671875 v 6.25 c 0,0.546875 -0.125,0.546875 -0.90625,0.546875 V 0 c 0.34375,-0.03125 0.921875,-0.03125 1.28125,-0.03125 0.359375,0 0.953125,0 1.296875,0.03125 v -0.34375 c -0.765625,0 -0.90625,0 -0.90625,-0.546875 z m 0,0"
               id="path90" />
          </g>
          <g
             id="use58"
             transform="translate(12.09388,10.957)">
            <path
               d="m 4.578125,-2.765625 c 0.265625,0 0.28125,0 0.28125,-0.234375 0,-1.203125 -0.640625,-2.328125 -2.09375,-2.328125 -1.359375,0 -2.40625,1.234375 -2.40625,2.703125 0,1.578125 1.21875,2.75 2.546875,2.75 1.421875,0 1.953125,-1.296875 1.953125,-1.546875 0,-0.078125 -0.046875,-0.125 -0.125,-0.125 -0.09375,0 -0.125,0.0625 -0.140625,0.125 -0.3125,1 -1.109375,1.28125 -1.625,1.28125 -0.5,0 -1.703125,-0.34375 -1.703125,-2.40625 v -0.21875 z M 1.28125,-3 c 0.09375,-1.875 1.140625,-2.09375 1.484375,-2.09375 1.28125,0 1.34375,1.6875 1.359375,2.09375 z m 0,0"
               id="path94" />
          </g>
          <g
             id="use60"
             transform="translate(17.296783,10.957)">
            <path
               d="m 8.578125,-2.90625 c 0,-1.109375 0,-1.4375 -0.28125,-1.828125 -0.34375,-0.46875 -0.90625,-0.53125 -1.3125,-0.53125 -1,0 -1.5,0.71875 -1.6875,1.171875 -0.171875,-0.921875 -0.8125,-1.171875 -1.5625,-1.171875 -1.171875,0 -1.625,0.984375 -1.71875,1.21875 v -1.21875 l -1.640625,0.125 v 0.34375 c 0.8125,0 0.921875,0.09375 0.921875,0.671875 v 3.234375 c 0,0.546875 -0.140625,0.546875 -0.921875,0.546875 V 0 c 0.3125,-0.03125 0.96875,-0.03125 1.296875,-0.03125 0.34375,0 1,0 1.296875,0.03125 v -0.34375 c -0.75,0 -0.90625,0 -0.90625,-0.546875 v -2.21875 c 0,-1.25 0.828125,-1.921875 1.578125,-1.921875 0.734375,0 0.90625,0.609375 0.90625,1.34375 v 2.796875 c 0,0.546875 -0.140625,0.546875 -0.90625,0.546875 V 0 c 0.296875,-0.03125 0.953125,-0.03125 1.28125,-0.03125 0.34375,0 1,0 1.3125,0.03125 v -0.34375 c -0.765625,0 -0.921875,0 -0.921875,-0.546875 v -2.21875 c 0,-1.25 0.828125,-1.921875 1.578125,-1.921875 0.734375,0 0.90625,0.609375 0.90625,1.34375 v 2.796875 c 0,0.546875 -0.140625,0.546875 -0.90625,0.546875 V 0 c 0.3125,-0.03125 0.953125,-0.03125 1.28125,-0.03125 0.34375,0 1,0 1.3125,0.03125 v -0.34375 c -0.609375,0 -0.90625,0 -0.90625,-0.359375 z m 0,0"
               id="path98" />
          </g>
          <g
             id="use62"
             transform="translate(27.052227,10.957)">
            <path
               d="m 4.328125,-4.421875 c -0.140625,0 -0.59375,0 -0.59375,0.484375 0,0.296875 0.203125,0.5 0.5,0.5 0.265625,0 0.5,-0.171875 0.5,-0.515625 0,-0.796875 -0.84375,-1.375 -1.8125,-1.375 -1.390625,0 -2.5,1.234375 -2.5,2.75 0,1.53125 1.140625,2.703125 2.5,2.703125 1.578125,0 1.9375,-1.4375 1.9375,-1.546875 0,-0.109375 -0.09375,-0.109375 -0.125,-0.109375 -0.109375,0 -0.125,0.03125 -0.15625,0.1875 C 4.3125,-0.5 3.671875,-0.140625 3.03125,-0.140625 c -0.734375,0 -1.703125,-0.640625 -1.703125,-2.453125 0,-1.984375 1.015625,-2.46875 1.609375,-2.46875 0.453125,0 1.109375,0.171875 1.390625,0.640625 z m 0,0"
               id="path102" />
          </g>
          <g
             id="use64"
             transform="translate(32.255131,10.957)">
            <path
               d="m 2.078125,-7.359375 c 0,-0.3125 -0.25,-0.59375 -0.578125,-0.59375 -0.3125,0 -0.578125,0.25 -0.578125,0.578125 0,0.359375 0.28125,0.578125 0.578125,0.578125 0.359375,0 0.578125,-0.296875 0.578125,-0.5625 z M 0.4375,-5.140625 v 0.34375 c 0.75,0 0.859375,0.078125 0.859375,0.65625 v 3.25 c 0,0.546875 -0.125,0.546875 -0.90625,0.546875 V 0 c 0.34375,-0.03125 0.90625,-0.03125 1.265625,-0.03125 0.125,0 0.8125,0 1.21875,0.03125 v -0.34375 c -0.765625,0 -0.8125,-0.0625 -0.8125,-0.53125 v -4.390625 z m 0,0"
               id="path106" />
          </g>
        </g>
      </g>
    </g>
    <g
       inkscape:label=""
       transform="translate(115.21469,105.60929)"
       id="g12135">
      <g
         clip-path="url(#clipPath1402)"
         id="g34"
         transform="matrix(0.352778,0,0,0.352778,-0.170877,-0.0044978)">
        <g
           fill="#000000"
           fill-opacity="1"
           id="g32">
          <g
             id="use22"
             transform="translate(0,8.1689997)">
            <path
               d="m 4.671875,-5.015625 c 0.1875,-0.1875 0.640625,-0.625 0.84375,-0.8125 C 7.15625,-7.453125 7.5,-7.796875 8.4375,-7.8125 v -0.34375 c -0.34375,0.015625 -0.484375,0.015625 -1.03125,0.015625 -0.3125,0 -1.015625,0 -1.28125,-0.015625 v 0.34375 c 0.25,0 0.46875,0.109375 0.46875,0.375 0,0.1875 -0.09375,0.296875 -0.359375,0.546875 L 2.59375,-3.375 v -3.859375 c 0,-0.578125 0.125,-0.578125 1.140625,-0.578125 v -0.34375 c -0.296875,0.015625 -1.265625,0.015625 -1.625,0.015625 -0.359375,0 -1.328125,0 -1.625,-0.015625 v 0.34375 c 1.015625,0 1.140625,0 1.140625,0.578125 V -0.9375 c 0,0.59375 -0.125,0.59375 -1.140625,0.59375 V 0 c 0.296875,-0.03125 1.265625,-0.03125 1.625,-0.03125 0.359375,0 1.328125,0 1.625,0.03125 v -0.34375 c -1.015625,0 -1.140625,0 -1.140625,-0.59375 v -2.078125 l 1.421875,-1.375 2.21875,3.3125 C 6.28125,-1 6.328125,-0.921875 6.34375,-0.859375 6.375,-0.8125 6.390625,-0.75 6.390625,-0.6875 c 0,0.34375 -0.4375,0.34375 -0.625,0.34375 V 0 c 0.28125,-0.03125 1.15625,-0.03125 1.5,-0.03125 0.3125,0 0.90625,0 1.328125,0.03125 v -0.34375 c -0.640625,0 -0.84375,-0.0625 -1.234375,-0.640625 z m 0,0"
               id="path40" />
          </g>
          <g
             id="use24"
             transform="translate(9.1002979,8.1689997)">
            <path
               d="m 4.609375,-3.1875 c 0,-0.65625 0,-1.125 -0.515625,-1.59375 C 3.671875,-5.15625 3.125,-5.328125 2.609375,-5.328125 1.625,-5.328125 0.875,-4.6875 0.875,-3.90625 c 0,0.34375 0.21875,0.515625 0.5,0.515625 0.28125,0 0.484375,-0.203125 0.484375,-0.5 C 1.859375,-4.375 1.4375,-4.375 1.25,-4.375 c 0.28125,-0.5 0.859375,-0.71875 1.328125,-0.71875 0.546875,0 1.265625,0.453125 1.265625,1.53125 v 0.484375 c -2.40625,0.03125 -3.3125,1.03125 -3.3125,1.953125 0,0.953125 1.09375,1.25 1.828125,1.25 0.78125,0 1.328125,-0.484375 1.546875,-1.0625 0.046875,0.5625 0.421875,1 0.9375,1 0.25,0 0.9375,-0.171875 0.9375,-1.125 V -1.734375 H 5.515625 V -1.0625 c 0,0.6875 -0.28125,0.78125 -0.453125,0.78125 -0.453125,0 -0.453125,-0.640625 -0.453125,-0.8125 z m -0.765625,1.5 c 0,1.171875 -0.875,1.5625 -1.390625,1.5625 -0.59375,0 -1.078125,-0.421875 -1.078125,-1 0,-1.578125 2.03125,-1.71875 2.46875,-1.75 z m 0,0"
               id="path44" />
          </g>
          <g
             id="use26"
             transform="translate(14.953564,8.1689997)">
            <path
               d="m 5.3125,-2.90625 c 0,-1.109375 0,-1.4375 -0.265625,-1.828125 -0.34375,-0.46875 -0.90625,-0.53125 -1.3125,-0.53125 -1.171875,0 -1.625,0.984375 -1.71875,1.21875 v -1.21875 l -1.640625,0.125 v 0.34375 c 0.8125,0 0.921875,0.09375 0.921875,0.671875 v 3.234375 c 0,0.546875 -0.140625,0.546875 -0.921875,0.546875 V 0 c 0.3125,-0.03125 0.96875,-0.03125 1.296875,-0.03125 0.34375,0 1,0 1.296875,0.03125 v -0.34375 c -0.75,0 -0.90625,0 -0.90625,-0.546875 v -2.21875 c 0,-1.25 0.828125,-1.921875 1.578125,-1.921875 0.734375,0 0.90625,0.609375 0.90625,1.34375 v 2.796875 c 0,0.546875 -0.140625,0.546875 -0.90625,0.546875 V 0 c 0.296875,-0.03125 0.953125,-0.03125 1.28125,-0.03125 0.34375,0 1,0 1.3125,0.03125 v -0.34375 c -0.609375,0 -0.90625,0 -0.921875,-0.359375 z m 0,0"
               id="path48" />
          </g>
          <g
             id="use28"
             transform="translate(21.457193,8.1689997)">
            <path
               d="m 4.609375,-3.1875 c 0,-0.65625 0,-1.125 -0.515625,-1.59375 C 3.671875,-5.15625 3.125,-5.328125 2.609375,-5.328125 1.625,-5.328125 0.875,-4.6875 0.875,-3.90625 c 0,0.34375 0.21875,0.515625 0.5,0.515625 0.28125,0 0.484375,-0.203125 0.484375,-0.5 C 1.859375,-4.375 1.4375,-4.375 1.25,-4.375 c 0.28125,-0.5 0.859375,-0.71875 1.328125,-0.71875 0.546875,0 1.265625,0.453125 1.265625,1.53125 v 0.484375 c -2.40625,0.03125 -3.3125,1.03125 -3.3125,1.953125 0,0.953125 1.09375,1.25 1.828125,1.25 0.78125,0 1.328125,-0.484375 1.546875,-1.0625 0.046875,0.5625 0.421875,1 0.9375,1 0.25,0 0.9375,-0.171875 0.9375,-1.125 V -1.734375 H 5.515625 V -1.0625 c 0,0.6875 -0.28125,0.78125 -0.453125,0.78125 -0.453125,0 -0.453125,-0.640625 -0.453125,-0.8125 z m -0.765625,1.5 c 0,1.171875 -0.875,1.5625 -1.390625,1.5625 -0.59375,0 -1.078125,-0.421875 -1.078125,-1 0,-1.578125 2.03125,-1.71875 2.46875,-1.75 z m 0,0"
               id="path52" />
          </g>
          <g
             id="use30"
             transform="translate(27.310459,8.1689997)">
            <path
               d="M 2.015625,-4.8125 H 3.6875 V -5.15625 H 2.015625 v -2.1875 H 1.75 C 1.734375,-6.234375 1.296875,-5.078125 0.21875,-5.046875 V -4.8125 h 1.015625 v 3.328125 c 0,1.328125 0.875,1.609375 1.515625,1.609375 0.75,0 1.140625,-0.75 1.140625,-1.609375 V -2.15625 h -0.25 V -1.5 c 0,0.859375 -0.359375,1.359375 -0.8125,1.359375 -0.8125,0 -0.8125,-1.109375 -0.8125,-1.3125 z m 0,0"
               id="path56" />
          </g>
        </g>
      </g>
    </g>
    <g
       inkscape:label=""
       transform="translate(118.53246,124.93962)"
       id="g12310">
      <g
         clip-path="url(#clipPath4406)"
         id="g17"
         transform="matrix(0.352778,0,0,0.352778,-0.192925,-0.0044978)">
        <g
           fill="#000000"
           fill-opacity="1"
           id="g15">
          <g
             id="use13"
             transform="translate(0,8.1689997)">
            <path
               d="M 4.390625,-7.25 C 4.5,-7.703125 4.53125,-7.8125 5.578125,-7.8125 c 0.328125,0 0.40625,0 0.40625,-0.234375 0,-0.109375 -0.125,-0.109375 -0.171875,-0.109375 -0.25,0 -0.515625,0.015625 -0.75,0.015625 H 3.453125 c -0.21875,0 -0.484375,-0.015625 -0.71875,-0.015625 -0.09375,0 -0.21875,0 -0.21875,0.21875 0,0.125 0.109375,0.125 0.28125,0.125 0.734375,0 0.734375,0.09375 0.734375,0.21875 0,0.03125 0,0.09375 -0.046875,0.28125 l -1.625,6.421875 C 1.75,-0.46875 1.734375,-0.34375 0.890625,-0.34375 c -0.21875,0 -0.34375,0 -0.34375,0.21875 C 0.546875,0 0.625,0 0.859375,0 H 6.21875 C 6.484375,0 6.484375,-0.015625 6.578125,-0.234375 L 7.5,-2.765625 c 0.015625,-0.0625 0.046875,-0.140625 0.046875,-0.171875 0,-0.078125 -0.0625,-0.125 -0.125,-0.125 -0.015625,0 -0.078125,0 -0.09375,0.046875 C 7.296875,-3 7.296875,-2.96875 7.203125,-2.75 c -0.375,1.046875 -0.921875,2.40625 -2.9375,2.40625 H 3.125 c -0.171875,0 -0.203125,0 -0.265625,-0.015625 C 2.71875,-0.375 2.71875,-0.390625 2.71875,-0.484375 c 0,-0.09375 0.015625,-0.15625 0.046875,-0.265625 z m 0,0"
               id="path23" />
          </g>
        </g>
      </g>
    </g>
    <g
       inkscape:label=""
       transform="translate(190.67549,115.90413)"
       id="g14146">
      <g
         clip-path="url(#clipPath9191)"
         id="g14144"
         transform="matrix(0.352778,0,0,0.352778,-0.143316,0.127794)">
        <g
           fill="#000000"
           fill-opacity="1"
           id="g14142">
          <g
             id="g14140"
             transform="translate(0,8.1689997)">
            <path
               d="M 2.03125,-1.328125 C 1.609375,-0.625 1.203125,-0.375 0.640625,-0.34375 0.5,-0.328125 0.40625,-0.328125 0.40625,-0.125 c 0,0.078125 0.0625,0.125 0.140625,0.125 0.21875,0 0.75,-0.03125 0.96875,-0.03125 C 1.859375,-0.03125 2.25,0 2.578125,0 c 0.078125,0 0.21875,0 0.21875,-0.234375 0,-0.09375 -0.09375,-0.109375 -0.171875,-0.109375 -0.265625,-0.03125 -0.5,-0.125 -0.5,-0.40625 0,-0.171875 0.078125,-0.296875 0.234375,-0.5625 l 0.90625,-1.515625 H 6.3125 c 0.015625,0.109375 0.015625,0.203125 0.015625,0.3125 0.046875,0.3125 0.1875,1.5625 0.1875,1.78125 0,0.359375 -0.609375,0.390625 -0.796875,0.390625 -0.140625,0 -0.265625,0 -0.265625,0.21875 C 5.453125,0 5.5625,0 5.625,0 5.828125,0 6.078125,-0.03125 6.28125,-0.03125 H 6.953125 C 7.6875,-0.03125 8.21875,0 8.21875,0 8.3125,0 8.4375,0 8.4375,-0.234375 8.4375,-0.34375 8.328125,-0.34375 8.15625,-0.34375 7.5,-0.34375 7.484375,-0.453125 7.453125,-0.8125 L 6.71875,-8.265625 c -0.03125,-0.25 -0.078125,-0.265625 -0.203125,-0.265625 -0.125,0 -0.1875,0.015625 -0.296875,0.203125 z M 3.46875,-3.171875 5.875,-7.1875 6.28125,-3.171875 Z m 0,0"
               id="path14138" />
          </g>
        </g>
      </g>
    </g>
    <circle
       style="fill:url(#Strips1_10);stroke:#000000;stroke-width:0.264999;fill-opacity:1.0"
       id="path14572"
       cx="183.88094"
       cy="117.26221"
       r="4.8616943" />
    <path
       style="fill:none;stroke:#000000;stroke-width:0.264583px;stroke-linecap:butt;stroke-linejoin:miter;stroke-opacity:1"
       d="m 179.11598,117.94328 7.53371,-4.71131"
       id="path20763"
       sodipodi:nodetypes="cc" />
    <path
       style="fill:none;stroke:#000000;stroke-width:0.264583px;stroke-linecap:butt;stroke-linejoin:miter;stroke-opacity:1"
       d="m 179.66177,119.83561 8.20988,-5.2642"
       id="path20763-0"
       sodipodi:nodetypes="cc" />
    <path
       style="fill:none;stroke:#000000;stroke-width:0.264583px;stroke-linecap:butt;stroke-linejoin:miter;stroke-opacity:1"
       d="m 180.97954,121.25395 7.62687,-4.88905"
       id="path20763-0-6"
       sodipodi:nodetypes="cc" />
    <path
       style="fill:none;stroke:#000000;stroke-width:0.264583px;stroke-linecap:butt;stroke-linejoin:miter;stroke-opacity:1"
       d="m 182.93758,122.03609 5.67793,-3.46601"
       id="path20763-0-6-2"
       sodipodi:nodetypes="cc" />
    <path
       style="fill:none;stroke:#000000;stroke-width:0.264583px;stroke-linecap:butt;stroke-linejoin:miter;stroke-opacity:1"
       d="m 179.30365,115.82119 5.24986,-3.38513"
       id="path20763-0-6-2-6"
       sodipodi:nodetypes="cc" />
  </g>
</svg>
